<svg   width="36" height="35" viewBox="0 0 36 35" fill="none" xmlns="http://www.w3.org/2000/svg">
<path d="M19.6028 28.5383L14.9491 23.8847C13.6892 22.6247 14.5815 20.4705 16.3633 20.4705H31.4707C33.1276 20.4705 34.4707 19.1273 34.4707 17.4705C34.4707 15.8136 33.1275 14.4705 31.4707 14.4705H16.3633C14.5815 14.4705 13.6892 12.3162 14.9491 11.0562L19.6028 6.40262C20.7807 5.22466 20.7722 3.31222 19.5839 2.14473C18.4104 0.991767 16.5268 1.0001 15.3635 2.16341L2.88492 14.642C1.32282 16.2041 1.32282 18.7368 2.88491 20.2989L15.3635 32.7775C16.5268 33.9408 18.4104 33.9491 19.5839 32.7962C20.7722 31.6287 20.7807 29.7163 19.6028 28.5383Z" fill="#FFD200" stroke="black" stroke-width="2"/>
</svg>
