<svg width="198" height="198" viewBox="0 0 198 198" fill="none" xmlns="http://www.w3.org/2000/svg">
<path d="M154.688 39.6013V19.6108H43.3125V39.6013C43.3125 64.3513 60.6375 84.7701 83.5312 90.3388C85.3875 90.9576 86.625 92.8138 86.625 94.6701V102.095C86.625 103.951 85.3875 105.808 83.5312 105.808C60.6375 111.376 43.3125 131.795 43.3125 156.545V177.868H154.688V156.545C154.688 131.795 137.363 111.376 114.469 105.808C112.613 105.189 111.375 103.951 111.375 102.095V94.6701C111.375 92.8138 112.613 90.9576 114.469 90.9576C137.363 84.7701 154.688 64.3513 154.688 39.6013Z" fill="#9FD6FF"/>
<path d="M154.688 39.6013V19.6108H43.3125V39.6013C43.3125 64.3513 60.6375 84.7701 83.5312 90.3388C85.3875 90.9576 86.625 92.8138 86.625 94.6701V102.095C86.625 103.951 85.3875 105.808 83.5312 105.808C60.6375 111.376 43.3125 131.795 43.3125 156.545V177.868H154.688V156.545C154.688 131.795 137.363 111.376 114.469 105.808C112.613 105.189 111.375 103.951 111.375 102.095V94.6701C111.375 92.8138 112.613 90.9576 114.469 90.9576C137.363 84.7701 154.688 64.3513 154.688 39.6013Z" fill="url(#paint0_radial_212_2072)"/>
<path d="M154.688 39.6013V19.6108H43.3125V39.6013C43.3125 64.3513 60.6375 84.7701 83.5312 90.3388C85.3875 90.9576 86.625 92.8138 86.625 94.6701V102.095C86.625 103.951 85.3875 105.808 83.5312 105.808C60.6375 111.376 43.3125 131.795 43.3125 156.545V177.868H154.688V156.545C154.688 131.795 137.363 111.376 114.469 105.808C112.613 105.189 111.375 103.951 111.375 102.095V94.6701C111.375 92.8138 112.613 90.9576 114.469 90.9576C137.363 84.7701 154.688 64.3513 154.688 39.6013Z" fill="url(#paint1_radial_212_2072)"/>
<path d="M154.688 24.75H43.3125C39.6 24.75 37.125 22.275 37.125 18.5625C37.125 14.85 39.6 12.375 43.3125 12.375H154.688C158.4 12.375 160.875 14.85 160.875 18.5625C160.875 22.275 158.4 24.75 154.688 24.75Z" fill="url(#paint2_radial_212_2072)"/>
<path d="M154.688 24.75H43.3125C39.6 24.75 37.125 22.275 37.125 18.5625C37.125 14.85 39.6 12.375 43.3125 12.375H154.688C158.4 12.375 160.875 14.85 160.875 18.5625C160.875 22.275 158.4 24.75 154.688 24.75Z" fill="url(#paint3_linear_212_2072)"/>
<path d="M154.688 24.75H43.3125C39.6 24.75 37.125 22.275 37.125 18.5625C37.125 14.85 39.6 12.375 43.3125 12.375H154.688C158.4 12.375 160.875 14.85 160.875 18.5625C160.875 22.275 158.4 24.75 154.688 24.75Z" fill="url(#paint4_linear_212_2072)"/>
<path d="M154.688 185.625H43.3125C39.6 185.625 37.125 183.15 37.125 179.438C37.125 175.725 39.6 173.25 43.3125 173.25H154.688C158.4 173.25 160.875 175.725 160.875 179.438C160.875 183.15 158.4 185.625 154.688 185.625Z" fill="url(#paint5_radial_212_2072)"/>
<path d="M154.688 185.625H43.3125C39.6 185.625 37.125 183.15 37.125 179.438C37.125 175.725 39.6 173.25 43.3125 173.25H154.688C158.4 173.25 160.875 175.725 160.875 179.438C160.875 183.15 158.4 185.625 154.688 185.625Z" fill="url(#paint6_linear_212_2072)"/>
<path d="M154.688 185.625H43.3125C39.6 185.625 37.125 183.15 37.125 179.438C37.125 175.725 39.6 173.25 43.3125 173.25H154.688C158.4 173.25 160.875 175.725 160.875 179.438C160.875 183.15 158.4 185.625 154.688 185.625Z" fill="url(#paint7_linear_212_2072)"/>
<path d="M105.188 120.037V93.4313C105.188 89.1 108.281 86.0062 111.994 84.7687C122.513 82.2937 131.794 76.1062 138.6 68.0625C142.931 63.1125 139.219 55.6875 133.031 55.6875C115.088 55.6875 82.9125 55.6875 64.9688 55.6875C58.7812 55.6875 55.0687 63.1125 59.4 68.0625C66.2062 76.1062 75.4875 81.675 86.0063 84.7687C90.3375 86.0062 92.8125 89.1 92.8125 93.4313V117.562C92.8125 121.894 90.9562 123.75 89.1 124.369C66.2062 128.7 49.5 146.025 49.5 166.444V173.25H148.5V166.444C148.5 146.025 131.794 128.7 108.9 124.369C107.044 124.369 105.188 122.512 105.188 120.037Z" fill="url(#paint8_radial_212_2072)"/>
<path d="M105.188 120.037V93.4313C105.188 89.1 108.281 86.0062 111.994 84.7687C122.513 82.2937 131.794 76.1062 138.6 68.0625C142.931 63.1125 139.219 55.6875 133.031 55.6875C115.088 55.6875 82.9125 55.6875 64.9688 55.6875C58.7812 55.6875 55.0687 63.1125 59.4 68.0625C66.2062 76.1062 75.4875 81.675 86.0063 84.7687C90.3375 86.0062 92.8125 89.1 92.8125 93.4313V117.562C92.8125 121.894 90.9562 123.75 89.1 124.369C66.2062 128.7 49.5 146.025 49.5 166.444V173.25H148.5V166.444C148.5 146.025 131.794 128.7 108.9 124.369C107.044 124.369 105.188 122.512 105.188 120.037Z" fill="url(#paint9_radial_212_2072)"/>
<path d="M105.188 120.037V93.4313C105.188 89.1 108.281 86.0062 111.994 84.7687C122.513 82.2937 131.794 76.1062 138.6 68.0625C142.931 63.1125 139.219 55.6875 133.031 55.6875C115.088 55.6875 82.9125 55.6875 64.9688 55.6875C58.7812 55.6875 55.0687 63.1125 59.4 68.0625C66.2062 76.1062 75.4875 81.675 86.0063 84.7687C90.3375 86.0062 92.8125 89.1 92.8125 93.4313V117.562C92.8125 121.894 90.9562 123.75 89.1 124.369C66.2062 128.7 49.5 146.025 49.5 166.444V173.25H148.5V166.444C148.5 146.025 131.794 128.7 108.9 124.369C107.044 124.369 105.188 122.512 105.188 120.037Z" fill="url(#paint10_radial_212_2072)"/>
<path d="M105.188 120.037V93.4313C105.188 89.1 108.281 86.0062 111.994 84.7687C122.513 82.2937 131.794 76.1062 138.6 68.0625C142.931 63.1125 139.219 55.6875 133.031 55.6875C115.088 55.6875 82.9125 55.6875 64.9688 55.6875C58.7812 55.6875 55.0687 63.1125 59.4 68.0625C66.2062 76.1062 75.4875 81.675 86.0063 84.7687C90.3375 86.0062 92.8125 89.1 92.8125 93.4313V117.562C92.8125 121.894 90.9562 123.75 89.1 124.369C66.2062 128.7 49.5 146.025 49.5 166.444V173.25H148.5V166.444C148.5 146.025 131.794 128.7 108.9 124.369C107.044 124.369 105.188 122.512 105.188 120.037Z" fill="url(#paint11_radial_212_2072)"/>
<path d="M105.188 120.037V93.4313C105.188 89.1 108.281 86.0062 111.994 84.7687C122.513 82.2937 131.794 76.1062 138.6 68.0625C142.931 63.1125 139.219 55.6875 133.031 55.6875C115.088 55.6875 82.9125 55.6875 64.9688 55.6875C58.7812 55.6875 55.0687 63.1125 59.4 68.0625C66.2062 76.1062 75.4875 81.675 86.0063 84.7687C90.3375 86.0062 92.8125 89.1 92.8125 93.4313V117.562C92.8125 121.894 90.9562 123.75 89.1 124.369C66.2062 128.7 49.5 146.025 49.5 166.444V173.25H148.5V166.444C148.5 146.025 131.794 128.7 108.9 124.369C107.044 124.369 105.188 122.512 105.188 120.037Z" fill="url(#paint12_radial_212_2072)"/>
<path d="M105.188 120.037V93.4313C105.188 89.1 108.281 86.0062 111.994 84.7687C122.513 82.2937 131.794 76.1062 138.6 68.0625C142.931 63.1125 139.219 55.6875 133.031 55.6875C115.088 55.6875 82.9125 55.6875 64.9688 55.6875C58.7812 55.6875 55.0687 63.1125 59.4 68.0625C66.2062 76.1062 75.4875 81.675 86.0063 84.7687C90.3375 86.0062 92.8125 89.1 92.8125 93.4313V117.562C92.8125 121.894 90.9562 123.75 89.1 124.369C66.2062 128.7 49.5 146.025 49.5 166.444V173.25H148.5V166.444C148.5 146.025 131.794 128.7 108.9 124.369C107.044 124.369 105.188 122.512 105.188 120.037Z" fill="url(#paint13_radial_212_2072)"/>
<path d="M105.188 120.037V93.4313C105.188 89.1 108.281 86.0062 111.994 84.7687C122.513 82.2937 131.794 76.1062 138.6 68.0625C142.931 63.1125 139.219 55.6875 133.031 55.6875C115.088 55.6875 82.9125 55.6875 64.9688 55.6875C58.7812 55.6875 55.0687 63.1125 59.4 68.0625C66.2062 76.1062 75.4875 81.675 86.0063 84.7687C90.3375 86.0062 92.8125 89.1 92.8125 93.4313V117.562C92.8125 121.894 90.9562 123.75 89.1 124.369C66.2062 128.7 49.5 146.025 49.5 166.444V173.25H148.5V166.444C148.5 146.025 131.794 128.7 108.9 124.369C107.044 124.369 105.188 122.512 105.188 120.037Z" fill="url(#paint14_radial_212_2072)"/>
<path d="M105.188 120.037V93.4313C105.188 89.1 108.281 86.0062 111.994 84.7687C122.513 82.2937 131.794 76.1062 138.6 68.0625C142.931 63.1125 139.219 55.6875 133.031 55.6875C115.088 55.6875 82.9125 55.6875 64.9688 55.6875C58.7812 55.6875 55.0687 63.1125 59.4 68.0625C66.2062 76.1062 75.4875 81.675 86.0063 84.7687C90.3375 86.0062 92.8125 89.1 92.8125 93.4313V117.562C92.8125 121.894 90.9562 123.75 89.1 124.369C66.2062 128.7 49.5 146.025 49.5 166.444V173.25H148.5V166.444C148.5 146.025 131.794 128.7 108.9 124.369C107.044 124.369 105.188 122.512 105.188 120.037Z" fill="url(#paint15_radial_212_2072)"/>
<path d="M105.188 120.037V93.4313C105.188 89.1 108.281 86.0062 111.994 84.7687C122.513 82.2937 131.794 76.1062 138.6 68.0625C142.931 63.1125 139.219 55.6875 133.031 55.6875C115.088 55.6875 82.9125 55.6875 64.9688 55.6875C58.7812 55.6875 55.0687 63.1125 59.4 68.0625C66.2062 76.1062 75.4875 81.675 86.0063 84.7687C90.3375 86.0062 92.8125 89.1 92.8125 93.4313V117.562C92.8125 121.894 90.9562 123.75 89.1 124.369C66.2062 128.7 49.5 146.025 49.5 166.444V173.25H148.5V166.444C148.5 146.025 131.794 128.7 108.9 124.369C107.044 124.369 105.188 122.512 105.188 120.037Z" fill="url(#paint16_radial_212_2072)"/>
<path d="M105.188 120.037V93.4313C105.188 89.1 108.281 86.0062 111.994 84.7687C122.513 82.2937 131.794 76.1062 138.6 68.0625C142.931 63.1125 139.219 55.6875 133.031 55.6875C115.088 55.6875 82.9125 55.6875 64.9688 55.6875C58.7812 55.6875 55.0687 63.1125 59.4 68.0625C66.2062 76.1062 75.4875 81.675 86.0063 84.7687C90.3375 86.0062 92.8125 89.1 92.8125 93.4313V117.562C92.8125 121.894 90.9562 123.75 89.1 124.369C66.2062 128.7 49.5 146.025 49.5 166.444V173.25H148.5V166.444C148.5 146.025 131.794 128.7 108.9 124.369C107.044 124.369 105.188 122.512 105.188 120.037Z" fill="url(#paint17_radial_212_2072)"/>
<path d="M105.188 120.037V93.4313C105.188 89.1 108.281 86.0062 111.994 84.7687C122.513 82.2937 131.794 76.1062 138.6 68.0625C142.931 63.1125 139.219 55.6875 133.031 55.6875C115.088 55.6875 82.9125 55.6875 64.9688 55.6875C58.7812 55.6875 55.0687 63.1125 59.4 68.0625C66.2062 76.1062 75.4875 81.675 86.0063 84.7687C90.3375 86.0062 92.8125 89.1 92.8125 93.4313V117.562C92.8125 121.894 90.9562 123.75 89.1 124.369C66.2062 128.7 49.5 146.025 49.5 166.444V173.25H148.5V166.444C148.5 146.025 131.794 128.7 108.9 124.369C107.044 124.369 105.188 122.512 105.188 120.037Z" fill="url(#paint18_linear_212_2072)"/>
<path d="M105.188 120.037V93.4313C105.188 89.1 108.281 86.0062 111.994 84.7687C122.513 82.2937 131.794 76.1062 138.6 68.0625C142.931 63.1125 139.219 55.6875 133.031 55.6875C115.088 55.6875 82.9125 55.6875 64.9688 55.6875C58.7812 55.6875 55.0687 63.1125 59.4 68.0625C66.2062 76.1062 75.4875 81.675 86.0063 84.7687C90.3375 86.0062 92.8125 89.1 92.8125 93.4313V117.562C92.8125 121.894 90.9562 123.75 89.1 124.369C66.2062 128.7 49.5 146.025 49.5 166.444V173.25H148.5V166.444C148.5 146.025 131.794 128.7 108.9 124.369C107.044 124.369 105.188 122.512 105.188 120.037Z" fill="url(#paint19_radial_212_2072)"/>
<path d="M138.599 165.825C135.505 165.825 133.03 163.35 133.03 160.256C131.793 148.5 125.605 132.413 110.755 126.844C107.662 125.606 106.424 122.513 107.662 119.419C108.899 116.325 111.993 115.088 115.087 116.325C123.749 119.419 131.174 125.606 136.124 134.269C141.074 141.694 143.549 150.356 144.168 160.256C144.787 162.731 142.312 165.825 138.599 165.825Z" fill="url(#paint20_linear_212_2072)"/>
<path d="M138.599 30.3197C135.505 30.3197 133.03 32.7947 133.03 35.8885C131.793 47.6447 125.605 63.7322 110.755 69.3009C107.662 70.5385 106.424 73.6322 107.662 76.7259C108.899 79.8197 111.993 81.0572 115.087 79.8197C123.749 76.7259 131.174 70.5385 136.124 61.876C141.074 54.451 143.549 45.7885 144.168 35.8885C144.787 33.4135 142.312 30.9385 138.599 30.3197Z" fill="url(#paint21_linear_212_2072)"/>
<defs>
<radialGradient id="paint0_radial_212_2072" cx="0" cy="0" r="1" gradientUnits="userSpaceOnUse" gradientTransform="translate(126.426 141.762) rotate(131.055) scale(41.7585 33.8513)">
<stop stop-color="#C4F4FF"/>
<stop offset="1" stop-color="#C4F4FF" stop-opacity="0"/>
</radialGradient>
<radialGradient id="paint1_radial_212_2072" cx="0" cy="0" r="1" gradientUnits="userSpaceOnUse" gradientTransform="translate(131.835 27.3376) rotate(90) scale(34.7723 68.1334)">
<stop stop-color="#C4F4FF"/>
<stop offset="1" stop-color="#C4F4FF" stop-opacity="0"/>
</radialGradient>
<radialGradient id="paint2_radial_212_2072" cx="0" cy="0" r="1" gradientUnits="userSpaceOnUse" gradientTransform="translate(127.23 18.5625) rotate(90) scale(6.1875 78.1172)">
<stop stop-color="#CDCFCF"/>
<stop offset="1" stop-color="#A9A9A9"/>
</radialGradient>
<linearGradient id="paint3_linear_212_2072" x1="24.3633" y1="20.2053" x2="99" y2="20.2053" gradientUnits="userSpaceOnUse">
<stop stop-color="#707477"/>
<stop offset="1" stop-color="#707477" stop-opacity="0"/>
</linearGradient>
<linearGradient id="paint4_linear_212_2072" x1="99" y1="29.8733" x2="99" y2="21.7522" gradientUnits="userSpaceOnUse">
<stop stop-color="#707477"/>
<stop offset="1" stop-color="#707477" stop-opacity="0"/>
</linearGradient>
<radialGradient id="paint5_radial_212_2072" cx="0" cy="0" r="1" gradientUnits="userSpaceOnUse" gradientTransform="translate(127.23 177.213) rotate(90) scale(6.96094 87.8818)">
<stop stop-color="#CDCFCF"/>
<stop offset="1" stop-color="#A9A9A9"/>
</radialGradient>
<linearGradient id="paint6_linear_212_2072" x1="24.3633" y1="181.08" x2="99" y2="181.08" gradientUnits="userSpaceOnUse">
<stop stop-color="#707477"/>
<stop offset="1" stop-color="#707477" stop-opacity="0"/>
</linearGradient>
<linearGradient id="paint7_linear_212_2072" x1="99" y1="187.461" x2="99" y2="181.467" gradientUnits="userSpaceOnUse">
<stop stop-color="#7CA0B3"/>
<stop offset="1" stop-color="#7CA0B3" stop-opacity="0"/>
</linearGradient>
<radialGradient id="paint8_radial_212_2072" cx="0" cy="0" r="1" gradientUnits="userSpaceOnUse" gradientTransform="translate(122.59 151.103) rotate(90) scale(61.4599 70.9153)">
<stop offset="0.088" stop-color="#FFD68C"/>
<stop offset="1" stop-color="#E69E45"/>
</radialGradient>
<radialGradient id="paint9_radial_212_2072" cx="0" cy="0" r="1" gradientUnits="userSpaceOnUse" gradientTransform="translate(131.871 53.0764) rotate(132.427) scale(48.7235 41.0303)">
<stop stop-color="#F3C169"/>
<stop offset="1" stop-color="#F3C169" stop-opacity="0"/>
</radialGradient>
<radialGradient id="paint10_radial_212_2072" cx="0" cy="0" r="1" gradientUnits="userSpaceOnUse" gradientTransform="translate(153.96 133.402) rotate(166.573) scale(112.22 170.362)">
<stop offset="0.667023" stop-color="#B7845C" stop-opacity="0"/>
<stop offset="1" stop-color="#B7845C"/>
</radialGradient>
<radialGradient id="paint11_radial_212_2072" cx="0" cy="0" r="1" gradientUnits="userSpaceOnUse" gradientTransform="translate(64.9664 73.4173) rotate(-21.309) scale(36.5311 35.1573)">
<stop stop-color="#B69E6D"/>
<stop offset="1" stop-color="#B69E6D" stop-opacity="0"/>
</radialGradient>
<radialGradient id="paint12_radial_212_2072" cx="0" cy="0" r="1" gradientUnits="userSpaceOnUse" gradientTransform="translate(108.281 170.156) rotate(97.125) scale(49.8852 59.9667)">
<stop offset="0.924519" stop-color="#BD8A57" stop-opacity="0"/>
<stop offset="0.9999" stop-color="#BD8A57"/>
<stop offset="1" stop-color="#BD8A57" stop-opacity="0"/>
</radialGradient>
<radialGradient id="paint13_radial_212_2072" cx="0" cy="0" r="1" gradientUnits="userSpaceOnUse" gradientTransform="translate(128.885 61.8628) rotate(180) scale(59.7391 10.0071)">
<stop stop-color="#FFE379"/>
<stop offset="0.40625" stop-color="#FFCB56"/>
<stop offset="1" stop-color="#FFCB56" stop-opacity="0"/>
</radialGradient>
<radialGradient id="paint14_radial_212_2072" cx="0" cy="0" r="1" gradientUnits="userSpaceOnUse" gradientTransform="translate(95.9062 120.656) rotate(90) scale(9.28124 30.9375)">
<stop offset="0.270833" stop-color="#E5AE63"/>
<stop offset="0.585939" stop-color="#E5AE63" stop-opacity="0"/>
</radialGradient>
<radialGradient id="paint15_radial_212_2072" cx="0" cy="0" r="1" gradientUnits="userSpaceOnUse" gradientTransform="translate(102.094 105.188) rotate(90) scale(27.8438 3.94531)">
<stop stop-color="#FAD075"/>
<stop offset="1" stop-color="#FAD075" stop-opacity="0"/>
</radialGradient>
<radialGradient id="paint16_radial_212_2072" cx="0" cy="0" r="1" gradientUnits="userSpaceOnUse" gradientTransform="translate(102.094 120.656) rotate(90) scale(6.1875 7.11485)">
<stop stop-color="#FAD075"/>
<stop offset="0.878096" stop-color="#FAD075" stop-opacity="0"/>
</radialGradient>
<radialGradient id="paint17_radial_212_2072" cx="0" cy="0" r="1" gradientUnits="userSpaceOnUse" gradientTransform="translate(102.094 83.5312) rotate(-90) scale(6.1875 9.4915)">
<stop stop-color="#FAD075"/>
<stop offset="0.771979" stop-color="#FAD075" stop-opacity="0"/>
</radialGradient>
<linearGradient id="paint18_linear_212_2072" x1="99" y1="163.969" x2="99" y2="173.25" gradientUnits="userSpaceOnUse">
<stop offset="0.770026" stop-color="#DAAB6D" stop-opacity="0"/>
<stop offset="0.990996" stop-color="#B78A51"/>
</linearGradient>
<radialGradient id="paint19_radial_212_2072" cx="0" cy="0" r="1" gradientUnits="userSpaceOnUse" gradientTransform="translate(92.8125 105.188) scale(6.1875 26.2954)">
<stop stop-color="#BF8F5E"/>
<stop offset="0.878096" stop-color="#BF8F5E" stop-opacity="0"/>
</radialGradient>
<linearGradient id="paint20_linear_212_2072" x1="123.362" y1="125.006" x2="128.39" y2="165.825" gradientUnits="userSpaceOnUse">
<stop stop-color="white"/>
<stop offset="0.821922" stop-color="white" stop-opacity="0"/>
</linearGradient>
<linearGradient id="paint21_linear_212_2072" x1="141.925" y1="32.968" x2="117.562" y2="77.8274" gradientUnits="userSpaceOnUse">
<stop stop-color="white"/>
<stop offset="0.821922" stop-color="white" stop-opacity="0"/>
</linearGradient>
</defs>
</svg>
