<svg width="182" height="182" viewBox="0 0 182 182" fill="none" xmlns="http://www.w3.org/2000/svg">
<path d="M142.188 36.4012V18.0261H39.8125V36.4012C39.8125 59.1512 55.7375 77.92 76.7812 83.0387C78.4875 83.6075 79.625 85.3137 79.625 87.02V93.8449C79.625 95.5512 78.4875 97.2575 76.7812 97.2575C55.7375 102.376 39.8125 121.145 39.8125 143.895V163.495H142.188V143.895C142.188 121.145 126.262 102.376 105.219 97.2575C103.513 96.6887 102.375 95.5512 102.375 93.8449V87.02C102.375 85.3137 103.513 83.6075 105.219 83.6075C126.262 77.9199 142.188 59.1512 142.188 36.4012Z" fill="#9FD6FF"/>
<path d="M142.188 36.4012V18.0261H39.8125V36.4012C39.8125 59.1512 55.7375 77.92 76.7812 83.0387C78.4875 83.6075 79.625 85.3137 79.625 87.02V93.8449C79.625 95.5512 78.4875 97.2575 76.7812 97.2575C55.7375 102.376 39.8125 121.145 39.8125 143.895V163.495H142.188V143.895C142.188 121.145 126.262 102.376 105.219 97.2575C103.513 96.6887 102.375 95.5512 102.375 93.8449V87.02C102.375 85.3137 103.513 83.6075 105.219 83.6075C126.262 77.9199 142.188 59.1512 142.188 36.4012Z" fill="url(#paint0_radial_141_215)"/>
<path d="M142.188 36.4012V18.0261H39.8125V36.4012C39.8125 59.1512 55.7375 77.92 76.7812 83.0387C78.4875 83.6075 79.625 85.3137 79.625 87.02V93.8449C79.625 95.5512 78.4875 97.2575 76.7812 97.2575C55.7375 102.376 39.8125 121.145 39.8125 143.895V163.495H142.188V143.895C142.188 121.145 126.262 102.376 105.219 97.2575C103.513 96.6887 102.375 95.5512 102.375 93.8449V87.02C102.375 85.3137 103.513 83.6075 105.219 83.6075C126.262 77.9199 142.188 59.1512 142.188 36.4012Z" fill="url(#paint1_radial_141_215)"/>
<path d="M142.188 22.75H39.8125C36.4 22.75 34.125 20.475 34.125 17.0625C34.125 13.65 36.4 11.375 39.8125 11.375H142.188C145.6 11.375 147.875 13.65 147.875 17.0625C147.875 20.475 145.6 22.75 142.188 22.75Z" fill="url(#paint2_radial_141_215)"/>
<path d="M142.188 22.75H39.8125C36.4 22.75 34.125 20.475 34.125 17.0625C34.125 13.65 36.4 11.375 39.8125 11.375H142.188C145.6 11.375 147.875 13.65 147.875 17.0625C147.875 20.475 145.6 22.75 142.188 22.75Z" fill="url(#paint3_linear_141_215)"/>
<path d="M142.188 22.75H39.8125C36.4 22.75 34.125 20.475 34.125 17.0625C34.125 13.65 36.4 11.375 39.8125 11.375H142.188C145.6 11.375 147.875 13.65 147.875 17.0625C147.875 20.475 145.6 22.75 142.188 22.75Z" fill="url(#paint4_linear_141_215)"/>
<path d="M142.188 170.625H39.8125C36.4 170.625 34.125 168.35 34.125 164.938C34.125 161.525 36.4 159.25 39.8125 159.25H142.188C145.6 159.25 147.875 161.525 147.875 164.938C147.875 168.35 145.6 170.625 142.188 170.625Z" fill="url(#paint5_radial_141_215)"/>
<path d="M142.188 170.625H39.8125C36.4 170.625 34.125 168.35 34.125 164.938C34.125 161.525 36.4 159.25 39.8125 159.25H142.188C145.6 159.25 147.875 161.525 147.875 164.938C147.875 168.35 145.6 170.625 142.188 170.625Z" fill="url(#paint6_linear_141_215)"/>
<path d="M142.188 170.625H39.8125C36.4 170.625 34.125 168.35 34.125 164.938C34.125 161.525 36.4 159.25 39.8125 159.25H142.188C145.6 159.25 147.875 161.525 147.875 164.938C147.875 168.35 145.6 170.625 142.188 170.625Z" fill="url(#paint7_linear_141_215)"/>
<path d="M96.6875 110.337V85.8813C96.6875 81.9 99.5313 79.0562 102.944 77.9187C112.613 75.6437 121.144 69.9562 127.4 62.5625C131.381 58.0125 127.969 51.1875 122.281 51.1875C105.787 51.1875 76.2125 51.1875 59.7188 51.1875C54.0312 51.1875 50.6187 58.0125 54.6 62.5625C60.8562 69.9562 69.3875 75.075 79.0563 77.9187C83.0375 79.0562 85.3125 81.9 85.3125 85.8813V108.062C85.3125 112.044 83.6062 113.75 81.9 114.319C60.8562 118.3 45.5 134.225 45.5 152.994V159.25H136.5V152.994C136.5 134.225 121.144 118.3 100.1 114.319C98.3938 114.319 96.6875 112.612 96.6875 110.337Z" fill="url(#paint8_radial_141_215)"/>
<path d="M96.6875 110.337V85.8813C96.6875 81.9 99.5313 79.0562 102.944 77.9187C112.613 75.6437 121.144 69.9562 127.4 62.5625C131.381 58.0125 127.969 51.1875 122.281 51.1875C105.787 51.1875 76.2125 51.1875 59.7188 51.1875C54.0312 51.1875 50.6187 58.0125 54.6 62.5625C60.8562 69.9562 69.3875 75.075 79.0563 77.9187C83.0375 79.0562 85.3125 81.9 85.3125 85.8813V108.062C85.3125 112.044 83.6062 113.75 81.9 114.319C60.8562 118.3 45.5 134.225 45.5 152.994V159.25H136.5V152.994C136.5 134.225 121.144 118.3 100.1 114.319C98.3938 114.319 96.6875 112.612 96.6875 110.337Z" fill="url(#paint9_radial_141_215)"/>
<path d="M96.6875 110.337V85.8813C96.6875 81.9 99.5313 79.0562 102.944 77.9187C112.613 75.6437 121.144 69.9562 127.4 62.5625C131.381 58.0125 127.969 51.1875 122.281 51.1875C105.787 51.1875 76.2125 51.1875 59.7188 51.1875C54.0312 51.1875 50.6187 58.0125 54.6 62.5625C60.8562 69.9562 69.3875 75.075 79.0563 77.9187C83.0375 79.0562 85.3125 81.9 85.3125 85.8813V108.062C85.3125 112.044 83.6062 113.75 81.9 114.319C60.8562 118.3 45.5 134.225 45.5 152.994V159.25H136.5V152.994C136.5 134.225 121.144 118.3 100.1 114.319C98.3938 114.319 96.6875 112.612 96.6875 110.337Z" fill="url(#paint10_radial_141_215)"/>
<path d="M96.6875 110.337V85.8813C96.6875 81.9 99.5313 79.0562 102.944 77.9187C112.613 75.6437 121.144 69.9562 127.4 62.5625C131.381 58.0125 127.969 51.1875 122.281 51.1875C105.787 51.1875 76.2125 51.1875 59.7188 51.1875C54.0312 51.1875 50.6187 58.0125 54.6 62.5625C60.8562 69.9562 69.3875 75.075 79.0563 77.9187C83.0375 79.0562 85.3125 81.9 85.3125 85.8813V108.062C85.3125 112.044 83.6062 113.75 81.9 114.319C60.8562 118.3 45.5 134.225 45.5 152.994V159.25H136.5V152.994C136.5 134.225 121.144 118.3 100.1 114.319C98.3938 114.319 96.6875 112.612 96.6875 110.337Z" fill="url(#paint11_radial_141_215)"/>
<path d="M96.6875 110.337V85.8813C96.6875 81.9 99.5313 79.0562 102.944 77.9187C112.613 75.6437 121.144 69.9562 127.4 62.5625C131.381 58.0125 127.969 51.1875 122.281 51.1875C105.787 51.1875 76.2125 51.1875 59.7188 51.1875C54.0312 51.1875 50.6187 58.0125 54.6 62.5625C60.8562 69.9562 69.3875 75.075 79.0563 77.9187C83.0375 79.0562 85.3125 81.9 85.3125 85.8813V108.062C85.3125 112.044 83.6062 113.75 81.9 114.319C60.8562 118.3 45.5 134.225 45.5 152.994V159.25H136.5V152.994C136.5 134.225 121.144 118.3 100.1 114.319C98.3938 114.319 96.6875 112.612 96.6875 110.337Z" fill="url(#paint12_radial_141_215)"/>
<path d="M96.6875 110.337V85.8813C96.6875 81.9 99.5313 79.0562 102.944 77.9187C112.613 75.6437 121.144 69.9562 127.4 62.5625C131.381 58.0125 127.969 51.1875 122.281 51.1875C105.787 51.1875 76.2125 51.1875 59.7188 51.1875C54.0312 51.1875 50.6187 58.0125 54.6 62.5625C60.8562 69.9562 69.3875 75.075 79.0563 77.9187C83.0375 79.0562 85.3125 81.9 85.3125 85.8813V108.062C85.3125 112.044 83.6062 113.75 81.9 114.319C60.8562 118.3 45.5 134.225 45.5 152.994V159.25H136.5V152.994C136.5 134.225 121.144 118.3 100.1 114.319C98.3938 114.319 96.6875 112.612 96.6875 110.337Z" fill="url(#paint13_radial_141_215)"/>
<path d="M96.6875 110.337V85.8813C96.6875 81.9 99.5313 79.0562 102.944 77.9187C112.613 75.6437 121.144 69.9562 127.4 62.5625C131.381 58.0125 127.969 51.1875 122.281 51.1875C105.787 51.1875 76.2125 51.1875 59.7188 51.1875C54.0312 51.1875 50.6187 58.0125 54.6 62.5625C60.8562 69.9562 69.3875 75.075 79.0563 77.9187C83.0375 79.0562 85.3125 81.9 85.3125 85.8813V108.062C85.3125 112.044 83.6062 113.75 81.9 114.319C60.8562 118.3 45.5 134.225 45.5 152.994V159.25H136.5V152.994C136.5 134.225 121.144 118.3 100.1 114.319C98.3938 114.319 96.6875 112.612 96.6875 110.337Z" fill="url(#paint14_radial_141_215)"/>
<path d="M96.6875 110.337V85.8813C96.6875 81.9 99.5313 79.0562 102.944 77.9187C112.613 75.6437 121.144 69.9562 127.4 62.5625C131.381 58.0125 127.969 51.1875 122.281 51.1875C105.787 51.1875 76.2125 51.1875 59.7188 51.1875C54.0312 51.1875 50.6187 58.0125 54.6 62.5625C60.8562 69.9562 69.3875 75.075 79.0563 77.9187C83.0375 79.0562 85.3125 81.9 85.3125 85.8813V108.062C85.3125 112.044 83.6062 113.75 81.9 114.319C60.8562 118.3 45.5 134.225 45.5 152.994V159.25H136.5V152.994C136.5 134.225 121.144 118.3 100.1 114.319C98.3938 114.319 96.6875 112.612 96.6875 110.337Z" fill="url(#paint15_radial_141_215)"/>
<path d="M96.6875 110.337V85.8813C96.6875 81.9 99.5313 79.0562 102.944 77.9187C112.613 75.6437 121.144 69.9562 127.4 62.5625C131.381 58.0125 127.969 51.1875 122.281 51.1875C105.787 51.1875 76.2125 51.1875 59.7188 51.1875C54.0312 51.1875 50.6187 58.0125 54.6 62.5625C60.8562 69.9562 69.3875 75.075 79.0563 77.9187C83.0375 79.0562 85.3125 81.9 85.3125 85.8813V108.062C85.3125 112.044 83.6062 113.75 81.9 114.319C60.8562 118.3 45.5 134.225 45.5 152.994V159.25H136.5V152.994C136.5 134.225 121.144 118.3 100.1 114.319C98.3938 114.319 96.6875 112.612 96.6875 110.337Z" fill="url(#paint16_radial_141_215)"/>
<path d="M96.6875 110.337V85.8813C96.6875 81.9 99.5313 79.0562 102.944 77.9187C112.613 75.6437 121.144 69.9562 127.4 62.5625C131.381 58.0125 127.969 51.1875 122.281 51.1875C105.787 51.1875 76.2125 51.1875 59.7188 51.1875C54.0312 51.1875 50.6187 58.0125 54.6 62.5625C60.8562 69.9562 69.3875 75.075 79.0563 77.9187C83.0375 79.0562 85.3125 81.9 85.3125 85.8813V108.062C85.3125 112.044 83.6062 113.75 81.9 114.319C60.8562 118.3 45.5 134.225 45.5 152.994V159.25H136.5V152.994C136.5 134.225 121.144 118.3 100.1 114.319C98.3938 114.319 96.6875 112.612 96.6875 110.337Z" fill="url(#paint17_radial_141_215)"/>
<path d="M96.6875 110.337V85.8813C96.6875 81.9 99.5313 79.0562 102.944 77.9187C112.613 75.6437 121.144 69.9562 127.4 62.5625C131.381 58.0125 127.969 51.1875 122.281 51.1875C105.787 51.1875 76.2125 51.1875 59.7188 51.1875C54.0312 51.1875 50.6187 58.0125 54.6 62.5625C60.8562 69.9562 69.3875 75.075 79.0563 77.9187C83.0375 79.0562 85.3125 81.9 85.3125 85.8813V108.062C85.3125 112.044 83.6062 113.75 81.9 114.319C60.8562 118.3 45.5 134.225 45.5 152.994V159.25H136.5V152.994C136.5 134.225 121.144 118.3 100.1 114.319C98.3938 114.319 96.6875 112.612 96.6875 110.337Z" fill="url(#paint18_linear_141_215)"/>
<path d="M96.6875 110.337V85.8813C96.6875 81.9 99.5313 79.0562 102.944 77.9187C112.613 75.6437 121.144 69.9562 127.4 62.5625C131.381 58.0125 127.969 51.1875 122.281 51.1875C105.787 51.1875 76.2125 51.1875 59.7188 51.1875C54.0312 51.1875 50.6187 58.0125 54.6 62.5625C60.8562 69.9562 69.3875 75.075 79.0563 77.9187C83.0375 79.0562 85.3125 81.9 85.3125 85.8813V108.062C85.3125 112.044 83.6062 113.75 81.9 114.319C60.8562 118.3 45.5 134.225 45.5 152.994V159.25H136.5V152.994C136.5 134.225 121.144 118.3 100.1 114.319C98.3938 114.319 96.6875 112.612 96.6875 110.337Z" fill="url(#paint19_radial_141_215)"/>
<path d="M127.399 152.425C124.556 152.425 122.281 150.15 122.281 147.306C121.143 136.5 115.456 121.713 101.806 116.594C98.9618 115.456 97.8243 112.613 98.9618 109.769C100.099 106.925 102.943 105.788 105.787 106.925C113.749 109.769 120.574 115.456 125.124 123.419C129.674 130.244 131.949 138.206 132.518 147.306C133.087 149.581 130.812 152.425 127.399 152.425Z" fill="url(#paint20_linear_141_215)"/>
<path d="M127.399 27.8696C124.556 27.8696 122.281 30.1446 122.281 32.9884C121.143 43.7946 115.456 58.5821 101.806 63.7009C98.9618 64.8384 97.8243 67.6821 98.9618 70.5259C100.099 73.3696 102.943 74.5071 105.787 73.3696C113.749 70.5259 120.574 64.8384 125.124 56.8759C129.674 50.0509 131.949 42.0884 132.518 32.9884C133.087 30.7134 130.812 28.4384 127.399 27.8696Z" fill="url(#paint21_linear_141_215)"/>
<defs>
<radialGradient id="paint0_radial_141_215" cx="0" cy="0" r="1" gradientUnits="userSpaceOnUse" gradientTransform="translate(116.21 130.306) rotate(131.055) scale(38.3841 31.1158)">
<stop stop-color="#C4F4FF"/>
<stop offset="1" stop-color="#C4F4FF" stop-opacity="0"/>
</radialGradient>
<radialGradient id="paint1_radial_141_215" cx="0" cy="0" r="1" gradientUnits="userSpaceOnUse" gradientTransform="translate(121.181 25.1285) rotate(90) scale(31.9624 62.6277)">
<stop stop-color="#C4F4FF"/>
<stop offset="1" stop-color="#C4F4FF" stop-opacity="0"/>
</radialGradient>
<radialGradient id="paint2_radial_141_215" cx="0" cy="0" r="1" gradientUnits="userSpaceOnUse" gradientTransform="translate(116.949 17.0625) rotate(90) scale(5.6875 71.8047)">
<stop stop-color="#CDCFCF"/>
<stop offset="1" stop-color="#A9A9A9"/>
</radialGradient>
<linearGradient id="paint3_linear_141_215" x1="22.3945" y1="18.5726" x2="91" y2="18.5726" gradientUnits="userSpaceOnUse">
<stop stop-color="#707477"/>
<stop offset="1" stop-color="#707477" stop-opacity="0"/>
</linearGradient>
<linearGradient id="paint4_linear_141_215" x1="91" y1="27.4593" x2="91" y2="19.9944" gradientUnits="userSpaceOnUse">
<stop stop-color="#707477"/>
<stop offset="1" stop-color="#707477" stop-opacity="0"/>
</linearGradient>
<radialGradient id="paint5_radial_141_215" cx="0" cy="0" r="1" gradientUnits="userSpaceOnUse" gradientTransform="translate(116.949 162.893) rotate(90) scale(6.39844 80.7803)">
<stop stop-color="#CDCFCF"/>
<stop offset="1" stop-color="#A9A9A9"/>
</radialGradient>
<linearGradient id="paint6_linear_141_215" x1="22.3945" y1="166.448" x2="91" y2="166.448" gradientUnits="userSpaceOnUse">
<stop stop-color="#707477"/>
<stop offset="1" stop-color="#707477" stop-opacity="0"/>
</linearGradient>
<linearGradient id="paint7_linear_141_215" x1="91" y1="172.313" x2="91" y2="166.803" gradientUnits="userSpaceOnUse">
<stop stop-color="#7CA0B3"/>
<stop offset="1" stop-color="#7CA0B3" stop-opacity="0"/>
</linearGradient>
<radialGradient id="paint8_radial_141_215" cx="0" cy="0" r="1" gradientUnits="userSpaceOnUse" gradientTransform="translate(112.684 138.892) rotate(90) scale(56.4935 65.1848)">
<stop offset="0.088" stop-color="#FFD68C"/>
<stop offset="1" stop-color="#E69E45"/>
</radialGradient>
<radialGradient id="paint9_radial_141_215" cx="0" cy="0" r="1" gradientUnits="userSpaceOnUse" gradientTransform="translate(121.215 48.7874) rotate(132.427) scale(44.7862 37.7147)">
<stop stop-color="#F3C169"/>
<stop offset="1" stop-color="#F3C169" stop-opacity="0"/>
</radialGradient>
<radialGradient id="paint10_radial_141_215" cx="0" cy="0" r="1" gradientUnits="userSpaceOnUse" gradientTransform="translate(141.519 122.622) rotate(166.573) scale(103.152 156.596)">
<stop offset="0.667023" stop-color="#B7845C" stop-opacity="0"/>
<stop offset="1" stop-color="#B7845C"/>
</radialGradient>
<radialGradient id="paint11_radial_141_215" cx="0" cy="0" r="1" gradientUnits="userSpaceOnUse" gradientTransform="translate(59.7166 67.4845) rotate(-21.309) scale(33.5791 32.3163)">
<stop stop-color="#B69E6D"/>
<stop offset="1" stop-color="#B69E6D" stop-opacity="0"/>
</radialGradient>
<radialGradient id="paint12_radial_141_215" cx="0" cy="0" r="1" gradientUnits="userSpaceOnUse" gradientTransform="translate(99.5312 156.406) rotate(97.125) scale(45.8541 55.1209)">
<stop offset="0.924519" stop-color="#BD8A57" stop-opacity="0"/>
<stop offset="0.9999" stop-color="#BD8A57"/>
<stop offset="1" stop-color="#BD8A57" stop-opacity="0"/>
</radialGradient>
<radialGradient id="paint13_radial_141_215" cx="0" cy="0" r="1" gradientUnits="userSpaceOnUse" gradientTransform="translate(118.47 56.8638) rotate(180) scale(54.9117 9.1984)">
<stop stop-color="#FFE379"/>
<stop offset="0.40625" stop-color="#FFCB56"/>
<stop offset="1" stop-color="#FFCB56" stop-opacity="0"/>
</radialGradient>
<radialGradient id="paint14_radial_141_215" cx="0" cy="0" r="1" gradientUnits="userSpaceOnUse" gradientTransform="translate(88.1562 110.906) rotate(90) scale(8.53124 28.4375)">
<stop offset="0.270833" stop-color="#E5AE63"/>
<stop offset="0.585939" stop-color="#E5AE63" stop-opacity="0"/>
</radialGradient>
<radialGradient id="paint15_radial_141_215" cx="0" cy="0" r="1" gradientUnits="userSpaceOnUse" gradientTransform="translate(93.8437 96.6875) rotate(90) scale(25.5938 3.62649)">
<stop stop-color="#FAD075"/>
<stop offset="1" stop-color="#FAD075" stop-opacity="0"/>
</radialGradient>
<radialGradient id="paint16_radial_141_215" cx="0" cy="0" r="1" gradientUnits="userSpaceOnUse" gradientTransform="translate(93.8438 110.906) rotate(90) scale(5.6875 6.53991)">
<stop stop-color="#FAD075"/>
<stop offset="0.878096" stop-color="#FAD075" stop-opacity="0"/>
</radialGradient>
<radialGradient id="paint17_radial_141_215" cx="0" cy="0" r="1" gradientUnits="userSpaceOnUse" gradientTransform="translate(93.8438 76.7812) rotate(-90) scale(5.6875 8.72451)">
<stop stop-color="#FAD075"/>
<stop offset="0.771979" stop-color="#FAD075" stop-opacity="0"/>
</radialGradient>
<linearGradient id="paint18_linear_141_215" x1="91" y1="150.719" x2="91" y2="159.25" gradientUnits="userSpaceOnUse">
<stop offset="0.770026" stop-color="#DAAB6D" stop-opacity="0"/>
<stop offset="0.990996" stop-color="#B78A51"/>
</linearGradient>
<radialGradient id="paint19_radial_141_215" cx="0" cy="0" r="1" gradientUnits="userSpaceOnUse" gradientTransform="translate(85.3125 96.6875) scale(5.6875 24.1705)">
<stop stop-color="#BF8F5E"/>
<stop offset="0.878096" stop-color="#BF8F5E" stop-opacity="0"/>
</radialGradient>
<linearGradient id="paint20_linear_141_215" x1="113.394" y1="114.905" x2="118.015" y2="152.425" gradientUnits="userSpaceOnUse">
<stop stop-color="white"/>
<stop offset="0.821922" stop-color="white" stop-opacity="0"/>
</linearGradient>
<linearGradient id="paint21_linear_141_215" x1="130.456" y1="30.3039" x2="108.062" y2="71.5383" gradientUnits="userSpaceOnUse">
<stop stop-color="white"/>
<stop offset="0.821922" stop-color="white" stop-opacity="0"/>
</linearGradient>
</defs>
</svg>
