<svg width="165" height="165" viewBox="0 0 165 165" fill="none" xmlns="http://www.w3.org/2000/svg">
<g clip-path="url(#clip0_815_915)">
<path d="M82.6027 154.609C130.505 154.609 154.442 122.445 154.442 82.7697C154.442 43.0939 130.505 10.9303 82.6027 10.9303C34.7005 10.9303 10.7637 43.0939 10.7637 82.7697C10.7637 122.445 34.7005 154.609 82.6027 154.609Z" fill="url(#paint0_radial_815_915)"/>
<path d="M82.6027 154.609C130.505 154.609 154.442 122.445 154.442 82.7697C154.442 43.0939 130.505 10.9303 82.6027 10.9303C34.7005 10.9303 10.7637 43.0939 10.7637 82.7697C10.7637 122.445 34.7005 154.609 82.6027 154.609Z" fill="url(#paint1_radial_815_915)"/>
<path d="M82.6027 154.609C130.505 154.609 154.442 122.445 154.442 82.7697C154.442 43.0939 130.505 10.9303 82.6027 10.9303C34.7005 10.9303 10.7637 43.0939 10.7637 82.7697C10.7637 122.445 34.7005 154.609 82.6027 154.609Z" fill="url(#paint2_radial_815_915)" fill-opacity="0.6"/>
<path d="M82.6027 154.609C130.505 154.609 154.442 122.445 154.442 82.7697C154.442 43.0939 130.505 10.9303 82.6027 10.9303C34.7005 10.9303 10.7637 43.0939 10.7637 82.7697C10.7637 122.445 34.7005 154.609 82.6027 154.609Z" fill="url(#paint3_radial_815_915)"/>
<path d="M82.6027 154.609C130.505 154.609 154.442 122.445 154.442 82.7697C154.442 43.0939 130.505 10.9303 82.6027 10.9303C34.7005 10.9303 10.7637 43.0939 10.7637 82.7697C10.7637 122.445 34.7005 154.609 82.6027 154.609Z" fill="url(#paint4_radial_815_915)"/>
<path d="M82.6027 154.609C130.505 154.609 154.442 122.445 154.442 82.7697C154.442 43.0939 130.505 10.9303 82.6027 10.9303C34.7005 10.9303 10.7637 43.0939 10.7637 82.7697C10.7637 122.445 34.7005 154.609 82.6027 154.609Z" fill="url(#paint5_radial_815_915)"/>
<path d="M82.6027 154.609C130.505 154.609 154.442 122.445 154.442 82.7697C154.442 43.0939 130.505 10.9303 82.6027 10.9303C34.7005 10.9303 10.7637 43.0939 10.7637 82.7697C10.7637 122.445 34.7005 154.609 82.6027 154.609Z" fill="url(#paint6_radial_815_915)"/>
<path d="M82.6027 154.609C130.505 154.609 154.442 122.445 154.442 82.7697C154.442 43.0939 130.505 10.9303 82.6027 10.9303C34.7005 10.9303 10.7637 43.0939 10.7637 82.7697C10.7637 122.445 34.7005 154.609 82.6027 154.609Z" fill="url(#paint7_radial_815_915)"/>
<path d="M82.6027 154.609C130.505 154.609 154.442 122.445 154.442 82.7697C154.442 43.0939 130.505 10.9303 82.6027 10.9303C34.7005 10.9303 10.7637 43.0939 10.7637 82.7697C10.7637 122.445 34.7005 154.609 82.6027 154.609Z" fill="url(#paint8_radial_815_915)"/>
<path d="M82.6027 154.609C130.505 154.609 154.442 122.445 154.442 82.7697C154.442 43.0939 130.505 10.9303 82.6027 10.9303C34.7005 10.9303 10.7637 43.0939 10.7637 82.7697C10.7637 122.445 34.7005 154.609 82.6027 154.609Z" fill="url(#paint9_radial_815_915)"/>
<path d="M82.6027 154.609C130.505 154.609 154.442 122.445 154.442 82.7697C154.442 43.0939 130.505 10.9303 82.6027 10.9303C34.7005 10.9303 10.7637 43.0939 10.7637 82.7697C10.7637 122.445 34.7005 154.609 82.6027 154.609Z" fill="url(#paint10_radial_815_915)"/>
<path d="M82.6027 154.609C130.505 154.609 154.442 122.445 154.442 82.7697C154.442 43.0939 130.505 10.9303 82.6027 10.9303C34.7005 10.9303 10.7637 43.0939 10.7637 82.7697C10.7637 122.445 34.7005 154.609 82.6027 154.609Z" fill="url(#paint11_radial_815_915)"/>
<path d="M82.6027 154.609C130.505 154.609 154.442 122.445 154.442 82.7697C154.442 43.0939 130.505 10.9303 82.6027 10.9303C34.7005 10.9303 10.7637 43.0939 10.7637 82.7697C10.7637 122.445 34.7005 154.609 82.6027 154.609Z" fill="url(#paint12_radial_815_915)"/>
<path d="M82.6027 154.609C130.505 154.609 154.442 122.445 154.442 82.7697C154.442 43.0939 130.505 10.9303 82.6027 10.9303C34.7005 10.9303 10.7637 43.0939 10.7637 82.7697C10.7637 122.445 34.7005 154.609 82.6027 154.609Z" fill="url(#paint13_radial_815_915)"/>
<path d="M82.6027 154.609C130.505 154.609 154.442 122.445 154.442 82.7697C154.442 43.0939 130.505 10.9303 82.6027 10.9303C34.7005 10.9303 10.7637 43.0939 10.7637 82.7697C10.7637 122.445 34.7005 154.609 82.6027 154.609Z" fill="url(#paint14_radial_815_915)"/>
<path d="M82.6027 154.609C130.505 154.609 154.442 122.445 154.442 82.7697C154.442 43.0939 130.505 10.9303 82.6027 10.9303C34.7005 10.9303 10.7637 43.0939 10.7637 82.7697C10.7637 122.445 34.7005 154.609 82.6027 154.609Z" fill="url(#paint15_radial_815_915)"/>
<path d="M82.6027 154.609C130.505 154.609 154.442 122.445 154.442 82.7697C154.442 43.0939 130.505 10.9303 82.6027 10.9303C34.7005 10.9303 10.7637 43.0939 10.7637 82.7697C10.7637 122.445 34.7005 154.609 82.6027 154.609Z" fill="url(#paint16_radial_815_915)"/>
<path d="M82.6027 154.609C130.505 154.609 154.442 122.445 154.442 82.7697C154.442 43.0939 130.505 10.9303 82.6027 10.9303C34.7005 10.9303 10.7637 43.0939 10.7637 82.7697C10.7637 122.445 34.7005 154.609 82.6027 154.609Z" fill="url(#paint17_radial_815_915)"/>
<path d="M82.6027 154.609C130.505 154.609 154.442 122.445 154.442 82.7697C154.442 43.0939 130.505 10.9303 82.6027 10.9303C34.7005 10.9303 10.7637 43.0939 10.7637 82.7697C10.7637 122.445 34.7005 154.609 82.6027 154.609Z" fill="url(#paint18_radial_815_915)"/>
<path d="M82.6027 154.609C130.505 154.609 154.442 122.445 154.442 82.7697C154.442 43.0939 130.505 10.9303 82.6027 10.9303C34.7005 10.9303 10.7637 43.0939 10.7637 82.7697C10.7637 122.445 34.7005 154.609 82.6027 154.609Z" fill="url(#paint19_radial_815_915)"/>
<path d="M82.6027 154.609C130.505 154.609 154.442 122.445 154.442 82.7697C154.442 43.0939 130.505 10.9303 82.6027 10.9303C34.7005 10.9303 10.7637 43.0939 10.7637 82.7697C10.7637 122.445 34.7005 154.609 82.6027 154.609Z" fill="url(#paint20_radial_815_915)"/>
<path d="M82.6027 154.609C130.505 154.609 154.442 122.445 154.442 82.7697C154.442 43.0939 130.505 10.9303 82.6027 10.9303C34.7005 10.9303 10.7637 43.0939 10.7637 82.7697C10.7637 122.445 34.7005 154.609 82.6027 154.609Z" fill="url(#paint21_radial_815_915)"/>
<path d="M82.6027 154.609C130.505 154.609 154.442 122.445 154.442 82.7697C154.442 43.0939 130.505 10.9303 82.6027 10.9303C34.7005 10.9303 10.7637 43.0939 10.7637 82.7697C10.7637 122.445 34.7005 154.609 82.6027 154.609Z" fill="url(#paint22_radial_815_915)"/>
<path d="M82.6027 154.609C130.505 154.609 154.442 122.445 154.442 82.7697C154.442 43.0939 130.505 10.9303 82.6027 10.9303C34.7005 10.9303 10.7637 43.0939 10.7637 82.7697C10.7637 122.445 34.7005 154.609 82.6027 154.609Z" fill="url(#paint23_radial_815_915)"/>
<path d="M86.6086 76.607C86.6086 89.9994 97.4652 100.856 110.858 100.856C124.25 100.856 135.106 89.9994 135.106 76.607C135.106 63.2147 124.25 52.358 110.858 52.358C97.4652 52.358 86.6086 63.2147 86.6086 76.607Z" fill="white"/>
<path d="M99.4802 82.7804C99.4802 89.311 104.774 94.6051 111.305 94.6051C117.835 94.6051 123.129 89.311 123.129 82.7804C123.129 76.2499 117.835 70.9558 111.305 70.9558C104.774 70.9558 99.4802 76.2499 99.4802 82.7804Z" fill="#402931"/>
<path d="M36.5251 60.7447C33.128 59.4151 29.2054 61.0714 27.7637 64.4443L18.7588 85.5125L17.6648 80.2124C16.9057 76.5349 13.2388 74.2354 9.47452 75.0763C5.68994 75.9218 3.25183 79.6177 4.04387 83.3085L7.25152 98.256L8.25263 110.907C8.27104 111.14 8.30032 111.37 8.3401 111.598C8.31399 115.376 9.18951 119.21 11.0669 122.78C17.2076 134.457 31.7416 138.898 43.5295 132.699C48.7152 129.972 52.5055 125.64 54.6019 120.649L69.4355 91.2521C71.1752 87.8044 69.7288 83.6982 66.2286 82.1478C64.7045 81.4727 63.0476 81.3966 61.5308 81.8177L62.8214 78.7981C64.3301 75.2684 62.6711 71.2791 59.116 69.8876C57.6055 69.2964 55.9957 69.2693 54.528 69.7044L54.9244 68.777C56.4331 65.2473 54.7741 61.258 51.219 59.8665C47.6638 58.4751 43.5589 60.2084 42.0502 63.7381L40.5796 67.1788C40.7906 64.4433 39.2338 61.8049 36.5251 60.7447Z" fill="url(#paint24_radial_815_915)"/>
<path d="M36.5251 60.7447C33.128 59.4151 29.2054 61.0714 27.7637 64.4443L18.7588 85.5125L17.6648 80.2124C16.9057 76.5349 13.2388 74.2354 9.47452 75.0763C5.68994 75.9218 3.25183 79.6177 4.04387 83.3085L7.25152 98.256L8.25263 110.907C8.27104 111.14 8.30032 111.37 8.3401 111.598C8.31399 115.376 9.18951 119.21 11.0669 122.78C17.2076 134.457 31.7416 138.898 43.5295 132.699C48.7152 129.972 52.5055 125.64 54.6019 120.649L69.4355 91.2521C71.1752 87.8044 69.7288 83.6982 66.2286 82.1478C64.7045 81.4727 63.0476 81.3966 61.5308 81.8177L62.8214 78.7981C64.3301 75.2684 62.6711 71.2791 59.116 69.8876C57.6055 69.2964 55.9957 69.2693 54.528 69.7044L54.9244 68.777C56.4331 65.2473 54.7741 61.258 51.219 59.8665C47.6638 58.4751 43.5589 60.2084 42.0502 63.7381L40.5796 67.1788C40.7906 64.4433 39.2338 61.8049 36.5251 60.7447Z" fill="url(#paint25_radial_815_915)"/>
<path d="M36.5251 60.7447C33.128 59.4151 29.2054 61.0714 27.7637 64.4443L18.7588 85.5125L17.6648 80.2124C16.9057 76.5349 13.2388 74.2354 9.47452 75.0763C5.68994 75.9218 3.25183 79.6177 4.04387 83.3085L7.25152 98.256L8.25263 110.907C8.27104 111.14 8.30032 111.37 8.3401 111.598C8.31399 115.376 9.18951 119.21 11.0669 122.78C17.2076 134.457 31.7416 138.898 43.5295 132.699C48.7152 129.972 52.5055 125.64 54.6019 120.649L69.4355 91.2521C71.1752 87.8044 69.7288 83.6982 66.2286 82.1478C64.7045 81.4727 63.0476 81.3966 61.5308 81.8177L62.8214 78.7981C64.3301 75.2684 62.6711 71.2791 59.116 69.8876C57.6055 69.2964 55.9957 69.2693 54.528 69.7044L54.9244 68.777C56.4331 65.2473 54.7741 61.258 51.219 59.8665C47.6638 58.4751 43.5589 60.2084 42.0502 63.7381L40.5796 67.1788C40.7906 64.4433 39.2338 61.8049 36.5251 60.7447Z" fill="url(#paint26_radial_815_915)"/>
<path d="M36.5251 60.7447C33.128 59.4151 29.2054 61.0714 27.7637 64.4443L18.7588 85.5125L17.6648 80.2124C16.9057 76.5349 13.2388 74.2354 9.47452 75.0763C5.68994 75.9218 3.25183 79.6177 4.04387 83.3085L7.25152 98.256L8.25263 110.907C8.27104 111.14 8.30032 111.37 8.3401 111.598C8.31399 115.376 9.18951 119.21 11.0669 122.78C17.2076 134.457 31.7416 138.898 43.5295 132.699C48.7152 129.972 52.5055 125.64 54.6019 120.649L69.4355 91.2521C71.1752 87.8044 69.7288 83.6982 66.2286 82.1478C64.7045 81.4727 63.0476 81.3966 61.5308 81.8177L62.8214 78.7981C64.3301 75.2684 62.6711 71.2791 59.116 69.8876C57.6055 69.2964 55.9957 69.2693 54.528 69.7044L54.9244 68.777C56.4331 65.2473 54.7741 61.258 51.219 59.8665C47.6638 58.4751 43.5589 60.2084 42.0502 63.7381L40.5796 67.1788C40.7906 64.4433 39.2338 61.8049 36.5251 60.7447Z" fill="url(#paint27_radial_815_915)"/>
<path d="M36.5251 60.7447C33.128 59.4151 29.2054 61.0714 27.7637 64.4443L18.7588 85.5125L17.6648 80.2124C16.9057 76.5349 13.2388 74.2354 9.47452 75.0763C5.68994 75.9218 3.25183 79.6177 4.04387 83.3085L7.25152 98.256L8.25263 110.907C8.27104 111.14 8.30032 111.37 8.3401 111.598C8.31399 115.376 9.18951 119.21 11.0669 122.78C17.2076 134.457 31.7416 138.898 43.5295 132.699C48.7152 129.972 52.5055 125.64 54.6019 120.649L69.4355 91.2521C71.1752 87.8044 69.7288 83.6982 66.2286 82.1478C64.7045 81.4727 63.0476 81.3966 61.5308 81.8177L62.8214 78.7981C64.3301 75.2684 62.6711 71.2791 59.116 69.8876C57.6055 69.2964 55.9957 69.2693 54.528 69.7044L54.9244 68.777C56.4331 65.2473 54.7741 61.258 51.219 59.8665C47.6638 58.4751 43.5589 60.2084 42.0502 63.7381L40.5796 67.1788C40.7906 64.4433 39.2338 61.8049 36.5251 60.7447Z" fill="url(#paint28_linear_815_915)"/>
<path d="M36.5251 60.7447C33.128 59.4151 29.2054 61.0714 27.7637 64.4443L18.7588 85.5125L17.6648 80.2124C16.9057 76.5349 13.2388 74.2354 9.47452 75.0763C5.68994 75.9218 3.25183 79.6177 4.04387 83.3085L7.25152 98.256L8.25263 110.907C8.27104 111.14 8.30032 111.37 8.3401 111.598C8.31399 115.376 9.18951 119.21 11.0669 122.78C17.2076 134.457 31.7416 138.898 43.5295 132.699C48.7152 129.972 52.5055 125.64 54.6019 120.649L69.4355 91.2521C71.1752 87.8044 69.7288 83.6982 66.2286 82.1478C64.7045 81.4727 63.0476 81.3966 61.5308 81.8177L62.8214 78.7981C64.3301 75.2684 62.6711 71.2791 59.116 69.8876C57.6055 69.2964 55.9957 69.2693 54.528 69.7044L54.9244 68.777C56.4331 65.2473 54.7741 61.258 51.219 59.8665C47.6638 58.4751 43.5589 60.2084 42.0502 63.7381L40.5796 67.1788C40.7906 64.4433 39.2338 61.8049 36.5251 60.7447Z" fill="url(#paint29_radial_815_915)"/>
<path d="M36.5251 60.7447C33.128 59.4151 29.2054 61.0714 27.7637 64.4443L18.7588 85.5125L17.6648 80.2124C16.9057 76.5349 13.2388 74.2354 9.47452 75.0763C5.68994 75.9218 3.25183 79.6177 4.04387 83.3085L7.25152 98.256L8.25263 110.907C8.27104 111.14 8.30032 111.37 8.3401 111.598C8.31399 115.376 9.18951 119.21 11.0669 122.78C17.2076 134.457 31.7416 138.898 43.5295 132.699C48.7152 129.972 52.5055 125.64 54.6019 120.649L69.4355 91.2521C71.1752 87.8044 69.7288 83.6982 66.2286 82.1478C64.7045 81.4727 63.0476 81.3966 61.5308 81.8177L62.8214 78.7981C64.3301 75.2684 62.6711 71.2791 59.116 69.8876C57.6055 69.2964 55.9957 69.2693 54.528 69.7044L54.9244 68.777C56.4331 65.2473 54.7741 61.258 51.219 59.8665C47.6638 58.4751 43.5589 60.2084 42.0502 63.7381L40.5796 67.1788C40.7906 64.4433 39.2338 61.8049 36.5251 60.7447Z" fill="url(#paint30_radial_815_915)"/>
<path d="M40.6046 67.2261L29.2398 94.4396L18.7587 85.511L27.7637 64.4428C29.2053 61.07 33.1279 59.4136 36.5251 60.7432C39.1428 61.7678 40.7554 64.2826 40.6046 67.2261Z" fill="url(#paint31_linear_815_915)"/>
<path d="M40.6046 67.2261L29.2398 94.4396L18.7587 85.511L27.7637 64.4428C29.2053 61.07 33.1279 59.4136 36.5251 60.7432C39.1428 61.7678 40.7554 64.2826 40.6046 67.2261Z" fill="url(#paint32_radial_815_915)"/>
<path d="M40.6046 67.2261L29.2398 94.4396L18.7587 85.511L27.7637 64.4428C29.2053 61.07 33.1279 59.4136 36.5251 60.7432C39.1428 61.7678 40.7554 64.2826 40.6046 67.2261Z" fill="url(#paint33_radial_815_915)"/>
<path d="M40.8904 66.5107L29.421 93.7836L40.6416 99.5867L54.5719 69.6899C54.5573 69.6942 54.5427 69.6985 54.5281 69.7028L54.9245 68.7753C56.4331 65.2457 54.7741 61.2563 51.219 59.8649C47.6639 58.4734 43.5589 60.2068 42.0503 63.7364L40.8962 66.4365L40.8904 66.5107Z" fill="url(#paint34_radial_815_915)"/>
<path d="M40.8904 66.5107L29.421 93.7836L40.6416 99.5867L54.5719 69.6899C54.5573 69.6942 54.5427 69.6985 54.5281 69.7028L54.9245 68.7753C56.4331 65.2457 54.7741 61.2563 51.219 59.8649C47.6639 58.4734 43.5589 60.2068 42.0503 63.7364L40.8962 66.4365L40.8904 66.5107Z" fill="url(#paint35_radial_815_915)"/>
<path fill-rule="evenodd" clip-rule="evenodd" d="M42.6537 95.2703L54.5723 69.6908L42.6537 95.2703Z" fill="url(#paint36_radial_815_915)"/>
<path fill-rule="evenodd" clip-rule="evenodd" d="M42.6537 95.2703L54.5723 69.6908L42.6537 95.2703Z" fill="url(#paint37_linear_815_915)"/>
<path fill-rule="evenodd" clip-rule="evenodd" d="M42.6537 95.2703L54.5723 69.6908L42.6537 95.2703Z" fill="url(#paint38_radial_815_915)"/>
<path fill-rule="evenodd" clip-rule="evenodd" d="M42.6537 95.2703L54.5723 69.6908L42.6537 95.2703Z" fill="url(#paint39_radial_815_915)"/>
<path d="M42.6537 95.2703L42.4842 95.6846L52.2858 100.449L61.6957 81.4322L62.822 78.7972C64.3306 75.2676 62.6716 71.2782 59.1165 69.8868C57.621 69.3015 56.0282 69.2691 54.5723 69.6908L42.6537 95.2703Z" fill="url(#paint40_radial_815_915)"/>
<path d="M42.6537 95.2703L42.4842 95.6846L52.2858 100.449L61.6957 81.4322L62.822 78.7972C64.3306 75.2676 62.6716 71.2782 59.1165 69.8868C57.621 69.3015 56.0282 69.2691 54.5723 69.6908L42.6537 95.2703Z" fill="url(#paint41_linear_815_915)"/>
<path d="M42.6537 95.2703L42.4842 95.6846L52.2858 100.449L61.6957 81.4322L62.822 78.7972C64.3306 75.2676 62.6716 71.2782 59.1165 69.8868C57.621 69.3015 56.0282 69.2691 54.5723 69.6908L42.6537 95.2703Z" fill="url(#paint42_radial_815_915)"/>
<path d="M42.6537 95.2703L42.4842 95.6846L52.2858 100.449L61.6957 81.4322L62.822 78.7972C64.3306 75.2676 62.6716 71.2782 59.1165 69.8868C57.621 69.3015 56.0282 69.2691 54.5723 69.6908L42.6537 95.2703Z" fill="url(#paint43_radial_815_915)"/>
<path d="M61.5794 81.7039L52.3554 100.409L62.3927 105.209L69.4359 91.2511C71.1756 87.8035 69.7292 83.6972 66.229 82.1468C64.7049 81.4717 63.048 81.3956 61.5312 81.8167L61.5794 81.7039Z" fill="url(#paint44_radial_815_915)"/>
<path d="M61.5794 81.7039L52.3554 100.409L62.3927 105.209L69.4359 91.2511C71.1756 87.8035 69.7292 83.6972 66.229 82.1468C64.7049 81.4717 63.048 81.3956 61.5312 81.8167L61.5794 81.7039Z" fill="url(#paint45_radial_815_915)"/>
<path d="M61.5794 81.7039L52.3554 100.409L62.3927 105.209L69.4359 91.2511C71.1756 87.8035 69.7292 83.6972 66.229 82.1468C64.7049 81.4717 63.048 81.3956 61.5312 81.8167L61.5794 81.7039Z" fill="url(#paint46_radial_815_915)"/>
<path d="M81.3035 139.328C72.8267 139.328 65.9082 132.409 65.9082 123.932C65.9082 115.456 72.8267 108.537 81.3035 108.537C89.7803 108.537 96.6988 115.456 96.6988 123.932C96.6988 132.409 89.7803 139.328 81.3035 139.328Z" fill="url(#paint47_linear_815_915)"/>
<path d="M126.396 67.8148C125.914 64.1841 122.581 61.627 118.948 62.0936C115.331 62.5581 112.758 65.8412 113.217 69.4587C113.966 75.3653 115.155 84.3317 116.421 92.2837C116.445 92.4296 116.265 92.5173 116.164 92.4099C112.654 88.6878 106.397 82.0584 104.552 80.1401C101.943 77.426 97.6736 77.5438 95.0558 80.1384C92.4679 82.7034 92.4493 86.8806 95.0143 89.4686L97.1128 91.5858C94.552 89.9675 91.1244 90.2655 88.8811 92.4888C86.272 95.0748 86.2533 99.2863 88.8393 101.895L92.7034 105.794C94.0868 107.236 97.833 110.942 101.143 116.444C101.442 116.94 101.743 117.445 102.047 117.955C105.478 123.709 109.345 130.193 115.528 134.203C121.973 138.834 130.668 139.932 138.364 136.323C141.415 134.891 143.998 132.866 146.039 130.449C148.712 127.444 150.775 123.784 151.66 119.408C152.813 114.45 152.963 112.297 153.193 108.997C153.232 108.427 153.275 107.824 153.325 107.165C153.566 103.992 154.649 98.7104 155.307 95.7479L157.946 86.7689C159.102 83.1385 157.568 79.2989 153.527 78.0128C149.897 76.8573 145.871 79.1831 144.534 83.5432L141.753 92.2194L140.007 68.3726C139.736 64.6629 136.447 61.8994 132.743 62.2366C129.109 62.5674 126.397 65.76 126.734 69.3932C126.831 70.4415 126.94 71.5858 127.058 72.8035L126.396 67.8148Z" fill="url(#paint48_radial_815_915)"/>
<path d="M126.396 67.8148C125.914 64.1841 122.581 61.627 118.948 62.0936C115.331 62.5581 112.758 65.8412 113.217 69.4587C113.966 75.3653 115.155 84.3317 116.421 92.2837C116.445 92.4296 116.265 92.5173 116.164 92.4099C112.654 88.6878 106.397 82.0584 104.552 80.1401C101.943 77.426 97.6736 77.5438 95.0558 80.1384C92.4679 82.7034 92.4493 86.8806 95.0143 89.4686L97.1128 91.5858C94.552 89.9675 91.1244 90.2655 88.8811 92.4888C86.272 95.0748 86.2533 99.2863 88.8393 101.895L92.7034 105.794C94.0868 107.236 97.833 110.942 101.143 116.444C101.442 116.94 101.743 117.445 102.047 117.955C105.478 123.709 109.345 130.193 115.528 134.203C121.973 138.834 130.668 139.932 138.364 136.323C141.415 134.891 143.998 132.866 146.039 130.449C148.712 127.444 150.775 123.784 151.66 119.408C152.813 114.45 152.963 112.297 153.193 108.997C153.232 108.427 153.275 107.824 153.325 107.165C153.566 103.992 154.649 98.7104 155.307 95.7479L157.946 86.7689C159.102 83.1385 157.568 79.2989 153.527 78.0128C149.897 76.8573 145.871 79.1831 144.534 83.5432L141.753 92.2194L140.007 68.3726C139.736 64.6629 136.447 61.8994 132.743 62.2366C129.109 62.5674 126.397 65.76 126.734 69.3932C126.831 70.4415 126.94 71.5858 127.058 72.8035L126.396 67.8148Z" fill="#FFBE4A"/>
<path d="M126.396 67.8148C125.914 64.1841 122.581 61.627 118.948 62.0936C115.331 62.5581 112.758 65.8412 113.217 69.4587C113.966 75.3653 115.155 84.3317 116.421 92.2837C116.445 92.4296 116.265 92.5173 116.164 92.4099C112.654 88.6878 106.397 82.0584 104.552 80.1401C101.943 77.426 97.6736 77.5438 95.0558 80.1384C92.4679 82.7034 92.4493 86.8806 95.0143 89.4686L97.1128 91.5858C94.552 89.9675 91.1244 90.2655 88.8811 92.4888C86.272 95.0748 86.2533 99.2863 88.8393 101.895L92.7034 105.794C94.0868 107.236 97.833 110.942 101.143 116.444C101.442 116.94 101.743 117.445 102.047 117.955C105.478 123.709 109.345 130.193 115.528 134.203C121.973 138.834 130.668 139.932 138.364 136.323C141.415 134.891 143.998 132.866 146.039 130.449C148.712 127.444 150.775 123.784 151.66 119.408C152.813 114.45 152.963 112.297 153.193 108.997C153.232 108.427 153.275 107.824 153.325 107.165C153.566 103.992 154.649 98.7104 155.307 95.7479L157.946 86.7689C159.102 83.1385 157.568 79.2989 153.527 78.0128C149.897 76.8573 145.871 79.1831 144.534 83.5432L141.753 92.2194L140.007 68.3726C139.736 64.6629 136.447 61.8994 132.743 62.2366C129.109 62.5674 126.397 65.76 126.734 69.3932C126.831 70.4415 126.94 71.5858 127.058 72.8035L126.396 67.8148Z" fill="url(#paint49_linear_815_915)"/>
<path d="M126.396 67.8148C125.914 64.1841 122.581 61.627 118.948 62.0936C115.331 62.5581 112.758 65.8412 113.217 69.4587C113.966 75.3653 115.155 84.3317 116.421 92.2837C116.445 92.4296 116.265 92.5173 116.164 92.4099C112.654 88.6878 106.397 82.0584 104.552 80.1401C101.943 77.426 97.6736 77.5438 95.0558 80.1384C92.4679 82.7034 92.4493 86.8806 95.0143 89.4686L97.1128 91.5858C94.552 89.9675 91.1244 90.2655 88.8811 92.4888C86.272 95.0748 86.2533 99.2863 88.8393 101.895L92.7034 105.794C94.0868 107.236 97.833 110.942 101.143 116.444C101.442 116.94 101.743 117.445 102.047 117.955C105.478 123.709 109.345 130.193 115.528 134.203C121.973 138.834 130.668 139.932 138.364 136.323C141.415 134.891 143.998 132.866 146.039 130.449C148.712 127.444 150.775 123.784 151.66 119.408C152.813 114.45 152.963 112.297 153.193 108.997C153.232 108.427 153.275 107.824 153.325 107.165C153.566 103.992 154.649 98.7104 155.307 95.7479L157.946 86.7689C159.102 83.1385 157.568 79.2989 153.527 78.0128C149.897 76.8573 145.871 79.1831 144.534 83.5432L141.753 92.2194L140.007 68.3726C139.736 64.6629 136.447 61.8994 132.743 62.2366C129.109 62.5674 126.397 65.76 126.734 69.3932C126.831 70.4415 126.94 71.5858 127.058 72.8035L126.396 67.8148Z" fill="url(#paint50_radial_815_915)"/>
<path d="M126.396 67.8148C125.914 64.1841 122.581 61.627 118.948 62.0936C115.331 62.5581 112.758 65.8412 113.217 69.4587C113.966 75.3653 115.155 84.3317 116.421 92.2837C116.445 92.4296 116.265 92.5173 116.164 92.4099C112.654 88.6878 106.397 82.0584 104.552 80.1401C101.943 77.426 97.6736 77.5438 95.0558 80.1384C92.4679 82.7034 92.4493 86.8806 95.0143 89.4686L97.1128 91.5858C94.552 89.9675 91.1244 90.2655 88.8811 92.4888C86.272 95.0748 86.2533 99.2863 88.8393 101.895L92.7034 105.794C94.0868 107.236 97.833 110.942 101.143 116.444C101.442 116.94 101.743 117.445 102.047 117.955C105.478 123.709 109.345 130.193 115.528 134.203C121.973 138.834 130.668 139.932 138.364 136.323C141.415 134.891 143.998 132.866 146.039 130.449C148.712 127.444 150.775 123.784 151.66 119.408C152.813 114.45 152.963 112.297 153.193 108.997C153.232 108.427 153.275 107.824 153.325 107.165C153.566 103.992 154.649 98.7104 155.307 95.7479L157.946 86.7689C159.102 83.1385 157.568 79.2989 153.527 78.0128C149.897 76.8573 145.871 79.1831 144.534 83.5432L141.753 92.2194L140.007 68.3726C139.736 64.6629 136.447 61.8994 132.743 62.2366C129.109 62.5674 126.397 65.76 126.734 69.3932C126.831 70.4415 126.94 71.5858 127.058 72.8035L126.396 67.8148Z" fill="url(#paint51_radial_815_915)"/>
<path d="M126.396 67.8148C125.914 64.1841 122.581 61.627 118.948 62.0936C115.331 62.5581 112.758 65.8412 113.217 69.4587C113.966 75.3653 115.155 84.3317 116.421 92.2837C116.445 92.4296 116.265 92.5173 116.164 92.4099C112.654 88.6878 106.397 82.0584 104.552 80.1401C101.943 77.426 97.6736 77.5438 95.0558 80.1384C92.4679 82.7034 92.4493 86.8806 95.0143 89.4686L97.1128 91.5858C94.552 89.9675 91.1244 90.2655 88.8811 92.4888C86.272 95.0748 86.2533 99.2863 88.8393 101.895L92.7034 105.794C94.0868 107.236 97.833 110.942 101.143 116.444C101.442 116.94 101.743 117.445 102.047 117.955C105.478 123.709 109.345 130.193 115.528 134.203C121.973 138.834 130.668 139.932 138.364 136.323C141.415 134.891 143.998 132.866 146.039 130.449C148.712 127.444 150.775 123.784 151.66 119.408C152.813 114.45 152.963 112.297 153.193 108.997C153.232 108.427 153.275 107.824 153.325 107.165C153.566 103.992 154.649 98.7104 155.307 95.7479L157.946 86.7689C159.102 83.1385 157.568 79.2989 153.527 78.0128C149.897 76.8573 145.871 79.1831 144.534 83.5432L141.753 92.2194L140.007 68.3726C139.736 64.6629 136.447 61.8994 132.743 62.2366C129.109 62.5674 126.397 65.76 126.734 69.3932C126.831 70.4415 126.94 71.5858 127.058 72.8035L126.396 67.8148Z" fill="url(#paint52_radial_815_915)"/>
<path d="M126.396 67.8148C125.914 64.1841 122.581 61.627 118.948 62.0936C115.331 62.5581 112.758 65.8412 113.217 69.4587C113.966 75.3653 115.155 84.3317 116.421 92.2837C116.445 92.4296 116.265 92.5173 116.164 92.4099C112.654 88.6878 106.397 82.0584 104.552 80.1401C101.943 77.426 97.6736 77.5438 95.0558 80.1384C92.4679 82.7034 92.4493 86.8806 95.0143 89.4686L97.1128 91.5858C94.552 89.9675 91.1244 90.2655 88.8811 92.4888C86.272 95.0748 86.2533 99.2863 88.8393 101.895L92.7034 105.794C94.0868 107.236 97.833 110.942 101.143 116.444C101.442 116.94 101.743 117.445 102.047 117.955C105.478 123.709 109.345 130.193 115.528 134.203C121.973 138.834 130.668 139.932 138.364 136.323C141.415 134.891 143.998 132.866 146.039 130.449C148.712 127.444 150.775 123.784 151.66 119.408C152.813 114.45 152.963 112.297 153.193 108.997C153.232 108.427 153.275 107.824 153.325 107.165C153.566 103.992 154.649 98.7104 155.307 95.7479L157.946 86.7689C159.102 83.1385 157.568 79.2989 153.527 78.0128C149.897 76.8573 145.871 79.1831 144.534 83.5432L141.753 92.2194L140.007 68.3726C139.736 64.6629 136.447 61.8994 132.743 62.2366C129.109 62.5674 126.397 65.76 126.734 69.3932C126.831 70.4415 126.94 71.5858 127.058 72.8035L126.396 67.8148Z" fill="url(#paint53_radial_815_915)"/>
<path d="M126.396 67.8148C125.914 64.1841 122.581 61.627 118.948 62.0936C115.331 62.5581 112.758 65.8412 113.217 69.4587C113.966 75.3653 115.155 84.3317 116.421 92.2837C116.445 92.4296 116.265 92.5173 116.164 92.4099C112.654 88.6878 106.397 82.0584 104.552 80.1401C101.943 77.426 97.6736 77.5438 95.0558 80.1384C92.4679 82.7034 92.4493 86.8806 95.0143 89.4686L97.1128 91.5858C94.552 89.9675 91.1244 90.2655 88.8811 92.4888C86.272 95.0748 86.2533 99.2863 88.8393 101.895L92.7034 105.794C94.0868 107.236 97.833 110.942 101.143 116.444C101.442 116.94 101.743 117.445 102.047 117.955C105.478 123.709 109.345 130.193 115.528 134.203C121.973 138.834 130.668 139.932 138.364 136.323C141.415 134.891 143.998 132.866 146.039 130.449C148.712 127.444 150.775 123.784 151.66 119.408C152.813 114.45 152.963 112.297 153.193 108.997C153.232 108.427 153.275 107.824 153.325 107.165C153.566 103.992 154.649 98.7104 155.307 95.7479L157.946 86.7689C159.102 83.1385 157.568 79.2989 153.527 78.0128C149.897 76.8573 145.871 79.1831 144.534 83.5432L141.753 92.2194L140.007 68.3726C139.736 64.6629 136.447 61.8994 132.743 62.2366C129.109 62.5674 126.397 65.76 126.734 69.3932C126.831 70.4415 126.94 71.5858 127.058 72.8035L126.396 67.8148Z" fill="url(#paint54_radial_815_915)"/>
<path d="M126.396 67.8148C125.914 64.1841 122.581 61.627 118.948 62.0936C115.331 62.5581 112.758 65.8412 113.217 69.4587C113.966 75.3653 115.155 84.3317 116.421 92.2837C116.445 92.4296 116.265 92.5173 116.164 92.4099C112.654 88.6878 106.397 82.0584 104.552 80.1401C101.943 77.426 97.6736 77.5438 95.0558 80.1384C92.4679 82.7034 92.4493 86.8806 95.0143 89.4686L97.1128 91.5858C94.552 89.9675 91.1244 90.2655 88.8811 92.4888C86.272 95.0748 86.2533 99.2863 88.8393 101.895L92.7034 105.794C94.0868 107.236 97.833 110.942 101.143 116.444C101.442 116.94 101.743 117.445 102.047 117.955C105.478 123.709 109.345 130.193 115.528 134.203C121.973 138.834 130.668 139.932 138.364 136.323C141.415 134.891 143.998 132.866 146.039 130.449C148.712 127.444 150.775 123.784 151.66 119.408C152.813 114.45 152.963 112.297 153.193 108.997C153.232 108.427 153.275 107.824 153.325 107.165C153.566 103.992 154.649 98.7104 155.307 95.7479L157.946 86.7689C159.102 83.1385 157.568 79.2989 153.527 78.0128C149.897 76.8573 145.871 79.1831 144.534 83.5432L141.753 92.2194L140.007 68.3726C139.736 64.6629 136.447 61.8994 132.743 62.2366C129.109 62.5674 126.397 65.76 126.734 69.3932C126.831 70.4415 126.94 71.5858 127.058 72.8035L126.396 67.8148Z" fill="url(#paint55_radial_815_915)"/>
<path d="M126.396 67.8148C125.914 64.1841 122.581 61.627 118.948 62.0936C115.331 62.5581 112.758 65.8412 113.217 69.4587C113.966 75.3653 115.155 84.3317 116.421 92.2837C116.445 92.4296 116.265 92.5173 116.164 92.4099C112.654 88.6878 106.397 82.0584 104.552 80.1401C101.943 77.426 97.6736 77.5438 95.0558 80.1384C92.4679 82.7034 92.4493 86.8806 95.0143 89.4686L97.1128 91.5858C94.552 89.9675 91.1244 90.2655 88.8811 92.4888C86.272 95.0748 86.2533 99.2863 88.8393 101.895L92.7034 105.794C94.0868 107.236 97.833 110.942 101.143 116.444C101.442 116.94 101.743 117.445 102.047 117.955C105.478 123.709 109.345 130.193 115.528 134.203C121.973 138.834 130.668 139.932 138.364 136.323C141.415 134.891 143.998 132.866 146.039 130.449C148.712 127.444 150.775 123.784 151.66 119.408C152.813 114.45 152.963 112.297 153.193 108.997C153.232 108.427 153.275 107.824 153.325 107.165C153.566 103.992 154.649 98.7104 155.307 95.7479L157.946 86.7689C159.102 83.1385 157.568 79.2989 153.527 78.0128C149.897 76.8573 145.871 79.1831 144.534 83.5432L141.753 92.2194L140.007 68.3726C139.736 64.6629 136.447 61.8994 132.743 62.2366C129.109 62.5674 126.397 65.76 126.734 69.3932C126.831 70.4415 126.94 71.5858 127.058 72.8035L126.396 67.8148Z" fill="url(#paint56_radial_815_915)"/>
<path d="M101.586 117.08C108.481 115.959 112.262 109.644 113.114 106.71L97.0341 91.5384C94.4822 89.9752 91.1014 90.2896 88.881 92.4903C86.2719 95.0763 86.2531 99.2878 88.8392 101.897L92.7033 105.796C92.8035 105.9 92.9161 106.016 93.04 106.144C94.1804 107.322 99.3548 114.059 101.586 117.08Z" fill="url(#paint57_linear_815_915)"/>
<path d="M101.586 117.08C108.481 115.959 112.262 109.644 113.114 106.71L97.0341 91.5384C94.4822 89.9752 91.1014 90.2896 88.881 92.4903C86.2719 95.0763 86.2531 99.2878 88.8392 101.897L92.7033 105.796C92.8035 105.9 92.9161 106.016 93.04 106.144C94.1804 107.322 99.3548 114.059 101.586 117.08Z" fill="url(#paint58_radial_815_915)"/>
<path d="M115.591 91.8032C115.64 91.8547 115.695 91.8896 115.752 91.91L119.255 96.2105C116.946 101.598 112.511 103.799 110.666 104.399L109.392 103.202C109.393 103.198 109.395 103.194 109.396 103.19L97.034 91.5374C96.9821 91.5056 96.9298 91.4745 96.8772 91.4443C96.9564 91.4898 97.0349 91.5371 97.1126 91.5862L95.0141 89.469C92.4491 86.8811 92.4677 82.7038 95.0556 80.1388C97.6733 77.5443 101.943 77.4265 104.552 80.1405C106.3 81.9585 112.011 88.0073 115.591 91.8032Z" fill="url(#paint59_linear_815_915)"/>
<path d="M115.591 91.8032C115.64 91.8547 115.695 91.8896 115.752 91.91L119.255 96.2105C116.946 101.598 112.511 103.799 110.666 104.399L109.392 103.202C109.393 103.198 109.395 103.194 109.396 103.19L97.034 91.5374C96.9821 91.5056 96.9298 91.4745 96.8772 91.4443C96.9564 91.4898 97.0349 91.5371 97.1126 91.5862L95.0141 89.469C92.4491 86.8811 92.4677 82.7038 95.0556 80.1388C97.6733 77.5443 101.943 77.4265 104.552 80.1405C106.3 81.9585 112.011 88.0073 115.591 91.8032Z" fill="url(#paint60_radial_815_915)"/>
<path d="M115.591 91.8032C115.64 91.8547 115.695 91.8896 115.752 91.91L119.255 96.2105C116.946 101.598 112.511 103.799 110.666 104.399L109.392 103.202C109.393 103.198 109.395 103.194 109.396 103.19L97.034 91.5374C96.9821 91.5056 96.9298 91.4745 96.8772 91.4443C96.9564 91.4898 97.0349 91.5371 97.1126 91.5862L95.0141 89.469C92.4491 86.8811 92.4677 82.7038 95.0556 80.1388C97.6733 77.5443 101.943 77.4265 104.552 80.1405C106.3 81.9585 112.011 88.0073 115.591 91.8032Z" fill="url(#paint61_radial_815_915)"/>
<path d="M115.591 91.8032C115.64 91.8547 115.695 91.8896 115.752 91.91L119.255 96.2105C116.946 101.598 112.511 103.799 110.666 104.399L109.392 103.202C109.393 103.198 109.395 103.194 109.396 103.19L97.034 91.5374C96.9821 91.5056 96.9298 91.4745 96.8772 91.4443C96.9564 91.4898 97.0349 91.5371 97.1126 91.5862L95.0141 89.469C92.4491 86.8811 92.4677 82.7038 95.0556 80.1388C97.6733 77.5443 101.943 77.4265 104.552 80.1405C106.3 81.9585 112.011 88.0073 115.591 91.8032Z" fill="url(#paint62_radial_815_915)"/>
<path d="M116.196 91.7906C119.502 98.3066 127.403 98.0116 129.904 95.8076L126.8 70.8697L126.395 67.8162C125.913 64.1855 122.58 61.6284 118.947 62.095C115.331 62.5595 112.758 65.8426 113.216 69.4601C113.939 75.1628 115.072 83.7179 116.29 91.4584C116.311 91.5913 116.27 91.7068 116.196 91.7906Z" fill="url(#paint63_linear_815_915)"/>
<path d="M116.196 91.7906C119.502 98.3066 127.403 98.0116 129.904 95.8076L126.8 70.8697L126.395 67.8162C125.913 64.1855 122.58 61.6284 118.947 62.095C115.331 62.5595 112.758 65.8426 113.216 69.4601C113.939 75.1628 115.072 83.7179 116.29 91.4584C116.311 91.5913 116.27 91.7068 116.196 91.7906Z" fill="url(#paint64_linear_815_915)"/>
<path d="M116.196 91.7906C119.502 98.3066 127.403 98.0116 129.904 95.8076L126.8 70.8697L126.395 67.8162C125.913 64.1855 122.58 61.6284 118.947 62.095C115.331 62.5595 112.758 65.8426 113.216 69.4601C113.939 75.1628 115.072 83.7179 116.29 91.4584C116.311 91.5913 116.27 91.7068 116.196 91.7906Z" fill="url(#paint65_linear_815_915)"/>
<path d="M116.196 91.7906C119.502 98.3066 127.403 98.0116 129.904 95.8076L126.8 70.8697L126.395 67.8162C125.913 64.1855 122.58 61.6284 118.947 62.095C115.331 62.5595 112.758 65.8426 113.216 69.4601C113.939 75.1628 115.072 83.7179 116.29 91.4584C116.311 91.5913 116.27 91.7068 116.196 91.7906Z" fill="url(#paint66_radial_815_915)"/>
<path d="M116.196 91.7906C119.502 98.3066 127.403 98.0116 129.904 95.8076L126.8 70.8697L126.395 67.8162C125.913 64.1855 122.58 61.6284 118.947 62.095C115.331 62.5595 112.758 65.8426 113.216 69.4601C113.939 75.1628 115.072 83.7179 116.29 91.4584C116.311 91.5913 116.27 91.7068 116.196 91.7906Z" fill="url(#paint67_radial_815_915)"/>
<path d="M126.948 71.6557L129.949 96.2885C131.79 97.2673 136.483 98.7876 141.53 96.6757C141.488 96.5879 141.595 94.8946 141.794 92.207L140.048 68.3611C139.777 64.6514 136.488 61.8879 132.784 62.2251C129.15 62.5559 126.438 65.7485 126.775 69.3817C126.872 70.43 126.981 71.5743 127.099 72.792L126.948 71.6557Z" fill="url(#paint68_linear_815_915)"/>
<path d="M126.948 71.6557L129.949 96.2885C131.79 97.2673 136.483 98.7876 141.53 96.6757C141.488 96.5879 141.595 94.8946 141.794 92.207L140.048 68.3611C139.777 64.6514 136.488 61.8879 132.784 62.2251C129.15 62.5559 126.438 65.7485 126.775 69.3817C126.872 70.43 126.981 71.5743 127.099 72.792L126.948 71.6557Z" fill="url(#paint69_linear_815_915)"/>
<path d="M126.948 71.6557L129.949 96.2885C131.79 97.2673 136.483 98.7876 141.53 96.6757C141.488 96.5879 141.595 94.8946 141.794 92.207L140.048 68.3611C139.777 64.6514 136.488 61.8879 132.784 62.2251C129.15 62.5559 126.438 65.7485 126.775 69.3817C126.872 70.43 126.981 71.5743 127.099 72.792L126.948 71.6557Z" fill="url(#paint70_radial_815_915)"/>
<path d="M126.948 71.6557L129.949 96.2885C131.79 97.2673 136.483 98.7876 141.53 96.6757C141.488 96.5879 141.595 94.8946 141.794 92.207L140.048 68.3611C139.777 64.6514 136.488 61.8879 132.784 62.2251C129.15 62.5559 126.438 65.7485 126.775 69.3817C126.872 70.43 126.981 71.5743 127.099 72.792L126.948 71.6557Z" fill="url(#paint71_radial_815_915)"/>
<path d="M126.948 71.6557L129.949 96.2885C131.79 97.2673 136.483 98.7876 141.53 96.6757C141.488 96.5879 141.595 94.8946 141.794 92.207L140.048 68.3611C139.777 64.6514 136.488 61.8879 132.784 62.2251C129.15 62.5559 126.438 65.7485 126.775 69.3817C126.872 70.43 126.981 71.5743 127.099 72.792L126.948 71.6557Z" fill="url(#paint72_radial_815_915)"/>
<path d="M126.948 71.6557L129.949 96.2885C131.79 97.2673 136.483 98.7876 141.53 96.6757C141.488 96.5879 141.595 94.8946 141.794 92.207L140.048 68.3611C139.777 64.6514 136.488 61.8879 132.784 62.2251C129.15 62.5559 126.438 65.7485 126.775 69.3817C126.872 70.43 126.981 71.5743 127.099 72.792L126.948 71.6557Z" fill="url(#paint73_linear_815_915)"/>
<path fill-rule="evenodd" clip-rule="evenodd" d="M41.9097 41.6575C38.867 44.5461 37.027 48.0216 36.2908 50.2302C35.8427 51.5746 34.3896 52.3011 33.0452 51.853C31.7008 51.4049 30.9743 49.9518 31.4224 48.6074C32.3968 45.6842 34.6622 41.462 38.3764 37.9358C42.1342 34.3683 47.4451 31.4575 54.3837 31.4575C55.8008 31.4575 56.9496 32.6063 56.9496 34.0234C56.9496 35.4405 55.8008 36.5893 54.3837 36.5893C49.0061 36.5893 44.9087 38.8104 41.9097 41.6575Z" fill="url(#paint74_radial_815_915)"/>
<path fill-rule="evenodd" clip-rule="evenodd" d="M41.9097 41.6575C38.867 44.5461 37.027 48.0216 36.2908 50.2302C35.8427 51.5746 34.3896 52.3011 33.0452 51.853C31.7008 51.4049 30.9743 49.9518 31.4224 48.6074C32.3968 45.6842 34.6622 41.462 38.3764 37.9358C42.1342 34.3683 47.4451 31.4575 54.3837 31.4575C55.8008 31.4575 56.9496 32.6063 56.9496 34.0234C56.9496 35.4405 55.8008 36.5893 54.3837 36.5893C49.0061 36.5893 44.9087 38.8104 41.9097 41.6575Z" fill="url(#paint75_radial_815_915)"/>
<path fill-rule="evenodd" clip-rule="evenodd" d="M123.307 41.6575C126.35 44.5461 128.19 48.0216 128.926 50.2302C129.374 51.5746 130.827 52.3011 132.172 51.853C133.516 51.4049 134.243 49.9518 133.794 48.6074C132.82 45.6842 130.555 41.462 126.84 37.9358C123.083 34.3683 117.772 31.4575 110.833 31.4575C109.416 31.4575 108.267 32.6063 108.267 34.0234C108.267 35.4405 109.416 36.5893 110.833 36.5893C116.211 36.5893 120.308 38.8104 123.307 41.6575Z" fill="url(#paint76_radial_815_915)"/>
<path fill-rule="evenodd" clip-rule="evenodd" d="M123.307 41.6575C126.35 44.5461 128.19 48.0216 128.926 50.2302C129.374 51.5746 130.827 52.3011 132.172 51.853C133.516 51.4049 134.243 49.9518 133.794 48.6074C132.82 45.6842 130.555 41.462 126.84 37.9358C123.083 34.3683 117.772 31.4575 110.833 31.4575C109.416 31.4575 108.267 32.6063 108.267 34.0234C108.267 35.4405 109.416 36.5893 110.833 36.5893C116.211 36.5893 120.308 38.8104 123.307 41.6575Z" fill="url(#paint77_radial_815_915)"/>
</g>
<defs>
<radialGradient id="paint0_radial_815_915" cx="0" cy="0" r="1" gradientUnits="userSpaceOnUse" gradientTransform="translate(131.36 46.8529) rotate(131.878) scale(199.876 199.876)">
<stop stop-color="#FFF478"/>
<stop offset="0.474827" stop-color="#FFB02E"/>
<stop offset="1" stop-color="#F70A8D"/>
</radialGradient>
<radialGradient id="paint1_radial_815_915" cx="0" cy="0" r="1" gradientUnits="userSpaceOnUse" gradientTransform="translate(82.6085 64.8141) rotate(101.31) scale(91.5849 117.302)">
<stop offset="0.787821" stop-color="#F59639" stop-opacity="0"/>
<stop offset="0.972509" stop-color="#FF7DCE"/>
</radialGradient>
<radialGradient id="paint2_radial_815_915" cx="0" cy="0" r="1" gradientUnits="userSpaceOnUse" gradientTransform="translate(92.872 72.5118) rotate(135) scale(210.466)">
<stop offset="0.314853" stop-opacity="0"/>
<stop offset="1"/>
</radialGradient>
<radialGradient id="paint3_radial_815_915" cx="0" cy="0" r="1" gradientUnits="userSpaceOnUse" gradientTransform="translate(82.6085 87.9072) rotate(77.692) scale(144.444 144.444)">
<stop offset="0.507903" stop-color="#7D6133" stop-opacity="0"/>
<stop offset="1" stop-color="#715B32"/>
</radialGradient>
<radialGradient id="paint4_radial_815_915" cx="0" cy="0" r="1" gradientUnits="userSpaceOnUse" gradientTransform="translate(85.1743 85.3413) rotate(55.7132) scale(68.3222 49.5233)">
<stop stop-color="#FFB849"/>
<stop offset="1" stop-color="#FFB847" stop-opacity="0"/>
</radialGradient>
<radialGradient id="paint5_radial_815_915" cx="0" cy="0" r="1" gradientUnits="userSpaceOnUse" gradientTransform="translate(105.701 93.039) rotate(9.86585) scale(59.9012 59.9014)">
<stop stop-color="#FFA64B"/>
<stop offset="0.900412" stop-color="#FFAE46" stop-opacity="0"/>
</radialGradient>
<radialGradient id="paint6_radial_815_915" cx="0" cy="0" r="1" gradientUnits="userSpaceOnUse" gradientTransform="translate(90.3061 77.6436) rotate(43.971) scale(303.047 303.047)">
<stop offset="0.185425" stop-opacity="0"/>
<stop offset="1" stop-opacity="0.4"/>
</radialGradient>
<radialGradient id="paint7_radial_815_915" cx="0" cy="0" r="1" gradientUnits="userSpaceOnUse" gradientTransform="translate(48.2375 67.7658) rotate(-10.3912) scale(36.2865 26.781)">
<stop stop-color="#F1A227"/>
<stop offset="1" stop-color="#F5A72C" stop-opacity="0"/>
</radialGradient>
<radialGradient id="paint8_radial_815_915" cx="0" cy="0" r="1" gradientUnits="userSpaceOnUse" gradientTransform="translate(42.6936 132.886) rotate(46.0309) scale(30.1832 30.1832)">
<stop stop-color="#A74A29"/>
<stop offset="1" stop-color="#A54A2A" stop-opacity="0"/>
</radialGradient>
<radialGradient id="paint9_radial_815_915" cx="0" cy="0" r="1" gradientUnits="userSpaceOnUse" gradientTransform="translate(112.899 125.565) rotate(49.3988) scale(26.4675 19.818)">
<stop stop-color="#A74A29"/>
<stop offset="1" stop-color="#A54A2A" stop-opacity="0"/>
</radialGradient>
<radialGradient id="paint10_radial_815_915" cx="0" cy="0" r="1" gradientUnits="userSpaceOnUse" gradientTransform="translate(132.783 84.3299) rotate(61.3896) scale(32.701 24.4854)">
<stop stop-color="#E27D3E"/>
<stop offset="1" stop-color="#E27D3E" stop-opacity="0"/>
</radialGradient>
<radialGradient id="paint11_radial_815_915" cx="0" cy="0" r="1" gradientUnits="userSpaceOnUse" gradientTransform="translate(57.0688 110.287) rotate(-73.996) scale(37.6236 16.9647)">
<stop stop-color="#A34829"/>
<stop offset="1" stop-color="#E9764D" stop-opacity="0"/>
</radialGradient>
<radialGradient id="paint12_radial_815_915" cx="0" cy="0" r="1" gradientUnits="userSpaceOnUse" gradientTransform="translate(25.0306 86.1578) rotate(-34.4301) scale(46.0613 24.2285)">
<stop stop-color="#A34829"/>
<stop offset="1" stop-color="#E9764D" stop-opacity="0"/>
</radialGradient>
<radialGradient id="paint13_radial_815_915" cx="0" cy="0" r="1" gradientUnits="userSpaceOnUse" gradientTransform="translate(52.2723 85.2903) rotate(-103.24) scale(25.7507 17.5353)">
<stop stop-color="#A34829"/>
<stop offset="1" stop-color="#E9764D" stop-opacity="0"/>
</radialGradient>
<radialGradient id="paint14_radial_815_915" cx="0" cy="0" r="1" gradientUnits="userSpaceOnUse" gradientTransform="translate(100.372 113.038) rotate(57.8289) scale(38.2319 25.3837)">
<stop stop-color="#A34829"/>
<stop offset="1" stop-color="#FFA686" stop-opacity="0"/>
</radialGradient>
<radialGradient id="paint15_radial_815_915" cx="0" cy="0" r="1" gradientUnits="userSpaceOnUse" gradientTransform="translate(146.553 89.0967) rotate(111.801) scale(14.8428 11.533)">
<stop stop-color="#A34829"/>
<stop offset="1" stop-color="#FFA686" stop-opacity="0"/>
</radialGradient>
<radialGradient id="paint16_radial_815_915" cx="0" cy="0" r="1" gradientUnits="userSpaceOnUse" gradientTransform="translate(99.3281 101.033) rotate(60.9455) scale(28.2133 28.2132)">
<stop stop-color="#A34829"/>
<stop offset="1" stop-color="#FFA686" stop-opacity="0"/>
</radialGradient>
<radialGradient id="paint17_radial_815_915" cx="0" cy="0" r="1" gradientUnits="userSpaceOnUse" gradientTransform="translate(73.7536 144.847) rotate(21.6445) scale(54.361 54.3612)">
<stop stop-color="#F47360"/>
<stop offset="1" stop-color="#F47360" stop-opacity="0"/>
</radialGradient>
<radialGradient id="paint18_radial_815_915" cx="0" cy="0" r="1" gradientUnits="userSpaceOnUse" gradientTransform="translate(110.081 77.5356) rotate(169.215) scale(27.9724 27.9725)">
<stop stop-color="#392108"/>
<stop offset="1" stop-color="#C87928" stop-opacity="0"/>
</radialGradient>
<radialGradient id="paint19_radial_815_915" cx="0" cy="0" r="1" gradientUnits="userSpaceOnUse" gradientTransform="translate(128.757 50.5582) rotate(63.9247) scale(6.4949 4.79848)">
<stop stop-color="#E7982E"/>
<stop offset="1" stop-color="#E39632" stop-opacity="0"/>
</radialGradient>
<radialGradient id="paint20_radial_815_915" cx="0" cy="0" r="1" gradientUnits="userSpaceOnUse" gradientTransform="translate(122.498 41.5936) rotate(59.7693) scale(13.5069 3.44815)">
<stop stop-color="#E7982E"/>
<stop offset="1" stop-color="#E39632" stop-opacity="0"/>
</radialGradient>
<radialGradient id="paint21_radial_815_915" cx="0" cy="0" r="1" gradientUnits="userSpaceOnUse" gradientTransform="translate(116.364 37.7976) rotate(37.3854) scale(13.6869 4.24975)">
<stop stop-color="#E2981B"/>
<stop offset="1" stop-color="#FFDC64" stop-opacity="0"/>
</radialGradient>
<radialGradient id="paint22_radial_815_915" cx="0" cy="0" r="1" gradientUnits="userSpaceOnUse" gradientTransform="translate(111.08 36.1364) rotate(25.017) scale(9.72811 5.00885)">
<stop stop-color="#E2981B"/>
<stop offset="1" stop-color="#FFDC64" stop-opacity="0"/>
</radialGradient>
<radialGradient id="paint23_radial_815_915" cx="0" cy="0" r="1" gradientUnits="userSpaceOnUse" gradientTransform="translate(42.8011 39.8931) rotate(56.7252) scale(11.7271 14.8527)">
<stop stop-color="#D59A13"/>
<stop offset="1" stop-color="#D59A13" stop-opacity="0"/>
</radialGradient>
<radialGradient id="paint24_radial_815_915" cx="0" cy="0" r="1" gradientUnits="userSpaceOnUse" gradientTransform="translate(59.3014 42.1571) rotate(110.759) scale(164.143 163.106)">
<stop offset="0.239583" stop-color="#FFCC42"/>
<stop offset="0.537866" stop-color="#FFB02E"/>
<stop offset="1" stop-color="#F70A8D"/>
</radialGradient>
<radialGradient id="paint25_radial_815_915" cx="0" cy="0" r="1" gradientUnits="userSpaceOnUse" gradientTransform="translate(25.0488 134.167) rotate(114.945) scale(75.6697 75.6695)">
<stop offset="0.239583" stop-color="#FFB52F" stop-opacity="0"/>
<stop offset="0.526687" stop-color="#FFD648"/>
<stop offset="0.584428" stop-color="#FFD648"/>
<stop offset="1" stop-color="#FFBB30" stop-opacity="0"/>
</radialGradient>
<radialGradient id="paint26_radial_815_915" cx="0" cy="0" r="1" gradientUnits="userSpaceOnUse" gradientTransform="translate(13.4264 95.2017) rotate(40.3713) scale(15.5651 15.5428)">
<stop stop-color="#FEB32F"/>
<stop offset="1" stop-color="#FEB32F" stop-opacity="0"/>
</radialGradient>
<radialGradient id="paint27_radial_815_915" cx="0" cy="0" r="1" gradientUnits="userSpaceOnUse" gradientTransform="translate(33.8957 89.5916) rotate(103.245) scale(14.2947 5.72617)">
<stop stop-color="#FFBB33"/>
<stop offset="1" stop-color="#FFBB33" stop-opacity="0"/>
</radialGradient>
<linearGradient id="paint28_linear_815_915" x1="7.37442" y1="98.584" x2="16.913" y2="97.1684" gradientUnits="userSpaceOnUse">
<stop stop-color="#E19337"/>
<stop offset="1" stop-color="#FFC038" stop-opacity="0"/>
</linearGradient>
<radialGradient id="paint29_radial_815_915" cx="0" cy="0" r="1" gradientUnits="userSpaceOnUse" gradientTransform="translate(36.1219 89.9081) rotate(68.7491) scale(46.1252 48.0592)">
<stop offset="0.65203" stop-color="#FFB745" stop-opacity="0"/>
<stop offset="0.892907" stop-color="#F69044"/>
<stop offset="1" stop-color="#DE6A63"/>
</radialGradient>
<radialGradient id="paint30_radial_815_915" cx="0" cy="0" r="1" gradientUnits="userSpaceOnUse" gradientTransform="translate(15.3094 85.7673) rotate(81.5597) scale(13.0417 5.01677)">
<stop stop-color="#FFDA65"/>
<stop offset="1" stop-color="#FFDA65" stop-opacity="0"/>
</radialGradient>
<linearGradient id="paint31_linear_815_915" x1="22.2569" y1="72.2194" x2="27.9026" y2="75.4768" gradientUnits="userSpaceOnUse">
<stop stop-color="#DEA725"/>
<stop offset="1" stop-color="#EDB225" stop-opacity="0"/>
</linearGradient>
<radialGradient id="paint32_radial_815_915" cx="0" cy="0" r="1" gradientUnits="userSpaceOnUse" gradientTransform="translate(33.0694 73.3384) rotate(114.38) scale(20.0986 3.75403)">
<stop stop-color="#FFC357"/>
<stop offset="1" stop-color="#FFC357" stop-opacity="0"/>
</radialGradient>
<radialGradient id="paint33_radial_815_915" cx="0" cy="0" r="1" gradientUnits="userSpaceOnUse" gradientTransform="translate(36.3158 64.7714) rotate(59.6765) scale(5.53701 3.75376)">
<stop stop-color="#FFDA65"/>
<stop offset="1" stop-color="#FFDA65" stop-opacity="0"/>
</radialGradient>
<radialGradient id="paint34_radial_815_915" cx="0" cy="0" r="1" gradientUnits="userSpaceOnUse" gradientTransform="translate(50.9974 60.1543) rotate(113.339) scale(8.243 4.91489)">
<stop stop-color="#FFDA65"/>
<stop offset="1" stop-color="#FFDA65" stop-opacity="0"/>
</radialGradient>
<radialGradient id="paint35_radial_815_915" cx="0" cy="0" r="1" gradientUnits="userSpaceOnUse" gradientTransform="translate(34.6348 78.9849) rotate(-59.9625) scale(25.5708 6.41601)">
<stop stop-color="#A03B04"/>
<stop offset="1" stop-color="#FA9428" stop-opacity="0"/>
</radialGradient>
<radialGradient id="paint36_radial_815_915" cx="0" cy="0" r="1" gradientUnits="userSpaceOnUse" gradientTransform="translate(71.199 65.9507) rotate(117.696) scale(40.3726 7.2629)">
<stop offset="0.476847" stop-color="#F9B417"/>
<stop offset="1" stop-color="#F9B417" stop-opacity="0"/>
</radialGradient>
<linearGradient id="paint37_linear_815_915" x1="49.4361" y1="78.5961" x2="54.0182" y2="82.5375" gradientUnits="userSpaceOnUse">
<stop stop-color="#F7B51D"/>
<stop offset="1" stop-color="#F7B51D" stop-opacity="0"/>
</linearGradient>
<radialGradient id="paint38_radial_815_915" cx="0" cy="0" r="1" gradientUnits="userSpaceOnUse" gradientTransform="translate(59.8298 69.7104) rotate(119.468) scale(7.01325 5.16767)">
<stop stop-color="#FFDA65"/>
<stop offset="1" stop-color="#FFDA65" stop-opacity="0"/>
</radialGradient>
<radialGradient id="paint39_radial_815_915" cx="0" cy="0" r="1" gradientUnits="userSpaceOnUse" gradientTransform="translate(48.7761 81.9199) rotate(-62.3541) scale(17.8567 4.55531)">
<stop stop-color="#A03B04"/>
<stop offset="1" stop-color="#FA9428" stop-opacity="0"/>
</radialGradient>
<radialGradient id="paint40_radial_815_915" cx="0" cy="0" r="1" gradientUnits="userSpaceOnUse" gradientTransform="translate(71.199 65.9507) rotate(117.696) scale(40.3726 7.2629)">
<stop offset="0.476847" stop-color="#F9B417"/>
<stop offset="1" stop-color="#F9B417" stop-opacity="0"/>
</radialGradient>
<linearGradient id="paint41_linear_815_915" x1="49.4361" y1="78.5961" x2="54.0182" y2="82.5375" gradientUnits="userSpaceOnUse">
<stop stop-color="#F7B51D"/>
<stop offset="1" stop-color="#F7B51D" stop-opacity="0"/>
</linearGradient>
<radialGradient id="paint42_radial_815_915" cx="0" cy="0" r="1" gradientUnits="userSpaceOnUse" gradientTransform="translate(59.8298 69.7104) rotate(119.468) scale(7.01325 5.16767)">
<stop stop-color="#FFDA65"/>
<stop offset="1" stop-color="#FFDA65" stop-opacity="0"/>
</radialGradient>
<radialGradient id="paint43_radial_815_915" cx="0" cy="0" r="1" gradientUnits="userSpaceOnUse" gradientTransform="translate(48.7761 81.9199) rotate(-62.3541) scale(17.8567 4.55531)">
<stop stop-color="#A03B04"/>
<stop offset="1" stop-color="#FA9428" stop-opacity="0"/>
</radialGradient>
<radialGradient id="paint44_radial_815_915" cx="0" cy="0" r="1" gradientUnits="userSpaceOnUse" gradientTransform="translate(57.4633 86.7251) rotate(21.5312) scale(5.66683 14.3855)">
<stop offset="0.428752" stop-color="#F7B51D"/>
<stop offset="1" stop-color="#F7B51D" stop-opacity="0"/>
</radialGradient>
<radialGradient id="paint45_radial_815_915" cx="0" cy="0" r="1" gradientUnits="userSpaceOnUse" gradientTransform="translate(67.1645 82.405) rotate(120.135) scale(5.4327 3.95229)">
<stop stop-color="#FFDA65"/>
<stop offset="1" stop-color="#FFDA65" stop-opacity="0"/>
</radialGradient>
<radialGradient id="paint46_radial_815_915" cx="0" cy="0" r="1" gradientUnits="userSpaceOnUse" gradientTransform="translate(55.8335 90.7502) rotate(-53.8913) scale(14.3349 4.15601)">
<stop stop-color="#A03B04"/>
<stop offset="1" stop-color="#FA9428" stop-opacity="0"/>
</radialGradient>
<linearGradient id="paint47_linear_815_915" x1="81.3035" y1="109.683" x2="81.3035" y2="139.328" gradientUnits="userSpaceOnUse">
<stop stop-color="#A50197"/>
<stop offset="1" stop-color="#D1016F"/>
</linearGradient>
<radialGradient id="paint48_radial_815_915" cx="0" cy="0" r="1" gradientUnits="userSpaceOnUse" gradientTransform="translate(130.269 88.0426) rotate(72.329) scale(69.8164 54.3544)">
<stop stop-color="#FFCC42"/>
<stop offset="1" stop-color="#E28C30"/>
</radialGradient>
<linearGradient id="paint49_linear_815_915" x1="98.5949" y1="121.988" x2="109.642" y2="111.63" gradientUnits="userSpaceOnUse">
<stop offset="0.340638" stop-color="#E28C30"/>
<stop offset="1" stop-color="#FFBF4B" stop-opacity="0"/>
</linearGradient>
<radialGradient id="paint50_radial_815_915" cx="0" cy="0" r="1" gradientUnits="userSpaceOnUse" gradientTransform="translate(135.626 142.515) rotate(-104.381) scale(9.04057 25.2449)">
<stop stop-color="#E28C30"/>
<stop offset="1" stop-color="#E28C30" stop-opacity="0"/>
</radialGradient>
<radialGradient id="paint51_radial_815_915" cx="0" cy="0" r="1" gradientUnits="userSpaceOnUse" gradientTransform="translate(117.162 136.784) rotate(-55.5546) scale(17.5762 34.6222)">
<stop stop-color="#F0A028"/>
<stop offset="1" stop-color="#F0A028" stop-opacity="0"/>
</radialGradient>
<radialGradient id="paint52_radial_815_915" cx="0" cy="0" r="1" gradientUnits="userSpaceOnUse" gradientTransform="translate(155.037 83.364) rotate(-168.996) scale(7.68779 7.68782)">
<stop stop-color="#FFDF66"/>
<stop offset="1" stop-color="#FFDF66" stop-opacity="0"/>
</radialGradient>
<radialGradient id="paint53_radial_815_915" cx="0" cy="0" r="1" gradientUnits="userSpaceOnUse" gradientTransform="translate(151.754 91.6122) rotate(106.714) scale(19.3596 5.49218)">
<stop stop-color="#FFCE53"/>
<stop offset="1" stop-color="#FFC54A" stop-opacity="0"/>
</radialGradient>
<radialGradient id="paint54_radial_815_915" cx="0" cy="0" r="1" gradientUnits="userSpaceOnUse" gradientTransform="translate(147.792 113.335) rotate(76.414) scale(26.725 13.738)">
<stop stop-color="#FFDE73"/>
<stop offset="1" stop-color="#FFD650" stop-opacity="0"/>
</radialGradient>
<radialGradient id="paint55_radial_815_915" cx="0" cy="0" r="1" gradientUnits="userSpaceOnUse" gradientTransform="translate(124.217 90.6872) rotate(72.0469) scale(54.9449 43.8262)">
<stop offset="0.753347" stop-color="#F98869" stop-opacity="0"/>
<stop offset="1" stop-color="#F969D9"/>
</radialGradient>
<radialGradient id="paint56_radial_815_915" cx="0" cy="0" r="1" gradientUnits="userSpaceOnUse" gradientTransform="translate(98.6469 116.956) rotate(51.1062) scale(32.6534 9.21303)">
<stop stop-color="#F98869"/>
<stop offset="1" stop-color="#F98869" stop-opacity="0"/>
</radialGradient>
<linearGradient id="paint57_linear_815_915" x1="105.592" y1="96.4194" x2="102.995" y2="99.9823" gradientUnits="userSpaceOnUse">
<stop stop-color="#C97C00"/>
<stop offset="1" stop-color="#C97C00" stop-opacity="0"/>
</linearGradient>
<radialGradient id="paint58_radial_815_915" cx="0" cy="0" r="1" gradientUnits="userSpaceOnUse" gradientTransform="translate(102.623 102.013) rotate(45.4791) scale(11.8974 4.06217)">
<stop stop-color="#FFDC64"/>
<stop offset="1" stop-color="#FFDC64" stop-opacity="0"/>
</radialGradient>
<linearGradient id="paint59_linear_815_915" x1="102.009" y1="98.2316" x2="107.053" y2="93.1183" gradientUnits="userSpaceOnUse">
<stop stop-color="#E5910C"/>
<stop offset="1" stop-color="#E5910C" stop-opacity="0"/>
</linearGradient>
<radialGradient id="paint60_radial_815_915" cx="0" cy="0" r="1" gradientUnits="userSpaceOnUse" gradientTransform="translate(111.857 103.361) rotate(-115.129) scale(3.28984 20.7645)">
<stop stop-color="#FFC23E"/>
<stop offset="1" stop-color="#FFC23E" stop-opacity="0"/>
</radialGradient>
<radialGradient id="paint61_radial_815_915" cx="0" cy="0" r="1" gradientUnits="userSpaceOnUse" gradientTransform="translate(100.687 96.5982) rotate(-128.991) scale(16.4878 5.32682)">
<stop stop-color="#A03B04"/>
<stop offset="1" stop-color="#FA9428" stop-opacity="0"/>
</radialGradient>
<radialGradient id="paint62_radial_815_915" cx="0" cy="0" r="1" gradientUnits="userSpaceOnUse" gradientTransform="translate(108.455 90.1134) rotate(46.5529) scale(12.0415 3.91674)">
<stop stop-color="#FFDC64"/>
<stop offset="1" stop-color="#FFDC64" stop-opacity="0"/>
</radialGradient>
<linearGradient id="paint63_linear_815_915" x1="112.91" y1="83.0696" x2="120.086" y2="82.0447" gradientUnits="userSpaceOnUse">
<stop stop-color="#DD9627"/>
<stop offset="1" stop-color="#DD9627" stop-opacity="0"/>
</linearGradient>
<linearGradient id="paint64_linear_815_915" x1="130.022" y1="81.6139" x2="126.458" y2="82.1807" gradientUnits="userSpaceOnUse">
<stop stop-color="#C67700"/>
<stop offset="1" stop-color="#C67700" stop-opacity="0"/>
</linearGradient>
<linearGradient id="paint65_linear_815_915" x1="129.01" y1="95.8829" x2="120.58" y2="89.4299" gradientUnits="userSpaceOnUse">
<stop stop-color="#FFC23E"/>
<stop offset="1" stop-color="#FFC23E" stop-opacity="0"/>
</linearGradient>
<radialGradient id="paint66_radial_815_915" cx="0" cy="0" r="1" gradientUnits="userSpaceOnUse" gradientTransform="translate(121.64 66.2228) rotate(116.892) scale(4.49532 4.04358)">
<stop stop-color="#FFDF66"/>
<stop offset="1" stop-color="#FFDF66" stop-opacity="0"/>
</radialGradient>
<radialGradient id="paint67_radial_815_915" cx="0" cy="0" r="1" gradientUnits="userSpaceOnUse" gradientTransform="translate(124.665 78.6158) rotate(86.1308) scale(21.2228 4.42094)">
<stop stop-color="#FFD44D"/>
<stop offset="1" stop-color="#FFD44D" stop-opacity="0"/>
</radialGradient>
<linearGradient id="paint68_linear_815_915" x1="126.722" y1="83.3475" x2="135.495" y2="82.2164" gradientUnits="userSpaceOnUse">
<stop stop-color="#DD9627"/>
<stop offset="1" stop-color="#DD9627" stop-opacity="0"/>
</linearGradient>
<linearGradient id="paint69_linear_815_915" x1="135.376" y1="97.038" x2="135.733" y2="89.643" gradientUnits="userSpaceOnUse">
<stop stop-color="#FFC23E"/>
<stop offset="1" stop-color="#FFC23E" stop-opacity="0"/>
</linearGradient>
<radialGradient id="paint70_radial_815_915" cx="0" cy="0" r="1" gradientUnits="userSpaceOnUse" gradientTransform="translate(137.769 66.691) rotate(145.84) scale(5.42651 6.00721)">
<stop stop-color="#FFDF66"/>
<stop offset="1" stop-color="#FFDF66" stop-opacity="0"/>
</radialGradient>
<radialGradient id="paint71_radial_815_915" cx="0" cy="0" r="1" gradientUnits="userSpaceOnUse" gradientTransform="translate(137.689 78.8448) rotate(87.9994) scale(21.2944 4.74174)">
<stop stop-color="#FFD44D"/>
<stop offset="1" stop-color="#FFD44D" stop-opacity="0"/>
</radialGradient>
<radialGradient id="paint72_radial_815_915" cx="0" cy="0" r="1" gradientUnits="userSpaceOnUse" gradientTransform="translate(127.587 80.5237) rotate(-94.1716) scale(23.5203 7.23796)">
<stop stop-color="#A03B04"/>
<stop offset="1" stop-color="#FA9428" stop-opacity="0"/>
</radialGradient>
<linearGradient id="paint73_linear_815_915" x1="146.546" y1="77.5486" x2="139.201" y2="78.4127" gradientUnits="userSpaceOnUse">
<stop stop-color="#E8AC2E"/>
<stop offset="1" stop-color="#E8AC2E" stop-opacity="0"/>
</linearGradient>
<radialGradient id="paint74_radial_815_915" cx="0" cy="0" r="1" gradientUnits="userSpaceOnUse" gradientTransform="translate(51.0814 51.0386) rotate(-124.747) scale(17.5003 21.9903)">
<stop offset="0.552138" stop-color="#4A2F37"/>
<stop offset="0.822285" stop-color="#51394C"/>
<stop offset="0.881253" stop-color="#50394C"/>
<stop offset="1" stop-color="#4D3635"/>
</radialGradient>
<radialGradient id="paint75_radial_815_915" cx="0" cy="0" r="1" gradientUnits="userSpaceOnUse" gradientTransform="translate(55.6804 34.6584) rotate(-176.165) scale(2.12446 3.99546)">
<stop stop-color="#5A4950"/>
<stop offset="1" stop-color="#5D4C4F" stop-opacity="0"/>
</radialGradient>
<radialGradient id="paint76_radial_815_915" cx="0" cy="0" r="1" gradientUnits="userSpaceOnUse" gradientTransform="translate(114.546 49.4087) rotate(-145.524) scale(20.2272 18.5251)">
<stop offset="0.641397" stop-color="#2F1F2A"/>
<stop offset="0.822285" stop-color="#51394C"/>
<stop offset="0.881253" stop-color="#50394C"/>
<stop offset="1" stop-color="#442E3E"/>
</radialGradient>
<radialGradient id="paint77_radial_815_915" cx="0" cy="0" r="1" gradientUnits="userSpaceOnUse" gradientTransform="translate(120.131 41.7214) rotate(129.805) scale(20.7975 16.7791)">
<stop offset="0.645531" stop-color="#362530" stop-opacity="0"/>
<stop offset="1" stop-color="#342330"/>
</radialGradient>
<clipPath id="clip0_815_915">
<rect width="164.217" height="164.217" fill="white" transform="translate(0.5 0.666748)"/>
</clipPath>
</defs>
</svg>
