<svg width="883" height="499" viewBox="0 0 883 499" fill="none" xmlns="http://www.w3.org/2000/svg">
<path d="M25.9394 491.754C15.8568 493.298 7.16289 483.269 10.0297 473.421C16.9702 449.581 25.8807 412.881 25.7365 381.813C25.6209 356.876 19.6098 339.748 13.7095 322.936L13.6697 322.822C7.77199 306.017 2 289.515 2 265.442C2 241.993 7.82784 225.084 13.7588 207.905L13.7804 207.843C19.7108 190.665 25.7366 173.212 25.7366 149.062C25.7366 115.146 13.8228 54.3826 6.8807 21.8279C4.92489 12.6562 12.9109 4.25098 22.1916 5.70593C51.9888 10.3773 105.47 17.8149 144.787 17.9425C173.799 18.0366 191.964 14.4024 210.554 10.6829L211.954 10.4029C230.964 6.60327 250.767 2.79709 283.652 2.79709C312.608 2.79709 336.073 6.50427 359.868 10.2638L360.385 10.3453C384.354 14.1319 408.69 17.9425 439.126 17.9425C468.408 17.9425 489.875 14.415 512.009 10.7777C512.889 10.6331 513.77 10.4882 514.653 10.3434C537.711 6.56241 561.914 2.79709 596.974 2.79709C630.989 2.79709 654.892 6.56192 676.113 10.3388C678.18 10.7068 680.223 11.0752 682.25 11.4405C701.02 14.8247 718.312 17.9425 739.394 17.9425C771.805 17.9425 828.946 10.1832 860.54 5.49362C869.857 4.11063 877.76 12.7284 875.649 21.9514C868.648 52.5454 857.263 108.283 857.263 147.468C857.263 170.041 863.28 188.66 869.197 206.972L869.229 207.07C875.169 225.456 881 243.54 881 265.442C881 288.426 875.172 305.568 869.239 322.988L869.214 323.059C863.287 340.459 857.263 358.144 857.263 381.823C857.263 411.216 866.55 449.466 873.498 474C876.249 483.713 867.741 493.433 857.812 491.906C829.988 487.625 783.485 481.718 739.388 481.855C709.647 481.947 681.821 485.753 657.542 489.52C653.867 490.09 650.278 490.658 646.779 491.212C627.071 494.333 610.224 497 596.974 497C562.966 497 540.73 493.238 518.384 489.455L518.373 489.453C495.981 485.664 473.476 481.855 439.126 481.855C407.455 481.855 384.219 485.461 361.108 489.048L361.082 489.052C337.982 492.638 315.003 496.203 283.652 496.203C247.598 496.203 231.163 492.647 214.683 489.082L214.645 489.074C197.976 485.468 181.247 481.855 144.793 481.855C99.0682 481.855 53.4853 487.536 25.9394 491.754Z" fill="black" stroke="#FFD200" stroke-width="4"/>
</svg>
