<svg width="165" height="165" viewBox="0 0 165 165" fill="none" xmlns="http://www.w3.org/2000/svg">
<g clip-path="url(#clip0_212_2273)">
<path d="M83.4545 154.612C131.358 154.612 155.295 122.448 155.295 82.7713C155.295 43.0947 131.358 10.9305 83.4545 10.9305C35.5511 10.9305 11.6138 43.0947 11.6138 82.7713C11.6138 122.448 35.5511 154.612 83.4545 154.612Z" fill="url(#paint0_radial_212_2273)"/>
<path d="M83.4545 154.612C131.358 154.612 155.295 122.448 155.295 82.7713C155.295 43.0947 131.358 10.9305 83.4545 10.9305C35.5511 10.9305 11.6138 43.0947 11.6138 82.7713C11.6138 122.448 35.5511 154.612 83.4545 154.612Z" fill="url(#paint1_radial_212_2273)"/>
<path d="M83.4545 154.612C131.358 154.612 155.295 122.448 155.295 82.7713C155.295 43.0947 131.358 10.9305 83.4545 10.9305C35.5511 10.9305 11.6138 43.0947 11.6138 82.7713C11.6138 122.448 35.5511 154.612 83.4545 154.612Z" fill="url(#paint2_radial_212_2273)" fill-opacity="0.6"/>
<path d="M83.4545 154.612C131.358 154.612 155.295 122.448 155.295 82.7713C155.295 43.0947 131.358 10.9305 83.4545 10.9305C35.5511 10.9305 11.6138 43.0947 11.6138 82.7713C11.6138 122.448 35.5511 154.612 83.4545 154.612Z" fill="url(#paint3_radial_212_2273)"/>
<path d="M83.4545 154.612C131.358 154.612 155.295 122.448 155.295 82.7713C155.295 43.0947 131.358 10.9305 83.4545 10.9305C35.5511 10.9305 11.6138 43.0947 11.6138 82.7713C11.6138 122.448 35.5511 154.612 83.4545 154.612Z" fill="url(#paint4_radial_212_2273)"/>
<path d="M83.4545 154.612C131.358 154.612 155.295 122.448 155.295 82.7713C155.295 43.0947 131.358 10.9305 83.4545 10.9305C35.5511 10.9305 11.6138 43.0947 11.6138 82.7713C11.6138 122.448 35.5511 154.612 83.4545 154.612Z" fill="url(#paint5_radial_212_2273)"/>
<path d="M83.4545 154.612C131.358 154.612 155.295 122.448 155.295 82.7713C155.295 43.0947 131.358 10.9305 83.4545 10.9305C35.5511 10.9305 11.6138 43.0947 11.6138 82.7713C11.6138 122.448 35.5511 154.612 83.4545 154.612Z" fill="url(#paint6_radial_212_2273)"/>
<path fill-rule="evenodd" clip-rule="evenodd" d="M70.3599 78.1867C72.8949 79.4542 73.9225 82.5368 72.6549 85.0719C68.9494 92.483 61.4217 96.3892 54.2296 97.4266C47.104 98.4545 38.9668 96.8596 33.6447 91.5375C31.6406 89.5334 31.6406 86.284 33.6447 84.2799C35.6488 82.2758 38.8982 82.2758 40.9023 84.2799C43.2781 86.6557 47.7912 87.9853 52.7643 87.268C57.6707 86.5602 61.6898 84.0516 63.4747 80.4818C64.7423 77.9467 67.8248 76.9192 70.3599 78.1867Z" fill="url(#paint7_linear_212_2273)"/>
<path fill-rule="evenodd" clip-rule="evenodd" d="M96.561 78.1867C94.026 79.4542 92.9984 82.5368 94.266 85.0719C97.9715 92.483 105.499 96.3892 112.691 97.4266C119.817 98.4545 127.954 96.8596 133.276 91.5375C135.28 89.5334 135.28 86.284 133.276 84.2799C131.272 82.2758 128.023 82.2758 126.019 84.2799C123.643 86.6557 119.13 87.9853 114.157 87.268C109.25 86.5602 105.231 84.0516 103.446 80.4818C102.179 77.9467 99.0961 76.9192 96.561 78.1867Z" fill="url(#paint8_linear_212_2273)"/>
<path fill-rule="evenodd" clip-rule="evenodd" d="M105.248 127.423C93.1957 115.459 73.7056 115.501 61.6931 127.557C59.6926 129.565 56.4433 129.571 54.4355 127.57C52.4277 125.57 52.4218 122.321 54.4222 120.313C70.4299 104.247 96.4083 104.186 112.479 120.139C114.49 122.136 114.502 125.385 112.505 127.397C110.509 129.408 107.259 129.42 105.248 127.423Z" fill="url(#paint9_linear_212_2273)"/>
</g>
<defs>
<radialGradient id="paint0_radial_212_2273" cx="0" cy="0" r="1" gradientUnits="userSpaceOnUse" gradientTransform="translate(132.213 46.8538) rotate(132.839) scale(192.463)">
<stop stop-color="#FFF478"/>
<stop offset="0.474827" stop-color="#FFB02E"/>
<stop offset="1" stop-color="#F70A8D"/>
</radialGradient>
<radialGradient id="paint1_radial_212_2273" cx="0" cy="0" r="1" gradientUnits="userSpaceOnUse" gradientTransform="translate(83.4603 64.8154) rotate(101.31) scale(91.5866 117.305)">
<stop offset="0.787821" stop-color="#F59639" stop-opacity="0"/>
<stop offset="0.972509" stop-color="#FF7DCE"/>
</radialGradient>
<radialGradient id="paint2_radial_212_2273" cx="0" cy="0" r="1" gradientUnits="userSpaceOnUse" gradientTransform="translate(93.724 72.5132) rotate(135) scale(210.47)">
<stop offset="0.314853" stop-opacity="0"/>
<stop offset="1"/>
</radialGradient>
<radialGradient id="paint3_radial_212_2273" cx="0" cy="0" r="1" gradientUnits="userSpaceOnUse" gradientTransform="translate(83.4603 87.9089) rotate(77.692) scale(144.447)">
<stop offset="0.507903" stop-color="#7D6133" stop-opacity="0"/>
<stop offset="1" stop-color="#715B32"/>
</radialGradient>
<radialGradient id="paint4_radial_212_2273" cx="0" cy="0" r="1" gradientUnits="userSpaceOnUse" gradientTransform="translate(86.0262 85.343) rotate(55.7131) scale(68.3236 49.5244)">
<stop stop-color="#FFB849"/>
<stop offset="1" stop-color="#FFB847" stop-opacity="0"/>
</radialGradient>
<radialGradient id="paint5_radial_212_2273" cx="0" cy="0" r="1" gradientUnits="userSpaceOnUse" gradientTransform="translate(106.554 93.0408) rotate(9.86581) scale(59.9026)">
<stop stop-color="#FFA64B"/>
<stop offset="0.900412" stop-color="#FFAE46" stop-opacity="0"/>
</radialGradient>
<radialGradient id="paint6_radial_212_2273" cx="0" cy="0" r="1" gradientUnits="userSpaceOnUse" gradientTransform="translate(91.1581 77.6451) rotate(43.9708) scale(303.053)">
<stop offset="0.185425" stop-opacity="0"/>
<stop offset="1" stop-opacity="0.4"/>
</radialGradient>
<linearGradient id="paint7_linear_212_2273" x1="58.8274" y1="86.6257" x2="57.6207" y2="93.8659" gradientUnits="userSpaceOnUse">
<stop stop-color="#52383E"/>
<stop offset="1" stop-color="#432A35"/>
</linearGradient>
<linearGradient id="paint8_linear_212_2273" x1="108.093" y1="86.6257" x2="109.3" y2="93.8659" gradientUnits="userSpaceOnUse">
<stop stop-color="#52383E"/>
<stop offset="1" stop-color="#432A35"/>
</linearGradient>
<linearGradient id="paint9_linear_212_2273" x1="83.4605" y1="108.058" x2="83.4605" y2="118.643" gradientUnits="userSpaceOnUse">
<stop stop-color="#4F3C43"/>
<stop offset="1" stop-color="#512756"/>
</linearGradient>
<clipPath id="clip0_212_2273">
<rect width="164.221" height="164.221" fill="white" transform="translate(0.5 0.666748)"/>
</clipPath>
</defs>
</svg>
