<svg width="165" height="165" viewBox="0 0 165 165" fill="none" xmlns="http://www.w3.org/2000/svg">
<path d="M82.6027 154.064C130.505 154.064 154.442 121.9 154.442 82.2246C154.442 42.5488 130.505 10.3853 82.6027 10.3853C34.7005 10.3853 10.7637 42.5488 10.7637 82.2246C10.7637 121.9 34.7005 154.064 82.6027 154.064Z" fill="url(#paint0_radial_815_888)"/>
<path d="M82.6027 154.064C130.505 154.064 154.442 121.9 154.442 82.2246C154.442 42.5488 130.505 10.3853 82.6027 10.3853C34.7005 10.3853 10.7637 42.5488 10.7637 82.2246C10.7637 121.9 34.7005 154.064 82.6027 154.064Z" fill="url(#paint1_radial_815_888)"/>
<path d="M82.6027 154.064C130.505 154.064 154.442 121.9 154.442 82.2246C154.442 42.5488 130.505 10.3853 82.6027 10.3853C34.7005 10.3853 10.7637 42.5488 10.7637 82.2246C10.7637 121.9 34.7005 154.064 82.6027 154.064Z" fill="url(#paint2_radial_815_888)" fill-opacity="0.6"/>
<path d="M82.6027 154.064C130.505 154.064 154.442 121.9 154.442 82.2246C154.442 42.5488 130.505 10.3853 82.6027 10.3853C34.7005 10.3853 10.7637 42.5488 10.7637 82.2246C10.7637 121.9 34.7005 154.064 82.6027 154.064Z" fill="url(#paint3_radial_815_888)"/>
<path d="M82.6027 154.064C130.505 154.064 154.442 121.9 154.442 82.2246C154.442 42.5488 130.505 10.3853 82.6027 10.3853C34.7005 10.3853 10.7637 42.5488 10.7637 82.2246C10.7637 121.9 34.7005 154.064 82.6027 154.064Z" fill="url(#paint4_radial_815_888)"/>
<path d="M82.6027 154.064C130.505 154.064 154.442 121.9 154.442 82.2246C154.442 42.5488 130.505 10.3853 82.6027 10.3853C34.7005 10.3853 10.7637 42.5488 10.7637 82.2246C10.7637 121.9 34.7005 154.064 82.6027 154.064Z" fill="url(#paint5_radial_815_888)"/>
<path d="M82.6027 154.064C130.505 154.064 154.442 121.9 154.442 82.2246C154.442 42.5488 130.505 10.3853 82.6027 10.3853C34.7005 10.3853 10.7637 42.5488 10.7637 82.2246C10.7637 121.9 34.7005 154.064 82.6027 154.064Z" fill="url(#paint6_radial_815_888)"/>
<path d="M82.6027 154.064C130.505 154.064 154.442 121.9 154.442 82.2246C154.442 42.5488 130.505 10.3853 82.6027 10.3853C34.7005 10.3853 10.7637 42.5488 10.7637 82.2246C10.7637 121.9 34.7005 154.064 82.6027 154.064Z" fill="url(#paint7_radial_815_888)"/>
<path d="M82.6027 154.064C130.505 154.064 154.442 121.9 154.442 82.2246C154.442 42.5488 130.505 10.3853 82.6027 10.3853C34.7005 10.3853 10.7637 42.5488 10.7637 82.2246C10.7637 121.9 34.7005 154.064 82.6027 154.064Z" fill="url(#paint8_radial_815_888)"/>
<path d="M82.6027 154.064C130.505 154.064 154.442 121.9 154.442 82.2246C154.442 42.5488 130.505 10.3853 82.6027 10.3853C34.7005 10.3853 10.7637 42.5488 10.7637 82.2246C10.7637 121.9 34.7005 154.064 82.6027 154.064Z" fill="url(#paint9_radial_815_888)"/>
<path d="M82.6027 154.064C130.505 154.064 154.442 121.9 154.442 82.2246C154.442 42.5488 130.505 10.3853 82.6027 10.3853C34.7005 10.3853 10.7637 42.5488 10.7637 82.2246C10.7637 121.9 34.7005 154.064 82.6027 154.064Z" fill="url(#paint10_radial_815_888)"/>
<path d="M82.6027 154.064C130.505 154.064 154.442 121.9 154.442 82.2246C154.442 42.5488 130.505 10.3853 82.6027 10.3853C34.7005 10.3853 10.7637 42.5488 10.7637 82.2246C10.7637 121.9 34.7005 154.064 82.6027 154.064Z" fill="url(#paint11_radial_815_888)"/>
<path d="M82.6027 154.064C130.505 154.064 154.442 121.9 154.442 82.2246C154.442 42.5488 130.505 10.3853 82.6027 10.3853C34.7005 10.3853 10.7637 42.5488 10.7637 82.2246C10.7637 121.9 34.7005 154.064 82.6027 154.064Z" fill="url(#paint12_radial_815_888)"/>
<path d="M82.6027 154.064C130.505 154.064 154.442 121.9 154.442 82.2246C154.442 42.5488 130.505 10.3853 82.6027 10.3853C34.7005 10.3853 10.7637 42.5488 10.7637 82.2246C10.7637 121.9 34.7005 154.064 82.6027 154.064Z" fill="url(#paint13_radial_815_888)"/>
<path fill-rule="evenodd" clip-rule="evenodd" d="M70.826 101.291C70.7235 101.378 70.6211 101.464 70.5186 101.551C68.3507 103.376 65.1133 103.099 63.2877 100.931C61.462 98.7632 61.7394 95.5258 63.9073 93.7001C64.0005 93.6216 64.1032 93.5339 64.2153 93.4383C65.3945 92.4313 67.6098 90.5397 70.7621 89.1252C74.3143 87.5312 78.8733 86.5955 84.6148 87.4133C90.4497 88.2444 94.588 90.5886 97.5014 93.3519C100.27 95.9775 101.743 98.8205 102.506 100.292C102.524 100.327 102.541 100.36 102.559 100.394C103.864 102.909 102.883 106.007 100.367 107.312C97.8514 108.618 94.7538 107.636 93.4485 105.121C92.7298 103.736 91.9134 102.198 90.4384 100.799C89.0433 99.4754 86.8581 98.1 83.1676 97.5743C79.3837 97.0354 76.7809 97.6739 74.964 98.4892C73.2004 99.2806 72.0028 100.295 70.826 101.291Z" fill="url(#paint14_radial_815_888)"/>
<path fill-rule="evenodd" clip-rule="evenodd" d="M70.826 101.291C70.7235 101.378 70.6211 101.464 70.5186 101.551C68.3507 103.376 65.1133 103.099 63.2877 100.931C61.462 98.7632 61.7394 95.5258 63.9073 93.7001C64.0005 93.6216 64.1032 93.5339 64.2153 93.4383C65.3945 92.4313 67.6098 90.5397 70.7621 89.1252C74.3143 87.5312 78.8733 86.5955 84.6148 87.4133C90.4497 88.2444 94.588 90.5886 97.5014 93.3519C100.27 95.9775 101.743 98.8205 102.506 100.292C102.524 100.327 102.541 100.36 102.559 100.394C103.864 102.909 102.883 106.007 100.367 107.312C97.8514 108.618 94.7538 107.636 93.4485 105.121C92.7298 103.736 91.9134 102.198 90.4384 100.799C89.0433 99.4754 86.8581 98.1 83.1676 97.5743C79.3837 97.0354 76.7809 97.6739 74.964 98.4892C73.2004 99.2806 72.0028 100.295 70.826 101.291Z" fill="url(#paint15_radial_815_888)"/>
<path fill-rule="evenodd" clip-rule="evenodd" d="M70.826 101.291C70.7235 101.378 70.6211 101.464 70.5186 101.551C68.3507 103.376 65.1133 103.099 63.2877 100.931C61.462 98.7632 61.7394 95.5258 63.9073 93.7001C64.0005 93.6216 64.1032 93.5339 64.2153 93.4383C65.3945 92.4313 67.6098 90.5397 70.7621 89.1252C74.3143 87.5312 78.8733 86.5955 84.6148 87.4133C90.4497 88.2444 94.588 90.5886 97.5014 93.3519C100.27 95.9775 101.743 98.8205 102.506 100.292C102.524 100.327 102.541 100.36 102.559 100.394C103.864 102.909 102.883 106.007 100.367 107.312C97.8514 108.618 94.7538 107.636 93.4485 105.121C92.7298 103.736 91.9134 102.198 90.4384 100.799C89.0433 99.4754 86.8581 98.1 83.1676 97.5743C79.3837 97.0354 76.7809 97.6739 74.964 98.4892C73.2004 99.2806 72.0028 100.295 70.826 101.291Z" fill="url(#paint16_radial_815_888)"/>
<path d="M53.9683 83.3821C65.8889 83.3821 75.5524 73.7186 75.5524 61.798C75.5524 49.8774 65.8889 40.2139 53.9683 40.2139C42.0478 40.2139 32.3843 49.8774 32.3843 61.798C32.3843 73.7186 42.0478 83.3821 53.9683 83.3821Z" fill="white"/>
<path d="M111.183 83.7757C123.213 83.7757 132.964 74.024 132.964 61.9948C132.964 49.9655 123.213 40.2139 111.183 40.2139C99.1542 40.2139 89.4026 49.9655 89.4026 61.9948C89.4026 74.024 99.1542 83.7757 111.183 83.7757Z" fill="white"/>
<path fill-rule="evenodd" clip-rule="evenodd" d="M51.8177 69.4009C57.4861 69.4009 62.0813 64.8058 62.0813 59.1374C62.0813 53.4689 57.4861 48.8738 51.8177 48.8738C46.1493 48.8738 41.5542 53.4689 41.5542 59.1374C41.5542 64.8058 46.1493 69.4009 51.8177 69.4009ZM108.267 69.4009C113.936 69.4009 118.531 64.8058 118.531 59.1374C118.531 53.4689 113.936 48.8738 108.267 48.8738C102.599 48.8738 98.0037 53.4689 98.0037 59.1374C98.0037 64.8058 102.599 69.4009 108.267 69.4009Z" fill="url(#paint17_linear_815_888)"/>
<path d="M69.7789 136.064H69.3728L69.7668 136.163L69.7669 136.163L69.7675 136.163L69.7701 136.164L69.7808 136.166C69.7902 136.169 69.8044 136.173 69.8229 136.178C69.86 136.188 69.9145 136.205 69.9841 136.227C70.1233 136.272 70.3224 136.341 70.5615 136.441C71.0399 136.64 71.6775 136.959 72.3148 137.437C73.5886 138.393 74.8607 139.983 74.8607 142.529C74.8607 144.122 74.3831 145.313 73.6688 146.206C72.9539 147.1 71.9996 147.697 71.0425 148.096C70.0854 148.494 69.1276 148.694 68.4086 148.794C68.0493 148.844 67.7499 148.869 67.5405 148.881C67.4358 148.887 67.3537 148.891 67.2978 148.892C67.2698 148.893 67.2485 148.893 67.2341 148.893L67.218 148.894L67.214 148.894L67.213 148.894H67.2127V148.944V148.994C70.0193 148.994 72.2945 151.269 72.2945 154.075C72.2945 156.882 70.0193 159.157 67.2127 159.157H51.8174C51.397 159.157 50.9691 159.159 50.5339 159.16C42.9992 159.187 33.3128 159.222 23.6239 151.471C17.2275 146.353 15.3053 138.035 16.9061 130.351C18.5069 122.667 23.6287 115.628 31.3062 113.069C32.4042 112.703 33.283 111.832 33.9849 110.631C34.6869 109.429 35.2145 107.892 35.6087 106.184C36.3972 102.767 36.6539 98.6557 36.6967 95.1494C36.7476 90.9749 40.048 87.4122 44.2176 87.4122C48.3162 87.4122 51.5733 90.8552 51.346 94.9475L50.7637 105.432C50.6107 108.187 52.8034 110.505 55.5627 110.505H81.3251C84.8402 110.505 87.6898 113.355 87.6898 116.87C87.6898 120.385 84.8402 123.235 81.3251 123.235H72.3445H72.1327L72.3221 123.329L73.9475 124.142C76.0795 125.208 77.4263 127.387 77.4263 129.771C77.4263 133.247 74.6087 136.064 71.133 136.064H69.7789Z" fill="url(#paint18_radial_815_888)"/>
<path d="M69.7789 136.064H69.3728L69.7668 136.163L69.7669 136.163L69.7675 136.163L69.7701 136.164L69.7808 136.166C69.7902 136.169 69.8044 136.173 69.8229 136.178C69.86 136.188 69.9145 136.205 69.9841 136.227C70.1233 136.272 70.3224 136.341 70.5615 136.441C71.0399 136.64 71.6775 136.959 72.3148 137.437C73.5886 138.393 74.8607 139.983 74.8607 142.529C74.8607 144.122 74.3831 145.313 73.6688 146.206C72.9539 147.1 71.9996 147.697 71.0425 148.096C70.0854 148.494 69.1276 148.694 68.4086 148.794C68.0493 148.844 67.7499 148.869 67.5405 148.881C67.4358 148.887 67.3537 148.891 67.2978 148.892C67.2698 148.893 67.2485 148.893 67.2341 148.893L67.218 148.894L67.214 148.894L67.213 148.894H67.2127V148.944V148.994C70.0193 148.994 72.2945 151.269 72.2945 154.075C72.2945 156.882 70.0193 159.157 67.2127 159.157H51.8174C51.397 159.157 50.9691 159.159 50.5339 159.16C42.9992 159.187 33.3128 159.222 23.6239 151.471C17.2275 146.353 15.3053 138.035 16.9061 130.351C18.5069 122.667 23.6287 115.628 31.3062 113.069C32.4042 112.703 33.283 111.832 33.9849 110.631C34.6869 109.429 35.2145 107.892 35.6087 106.184C36.3972 102.767 36.6539 98.6557 36.6967 95.1494C36.7476 90.9749 40.048 87.4122 44.2176 87.4122C48.3162 87.4122 51.5733 90.8552 51.346 94.9475L50.7637 105.432C50.6107 108.187 52.8034 110.505 55.5627 110.505H81.3251C84.8402 110.505 87.6898 113.355 87.6898 116.87C87.6898 120.385 84.8402 123.235 81.3251 123.235H72.3445H72.1327L72.3221 123.329L73.9475 124.142C76.0795 125.208 77.4263 127.387 77.4263 129.771C77.4263 133.247 74.6087 136.064 71.133 136.064H69.7789Z" fill="url(#paint19_radial_815_888)"/>
<path d="M69.7789 136.064H69.3728L69.7668 136.163L69.7669 136.163L69.7675 136.163L69.7701 136.164L69.7808 136.166C69.7902 136.169 69.8044 136.173 69.8229 136.178C69.86 136.188 69.9145 136.205 69.9841 136.227C70.1233 136.272 70.3224 136.341 70.5615 136.441C71.0399 136.64 71.6775 136.959 72.3148 137.437C73.5886 138.393 74.8607 139.983 74.8607 142.529C74.8607 144.122 74.3831 145.313 73.6688 146.206C72.9539 147.1 71.9996 147.697 71.0425 148.096C70.0854 148.494 69.1276 148.694 68.4086 148.794C68.0493 148.844 67.7499 148.869 67.5405 148.881C67.4358 148.887 67.3537 148.891 67.2978 148.892C67.2698 148.893 67.2485 148.893 67.2341 148.893L67.218 148.894L67.214 148.894L67.213 148.894H67.2127V148.944V148.994C70.0193 148.994 72.2945 151.269 72.2945 154.075C72.2945 156.882 70.0193 159.157 67.2127 159.157H51.8174C51.397 159.157 50.9691 159.159 50.5339 159.16C42.9992 159.187 33.3128 159.222 23.6239 151.471C17.2275 146.353 15.3053 138.035 16.9061 130.351C18.5069 122.667 23.6287 115.628 31.3062 113.069C32.4042 112.703 33.283 111.832 33.9849 110.631C34.6869 109.429 35.2145 107.892 35.6087 106.184C36.3972 102.767 36.6539 98.6557 36.6967 95.1494C36.7476 90.9749 40.048 87.4122 44.2176 87.4122C48.3162 87.4122 51.5733 90.8552 51.346 94.9475L50.7637 105.432C50.6107 108.187 52.8034 110.505 55.5627 110.505H81.3251C84.8402 110.505 87.6898 113.355 87.6898 116.87C87.6898 120.385 84.8402 123.235 81.3251 123.235H72.3445H72.1327L72.3221 123.329L73.9475 124.142C76.0795 125.208 77.4263 127.387 77.4263 129.771C77.4263 133.247 74.6087 136.064 71.133 136.064H69.7789Z" fill="url(#paint20_radial_815_888)"/>
<path d="M69.7789 136.064H69.3728L69.7668 136.163L69.7669 136.163L69.7675 136.163L69.7701 136.164L69.7808 136.166C69.7902 136.169 69.8044 136.173 69.8229 136.178C69.86 136.188 69.9145 136.205 69.9841 136.227C70.1233 136.272 70.3224 136.341 70.5615 136.441C71.0399 136.64 71.6775 136.959 72.3148 137.437C73.5886 138.393 74.8607 139.983 74.8607 142.529C74.8607 144.122 74.3831 145.313 73.6688 146.206C72.9539 147.1 71.9996 147.697 71.0425 148.096C70.0854 148.494 69.1276 148.694 68.4086 148.794C68.0493 148.844 67.7499 148.869 67.5405 148.881C67.4358 148.887 67.3537 148.891 67.2978 148.892C67.2698 148.893 67.2485 148.893 67.2341 148.893L67.218 148.894L67.214 148.894L67.213 148.894H67.2127V148.944V148.994C70.0193 148.994 72.2945 151.269 72.2945 154.075C72.2945 156.882 70.0193 159.157 67.2127 159.157H51.8174C51.397 159.157 50.9691 159.159 50.5339 159.16C42.9992 159.187 33.3128 159.222 23.6239 151.471C17.2275 146.353 15.3053 138.035 16.9061 130.351C18.5069 122.667 23.6287 115.628 31.3062 113.069C32.4042 112.703 33.283 111.832 33.9849 110.631C34.6869 109.429 35.2145 107.892 35.6087 106.184C36.3972 102.767 36.6539 98.6557 36.6967 95.1494C36.7476 90.9749 40.048 87.4122 44.2176 87.4122C48.3162 87.4122 51.5733 90.8552 51.346 94.9475L50.7637 105.432C50.6107 108.187 52.8034 110.505 55.5627 110.505H81.3251C84.8402 110.505 87.6898 113.355 87.6898 116.87C87.6898 120.385 84.8402 123.235 81.3251 123.235H72.3445H72.1327L72.3221 123.329L73.9475 124.142C76.0795 125.208 77.4263 127.387 77.4263 129.771C77.4263 133.247 74.6087 136.064 71.133 136.064H69.7789Z" fill="url(#paint21_radial_815_888)"/>
<path d="M69.7789 136.064H69.3728L69.7668 136.163L69.7669 136.163L69.7675 136.163L69.7701 136.164L69.7808 136.166C69.7902 136.169 69.8044 136.173 69.8229 136.178C69.86 136.188 69.9145 136.205 69.9841 136.227C70.1233 136.272 70.3224 136.341 70.5615 136.441C71.0399 136.64 71.6775 136.959 72.3148 137.437C73.5886 138.393 74.8607 139.983 74.8607 142.529C74.8607 144.122 74.3831 145.313 73.6688 146.206C72.9539 147.1 71.9996 147.697 71.0425 148.096C70.0854 148.494 69.1276 148.694 68.4086 148.794C68.0493 148.844 67.7499 148.869 67.5405 148.881C67.4358 148.887 67.3537 148.891 67.2978 148.892C67.2698 148.893 67.2485 148.893 67.2341 148.893L67.218 148.894L67.214 148.894L67.213 148.894H67.2127V148.944V148.994C70.0193 148.994 72.2945 151.269 72.2945 154.075C72.2945 156.882 70.0193 159.157 67.2127 159.157H51.8174C51.397 159.157 50.9691 159.159 50.5339 159.16C42.9992 159.187 33.3128 159.222 23.6239 151.471C17.2275 146.353 15.3053 138.035 16.9061 130.351C18.5069 122.667 23.6287 115.628 31.3062 113.069C32.4042 112.703 33.283 111.832 33.9849 110.631C34.6869 109.429 35.2145 107.892 35.6087 106.184C36.3972 102.767 36.6539 98.6557 36.6967 95.1494C36.7476 90.9749 40.048 87.4122 44.2176 87.4122C48.3162 87.4122 51.5733 90.8552 51.346 94.9475L50.7637 105.432C50.6107 108.187 52.8034 110.505 55.5627 110.505H81.3251C84.8402 110.505 87.6898 113.355 87.6898 116.87C87.6898 120.385 84.8402 123.235 81.3251 123.235H72.3445H72.1327L72.3221 123.329L73.9475 124.142C76.0795 125.208 77.4263 127.387 77.4263 129.771C77.4263 133.247 74.6087 136.064 71.133 136.064H69.7789Z" fill="url(#paint22_radial_815_888)"/>
<path d="M69.7789 136.064H69.3728L69.7668 136.163L69.7669 136.163L69.7675 136.163L69.7701 136.164L69.7808 136.166C69.7902 136.169 69.8044 136.173 69.8229 136.178C69.86 136.188 69.9145 136.205 69.9841 136.227C70.1233 136.272 70.3224 136.341 70.5615 136.441C71.0399 136.64 71.6775 136.959 72.3148 137.437C73.5886 138.393 74.8607 139.983 74.8607 142.529C74.8607 144.122 74.3831 145.313 73.6688 146.206C72.9539 147.1 71.9996 147.697 71.0425 148.096C70.0854 148.494 69.1276 148.694 68.4086 148.794C68.0493 148.844 67.7499 148.869 67.5405 148.881C67.4358 148.887 67.3537 148.891 67.2978 148.892C67.2698 148.893 67.2485 148.893 67.2341 148.893L67.218 148.894L67.214 148.894L67.213 148.894H67.2127V148.944V148.994C70.0193 148.994 72.2945 151.269 72.2945 154.075C72.2945 156.882 70.0193 159.157 67.2127 159.157H51.8174C51.397 159.157 50.9691 159.159 50.5339 159.16C42.9992 159.187 33.3128 159.222 23.6239 151.471C17.2275 146.353 15.3053 138.035 16.9061 130.351C18.5069 122.667 23.6287 115.628 31.3062 113.069C32.4042 112.703 33.283 111.832 33.9849 110.631C34.6869 109.429 35.2145 107.892 35.6087 106.184C36.3972 102.767 36.6539 98.6557 36.6967 95.1494C36.7476 90.9749 40.048 87.4122 44.2176 87.4122C48.3162 87.4122 51.5733 90.8552 51.346 94.9475L50.7637 105.432C50.6107 108.187 52.8034 110.505 55.5627 110.505H81.3251C84.8402 110.505 87.6898 113.355 87.6898 116.87C87.6898 120.385 84.8402 123.235 81.3251 123.235H72.3445H72.1327L72.3221 123.329L73.9475 124.142C76.0795 125.208 77.4263 127.387 77.4263 129.771C77.4263 133.247 74.6087 136.064 71.133 136.064H69.7789Z" fill="url(#paint23_radial_815_888)"/>
<path d="M69.7789 136.064H69.3728L69.7668 136.163L69.7669 136.163L69.7675 136.163L69.7701 136.164L69.7808 136.166C69.7902 136.169 69.8044 136.173 69.8229 136.178C69.86 136.188 69.9145 136.205 69.9841 136.227C70.1233 136.272 70.3224 136.341 70.5615 136.441C71.0399 136.64 71.6775 136.959 72.3148 137.437C73.5886 138.393 74.8607 139.983 74.8607 142.529C74.8607 144.122 74.3831 145.313 73.6688 146.206C72.9539 147.1 71.9996 147.697 71.0425 148.096C70.0854 148.494 69.1276 148.694 68.4086 148.794C68.0493 148.844 67.7499 148.869 67.5405 148.881C67.4358 148.887 67.3537 148.891 67.2978 148.892C67.2698 148.893 67.2485 148.893 67.2341 148.893L67.218 148.894L67.214 148.894L67.213 148.894H67.2127V148.944V148.994C70.0193 148.994 72.2945 151.269 72.2945 154.075C72.2945 156.882 70.0193 159.157 67.2127 159.157H51.8174C51.397 159.157 50.9691 159.159 50.5339 159.16C42.9992 159.187 33.3128 159.222 23.6239 151.471C17.2275 146.353 15.3053 138.035 16.9061 130.351C18.5069 122.667 23.6287 115.628 31.3062 113.069C32.4042 112.703 33.283 111.832 33.9849 110.631C34.6869 109.429 35.2145 107.892 35.6087 106.184C36.3972 102.767 36.6539 98.6557 36.6967 95.1494C36.7476 90.9749 40.048 87.4122 44.2176 87.4122C48.3162 87.4122 51.5733 90.8552 51.346 94.9475L50.7637 105.432C50.6107 108.187 52.8034 110.505 55.5627 110.505H81.3251C84.8402 110.505 87.6898 113.355 87.6898 116.87C87.6898 120.385 84.8402 123.235 81.3251 123.235H72.3445H72.1327L72.3221 123.329L73.9475 124.142C76.0795 125.208 77.4263 127.387 77.4263 129.771C77.4263 133.247 74.6087 136.064 71.133 136.064H69.7789Z" fill="url(#paint24_radial_815_888)"/>
<path d="M69.7789 136.064H69.3728L69.7668 136.163L69.7669 136.163L69.7675 136.163L69.7701 136.164L69.7808 136.166C69.7902 136.169 69.8044 136.173 69.8229 136.178C69.86 136.188 69.9145 136.205 69.9841 136.227C70.1233 136.272 70.3224 136.341 70.5615 136.441C71.0399 136.64 71.6775 136.959 72.3148 137.437C73.5886 138.393 74.8607 139.983 74.8607 142.529C74.8607 144.122 74.3831 145.313 73.6688 146.206C72.9539 147.1 71.9996 147.697 71.0425 148.096C70.0854 148.494 69.1276 148.694 68.4086 148.794C68.0493 148.844 67.7499 148.869 67.5405 148.881C67.4358 148.887 67.3537 148.891 67.2978 148.892C67.2698 148.893 67.2485 148.893 67.2341 148.893L67.218 148.894L67.214 148.894L67.213 148.894H67.2127V148.944V148.994C70.0193 148.994 72.2945 151.269 72.2945 154.075C72.2945 156.882 70.0193 159.157 67.2127 159.157H51.8174C51.397 159.157 50.9691 159.159 50.5339 159.16C42.9992 159.187 33.3128 159.222 23.6239 151.471C17.2275 146.353 15.3053 138.035 16.9061 130.351C18.5069 122.667 23.6287 115.628 31.3062 113.069C32.4042 112.703 33.283 111.832 33.9849 110.631C34.6869 109.429 35.2145 107.892 35.6087 106.184C36.3972 102.767 36.6539 98.6557 36.6967 95.1494C36.7476 90.9749 40.048 87.4122 44.2176 87.4122C48.3162 87.4122 51.5733 90.8552 51.346 94.9475L50.7637 105.432C50.6107 108.187 52.8034 110.505 55.5627 110.505H81.3251C84.8402 110.505 87.6898 113.355 87.6898 116.87C87.6898 120.385 84.8402 123.235 81.3251 123.235H72.3445H72.1327L72.3221 123.329L73.9475 124.142C76.0795 125.208 77.4263 127.387 77.4263 129.771C77.4263 133.247 74.6087 136.064 71.133 136.064H69.7789Z" stroke="url(#paint25_linear_815_888)" stroke-width="0.1" stroke-miterlimit="10"/>
<path d="M73.9702 124.097L72.3449 123.285H44.1201V136.114H71.1334C74.6367 136.114 77.4766 133.274 77.4766 129.771C77.4766 127.368 76.1192 125.172 73.9702 124.097Z" fill="url(#paint26_radial_815_888)"/>
<path d="M73.9702 124.097L72.3449 123.285H44.1201V136.114H71.1334C74.6367 136.114 77.4766 133.274 77.4766 129.771C77.4766 127.368 76.1192 125.172 73.9702 124.097Z" fill="url(#paint27_radial_815_888)"/>
<path d="M73.9702 124.097L72.3449 123.285H44.1201V136.114H71.1334C74.6367 136.114 77.4766 133.274 77.4766 129.771C77.4766 127.368 76.1192 125.172 73.9702 124.097Z" fill="url(#paint28_linear_815_888)"/>
<path d="M69.779 136.114H44.1201V148.944H67.2131C67.2131 148.944 74.9107 148.944 74.9107 142.529C74.9107 137.416 69.779 136.114 69.779 136.114Z" fill="url(#paint29_radial_815_888)"/>
<path d="M69.779 136.114H44.1201V148.944H67.2131C67.2131 148.944 74.9107 148.944 74.9107 142.529C74.9107 137.416 69.779 136.114 69.779 136.114Z" fill="url(#paint30_radial_815_888)"/>
<path d="M69.779 136.114H44.1201V148.944H67.2131C67.2131 148.944 74.9107 148.944 74.9107 142.529C74.9107 137.416 69.779 136.114 69.779 136.114Z" fill="url(#paint31_linear_815_888)"/>
<path d="M67.2131 148.944H44.1201V159.207H67.2131C70.0473 159.207 72.3449 156.91 72.3449 154.075C72.3449 151.241 70.0473 148.944 67.2131 148.944Z" fill="url(#paint32_radial_815_888)"/>
<path d="M67.2131 148.944H44.1201V159.207H67.2131C70.0473 159.207 72.3449 156.91 72.3449 154.075C72.3449 151.241 70.0473 148.944 67.2131 148.944Z" fill="url(#paint33_linear_815_888)"/>
<path d="M67.2131 148.944H44.1201V159.207H67.2131C70.0473 159.207 72.3449 156.91 72.3449 154.075C72.3449 151.241 70.0473 148.944 67.2131 148.944Z" fill="url(#paint34_radial_815_888)"/>
<path d="M81.3254 110.455H41.5542V123.285H81.3254C84.8682 123.285 87.7401 120.413 87.7401 116.87C87.7401 113.327 84.8682 110.455 81.3254 110.455Z" fill="url(#paint35_linear_815_888)"/>
<path d="M81.3254 110.455H41.5542V123.285H81.3254C84.8682 123.285 87.7401 120.413 87.7401 116.87C87.7401 113.327 84.8682 110.455 81.3254 110.455Z" fill="url(#paint36_radial_815_888)"/>
<path d="M81.3254 110.455H41.5542V123.285H81.3254C84.8682 123.285 87.7401 120.413 87.7401 116.87C87.7401 113.327 84.8682 110.455 81.3254 110.455Z" fill="url(#paint37_radial_815_888)"/>
<path d="M81.3254 110.455H41.5542V123.285H81.3254C84.8682 123.285 87.7401 120.413 87.7401 116.87C87.7401 113.327 84.8682 110.455 81.3254 110.455Z" fill="url(#paint38_radial_815_888)"/>
<path fill-rule="evenodd" clip-rule="evenodd" d="M37.1739 21.4004C39.2109 19.3634 44.7876 15.5171 51.8177 15.5171C58.8478 15.5171 64.4245 19.3634 66.4615 21.4004C67.4635 22.4025 67.4635 24.0271 66.4615 25.0291C65.4594 26.0312 63.8348 26.0312 62.8328 25.0291C61.4485 23.6449 57.1038 20.6489 51.8177 20.6489C46.5315 20.6489 42.1868 23.6449 40.8026 25.0291C39.8006 26.0312 38.1759 26.0312 37.1739 25.0291C36.1719 24.0271 36.1719 22.4025 37.1739 21.4004Z" fill="url(#paint39_radial_815_888)"/>
<path fill-rule="evenodd" clip-rule="evenodd" d="M37.1739 21.4004C39.2109 19.3634 44.7876 15.5171 51.8177 15.5171C58.8478 15.5171 64.4245 19.3634 66.4615 21.4004C67.4635 22.4025 67.4635 24.0271 66.4615 25.0291C65.4594 26.0312 63.8348 26.0312 62.8328 25.0291C61.4485 23.6449 57.1038 20.6489 51.8177 20.6489C46.5315 20.6489 42.1868 23.6449 40.8026 25.0291C39.8006 26.0312 38.1759 26.0312 37.1739 25.0291C36.1719 24.0271 36.1719 22.4025 37.1739 21.4004Z" fill="url(#paint40_radial_815_888)"/>
<path fill-rule="evenodd" clip-rule="evenodd" d="M93.6236 41.9275C92.6216 42.9296 92.6215 44.5542 93.6236 45.5562C94.6213 46.554 96.2363 46.5583 97.2393 45.5691L97.253 45.5562C97.2723 45.538 97.3107 45.5026 97.3681 45.4524C97.483 45.3519 97.6736 45.1923 97.9397 44.9927C98.4722 44.5934 99.304 44.0361 100.434 43.471C102.686 42.3449 106.145 41.176 110.833 41.176C115.522 41.176 118.98 42.3449 121.232 43.471C122.362 44.0361 123.194 44.5934 123.727 44.9927C123.993 45.1923 124.183 45.3519 124.298 45.4524C124.356 45.5026 124.394 45.538 124.414 45.5562L124.427 45.5691C125.43 46.5583 127.045 46.554 128.043 45.5562C129.045 44.5542 129.045 42.9296 128.043 41.9275L128.039 41.9237L128.035 41.9195L128.025 41.9096L127.999 41.8842L127.923 41.8123C127.863 41.7553 127.781 41.6804 127.678 41.5903C127.472 41.4102 127.181 41.1689 126.806 40.8873C126.055 40.3245 124.963 39.5988 123.527 38.881C120.648 37.4411 116.408 36.0442 110.833 36.0442C105.258 36.0442 101.019 37.4411 98.1393 38.881C96.7036 39.5988 95.611 40.3245 94.8606 40.8873C94.4852 41.1689 94.1947 41.4102 93.9888 41.5903C93.8859 41.6804 93.804 41.7553 93.7432 41.8123L93.6676 41.8842L93.6417 41.9096L93.6317 41.9195L93.6274 41.9237L93.6236 41.9275Z" fill="url(#paint41_radial_815_888)"/>
<path fill-rule="evenodd" clip-rule="evenodd" d="M93.6236 41.9275C92.6216 42.9296 92.6215 44.5542 93.6236 45.5562C94.6213 46.554 96.2363 46.5583 97.2393 45.5691L97.253 45.5562C97.2723 45.538 97.3107 45.5026 97.3681 45.4524C97.483 45.3519 97.6736 45.1923 97.9397 44.9927C98.4722 44.5934 99.304 44.0361 100.434 43.471C102.686 42.3449 106.145 41.176 110.833 41.176C115.522 41.176 118.98 42.3449 121.232 43.471C122.362 44.0361 123.194 44.5934 123.727 44.9927C123.993 45.1923 124.183 45.3519 124.298 45.4524C124.356 45.5026 124.394 45.538 124.414 45.5562L124.427 45.5691C125.43 46.5583 127.045 46.554 128.043 45.5562C129.045 44.5542 129.045 42.9296 128.043 41.9275L128.039 41.9237L128.035 41.9195L128.025 41.9096L127.999 41.8842L127.923 41.8123C127.863 41.7553 127.781 41.6804 127.678 41.5903C127.472 41.4102 127.181 41.1689 126.806 40.8873C126.055 40.3245 124.963 39.5988 123.527 38.881C120.648 37.4411 116.408 36.0442 110.833 36.0442C105.258 36.0442 101.019 37.4411 98.1393 38.881C96.7036 39.5988 95.611 40.3245 94.8606 40.8873C94.4852 41.1689 94.1947 41.4102 93.9888 41.5903C93.8859 41.6804 93.804 41.7553 93.7432 41.8123L93.6676 41.8842L93.6417 41.9096L93.6317 41.9195L93.6274 41.9237L93.6236 41.9275Z" fill="url(#paint42_radial_815_888)"/>
<defs>
<radialGradient id="paint0_radial_815_888" cx="0" cy="0" r="1" gradientUnits="userSpaceOnUse" gradientTransform="translate(131.36 46.3078) rotate(131.878) scale(199.876 199.876)">
<stop stop-color="#FFF478"/>
<stop offset="0.474827" stop-color="#FFB02E"/>
<stop offset="1" stop-color="#F70A8D"/>
</radialGradient>
<radialGradient id="paint1_radial_815_888" cx="0" cy="0" r="1" gradientUnits="userSpaceOnUse" gradientTransform="translate(82.6085 64.2691) rotate(101.31) scale(91.5849 117.302)">
<stop offset="0.787821" stop-color="#F59639" stop-opacity="0"/>
<stop offset="0.972509" stop-color="#FF7DCE"/>
</radialGradient>
<radialGradient id="paint2_radial_815_888" cx="0" cy="0" r="1" gradientUnits="userSpaceOnUse" gradientTransform="translate(92.872 71.9668) rotate(135) scale(210.466)">
<stop offset="0.314853" stop-opacity="0"/>
<stop offset="1"/>
</radialGradient>
<radialGradient id="paint3_radial_815_888" cx="0" cy="0" r="1" gradientUnits="userSpaceOnUse" gradientTransform="translate(82.6085 87.3621) rotate(77.692) scale(144.444 144.444)">
<stop offset="0.507903" stop-color="#7D6133" stop-opacity="0"/>
<stop offset="1" stop-color="#715B32"/>
</radialGradient>
<radialGradient id="paint4_radial_815_888" cx="0" cy="0" r="1" gradientUnits="userSpaceOnUse" gradientTransform="translate(85.1743 84.7962) rotate(55.7132) scale(68.3222 49.5233)">
<stop stop-color="#FFB849"/>
<stop offset="1" stop-color="#FFB847" stop-opacity="0"/>
</radialGradient>
<radialGradient id="paint5_radial_815_888" cx="0" cy="0" r="1" gradientUnits="userSpaceOnUse" gradientTransform="translate(105.701 92.4939) rotate(9.86585) scale(59.9012 59.9014)">
<stop stop-color="#FFA64B"/>
<stop offset="0.900412" stop-color="#FFAE46" stop-opacity="0"/>
</radialGradient>
<radialGradient id="paint6_radial_815_888" cx="0" cy="0" r="1" gradientUnits="userSpaceOnUse" gradientTransform="translate(90.3061 77.0985) rotate(43.971) scale(303.047 303.047)">
<stop offset="0.185425" stop-opacity="0"/>
<stop offset="1" stop-opacity="0.4"/>
</radialGradient>
<radialGradient id="paint7_radial_815_888" cx="0" cy="0" r="1" gradientUnits="userSpaceOnUse" gradientTransform="translate(73.7536 144.302) rotate(21.6445) scale(54.361 54.3612)">
<stop stop-color="#F47360"/>
<stop offset="1" stop-color="#F47360" stop-opacity="0"/>
</radialGradient>
<radialGradient id="paint8_radial_815_888" cx="0" cy="0" r="1" gradientUnits="userSpaceOnUse" gradientTransform="translate(50.9644 66.5982) rotate(111.744) scale(26.011 26.0109)">
<stop offset="0.220588" stop-color="#392108"/>
<stop offset="1" stop-color="#C87928" stop-opacity="0"/>
</radialGradient>
<radialGradient id="paint9_radial_815_888" cx="0" cy="0" r="1" gradientUnits="userSpaceOnUse" gradientTransform="translate(106.723 66.4613) rotate(114.702) scale(24.1914 24.1913)">
<stop offset="0.301089" stop-color="#392108"/>
<stop offset="1" stop-color="#E87F14" stop-opacity="0"/>
</radialGradient>
<radialGradient id="paint10_radial_815_888" cx="0" cy="0" r="1" gradientUnits="userSpaceOnUse" gradientTransform="translate(48.1552 44.3431) rotate(43.6595) scale(20.9569 26.5426)">
<stop stop-color="#D59A13"/>
<stop offset="1" stop-color="#D59A13" stop-opacity="0"/>
</radialGradient>
<radialGradient id="paint11_radial_815_888" cx="0" cy="0" r="1" gradientUnits="userSpaceOnUse" gradientTransform="translate(48.8236 120.262) rotate(88.6981) scale(25.1059 48.6354)">
<stop stop-color="#B06223"/>
<stop offset="1" stop-color="#C67C10" stop-opacity="0"/>
</radialGradient>
<radialGradient id="paint12_radial_815_888" cx="0" cy="0" r="1" gradientUnits="userSpaceOnUse" gradientTransform="translate(39.1001 105.899) rotate(92.4408) scale(25.1037 20.1575)">
<stop stop-color="#B06223"/>
<stop offset="1" stop-color="#C67C10" stop-opacity="0"/>
</radialGradient>
<radialGradient id="paint13_radial_815_888" cx="0" cy="0" r="1" gradientUnits="userSpaceOnUse" gradientTransform="translate(43.5265 95.1155) rotate(144.605) scale(12.92 15.687)">
<stop stop-color="#D78E2C"/>
<stop offset="1" stop-color="#D78E2C" stop-opacity="0"/>
</radialGradient>
<radialGradient id="paint14_radial_815_888" cx="0" cy="0" r="1" gradientUnits="userSpaceOnUse" gradientTransform="translate(82.6088 105.586) rotate(90) scale(45.2413 62.1696)">
<stop offset="0.205066" stop-color="#482641"/>
<stop offset="0.298574" stop-color="#503A4A"/>
<stop offset="0.408068" stop-color="#483637"/>
</radialGradient>
<radialGradient id="paint15_radial_815_888" cx="0" cy="0" r="1" gradientUnits="userSpaceOnUse" gradientTransform="translate(84.5985 88.3414) rotate(95.8117) scale(19.6495 30.9437)">
<stop offset="0.588241" stop-color="#4F302E" stop-opacity="0"/>
<stop offset="1" stop-color="#4F302E"/>
</radialGradient>
<radialGradient id="paint16_radial_815_888" cx="0" cy="0" r="1" gradientUnits="userSpaceOnUse" gradientTransform="translate(99.7129 101.511) rotate(63.435) scale(9.28923 4.50012)">
<stop stop-color="#5B4A50"/>
<stop offset="1" stop-color="#5B4A50" stop-opacity="0"/>
</radialGradient>
<linearGradient id="paint17_linear_815_888" x1="84.5705" y1="43.742" x2="81.9632" y2="67.8977" gradientUnits="userSpaceOnUse">
<stop stop-color="#553B3E"/>
<stop offset="1" stop-color="#3D2432"/>
</linearGradient>
<radialGradient id="paint18_radial_815_888" cx="0" cy="0" r="1" gradientUnits="userSpaceOnUse" gradientTransform="translate(69.9706 109.268) rotate(108.591) scale(103.414 107.931)">
<stop offset="0.104167" stop-color="#FFCC42"/>
<stop offset="0.537866" stop-color="#FFB02E"/>
<stop offset="1" stop-color="#F70A8D"/>
</radialGradient>
<radialGradient id="paint19_radial_815_888" cx="0" cy="0" r="1" gradientUnits="userSpaceOnUse" gradientTransform="translate(55.0123 116.355) rotate(96.4581) scale(47.8385 49.6212)">
<stop offset="0.65203" stop-color="#FFB745" stop-opacity="0"/>
<stop offset="0.892907" stop-color="#F69044"/>
<stop offset="1" stop-color="#DE6A63"/>
</radialGradient>
<radialGradient id="paint20_radial_815_888" cx="0" cy="0" r="1" gradientUnits="userSpaceOnUse" gradientTransform="translate(48.4545 93.3575) rotate(90) scale(7.43255 7.43252)">
<stop stop-color="#FFE646"/>
<stop offset="1" stop-color="#FFE646" stop-opacity="0"/>
</radialGradient>
<radialGradient id="paint21_radial_815_888" cx="0" cy="0" r="1" gradientUnits="userSpaceOnUse" gradientTransform="translate(50.1485 103.638) rotate(79.0116) scale(14.3489 8.4802)">
<stop stop-color="#FFE646"/>
<stop offset="1" stop-color="#FFE646" stop-opacity="0"/>
</radialGradient>
<radialGradient id="paint22_radial_815_888" cx="0" cy="0" r="1" gradientUnits="userSpaceOnUse" gradientTransform="translate(54.06 93.3359) rotate(62.0435) scale(11.5237 3.97145)">
<stop stop-color="#F6AB23"/>
<stop offset="1" stop-color="#F6AB23" stop-opacity="0"/>
</radialGradient>
<radialGradient id="paint23_radial_815_888" cx="0" cy="0" r="1" gradientUnits="userSpaceOnUse" gradientTransform="translate(54.5113 98.1874) rotate(93.1302) scale(14.4632 4.9845)">
<stop stop-color="#F6AB23"/>
<stop offset="1" stop-color="#F6AB23" stop-opacity="0"/>
</radialGradient>
<radialGradient id="paint24_radial_815_888" cx="0" cy="0" r="1" gradientUnits="userSpaceOnUse" gradientTransform="translate(61.7228 135.26) rotate(89.1311) scale(23.9564 23.812)">
<stop stop-color="#FFD24A"/>
<stop offset="1" stop-color="#FFD24A" stop-opacity="0"/>
</radialGradient>
<linearGradient id="paint25_linear_815_888" x1="20.466" y1="161.817" x2="54.5708" y2="122.062" gradientUnits="userSpaceOnUse">
<stop stop-color="#AD583D"/>
<stop offset="1" stop-color="#CE6D4E" stop-opacity="0"/>
</linearGradient>
<radialGradient id="paint26_radial_815_888" cx="0" cy="0" r="1" gradientUnits="userSpaceOnUse" gradientTransform="translate(60.7984 126.878) rotate(2.62161) scale(14.8561 5.68188)">
<stop stop-color="#FFD339"/>
<stop offset="0.708333" stop-color="#FFC438" stop-opacity="0.291667"/>
<stop offset="1" stop-color="#FFBE38" stop-opacity="0"/>
</radialGradient>
<radialGradient id="paint27_radial_815_888" cx="0" cy="0" r="1" gradientUnits="userSpaceOnUse" gradientTransform="translate(70.1173 123.285) rotate(2.9669) scale(19.3644 6.50587)">
<stop stop-color="#A03B04"/>
<stop offset="1" stop-color="#FA9428" stop-opacity="0"/>
</radialGradient>
<linearGradient id="paint28_linear_815_888" x1="60.7984" y1="138.041" x2="59.6353" y2="132.983" gradientUnits="userSpaceOnUse">
<stop stop-color="#FF9F3A"/>
<stop offset="0.879558" stop-color="#FF9F3A" stop-opacity="0"/>
</linearGradient>
<radialGradient id="paint29_radial_815_888" cx="0" cy="0" r="1" gradientUnits="userSpaceOnUse" gradientTransform="translate(59.398 139.543) rotate(-0.0381117) scale(16.2409 6.83485)">
<stop stop-color="#FFD339"/>
<stop offset="1" stop-color="#FFBE38" stop-opacity="0"/>
</radialGradient>
<radialGradient id="paint30_radial_815_888" cx="0" cy="0" r="1" gradientUnits="userSpaceOnUse" gradientTransform="translate(66.7826 135.36) rotate(2.6645) scale(16.2256 4.36529)">
<stop stop-color="#A03B04"/>
<stop offset="1" stop-color="#FA9428" stop-opacity="0"/>
</radialGradient>
<linearGradient id="paint31_linear_815_888" x1="60.4303" y1="150.235" x2="59.0934" y2="145.086" gradientUnits="userSpaceOnUse">
<stop stop-color="#FF9F3A"/>
<stop offset="0.879558" stop-color="#FF9F3A" stop-opacity="0"/>
</linearGradient>
<radialGradient id="paint32_radial_815_888" cx="0" cy="0" r="1" gradientUnits="userSpaceOnUse" gradientTransform="translate(65.4393 147.802) rotate(4.63477) scale(14.126 5.30954)">
<stop stop-color="#A03B04"/>
<stop offset="1" stop-color="#FA9428" stop-opacity="0"/>
</radialGradient>
<linearGradient id="paint33_linear_815_888" x1="60.0894" y1="168.16" x2="58.217" y2="161.758" gradientUnits="userSpaceOnUse">
<stop stop-color="#FF9F3A"/>
<stop offset="0.879558" stop-color="#FF9F3A" stop-opacity="0"/>
</linearGradient>
<radialGradient id="paint34_radial_815_888" cx="0" cy="0" r="1" gradientUnits="userSpaceOnUse" gradientTransform="translate(59.2373 152.621) scale(13.1076 4.91257)">
<stop stop-color="#FFD339"/>
<stop offset="1" stop-color="#FFBE38" stop-opacity="0"/>
</radialGradient>
<linearGradient id="paint35_linear_815_888" x1="63.7386" y1="124.703" x2="62.865" y2="119.558" gradientUnits="userSpaceOnUse">
<stop stop-color="#FF9F3A"/>
<stop offset="0.879558" stop-color="#FF9F3A" stop-opacity="0"/>
</linearGradient>
<radialGradient id="paint36_radial_815_888" cx="0" cy="0" r="1" gradientUnits="userSpaceOnUse" gradientTransform="translate(70.5968 109.038) rotate(88.6361) scale(4.33105 16.6645)">
<stop stop-color="#FF9F3A"/>
<stop offset="0.879558" stop-color="#FF9F3A" stop-opacity="0"/>
</radialGradient>
<radialGradient id="paint37_radial_815_888" cx="0" cy="0" r="1" gradientUnits="userSpaceOnUse" gradientTransform="translate(84.2621 115.833) rotate(90) scale(7.45198 5.4883)">
<stop stop-color="#FFE646"/>
<stop offset="1" stop-color="#FFE646" stop-opacity="0"/>
</radialGradient>
<radialGradient id="paint38_radial_815_888" cx="0" cy="0" r="1" gradientUnits="userSpaceOnUse" gradientTransform="translate(66.0231 115.295) rotate(0.227363) scale(18.1086 4.4561)">
<stop stop-color="#FFE646"/>
<stop offset="1" stop-color="#FFE646" stop-opacity="0"/>
</radialGradient>
<radialGradient id="paint39_radial_815_888" cx="0" cy="0" r="1" gradientUnits="userSpaceOnUse" gradientTransform="translate(60.1714 25.3073) rotate(-149.007) scale(13.9622 16.5367)">
<stop offset="0.552138" stop-color="#4A2F37"/>
<stop offset="0.822285" stop-color="#51394C"/>
<stop offset="0.881253" stop-color="#50394C"/>
<stop offset="1" stop-color="#4D3635"/>
</radialGradient>
<radialGradient id="paint40_radial_815_888" cx="0" cy="0" r="1" gradientUnits="userSpaceOnUse" gradientTransform="translate(65.6901 17.1175) rotate(-178.4) scale(2.54457 2.00136)">
<stop stop-color="#5A4950"/>
<stop offset="1" stop-color="#5D4C4F" stop-opacity="0"/>
</radialGradient>
<radialGradient id="paint41_radial_815_888" cx="0" cy="0" r="1" gradientUnits="userSpaceOnUse" gradientTransform="translate(110.833 49.1534) scale(22.5725 13.4295)">
<stop offset="0.641397" stop-color="#2F1F2A"/>
<stop offset="0.822285" stop-color="#51394C"/>
<stop offset="0.881253" stop-color="#50394C"/>
<stop offset="1" stop-color="#442E3E"/>
</radialGradient>
<radialGradient id="paint42_radial_815_888" cx="0" cy="0" r="1" gradientUnits="userSpaceOnUse" gradientTransform="translate(110.833 41.176) scale(18.9674 17.2805)">
<stop offset="0.645531" stop-color="#362530" stop-opacity="0"/>
<stop offset="1" stop-color="#342330"/>
</radialGradient>
</defs>
</svg>
