<svg width="40" height="40" viewBox="0 0 40 40" fill="none" xmlns="http://www.w3.org/2000/svg">
<path d="M1.50002 19.9977L1.50002 19.9958C1.50095 15.9398 2.83476 11.9966 5.29619 8.77292C7.75762 5.54925 11.2102 3.22382 15.1227 2.15451C19.0351 1.08521 23.1906 1.33129 26.9495 2.85488C30.7083 4.37848 33.8624 7.09515 35.9261 10.5868C37.9899 14.0784 38.849 18.1515 38.3712 22.1792C37.8934 26.2069 36.1052 29.966 33.2819 32.8779C30.4585 35.7898 26.7565 37.6932 22.7454 38.2951C18.7344 38.897 14.6367 38.1641 11.083 36.2091L10.5285 35.9041L9.92304 36.0885L2.14704 38.4565L2.14693 38.4565C2.06021 38.4829 1.96795 38.4853 1.88002 38.4633C1.79207 38.4413 1.71176 38.3958 1.64768 38.3318C1.58358 38.2677 1.53811 38.1873 1.51614 38.0994C1.49417 38.0115 1.49651 37.9192 1.52293 37.8325L1.52315 37.8318L3.89115 30.0438L4.07487 29.4395L3.77108 28.8859C2.2766 26.1621 1.49535 23.1045 1.50002 19.9977ZM10.5 17.9954C10.5 18.9237 10.8688 19.8139 11.5251 20.4703C12.1815 21.1267 13.0718 21.4954 14 21.4954H26C26.9283 21.4954 27.8185 21.1267 28.4749 20.4703C29.1313 19.8139 29.5 18.9237 29.5 17.9954C29.5 17.0672 29.1313 16.1769 28.4749 15.5205C27.8185 14.8642 26.9283 14.4954 26 14.4954H14C13.0718 14.4954 12.1815 14.8642 11.5251 15.5205C10.8688 16.1769 10.5 17.0672 10.5 17.9954ZM14 22.4954C13.0718 22.4954 12.1815 22.8642 11.5251 23.5205C10.8688 24.1769 10.5 25.0672 10.5 25.9954C10.5 26.9237 10.8688 27.8139 11.5251 28.4703C12.1815 29.1267 13.0718 29.4954 14 29.4954H22C22.9283 29.4954 23.8185 29.1267 24.4749 28.4703C25.1313 27.8139 25.5 26.9237 25.5 25.9954C25.5 25.0672 25.1313 24.1769 24.4749 23.5205C23.8185 22.8642 22.9283 22.4954 22 22.4954H14Z" fill="#FFD200" stroke="#E99934" stroke-width="3"/>
</svg>
