<svg width="44" height="44" viewBox="0 0 44 44" fill="none" xmlns="http://www.w3.org/2000/svg">
<path d="M39.2758 26.272L39.1558 25.078L39.1178 25.0821L39.0798 25.088L39.2758 26.272ZM39.2758 26.272L39.3958 27.466L39.4358 27.462L39.4758 27.456L39.2758 26.272ZM31.1958 37.236L31.9558 36.308L31.9458 36.3L31.1958 37.236ZM31.1958 37.236L30.4358 38.166L30.4458 38.174L31.1958 37.236ZM12.8038 37.236L12.0438 36.3101L12.0238 36.3241L12.0058 36.34L12.8038 37.236ZM12.8038 37.236L13.5638 38.166L13.5838 38.1521L13.6018 38.134L12.8038 37.236ZM4.7218 17.7281V16.528H4.6618L4.6018 16.534L4.7218 17.7281ZM4.7218 17.7281V18.928H4.7818L4.8418 18.9221L4.7218 17.7281ZM27.4658 4.60205C27.435 4.23467 27.3897 3.86846 27.3338 3.50405C27.2848 3.16619 27.1829 2.83816 27.0318 2.53205L24.8998 3.63405C24.9352 3.72035 24.9581 3.80927 24.9678 3.90205C25.0018 4.11205 25.0318 4.39005 25.0758 4.84205L27.4658 4.60205ZM27.8138 6.90605C27.8218 6.91605 27.7538 6.83205 27.6798 6.41205C27.5871 5.81137 27.517 5.20768 27.4658 4.60205L25.0758 4.84205C25.1558 5.64205 25.2218 6.31205 25.3158 6.83605C25.4098 7.35005 25.5558 7.90205 25.9058 8.36205L27.8138 6.90605ZM28.5578 7.21405C28.4176 7.23307 28.2749 7.21459 28.1442 7.16048C28.0135 7.10637 27.8995 7.01858 27.8138 6.90605L25.9058 8.36205C26.2483 8.81085 26.7035 9.16103 27.2251 9.37706C27.7468 9.59308 28.3163 9.66725 28.8758 9.59205L28.5578 7.21405ZM30.4338 5.83205C29.9695 6.22435 29.4919 6.60057 29.0018 6.96005C28.6498 7.20405 28.5458 7.21605 28.5558 7.21405L28.8758 9.59205C29.4498 9.51205 29.9438 9.22805 30.3718 8.93005C30.8098 8.62605 31.3318 8.19805 31.9518 7.69005L30.4338 5.83205ZM32.2038 4.67205C31.8799 4.78223 31.5755 4.94287 31.3018 5.14805C31.005 5.36642 30.7155 5.59455 30.4338 5.83205L31.9518 7.69005C32.1923 7.48641 32.4411 7.29032 32.6938 7.10205C32.7666 7.04343 32.8474 6.9956 32.9338 6.96005L32.2038 4.67205ZM34.4498 4.78605C33.7393 4.47822 32.9414 4.43643 32.2038 4.67205L32.9338 6.96005C33.1177 6.90152 33.3166 6.91146 33.4938 6.98805L34.4498 4.78605ZM36.0958 6.11405C35.8381 5.85025 35.5727 5.59414 35.2998 5.34605C35.0476 5.1159 34.7608 4.92691 34.4498 4.78605L33.4958 6.98605C33.5782 7.03097 33.6536 7.08755 33.7198 7.15405C33.8798 7.29405 34.0798 7.49205 34.3978 7.81005L36.0958 6.11405ZM37.8818 7.90005L36.0958 6.11405L34.3978 7.81005L36.1838 9.59805L37.8818 7.90005ZM39.2098 9.54605C39.069 9.23503 38.88 8.94817 38.6498 8.69605C38.4017 8.42319 38.1456 8.15774 37.8818 7.90005L36.1838 9.59805C36.5038 9.91805 36.7038 10.116 36.8438 10.278C36.9092 10.3435 36.9645 10.4183 37.0078 10.5L39.2098 9.54605ZM39.3218 11.792C39.5574 11.0545 39.5176 10.2565 39.2098 9.54605L37.0078 10.5C37.0842 10.6781 37.0955 10.8777 37.0358 11.062L39.3218 11.792ZM38.1638 13.562C38.4013 13.2803 38.6294 12.9908 38.8478 12.694C39.0358 12.43 39.2118 12.138 39.3218 11.792L37.0358 11.062C37.0003 11.1485 36.9525 11.2293 36.8938 11.302C36.7055 11.5548 36.5094 11.8015 36.3058 12.042L38.1638 13.562ZM36.7838 15.44C36.7798 15.45 36.7918 15.344 37.0358 14.994C37.2738 14.654 37.6298 14.216 38.1638 13.562L36.3078 12.044C35.7978 12.668 35.3678 13.186 35.0658 13.624C34.7678 14.052 34.4798 14.546 34.4038 15.12L36.7838 15.44ZM37.0898 16.18C36.9779 16.0947 36.8905 15.9813 36.8364 15.8514C36.7824 15.7215 36.7655 15.5796 36.7838 15.44L34.4038 15.12C34.3288 15.6798 34.4013 16.2494 34.6177 16.771C34.8341 17.2927 35.1846 17.7477 35.6338 18.09L37.0898 16.18ZM39.3938 16.532C38.5538 16.448 37.9938 16.392 37.5838 16.318C37.1638 16.242 37.0798 16.172 37.0898 16.18L35.6338 18.09C36.0938 18.4401 36.6458 18.5861 37.1598 18.68C37.6838 18.774 38.3558 18.84 39.1558 18.92L39.3938 16.532ZM41.4638 16.9641C41.1577 16.8129 40.8297 16.711 40.4918 16.662C40.1838 16.61 39.8118 16.574 39.3938 16.532L39.1558 18.92C39.6078 18.9641 39.8838 18.994 40.0938 19.028C40.2938 19.062 40.3498 19.0881 40.3638 19.0961L41.4638 16.9641ZM42.9738 18.632C42.689 17.9116 42.1525 17.3189 41.4638 16.9641L40.3638 19.0961C40.5363 19.1849 40.6707 19.3335 40.7418 19.514L42.9738 18.632ZM43.1978 20.734C43.1978 20.314 43.1978 19.942 43.1778 19.63C43.1629 19.288 43.0941 18.9505 42.9738 18.63L40.7418 19.514C40.7682 19.6037 40.7817 19.6966 40.7818 19.7901C40.7978 20.0021 40.7978 20.282 40.7978 20.734H43.1978ZM43.1978 23.262V20.734H40.7978V23.262H43.1978ZM42.9738 25.364C43.1078 25.024 43.1558 24.69 43.1778 24.366C43.1978 24.056 43.1978 23.682 43.1978 23.262H40.7978C40.7978 23.714 40.7978 23.994 40.7838 24.206C40.7831 24.2996 40.769 24.3925 40.7418 24.482L42.9738 25.364ZM41.4638 27.032C42.1525 26.6772 42.689 26.0845 42.9738 25.364L40.7418 24.482C40.6699 24.6611 40.5356 24.8102 40.3638 24.8981L41.4638 27.032ZM39.3938 27.4641C39.8138 27.424 40.1838 27.386 40.4918 27.334C40.8118 27.28 41.1418 27.2001 41.4658 27.034L40.3638 24.8981C40.2776 24.9342 40.1867 24.9578 40.0938 24.9681C39.7816 25.0133 39.4681 25.0494 39.1538 25.076L39.3938 27.4641ZM37.0898 27.814C37.0818 27.822 37.1638 27.754 37.5858 27.678C37.9938 27.606 38.5538 27.548 39.3938 27.4641L39.1538 25.076C38.3538 25.156 37.6838 25.222 37.1598 25.316C36.6478 25.408 36.0958 25.556 35.6358 25.906L37.0898 27.814ZM36.7818 28.5581C36.7628 28.4179 36.7813 28.2752 36.8354 28.1445C36.8895 28.0138 36.9773 27.8998 37.0898 27.814L35.6358 25.906C35.1863 26.2485 34.8355 26.7039 34.6192 27.226C34.4028 27.748 34.3285 28.318 34.4038 28.878L36.7818 28.5581ZM38.1638 30.434C37.7721 29.9698 37.3965 29.4922 37.0378 29.0021C36.7938 28.6521 36.7818 28.546 36.7818 28.556L34.4038 28.876C34.4818 29.45 34.7698 29.9441 35.0658 30.3721C35.3698 30.8081 35.7978 31.332 36.3058 31.952L38.1638 30.434ZM39.3238 32.202C39.2134 31.8789 39.0528 31.5752 38.8478 31.302C38.6678 31.046 38.4298 30.758 38.1638 30.434L36.3078 31.954C36.5938 32.302 36.7698 32.5201 36.8938 32.694C36.9523 32.7669 37.0021 32.8477 37.0378 32.934L39.3238 32.202ZM39.2098 34.4501C39.5181 33.739 39.5579 32.9402 39.3218 32.202L37.0358 32.932C37.0948 33.1166 37.0849 33.3163 37.0078 33.494L39.2098 34.4501ZM37.8818 36.0941C38.1798 35.798 38.4418 35.534 38.6498 35.298C38.8802 35.0468 39.0692 34.7606 39.2098 34.4501L37.0078 33.494C36.9628 33.5764 36.9083 33.6518 36.8418 33.718C36.7018 33.878 36.5038 34.078 36.1858 34.398L37.8818 36.0941ZM36.0958 37.882L37.8818 36.0941L36.1858 34.398L34.3978 36.184L36.0958 37.882ZM34.4518 39.21C34.7858 39.064 35.0558 38.8621 35.2998 38.6501C35.5338 38.4421 35.7998 38.1781 36.0958 37.882L34.3978 36.184C34.0778 36.504 33.8798 36.702 33.7178 36.842C33.6521 36.9077 33.5774 36.9636 33.4958 37.008L34.4518 39.21ZM32.2038 39.322C32.9414 39.5577 33.7413 39.5179 34.4518 39.21L33.4958 37.008C33.318 37.0851 33.1183 37.0951 32.9338 37.036L32.2038 39.322ZM30.4338 38.162C30.7598 38.43 31.0478 38.666 31.3018 38.848C31.5658 39.036 31.8578 39.21 32.2038 39.322L32.9338 37.036C32.8474 37.0004 32.7666 36.9526 32.6938 36.8941C32.4414 36.7054 32.1946 36.5093 31.9538 36.306L30.4338 38.162ZM28.5578 36.7821C28.5458 36.7801 28.6518 36.792 29.0018 37.036C29.3418 37.272 29.7798 37.6281 30.4338 38.1641L31.9538 36.306C31.3298 35.7961 30.8098 35.368 30.3718 35.0661C29.9438 34.7661 29.4518 34.48 28.8758 34.4021L28.5578 36.7821ZM27.8138 37.09C27.8995 36.9775 28.0135 36.8897 28.1442 36.8356C28.2749 36.7815 28.4176 36.763 28.5578 36.7821L28.8778 34.4021C28.3178 34.3267 27.7477 34.401 27.2257 34.6174C26.7037 34.8338 26.2483 35.1846 25.9058 35.634L27.8138 37.09ZM27.4638 39.3941C27.5478 38.5541 27.6038 37.994 27.6778 37.584C27.7538 37.1641 27.8218 37.0801 27.8138 37.09L25.9058 35.634C25.5558 36.094 25.4098 36.646 25.3158 37.1581C25.2218 37.682 25.1578 38.354 25.0778 39.156L27.4638 39.3941ZM27.0318 41.466C27.1998 41.14 27.2798 40.812 27.3338 40.4921C27.3858 40.1841 27.4218 39.812 27.4638 39.3941L25.0758 39.154C25.0492 39.4684 25.0132 39.7819 24.9678 40.0941C24.9581 40.1868 24.9352 40.2777 24.8998 40.364L27.0318 41.466ZM25.3658 42.974C26.0852 42.6893 26.677 42.1536 27.0318 41.466L24.8998 40.3661C24.8106 40.5378 24.662 40.6714 24.4818 40.7421L25.3658 42.974ZM23.2618 43.1981C23.6818 43.1981 24.0538 43.1981 24.3658 43.1781C24.6898 43.1581 25.0258 43.108 25.3658 42.974L24.4818 40.7421C24.3922 40.7685 24.2992 40.7819 24.2058 40.7821C23.8914 40.7967 23.5766 40.802 23.2618 40.798V43.1981ZM20.7338 43.1981H23.2618V40.798H20.7338V43.1981ZM18.6318 42.974C18.9718 43.108 19.3058 43.1561 19.6298 43.1781C19.9398 43.1981 20.3138 43.1981 20.7338 43.1981V40.798C20.2818 40.798 20.0018 40.798 19.7898 40.784C19.6963 40.7833 19.6033 40.7711 19.5138 40.744L18.6318 42.974ZM16.9638 41.4641C17.3187 42.1527 17.9114 42.6892 18.6318 42.974L19.5118 40.7421C19.3327 40.6701 19.1857 40.5359 19.0978 40.364L16.9638 41.4641ZM16.5318 39.3941C16.5718 39.814 16.6098 40.1841 16.6618 40.4921C16.7158 40.812 16.7958 41.14 16.9638 41.4641L19.0978 40.364C19.0624 40.2777 19.0375 40.1868 19.0278 40.0941C18.9825 39.7819 18.9465 39.4684 18.9198 39.154L16.5318 39.3941ZM16.1818 37.09C16.1738 37.0801 16.2418 37.1641 16.3178 37.584C16.3898 37.994 16.4478 38.5541 16.5318 39.3941L18.9198 39.154C18.8398 38.354 18.7738 37.684 18.6798 37.16C18.5858 36.646 18.4398 36.094 18.0898 35.634L16.1818 37.09ZM15.4398 36.7821C15.5793 36.7638 15.7212 36.7826 15.8512 36.8367C15.9811 36.8908 16.0964 36.9782 16.1818 37.09L18.0898 35.634C17.7473 35.1852 17.2921 34.8351 16.7705 34.619C16.2488 34.403 15.6794 34.3288 15.1198 34.404L15.4398 36.7821ZM13.5618 38.1641C14.2158 37.6301 14.6518 37.274 14.9938 37.036C15.3438 36.792 15.4498 36.7801 15.4398 36.7821L15.1198 34.404C14.5458 34.4841 14.0518 34.7681 13.6238 35.0661C13.1858 35.3701 12.6638 35.798 12.0438 36.306L13.5618 38.1641ZM11.7918 39.322C12.1157 39.2129 12.4202 39.0529 12.6938 38.848C12.9906 38.6297 13.2801 38.4016 13.5618 38.1641L12.0418 36.308C11.801 36.5106 11.5542 36.7061 11.3018 36.8941C11.229 36.9526 11.1482 37.0004 11.0618 37.036L11.7918 39.322ZM9.5458 39.21C10.2563 39.5179 11.0542 39.5577 11.7918 39.322L11.0618 37.036C10.8779 37.0946 10.679 37.0846 10.5018 37.008L9.5458 39.21ZM7.8998 37.882C8.1978 38.1781 8.4598 38.4421 8.6958 38.6501C8.93981 38.8621 9.2118 39.066 9.5458 39.21L10.4998 37.01C10.4175 36.9651 10.342 36.9085 10.2758 36.842C10.0427 36.6295 9.81589 36.4101 9.5958 36.184L7.8998 37.882ZM6.1138 36.0961L7.8998 37.882L9.5958 36.184L7.8098 34.398L6.1138 36.0961ZM4.7858 34.4501C4.9298 34.784 5.13381 35.056 5.34581 35.3C5.55181 35.534 5.8158 35.8 6.1138 36.0961L7.8098 34.398C7.58442 34.178 7.36566 33.9512 7.1538 33.718C7.08817 33.6523 7.03227 33.5776 6.9878 33.496L4.7858 34.4501ZM4.6738 32.204C4.43818 32.9416 4.47798 33.7396 4.7858 34.4501L6.9878 33.496C6.91138 33.318 6.90014 33.1184 6.9598 32.934L4.6738 32.204ZM5.8318 30.434C5.5943 30.7158 5.36618 31.0053 5.1478 31.302C4.94355 31.5753 4.78359 31.881 4.6738 32.204L6.9598 32.934C6.99541 32.8477 7.04323 32.7668 7.1018 32.694C7.2258 32.5201 7.4018 32.304 7.6878 31.954L5.8318 30.434ZM7.2118 28.5581C7.2158 28.5461 7.2038 28.6501 6.9598 29.0021C6.7218 29.3421 6.3658 29.78 5.8318 30.434L7.6878 31.954C8.1978 31.33 8.6278 30.8101 8.9298 30.3721C9.22781 29.9441 9.5158 29.45 9.5918 28.876L7.2118 28.5581ZM6.9058 27.814C7.01834 27.8998 7.10613 28.0138 7.16024 28.1445C7.21434 28.2752 7.23083 28.4179 7.2118 28.5581L9.5938 28.878C9.66915 28.318 9.59485 27.748 9.37846 27.226C9.16206 26.7039 8.81129 26.2485 8.3618 25.906L6.9058 27.814ZM4.6018 27.466C5.4418 27.55 6.0018 27.604 6.4118 27.678C6.8318 27.754 6.9158 27.822 6.9058 27.814L8.3618 25.906C7.9018 25.556 7.3498 25.41 6.8358 25.316C6.3118 25.222 5.6418 25.156 4.8398 25.076L4.6018 27.466ZM2.5318 27.032C2.8558 27.2 3.1838 27.28 3.5038 27.334C3.81181 27.386 4.1838 27.424 4.6018 27.466L4.8398 25.076C4.52547 25.0493 4.214 25.0133 3.9018 24.9681C3.80902 24.9584 3.7201 24.9355 3.6338 24.9L2.5318 27.032ZM1.0218 25.364C1.3058 26.084 1.8418 26.676 2.5318 27.032L3.6338 24.9C3.46127 24.8112 3.32493 24.6626 3.2538 24.482L1.0218 25.364ZM0.799805 23.264C0.799805 23.684 0.799805 24.056 0.819805 24.368C0.839805 24.692 0.889805 25.028 1.0238 25.368L3.2558 24.484C3.22933 24.3944 3.21586 24.3015 3.2158 24.208C3.20117 23.8936 3.19583 23.5788 3.1998 23.264H0.799805ZM0.799805 20.736V23.264H3.1998V20.736H0.799805ZM1.0238 18.6341C0.889805 18.9741 0.841805 19.3081 0.819805 19.632C0.799805 19.942 0.799805 20.316 0.799805 20.736H3.1998C3.1998 20.284 3.19981 20.004 3.2138 19.792C3.2278 19.592 3.2498 19.5321 3.2558 19.5161L1.0238 18.6341ZM2.5318 16.966C1.84391 17.3213 1.30814 17.9139 1.0238 18.6341L3.2558 19.514C3.32775 19.335 3.46199 19.1879 3.6338 19.1L2.5318 16.966ZM4.6018 16.534C4.23443 16.5648 3.87021 16.6082 3.5058 16.664C3.1858 16.718 2.8578 16.798 2.5318 16.966L3.6318 19.098C3.71873 19.0624 3.81034 19.0395 3.9038 19.0301C4.21599 18.9847 4.52746 18.9487 4.8418 18.9221L4.6018 16.534ZM6.9078 16.184C6.9178 16.176 6.8358 16.244 6.4138 16.318C6.0038 16.392 5.4418 16.45 4.6018 16.534L4.8418 18.9221C5.6418 18.8421 6.3158 18.776 6.8398 18.682C7.3518 18.588 7.9038 18.442 8.3638 18.092L6.9078 16.184ZM7.2158 15.442C7.23409 15.5816 7.21524 15.7235 7.16117 15.8534C7.10709 15.9833 7.01969 16.0967 6.9078 16.182L8.3638 18.092C8.81297 17.7497 9.16354 17.2947 9.37992 16.773C9.5963 16.2514 9.67078 15.6818 9.5958 15.122L7.2158 15.442ZM5.83381 13.562C6.36981 14.218 6.7238 14.654 6.9618 14.996C7.2058 15.346 7.2178 15.452 7.2158 15.442L9.5958 15.122C9.5178 14.548 9.2298 14.054 8.9338 13.626C8.6298 13.188 8.20181 12.666 7.6918 12.044L5.83381 13.562ZM4.6738 11.794C4.7858 12.14 4.9618 12.432 5.14981 12.694C5.3298 12.95 5.56781 13.236 5.83381 13.562L7.6918 12.044C7.48856 11.8032 7.29247 11.5565 7.1038 11.304C7.04523 11.2313 6.99741 11.1504 6.9618 11.064L4.6738 11.794ZM4.7878 9.54805C4.47998 10.2585 4.44018 11.0565 4.6758 11.794L6.9618 11.064C6.90277 10.8795 6.91272 10.6798 6.9898 10.502L4.7878 9.54805ZM6.1158 7.90205C5.8198 8.19805 5.55581 8.46205 5.34781 8.69805C5.11763 8.95019 4.92864 9.23705 4.7878 9.54805L6.9898 10.502C7.03475 10.4197 7.08933 10.3443 7.1558 10.278C7.2958 10.118 7.4938 9.91805 7.8138 9.59805L6.1158 7.90205ZM7.9018 6.11605L6.1158 7.90205L7.8138 9.59805L9.5998 7.81205L7.9018 6.11605ZM9.5478 4.78605C9.23667 4.92749 8.9498 5.11716 8.6978 5.34805C8.42445 5.59561 8.15899 5.85174 7.9018 6.11605L9.5998 7.81205C9.9198 7.49205 10.1178 7.29405 10.2798 7.15405C10.3455 7.08844 10.4203 7.03254 10.5018 6.98805L9.5478 4.78605ZM11.7938 4.67405C11.0562 4.43843 10.2583 4.47822 9.5478 4.78605L10.5018 6.98805C10.6796 6.91097 10.8793 6.90102 11.0638 6.96005L11.7938 4.67405ZM13.5638 5.83405C13.2821 5.59595 12.9926 5.36716 12.6958 5.14805C12.4226 4.94376 12.1168 4.7838 11.7938 4.67405L11.0638 6.96005C11.1503 6.99627 11.2291 7.04477 11.3018 7.10405C11.4758 7.22805 11.6918 7.40405 12.0418 7.69005L13.5638 5.83405ZM15.4418 7.21405C15.4518 7.21605 15.3458 7.20405 14.9958 6.96005C14.6558 6.72405 14.2178 6.36805 13.5638 5.83205L12.0438 7.69205C12.6678 8.20005 13.1878 8.62805 13.6258 8.93205C14.0538 9.22805 14.5458 9.51605 15.1198 9.59205L15.4418 7.21405ZM16.1838 6.90805C16.098 7.0199 15.9843 7.1071 15.854 7.16083C15.7237 7.21457 15.5815 7.23293 15.4418 7.21405L15.1218 9.59405C15.6815 9.66903 16.2511 9.59455 16.7728 9.37817C17.2944 9.16178 17.7495 8.81121 18.0918 8.36205L16.1838 6.90805ZM16.5338 4.60405C16.4498 5.44405 16.3938 6.00405 16.3198 6.41205C16.2438 6.83205 16.1758 6.91605 16.1838 6.90805L18.0918 8.36205C18.4438 7.90205 18.5878 7.35005 18.6818 6.83805C18.7758 6.31405 18.8418 5.64205 18.9218 4.84205L16.5338 4.60405ZM16.9658 2.53405C16.8147 2.84016 16.7128 3.16819 16.6638 3.50605C16.6118 3.81405 16.5758 4.18605 16.5338 4.60405L18.9218 4.84205C18.9485 4.52772 18.9845 4.21425 19.0298 3.90205C19.0394 3.8099 19.0623 3.71962 19.0978 3.63405L16.9658 2.53405ZM18.6338 1.02405C17.9134 1.30888 17.3207 1.8454 16.9658 2.53405L19.0978 3.63405C19.1867 3.46152 19.3352 3.32718 19.5158 3.25605L18.6338 1.02405ZM20.7358 0.800049C20.3158 0.800049 19.9438 0.800049 19.6318 0.820049C19.3078 0.840049 18.9718 0.890049 18.6318 1.02405L19.5158 3.25605C19.6054 3.22955 19.6984 3.21607 19.7918 3.21605C20.0038 3.20005 20.2838 3.20005 20.7358 3.20005V0.800049ZM23.2638 0.800049H20.7358V3.20005H23.2638V0.800049ZM25.3658 1.02405C25.0459 0.903982 24.7091 0.835136 24.3678 0.820049C24.0578 0.800049 23.6838 0.800049 23.2638 0.800049V3.20005C23.7158 3.20005 23.9958 3.20005 24.2078 3.21405C24.4078 3.22805 24.4678 3.25005 24.4838 3.25605L25.3658 1.02405ZM27.0338 2.53405C26.6789 1.8454 26.0863 1.30888 25.3658 1.02405L24.4858 3.25605C24.6649 3.32799 24.8119 3.46224 24.8998 3.63405L27.0338 2.53405ZM28.7998 22C28.7998 23.8035 28.0834 25.5331 26.8081 26.8084C25.5329 28.0836 23.8033 28.8 21.9998 28.8V31.2001C24.4398 31.2001 26.7799 30.2308 28.5052 28.5054C30.2305 26.7801 31.1998 24.44 31.1998 22H28.7998ZM21.9998 15.2C23.8033 15.2 25.5329 15.9165 26.8081 17.1917C28.0834 18.467 28.7998 20.1966 28.7998 22H31.1998C31.1998 19.5601 30.2305 17.22 28.5052 15.4947C26.7799 13.7693 24.4398 12.8 21.9998 12.8V15.2ZM15.1998 22C15.1998 20.1966 15.9162 18.467 17.1915 17.1917C18.4667 15.9165 20.1963 15.2 21.9998 15.2V12.8C19.5598 12.8 17.2198 13.7693 15.4944 15.4947C13.7691 17.22 12.7998 19.5601 12.7998 22H15.1998ZM21.9998 28.8C20.1963 28.8 18.4667 28.0836 17.1915 26.8084C15.9162 25.5331 15.1998 23.8035 15.1998 22H12.7998C12.7998 24.44 13.7691 26.7801 15.4944 28.5054C17.2198 30.2308 19.5598 31.2001 21.9998 31.2001V28.8Z" fill="#E99934"/>
</svg>
