<svg width="81" height="34" viewBox="0 0 81 34" fill="none" xmlns="http://www.w3.org/2000/svg">
<path d="M18.9962 25.76C19.9296 25.8667 20.6762 26.1467 21.2362 26.6C21.7962 27.08 22.0762 27.76 22.0762 28.64C22.0762 29.4933 21.7029 30.3333 20.9562 31.16C20.2362 31.9867 19.1429 32.6667 17.6762 33.2C16.2096 33.7333 14.3696 34 12.1562 34C8.60955 34 5.80955 33.1333 3.75622 31.4C1.72955 29.6667 0.716218 27.3867 0.716218 24.56C0.716218 22.9067 1.08955 21.3867 1.83622 20C2.60955 18.5867 3.62289 17.36 4.87622 16.32C3.78289 15.5467 2.92955 14.5867 2.31622 13.44C1.72955 12.2667 1.43622 10.9067 1.43622 9.36C1.43622 7.01333 2.30289 5 4.03622 3.32C5.76955 1.64 7.94289 0.799999 10.5562 0.799999C12.1829 0.799999 13.5562 1.06667 14.6762 1.6C15.7962 2.13333 16.6362 2.82667 17.1962 3.68C17.7829 4.50667 18.0762 5.4 18.0762 6.36C18.0762 7.32 17.7829 8.04 17.1962 8.52C16.6362 8.97333 15.8496 9.24 14.8362 9.32C14.6762 8.30667 14.2496 7.49333 13.5562 6.88C12.8896 6.24 12.0096 5.92 10.9162 5.92C9.58289 5.92 8.46289 6.32 7.55622 7.12C6.67622 7.92 6.23622 8.93333 6.23622 10.16C6.23622 11.76 6.91622 13.0533 8.27622 14.04C10.9162 12.76 13.4362 12.12 15.8362 12.12C18.0496 12.12 19.1562 13.2267 19.1562 15.44C19.1562 15.92 19.1162 16.2933 19.0362 16.56C16.5029 16.64 14.2362 16.9733 12.2362 17.56C10.2362 18.12 8.64955 18.92 7.47622 19.96C6.32955 21 5.75622 22.24 5.75622 23.68C5.75622 25.28 6.35622 26.52 7.55622 27.4C8.78289 28.3067 10.4096 28.76 12.4362 28.76C14.1429 28.76 15.5429 28.48 16.6362 27.92C17.7562 27.3867 18.5429 26.6667 18.9962 25.76ZM25.4042 24.68C26.3642 25.5067 27.7375 25.92 29.5242 25.92C31.2042 25.92 32.6175 25.56 33.7642 24.84C34.9375 24.12 35.7375 23.1733 36.1642 22H34.1242C31.1642 22 28.8175 21.2933 27.0842 19.88C25.3775 18.44 24.5242 16.5067 24.5242 14.08C24.5242 11.84 25.2308 9.97333 26.6442 8.48C28.0842 6.96 29.8575 6.2 31.9642 6.2C34.3642 6.2 36.3108 7.10667 37.8042 8.92C39.2975 10.7067 40.1908 13.28 40.4842 16.64H42.0842C42.8575 16.64 43.2308 17.5467 43.2042 19.36C43.2042 20.24 43.1108 20.9467 42.9242 21.48C42.7375 22.0133 42.4575 22.28 42.0842 22.28H40.3642C39.8842 25.08 38.7642 27.3067 37.0042 28.96C35.2442 30.64 32.8575 31.48 29.8442 31.48C27.8175 31.48 26.2708 31.0533 25.2042 30.2C24.1375 29.3733 23.6042 28.4133 23.6042 27.32C23.6042 26.12 24.2042 25.24 25.4042 24.68ZM33.0842 16.84H36.2842C36.1775 14.8933 35.7242 13.4133 34.9242 12.4C34.1508 11.36 33.1375 10.84 31.8842 10.84C30.8442 10.84 29.9908 11.12 29.3242 11.68C28.6842 12.24 28.3642 12.9733 28.3642 13.88C28.3642 14.7333 28.7108 15.44 29.4042 16C30.1242 16.56 31.3508 16.84 33.0842 16.84ZM40.6818 19.48C40.6818 17.6667 41.0284 16.72 41.7218 16.64H45.4018C47.7218 16.64 49.6951 16.48 51.3218 16.16C52.9484 15.84 54.4818 15.3467 55.9218 14.68C57.1484 14.0933 57.9884 13.7067 58.4418 13.52C58.9218 13.3333 59.2951 13.2133 59.5618 13.16C59.0818 13 58.0018 12.3733 56.3218 11.28C55.3084 10.5867 54.3884 10.0667 53.5618 9.72C52.7351 9.37333 51.8284 9.2 50.8418 9.2C49.6151 9.2 48.6151 9.48 47.8418 10.04C47.0684 10.5733 46.5884 11.2267 46.4018 12C46.1084 12.1067 45.8151 12.16 45.5218 12.16C44.9884 12.1333 44.4951 11.88 44.0418 11.4C43.5884 10.8933 43.3618 10.1867 43.3618 9.28C43.3618 8.26667 43.7484 7.25333 44.5218 6.24C45.8818 4.58667 47.9351 3.76 50.6818 3.76C53.2151 3.76 56.0151 4.86667 59.0818 7.08C60.8951 8.30667 62.2818 9.13333 63.2418 9.56C64.2018 9.98667 65.1484 10.2 66.0818 10.2C66.7218 10.2 67.2951 10.1733 67.8018 10.12C67.9351 10.4933 68.0018 11.04 68.0018 11.76C68.0018 13.28 67.5351 14.4533 66.6018 15.28C66.0951 15.2 65.5618 15.16 65.0018 15.16C62.9751 15.16 60.2951 16.2667 56.9618 18.48C54.9084 19.7867 52.8551 20.7467 50.8018 21.36C48.7751 21.9733 46.2151 22.28 43.1218 22.28H41.7218C41.0018 22.28 40.6551 21.3467 40.6818 19.48ZM58.0818 23.36C58.3751 24.1067 58.5218 24.7867 58.5218 25.4C58.5218 26.2533 58.2818 26.9333 57.8018 27.44C57.3484 27.9467 56.6951 28.2 55.8418 28.2C55.1218 28.2 54.3884 28.0133 53.6418 27.64C53.2951 26.92 53.1218 26.2267 53.1218 25.56C53.1218 24.68 53.3884 24 53.9218 23.52C54.4551 23.0667 55.1218 22.84 55.9218 22.84C56.6418 22.84 57.3618 23.0133 58.0818 23.36ZM77.9513 7.48C78.7513 8.81333 79.4313 10.56 79.9913 12.72C80.5513 14.88 80.8313 16.8533 80.8313 18.64C80.8313 22.5867 79.9646 25.7067 78.2313 28C76.4979 30.32 74.0446 31.48 70.8713 31.48C69.0313 31.48 67.6179 31.0533 66.6313 30.2C65.6446 29.3733 65.1513 28.4133 65.1513 27.32C65.1513 26.12 65.7513 25.24 66.9513 24.68C67.8313 25.48 69.0313 25.88 70.5513 25.88C72.3379 25.88 73.7779 25.2533 74.8713 24C75.9913 22.7467 76.6979 20.96 76.9913 18.64C76.3513 16.96 75.5379 15.08 74.5513 13C74.0446 12.12 73.7913 11.3467 73.7913 10.68C73.7913 9.69333 74.1913 8.93333 74.9913 8.4C75.8179 7.84 76.8046 7.53333 77.9513 7.48Z" fill="white"/>
</svg>
