<svg width="561" height="39" viewBox="0 0 561 39" fill="none" xmlns="http://www.w3.org/2000/svg">
<path d="M3.16051 35.6C2.58451 35.6 2.09385 35.5147 1.68851 35.344C0.96318 30.7147 0.600513 27.6 0.600513 26C0.600513 23.9093 1.21918 22.256 2.45651 21.04C3.69385 19.8027 5.47518 19.184 7.80051 19.184H12.6005C12.6005 18.8213 12.5578 18.4587 12.4725 18.096C12.3018 17.2213 11.9178 16.4747 11.3205 15.856C10.7445 15.216 9.96585 14.896 8.98451 14.896C8.13118 14.896 7.44851 15.12 6.93651 15.568C6.44585 16.016 6.20051 16.5813 6.20051 17.264C6.20051 17.6053 6.24318 17.9253 6.32851 18.224C6.17918 18.3733 5.81651 18.448 5.24051 18.448C4.55785 18.448 4.00318 18.2133 3.57651 17.744C3.17118 17.2747 2.96851 16.6453 2.96851 15.856C2.96851 14.448 3.53385 13.2533 4.66451 12.272C5.79518 11.2907 7.24585 10.8 9.01651 10.8C11.1498 10.8 12.8672 11.5573 14.1685 13.072C15.4912 14.5867 16.1525 16.464 16.1525 18.704C16.1525 20.304 15.8325 21.7547 15.1925 23.056H8.37651C6.94718 23.056 5.95518 23.2907 5.40051 23.76C4.86718 24.2293 4.60051 24.9547 4.60051 25.936C4.60051 27.0027 4.73918 28.2827 5.01651 29.776C5.31518 31.2693 5.46451 32.4427 5.46451 33.296C5.46451 34.7893 4.69651 35.5573 3.16051 35.6ZM21.9253 18.032C21.7973 18.3947 21.7333 18.8 21.7333 19.248C21.7333 19.9733 22.0213 20.5707 22.5973 21.04C23.1946 21.5093 24.2719 21.744 25.8293 21.744C27.3439 21.744 28.3999 21.5413 28.9973 21.136C29.6159 20.7093 29.9253 20.1333 29.9253 19.408C29.9253 18.448 29.4666 17.552 28.5493 16.72C27.6533 15.888 26.2879 14.864 24.4533 13.648C23.8133 13.2427 23.3439 12.8587 23.0453 12.496C22.7466 12.112 22.5973 11.6533 22.5973 11.12C22.5973 10.5227 22.8106 10.0107 23.2373 9.584C23.6639 9.136 24.2079 8.85867 24.8693 8.752C27.8346 10.4587 29.9999 12.24 31.3653 14.096C32.7306 15.9307 33.4133 17.7973 33.4133 19.696C33.4133 20.9547 33.1253 22.0853 32.5493 23.088C31.9946 24.0693 31.1413 24.848 29.9893 25.424C28.8586 26 27.4293 26.288 25.7013 26.288C23.2693 26.288 21.4666 25.7867 20.2933 24.784C19.1199 23.7813 18.5333 22.5547 18.5333 21.104C18.5333 20.016 18.7999 19.2053 19.3333 18.672C19.8666 18.1173 20.4213 17.84 20.9973 17.84C21.3813 17.84 21.6906 17.904 21.9253 18.032ZM40.6425 4.656V17.264C40.6425 18.9493 40.8345 20.112 41.2185 20.752C41.6238 21.392 42.3385 21.712 43.3625 21.712H43.7145C44.3332 21.712 44.6318 22.4373 44.6105 23.888C44.6105 25.36 44.3118 26.1387 43.7145 26.224H42.7865C40.6958 26.224 39.1812 25.6053 38.2425 24.368C37.3252 23.1093 36.8452 21.1467 36.8025 18.48L36.6105 7.792C36.5892 6.896 36.6958 6.20267 36.9305 5.712C37.1865 5.22133 37.5278 4.88 37.9545 4.688C38.3812 4.496 38.8292 4.4 39.2985 4.4C39.7892 4.4 40.2372 4.48533 40.6425 4.656ZM48.4025 8.432C47.8265 8.432 47.2612 8.28267 46.7065 7.984C46.4292 7.42933 46.2905 6.896 46.2905 6.384C46.2905 4.99733 47.0158 4.28267 48.4665 4.24C49.0212 4.24 49.5865 4.368 50.1625 4.624C50.3972 5.22133 50.5145 5.76533 50.5145 6.256C50.5145 6.91733 50.3332 7.45067 49.9705 7.856C49.6078 8.24 49.0852 8.432 48.4025 8.432ZM53.7145 8.432C53.1385 8.432 52.5732 8.28267 52.0185 7.984C51.7412 7.42933 51.6025 6.896 51.6025 6.384C51.6025 5.70133 51.8052 5.17867 52.2105 4.816C52.6372 4.432 53.1705 4.24 53.8105 4.24C54.3652 4.24 54.9198 4.368 55.4745 4.624C55.7092 5.22133 55.8265 5.76533 55.8265 6.256C55.8265 6.91733 55.6452 7.45067 55.2825 7.856C54.9198 8.24 54.3972 8.432 53.7145 8.432ZM59.0265 21.712C59.6025 21.712 59.9012 22.416 59.9225 23.824C59.9225 24.4427 59.8478 24.9973 59.6985 25.488C59.5492 25.9787 59.3252 26.224 59.0265 26.224C57.5545 26.224 56.1252 26.096 54.7385 25.84C53.3518 25.584 52.0718 25.1787 50.8985 24.624C49.8958 25.1147 48.7652 25.5093 47.5065 25.808C46.2478 26.0853 44.8718 26.224 43.3785 26.224C43.1012 26.224 42.8878 25.9893 42.7385 25.52C42.5678 25.0293 42.4825 24.464 42.4825 23.824C42.4825 23.2267 42.5678 22.7253 42.7385 22.32C42.8878 21.9147 43.1012 21.712 43.3785 21.712C44.6585 21.712 45.8318 21.648 46.8985 21.52C45.5332 19.8773 44.8505 18.1173 44.8505 16.24C44.8505 14.384 45.4478 12.8267 46.6425 11.568C47.8585 10.288 49.2985 9.648 50.9625 9.648C52.6265 9.648 54.0558 10.2773 55.2505 11.536C56.4452 12.7947 57.0425 14.3627 57.0425 16.24C57.0425 17.3493 56.8292 18.3307 56.4025 19.184C55.9972 20.0373 55.4745 20.784 54.8345 21.424C55.7092 21.616 57.1065 21.712 59.0265 21.712ZM50.9625 13.616C50.1732 13.616 49.4905 13.9147 48.9145 14.512C48.3598 15.1093 48.0825 15.8347 48.0825 16.688C48.0825 17.5413 48.3385 18.2773 48.8505 18.896C49.3838 19.5147 50.0878 20.016 50.9625 20.4C51.7732 20.0373 52.4558 19.536 53.0105 18.896C53.5652 18.256 53.8425 17.5093 53.8425 16.656C53.8425 15.824 53.5545 15.1093 52.9785 14.512C52.4025 13.9147 51.7305 13.616 50.9625 13.616ZM58.6878 21.712H59.0718C59.8184 21.712 60.4051 21.4987 60.8318 21.072C61.2584 20.624 61.4718 19.7813 61.4718 18.544C61.4718 16.4533 61.4398 14.4693 61.3758 12.592C61.3118 10.6933 61.2798 9.02933 61.2798 7.6C61.2798 5.31733 62.1438 4.22933 63.8718 4.336C64.4264 4.336 64.9171 4.4 65.3438 4.528V18.256C65.3438 21.1147 64.8211 23.1627 63.7758 24.4C62.7518 25.616 61.2904 26.224 59.3918 26.224H58.6878C58.1118 26.224 57.8344 25.4453 57.8558 23.888C57.8558 22.544 58.1331 21.8187 58.6878 21.712ZM69.3673 26.096L69.1753 7.792C69.1753 6.49067 69.4099 5.59466 69.8793 5.104C70.3486 4.61333 70.9779 4.368 71.7673 4.368C72.3433 4.368 72.8339 4.44267 73.2393 4.592V22.064C73.2393 23.6853 73.0473 24.816 72.6633 25.456C72.2793 26.0747 71.6606 26.384 70.8073 26.384C70.2313 26.384 69.7513 26.288 69.3673 26.096ZM99.359 8.912C98.847 8.912 98.335 8.77333 97.823 8.496C97.567 7.984 97.439 7.49333 97.439 7.024C97.439 6.40533 97.6203 5.936 97.983 5.616C98.367 5.27467 98.847 5.104 99.423 5.104C99.935 5.104 100.447 5.22133 100.959 5.456C101.172 5.98933 101.279 6.48 101.279 6.928C101.279 7.52533 101.108 8.00533 100.767 8.368C100.447 8.73067 99.9777 8.912 99.359 8.912ZM99.967 11.472C99.967 10.832 100.159 10.3413 100.543 10C100.927 9.63733 101.418 9.456 102.015 9.456C102.57 9.456 103.103 9.584 103.615 9.84C103.828 10.3947 103.935 10.896 103.935 11.344C103.935 12.624 103.274 13.3067 101.951 13.392C101.418 13.392 100.884 13.264 100.351 13.008C100.095 12.4533 99.967 11.9413 99.967 11.472ZM96.671 13.456C96.1377 13.456 95.6043 13.3173 95.071 13.04C94.815 12.528 94.687 12.016 94.687 11.504C94.687 10.224 95.3697 9.56267 96.735 9.52C97.247 9.52 97.7803 9.63733 98.335 9.872C98.5483 10.448 98.655 10.96 98.655 11.408C98.655 12.0267 98.4843 12.528 98.143 12.912C97.8017 13.2747 97.311 13.456 96.671 13.456ZM113.535 21.712H114.079C114.698 21.712 114.996 22.4373 114.975 23.888C114.975 25.36 114.676 26.1387 114.079 26.224H113.599C112.49 26.224 111.455 25.9893 110.495 25.52C109.535 25.0293 108.799 24.368 108.287 23.536C106.047 25.5413 102.986 26.544 99.103 26.544H97.887C93.9403 26.544 91.0923 25.84 89.343 24.432C87.615 23.0027 86.751 20.9867 86.751 18.384C86.751 16.848 87.1243 15.632 87.871 14.736C88.6177 13.84 89.3963 13.392 90.207 13.392C90.6977 13.392 91.103 13.5413 91.423 13.84C91.1883 14.2453 90.9857 14.7253 90.815 15.28C90.6657 15.8133 90.591 16.4107 90.591 17.072C90.591 18.928 91.1457 20.2293 92.255 20.976C93.3857 21.7013 95.423 22.064 98.367 22.064H99.103C102.346 22.064 104.906 21.296 106.783 19.76C106.591 18.6933 106.495 17.808 106.495 17.104C106.495 16.3573 106.687 15.76 107.071 15.312C107.455 14.864 108.02 14.64 108.767 14.64C109.535 14.64 110.122 14.768 110.527 15.024V16.848C110.527 18.7893 110.783 20.0907 111.295 20.752C111.807 21.392 112.554 21.712 113.535 21.712ZM120.782 12.816C121.784 14.736 122.286 16.8053 122.286 19.024C122.286 21.264 121.624 23.024 120.302 24.304C119 25.584 117.08 26.224 114.542 26.224H113.742C113.166 26.224 112.888 25.456 112.91 23.92C112.91 22.512 113.187 21.776 113.742 21.712H114.574C116.131 21.712 117.208 21.4987 117.806 21.072C118.424 20.624 118.734 20.0053 118.734 19.216C118.734 18.576 118.51 17.8187 118.062 16.944C117.72 16.24 117.55 15.6533 117.55 15.184C117.55 14.608 117.816 14.0853 118.35 13.616C118.883 13.1467 119.694 12.88 120.782 12.816ZM118.126 28.016C118.36 28.592 118.478 29.104 118.478 29.552C118.478 30.192 118.296 30.6933 117.934 31.056C117.592 31.44 117.102 31.632 116.462 31.632C115.928 31.632 115.384 31.4933 114.83 31.216C114.574 30.6613 114.446 30.1493 114.446 29.68C114.446 28.3573 115.139 27.6747 116.526 27.632C117.038 27.632 117.571 27.76 118.126 28.016ZM123.438 28.016C123.651 28.592 123.758 29.104 123.758 29.552C123.758 30.192 123.587 30.6933 123.246 31.056C122.904 31.44 122.403 31.632 121.742 31.632C121.208 31.632 120.664 31.4933 120.11 31.216C119.854 30.6613 119.726 30.1493 119.726 29.68C119.726 29.0187 119.918 28.5067 120.302 28.144C120.707 27.8027 121.208 27.632 121.806 27.632C122.36 27.632 122.904 27.76 123.438 28.016ZM125.299 21.104C125.299 20.016 125.565 19.2053 126.099 18.672C126.632 18.1173 127.187 17.84 127.763 17.84C128.147 17.84 128.456 17.904 128.691 18.032C128.563 18.352 128.499 18.7573 128.499 19.248C128.499 20.016 128.765 20.6347 129.299 21.104C129.832 21.552 130.717 21.776 131.955 21.776C133.917 21.776 135.304 21.3813 136.115 20.592L132.883 14.032C132.307 13.0293 132.019 12.208 132.019 11.568C132.019 10.9707 132.243 10.4373 132.691 9.968C133.139 9.49867 133.757 9.264 134.547 9.264C135.059 9.264 135.507 9.34933 135.891 9.52L139.027 17.968C139.56 19.4187 140.093 20.4107 140.627 20.944C141.181 21.456 141.885 21.712 142.739 21.712C143.315 21.712 143.592 22.4373 143.571 23.888C143.571 25.36 143.293 26.1387 142.739 26.224C140.669 26.224 139.059 25.424 137.907 23.824C137.309 24.592 136.509 25.2 135.507 25.648C134.504 26.096 133.299 26.32 131.891 26.32C129.693 26.32 128.04 25.8187 126.931 24.816C125.843 23.8133 125.299 22.576 125.299 21.104ZM162.684 21.712H165.212C165.788 21.712 166.065 22.4373 166.044 23.888C166.044 25.36 165.766 26.1387 165.212 26.224H164.284C162.172 26.224 160.518 25.776 159.324 24.88C158.129 23.984 157.35 22.5013 156.988 20.432L156.124 21.296C154.438 23.088 152.614 24.3573 150.652 25.104C148.71 25.8507 146.3 26.224 143.42 26.224H142.332C141.756 26.224 141.478 25.4453 141.5 23.888C141.5 23.248 141.574 22.7253 141.724 22.32C141.873 21.9147 142.076 21.712 142.332 21.712H144.476C146.929 21.712 148.881 21.5413 150.332 21.2C151.804 20.8373 153.18 20.176 154.46 19.216C155.398 18.512 156.134 17.9787 156.668 17.616C156.369 17.488 155.676 17.136 154.588 16.56C153.756 16.1333 152.977 15.8027 152.252 15.568C151.526 15.3333 150.769 15.216 149.98 15.216C148.892 15.216 148.038 15.44 147.42 15.888C146.822 16.336 146.449 16.9013 146.3 17.584C146.065 17.6693 145.83 17.712 145.596 17.712C145.19 17.712 144.785 17.5093 144.38 17.104C143.974 16.6987 143.772 16.1333 143.772 15.408C143.772 14.5333 144.102 13.6907 144.764 12.88C145.254 12.2827 145.926 11.8027 146.78 11.44C147.654 11.0773 148.657 10.896 149.788 10.896C150.769 10.896 151.729 11.056 152.668 11.376C153.628 11.6747 154.673 12.112 155.804 12.688C157.894 13.7973 159.836 14.352 161.628 14.352C162.182 14.352 162.705 14.3307 163.196 14.288C163.345 14.6933 163.42 15.184 163.42 15.76C163.42 16.8053 163.057 17.7013 162.332 18.448H161.116C160.412 18.448 159.761 18.5867 159.164 18.864C159.292 19.9307 159.622 20.6773 160.156 21.104C160.689 21.5093 161.532 21.712 162.684 21.712ZM167.743 13.2C167.167 13.2 166.601 13.0613 166.047 12.784C165.769 12.208 165.631 11.664 165.631 11.152C165.631 10.4693 165.833 9.94667 166.239 9.584C166.644 9.22133 167.167 9.04 167.807 9.04C168.383 9.04 168.948 9.168 169.503 9.424C169.737 10 169.855 10.5333 169.855 11.024C169.855 11.6853 169.673 12.2187 169.311 12.624C168.948 13.008 168.425 13.2 167.743 13.2ZM173.055 13.2C172.521 13.2 171.956 13.0613 171.359 12.784C171.081 12.208 170.943 11.664 170.943 11.152C170.943 10.4693 171.145 9.94667 171.551 9.584C171.977 9.22133 172.511 9.04 173.151 9.04C173.705 9.04 174.26 9.168 174.815 9.424C175.049 10 175.167 10.5333 175.167 11.024C175.167 11.6853 174.985 12.2187 174.623 12.624C174.26 13.008 173.737 13.2 173.055 13.2ZM175.327 21.712H175.807C176.361 21.712 176.639 22.4373 176.639 23.888C176.639 25.36 176.361 26.1387 175.807 26.224H175.231C173.375 26.224 172.073 25.6373 171.327 24.464C171.199 24.272 171.071 24.0693 170.943 23.856C170.388 24.7307 169.652 25.3493 168.735 25.712C167.839 26.0533 166.793 26.224 165.599 26.224H164.799C164.223 26.224 163.945 25.4453 163.967 23.888C163.967 23.248 164.041 22.7253 164.191 22.32C164.34 21.9147 164.543 21.712 164.799 21.712H165.855C167.625 21.712 168.457 20.9013 168.351 19.28C168.351 18.4053 168.329 17.7013 168.287 17.168C168.287 16.5493 168.489 16.0693 168.895 15.728C169.321 15.3653 169.94 15.184 170.751 15.184C171.327 15.184 171.817 15.312 172.223 15.568V17.968C172.223 19.4613 172.457 20.464 172.927 20.976C173.396 21.4667 174.196 21.712 175.327 21.712ZM175.391 21.712H175.775C176.521 21.712 177.108 21.4987 177.535 21.072C177.961 20.624 178.175 19.7813 178.175 18.544C178.175 16.4533 178.143 14.4693 178.079 12.592C178.015 10.6933 177.983 9.02933 177.983 7.6C177.983 5.31733 178.847 4.22933 180.575 4.336C181.129 4.336 181.62 4.4 182.047 4.528V18.256C182.047 21.1147 181.524 23.1627 180.479 24.4C179.455 25.616 177.993 26.224 176.095 26.224H175.391C174.815 26.224 174.537 25.4453 174.559 23.888C174.559 22.544 174.836 21.8187 175.391 21.712ZM186.07 26.096L185.878 7.792C185.878 6.49067 186.113 5.59466 186.582 5.104C187.052 4.61333 187.681 4.368 188.47 4.368C189.046 4.368 189.537 4.44267 189.942 4.592V22.064C189.942 23.6853 189.75 24.816 189.366 25.456C188.982 26.0747 188.364 26.384 187.51 26.384C186.934 26.384 186.454 26.288 186.07 26.096ZM203.006 26.032C203.006 24.5813 203.326 23.4187 203.966 22.544C204.627 21.648 205.363 21.2 206.174 21.2C206.729 21.2 207.166 21.3493 207.486 21.648C206.91 22.544 206.622 23.6 206.622 24.816C206.622 26.16 207.102 27.1733 208.062 27.856C209.022 28.5387 210.601 28.88 212.798 28.88C214.995 28.88 216.531 28.6453 217.406 28.176C218.302 27.728 218.75 27.2053 218.75 26.608C218.75 26.1173 218.494 25.7013 217.982 25.36C217.47 25.0187 216.51 24.6453 215.102 24.24C213.929 23.9627 213.342 23.3333 213.342 22.352C213.342 21.9893 213.459 21.6267 213.694 21.264C213.95 20.9013 214.291 20.6133 214.718 20.4C217.598 21.04 219.603 21.8507 220.734 22.832C221.865 23.792 222.43 24.9653 222.43 26.352C222.43 27.6747 222.067 28.8693 221.342 29.936C220.617 31.0027 219.529 31.8453 218.078 32.464C216.649 33.0827 214.867 33.392 212.734 33.392C209.555 33.392 207.134 32.72 205.47 31.376C203.827 30.032 203.006 28.2507 203.006 26.032ZM210.558 34.576C210.793 35.152 210.91 35.6853 210.91 36.176C210.91 36.8373 210.729 37.36 210.366 37.744C210.003 38.1493 209.481 38.352 208.798 38.352C208.222 38.352 207.657 38.2027 207.102 37.904C206.825 37.3493 206.686 36.816 206.686 36.304C206.686 35.6213 206.889 35.0987 207.294 34.736C207.721 34.3733 208.243 34.192 208.862 34.192C209.438 34.192 210.003 34.32 210.558 34.576ZM215.838 34.576C216.073 35.152 216.19 35.6853 216.19 36.176C216.19 36.8373 216.009 37.36 215.646 37.744C215.283 38.1493 214.761 38.352 214.078 38.352C213.545 38.352 212.99 38.2027 212.414 37.904C212.137 37.3493 211.998 36.816 211.998 36.304C211.998 35.6213 212.201 35.0987 212.606 34.736C213.011 34.3733 213.534 34.192 214.174 34.192C214.729 34.192 215.283 34.32 215.838 34.576ZM216.308 0.431999C216.543 1.02933 216.66 1.57333 216.66 2.064C216.66 2.74667 216.479 3.29067 216.116 3.696C215.732 4.10133 215.199 4.304 214.516 4.304C213.94 4.304 213.354 4.15467 212.756 3.856C212.479 3.28 212.34 2.72533 212.34 2.192C212.34 1.488 212.554 0.954666 212.98 0.591999C213.407 0.207999 213.94 0.0159988 214.58 0.0159988C215.156 0.0159988 215.732 0.154666 216.308 0.431999ZM208.788 12.784C208.788 11.0133 209.364 9.50933 210.516 8.272C211.668 7.01333 213.119 6.384 214.868 6.384C216.98 6.384 218.655 7.26933 219.892 9.04C221.151 10.7893 221.78 13.2 221.78 16.272C221.78 18.7253 221.311 20.528 220.372 21.68C219.455 22.8107 218.271 23.376 216.82 23.376C215.924 23.376 215.284 23.152 214.9 22.704C214.516 22.256 214.324 21.488 214.324 20.4C214.559 20.464 214.932 20.496 215.444 20.496C216.276 20.496 216.959 20.2933 217.492 19.888C218.026 19.4613 218.346 18.8213 218.452 17.968C218.132 18.2453 217.706 18.48 217.172 18.672C216.639 18.864 215.999 18.96 215.252 18.96C213.375 18.96 211.839 18.4053 210.644 17.296C209.45 16.1653 208.831 14.6613 208.788 12.784ZM211.892 12.72C211.892 14.1493 213.012 14.928 215.252 15.056C216.447 15.056 217.45 14.8427 218.26 14.416C218.154 13.0933 217.78 12.0587 217.14 11.312C216.522 10.5653 215.711 10.192 214.708 10.192C213.876 10.192 213.204 10.4373 212.692 10.928C212.159 11.4187 211.892 12.016 211.892 12.72ZM239.096 32.336C237.112 32.336 235.203 31.312 233.368 29.264C232.28 28.048 231.384 26.544 230.68 24.752C229.998 22.9387 229.656 20.912 229.656 18.672C229.656 16.4533 230.008 14.4373 230.712 12.624C231.438 10.8107 232.355 9.28533 233.464 8.048C235.278 6.04267 237.155 5.04 239.096 5.04C240.44 5.04 241.155 5.66933 241.24 6.928C241.24 7.33333 241.134 7.67467 240.92 7.952C240.707 8.22933 240.568 8.38933 240.504 8.432C238.456 8.98667 236.888 10.2027 235.8 12.08C234.734 13.9573 234.2 16.1547 234.2 18.672C234.2 21.2533 234.734 23.4827 235.8 25.36C236.888 27.216 238.456 28.4213 240.504 28.976C240.568 28.9973 240.707 29.1467 240.92 29.424C241.134 29.7013 241.24 30.032 241.24 30.416C241.24 31.6533 240.526 32.2933 239.096 32.336ZM248.905 26.224H248.329C247.028 26.224 246.356 25.4987 246.313 24.048V10.992C245.78 11.44 245.161 11.664 244.457 11.664C243.668 11.664 242.985 11.4187 242.409 10.928C241.876 10.416 241.609 9.776 241.609 9.008C241.609 8.47467 241.705 8.048 241.897 7.728C242.089 7.38667 242.281 7.14133 242.473 6.992C242.665 6.82133 242.793 6.74667 242.857 6.768C243.348 7.23733 244.009 7.472 244.841 7.472C245.524 7.472 246.11 7.25867 246.601 6.832C247.092 6.384 247.401 5.79733 247.529 5.072H248.905C250.292 5.072 250.974 5.79733 250.953 7.248V24.048C250.953 25.456 250.27 26.1813 248.905 26.224ZM261.478 26.448C260.219 26.448 259.099 26.2987 258.118 26C257.136 25.7227 256.304 25.3493 255.622 24.88C254.235 23.856 253.542 22.8 253.542 21.712C253.542 20.9227 253.766 20.368 254.214 20.048C254.683 19.7067 255.142 19.504 255.59 19.44C256.038 19.376 256.283 19.3867 256.326 19.472C256.667 20.5387 257.286 21.36 258.182 21.936C259.099 22.4907 260.187 22.768 261.446 22.768C262.704 22.768 263.696 22.512 264.422 22C265.168 21.4667 265.542 20.7413 265.542 19.824C265.542 17.904 264.315 16.9547 261.862 16.976H260.774C259.984 16.976 259.419 16.8373 259.078 16.56C258.736 16.2827 258.566 15.888 258.566 15.376V15.12C258.566 13.9893 259.28 13.456 260.71 13.52H262.246C264.166 13.52 265.147 12.72 265.19 11.12C265.19 10.3093 264.859 9.66933 264.198 9.2C263.536 8.73067 262.608 8.496 261.414 8.496C260.07 8.496 259.035 8.79467 258.31 9.392C257.584 9.98933 257.083 10.6827 256.806 11.472C256.742 11.5573 256.486 11.568 256.038 11.504C255.611 11.44 255.174 11.248 254.726 10.928C254.278 10.5867 254.054 10.032 254.054 9.264C254.054 8.176 254.726 7.16267 256.07 6.224C256.731 5.81867 257.52 5.488 258.438 5.232C259.355 4.976 260.368 4.848 261.478 4.848C264.102 4.848 266.118 5.33867 267.526 6.32C268.934 7.30133 269.638 8.70933 269.638 10.544C269.638 12.72 268.432 14.16 266.022 14.864C268.71 15.824 270.054 17.584 270.054 20.144C270.054 22.128 269.307 23.6747 267.814 24.784C266.32 25.8933 264.208 26.448 261.478 26.448ZM276.899 18.512V17.808C276.899 17.3387 277.059 16.9333 277.379 16.592C277.699 16.2507 278.157 16.08 278.755 16.08H286.403C287.021 16.08 287.48 16.2507 287.779 16.592C288.099 16.9333 288.259 17.3387 288.259 17.808V18.512C288.259 18.9813 288.099 19.3867 287.779 19.728C287.48 20.0693 287.021 20.24 286.403 20.24H278.755C278.157 20.24 277.699 20.0693 277.379 19.728C277.059 19.3867 276.899 18.9813 276.899 18.512ZM301.896 26.224H301.32C300.019 26.224 299.347 25.4987 299.304 24.048V10.992C298.771 11.44 298.152 11.664 297.448 11.664C296.659 11.664 295.976 11.4187 295.4 10.928C294.867 10.416 294.6 9.776 294.6 9.008C294.6 8.47467 294.696 8.048 294.888 7.728C295.08 7.38667 295.272 7.14133 295.464 6.992C295.656 6.82133 295.784 6.74667 295.848 6.768C296.339 7.23733 297 7.472 297.832 7.472C298.515 7.472 299.102 7.25867 299.592 6.832C300.083 6.384 300.392 5.79733 300.52 5.072H301.896C303.283 5.072 303.966 5.79733 303.944 7.248V24.048C303.944 25.456 303.262 26.1813 301.896 26.224ZM315.653 26.384C312.944 26.384 310.832 25.8507 309.317 24.784C307.802 23.7173 307.045 22.256 307.045 20.4C307.045 17.968 308.453 16.2933 311.269 15.376C310.032 14.9707 309.114 14.3733 308.517 13.584C307.941 12.7947 307.653 11.8453 307.653 10.736C307.653 8.96533 308.389 7.536 309.861 6.448C311.354 5.36 313.306 4.816 315.717 4.816C318.149 4.816 320.069 5.34933 321.477 6.416C322.906 7.48267 323.621 8.90133 323.621 10.672C323.621 12.912 322.437 14.4587 320.069 15.312C321.498 15.7387 322.554 16.3893 323.237 17.264C323.941 18.1173 324.293 19.1627 324.293 20.4C324.293 22.192 323.514 23.6427 321.957 24.752C320.4 25.84 318.298 26.384 315.653 26.384ZM315.685 14.064C316.816 14.064 317.701 13.808 318.341 13.296C318.981 12.7627 319.301 12.0587 319.301 11.184C319.301 10.3093 318.981 9.60533 318.341 9.072C317.701 8.51733 316.816 8.24 315.685 8.24C314.512 8.24 313.616 8.51733 312.997 9.072C312.378 9.60533 312.069 10.3093 312.069 11.184C312.069 12.0373 312.389 12.7307 313.029 13.264C313.69 13.7973 314.576 14.064 315.685 14.064ZM315.685 23.024C318.288 23.024 319.632 21.9787 319.717 19.888C319.717 18.9493 319.354 18.192 318.629 17.616C317.925 17.04 316.944 16.752 315.685 16.752C314.426 16.752 313.434 17.04 312.709 17.616C311.984 18.1707 311.621 18.928 311.621 19.888C311.621 20.8053 311.984 21.5627 312.709 22.16C313.434 22.736 314.426 23.024 315.685 23.024ZM327.201 32.336C325.835 32.336 325.121 31.696 325.057 30.416C325.057 30.032 325.153 29.7013 325.345 29.424C325.558 29.1467 325.707 28.9973 325.793 28.976C327.841 28.4213 329.398 27.216 330.465 25.36C331.553 23.4827 332.097 21.2533 332.097 18.672C332.097 16.1547 331.553 13.9573 330.465 12.08C329.398 10.2027 327.841 8.98667 325.793 8.432C325.707 8.38933 325.558 8.22933 325.345 7.952C325.153 7.67467 325.057 7.33333 325.057 6.928C325.057 5.712 325.771 5.08267 327.201 5.04C329.249 5.04 331.233 6.16 333.153 8.4C334.198 9.63733 335.03 11.1413 335.649 12.912C336.289 14.6613 336.609 16.5813 336.609 18.672C336.609 20.8053 336.289 22.7467 335.649 24.496C335.03 26.224 334.219 27.7067 333.217 28.944C331.297 31.2053 329.291 32.336 327.201 32.336ZM345.687 35.344C344.983 30.864 344.631 27.6 344.631 25.552C344.631 23.3333 345.111 21.4667 346.071 19.952C347.052 18.4373 348.673 17.232 350.935 16.336C353.196 15.44 356.236 14.8427 360.055 14.544L361.527 18.48C361.996 19.7813 362.465 20.6453 362.935 21.072C363.425 21.4987 364.044 21.712 364.791 21.712C365.345 21.712 365.623 22.4373 365.623 23.888C365.623 24.7413 365.548 25.3493 365.399 25.712C365.249 26.0533 365.047 26.224 364.791 26.224C363.511 26.224 362.529 25.808 361.847 24.976V25.264C361.804 26.5227 361.356 27.5467 360.503 28.336C359.649 29.1467 358.529 29.552 357.143 29.552C355.372 29.552 353.943 28.9547 352.855 27.76C351.767 26.5867 351.223 25.0613 351.223 23.184C351.223 21.6693 351.639 20.4853 352.471 19.632C351.212 19.9733 350.252 20.5387 349.591 21.328C348.951 22.096 348.631 23.2373 348.631 24.752C348.631 26.16 348.769 27.728 349.047 29.456C349.324 31.2053 349.463 32.4853 349.463 33.296C349.463 34.768 348.684 35.536 347.127 35.6C346.593 35.6 346.113 35.5147 345.687 35.344ZM358.519 20.496L357.559 18.352C355.425 19.2907 354.359 20.6773 354.359 22.512C354.359 23.3867 354.583 24.08 355.031 24.592C355.5 25.0827 356.172 25.328 357.047 25.328C358.433 25.328 359.18 24.6347 359.287 23.248C359.287 22.992 359.244 22.6613 359.159 22.256C359.073 21.8507 358.86 21.264 358.519 20.496ZM388.807 21.712C389.319 21.712 389.596 22.448 389.639 23.92C389.639 24.6027 389.564 25.1573 389.415 25.584C389.265 26.0107 389.063 26.224 388.807 26.224C386.503 26.224 384.967 25.3493 384.199 23.6C383.559 25.3493 382.353 26.224 380.583 26.224C378.641 26.224 377.372 25.392 376.775 23.728C376.071 25.392 374.769 26.224 372.871 26.224C371.996 26.224 371.217 26.0107 370.535 25.584C369.873 25.136 369.415 24.5173 369.159 23.728C368.412 25.392 366.823 26.224 364.391 26.224C363.815 26.224 363.537 25.456 363.559 23.92C363.559 23.2587 363.633 22.7253 363.783 22.32C363.911 21.9147 364.113 21.712 364.391 21.712C365.351 21.712 366.023 21.5413 366.407 21.2C366.791 20.8373 366.983 20.304 366.983 19.6C366.983 18.9173 366.961 18.2133 366.919 17.488C366.919 16.9333 367.111 16.4853 367.495 16.144C367.879 15.7813 368.401 15.6 369.063 15.6C369.681 15.6 370.172 15.7387 370.535 16.016V18.032C370.535 19.376 370.727 20.3253 371.111 20.88C371.495 21.4347 372.081 21.712 372.871 21.712C374.129 21.712 374.727 21.0293 374.663 19.664C374.663 18.9173 374.652 18.1813 374.631 17.456C374.631 16.368 375.335 15.76 376.743 15.632C377.383 15.632 377.873 15.76 378.215 16.016V18.064C378.215 19.4293 378.396 20.3787 378.759 20.912C379.121 21.4453 379.665 21.712 380.391 21.712C381.521 21.712 382.076 20.9653 382.055 19.472C382.055 18.2773 382.023 17.2107 381.959 16.272C381.959 15.0773 382.684 14.4267 384.135 14.32C384.753 14.32 385.233 14.4587 385.575 14.736V17.776C385.575 19.248 385.831 20.272 386.343 20.848C386.876 21.424 387.697 21.712 388.807 21.712ZM394.181 1.936C394.415 2.512 394.533 3.04533 394.533 3.536C394.533 4.90133 393.818 5.63733 392.389 5.744C391.855 5.744 391.29 5.59467 390.693 5.296C390.437 4.74133 390.309 4.19733 390.309 3.664C390.309 2.32 391.034 1.616 392.485 1.552C393.039 1.552 393.605 1.68 394.181 1.936ZM399.493 1.936C399.727 2.512 399.845 3.04533 399.845 3.536C399.845 4.21867 399.663 4.76267 399.301 5.168C398.938 5.552 398.415 5.744 397.733 5.744C397.157 5.744 396.591 5.59467 396.037 5.296C395.759 4.74133 395.621 4.19733 395.621 3.664C395.621 2.98133 395.823 2.45867 396.229 2.096C396.655 1.73333 397.189 1.552 397.829 1.552C398.383 1.552 398.938 1.68 399.493 1.936ZM387.461 23.952C387.461 23.2267 387.535 22.672 387.685 22.288C387.813 21.904 388.047 21.712 388.389 21.712H390.373C393.167 21.712 395.194 21.4027 396.453 20.784C397.733 20.144 398.479 19.2053 398.693 17.968C398.351 18.3093 397.903 18.5973 397.349 18.832C396.794 19.0453 396.09 19.152 395.237 19.152C393.487 19.152 392.026 18.608 390.853 17.52C389.701 16.432 389.103 14.992 389.061 13.2C389.061 11.4293 389.626 9.92533 390.757 8.688C391.909 7.45067 393.391 6.832 395.205 6.832C397.231 6.832 398.885 7.68533 400.165 9.392C401.445 11.0773 402.085 13.5093 402.085 16.688C402.085 23.0453 398.138 26.224 390.245 26.224H388.389C388.047 26.224 387.813 26.0213 387.685 25.616C387.535 25.1893 387.461 24.6347 387.461 23.952ZM392.165 13.104C392.165 14.576 393.285 15.3653 395.525 15.472C396.719 15.472 397.711 15.2587 398.501 14.832C398.415 13.488 398.053 12.4427 397.413 11.696C396.794 10.9493 395.983 10.576 394.981 10.576C394.149 10.576 393.466 10.8213 392.933 11.312C392.421 11.8027 392.165 12.4 392.165 13.104ZM421.025 3.76C421.259 4.35733 421.377 4.90133 421.377 5.392C421.377 6.05333 421.195 6.58667 420.833 6.992C420.47 7.376 419.947 7.568 419.265 7.568C418.689 7.568 418.123 7.41867 417.569 7.12C417.291 6.56533 417.153 6.032 417.153 5.52C417.153 4.13333 417.878 3.41867 419.329 3.376C419.905 3.376 420.47 3.504 421.025 3.76ZM426.369 3.76C426.582 4.35733 426.689 4.90133 426.689 5.392C426.689 6.05333 426.507 6.58667 426.145 6.992C425.782 7.376 425.259 7.568 424.577 7.568C424.043 7.568 423.478 7.41867 422.881 7.12C422.603 6.56533 422.465 6.032 422.465 5.52C422.465 4.83733 422.667 4.31467 423.073 3.952C423.499 3.568 424.033 3.376 424.673 3.376C425.227 3.376 425.793 3.504 426.369 3.76ZM427.937 23.952C427.937 25.488 427.649 26.2453 427.073 26.224H426.241C424.726 26.224 423.467 25.8933 422.465 25.232C421.462 24.5493 420.79 23.632 420.449 22.48C420.065 23.056 419.499 23.5573 418.753 23.984C418.027 24.3893 417.089 24.592 415.937 24.592C414.273 24.592 412.918 24.112 411.873 23.152C410.849 22.192 410.337 20.976 410.337 19.504C410.337 18.3733 410.667 17.296 411.329 16.272C412.011 15.248 413.046 14.4053 414.433 13.744C415.819 13.0613 417.579 12.656 419.713 12.528V11.344C419.713 10.4053 419.958 9.744 420.449 9.36C420.961 8.95467 421.537 8.752 422.177 8.752C422.923 8.752 423.457 8.89067 423.777 9.168V18.672C423.777 19.824 423.99 20.624 424.417 21.072C424.865 21.4987 425.558 21.712 426.497 21.712H427.073C427.649 21.712 427.937 22.4587 427.937 23.952ZM419.905 19.12L419.777 15.824C417.814 15.8667 416.374 16.1973 415.457 16.816C414.561 17.4133 414.113 18.1387 414.113 18.992C414.113 19.6107 414.326 20.1227 414.753 20.528C415.201 20.912 415.787 21.104 416.513 21.104C417.323 21.104 418.006 20.912 418.561 20.528C419.137 20.144 419.585 19.6747 419.905 19.12ZM435.177 1.808C435.411 2.40533 435.529 2.94933 435.529 3.44C435.529 4.12267 435.337 4.66667 434.953 5.072C434.59 5.47733 434.067 5.68 433.385 5.68C432.787 5.68 432.201 5.53067 431.625 5.232C431.347 4.656 431.209 4.10133 431.209 3.568C431.209 2.88533 431.411 2.36267 431.817 2C432.243 1.616 432.787 1.424 433.449 1.424C434.025 1.424 434.601 1.552 435.177 1.808ZM425.737 23.952C425.737 23.2267 425.811 22.672 425.961 22.288C426.089 21.904 426.323 21.712 426.665 21.712H428.649C431.443 21.712 433.47 21.4027 434.729 20.784C436.009 20.144 436.755 19.2053 436.969 17.968C436.627 18.3093 436.179 18.5973 435.625 18.832C435.07 19.0453 434.366 19.152 433.513 19.152C431.763 19.152 430.302 18.608 429.129 17.52C427.977 16.432 427.379 14.992 427.337 13.2C427.337 11.4293 427.902 9.92533 429.033 8.688C430.185 7.45067 431.667 6.832 433.481 6.832C435.507 6.832 437.161 7.68533 438.441 9.392C439.721 11.0773 440.361 13.5093 440.361 16.688C440.361 23.0453 436.414 26.224 428.521 26.224H426.665C426.323 26.224 426.089 26.0213 425.961 25.616C425.811 25.1893 425.737 24.6347 425.737 23.952ZM430.441 13.104C430.441 14.576 431.561 15.3653 433.801 15.472C434.995 15.472 435.987 15.2587 436.777 14.832C436.691 13.488 436.329 12.4427 435.689 11.696C435.07 10.9493 434.259 10.576 433.257 10.576C432.425 10.576 431.742 10.8213 431.209 11.312C430.697 11.8027 430.441 12.4 430.441 13.104ZM447.364 4.656V17.264C447.364 18.9493 447.556 20.112 447.94 20.752C448.346 21.392 449.06 21.712 450.084 21.712H450.436C451.055 21.712 451.354 22.4373 451.332 23.888C451.332 25.36 451.034 26.1387 450.436 26.224H449.508C447.418 26.224 445.903 25.6053 444.964 24.368C444.047 23.1093 443.567 21.1467 443.524 18.48L443.332 7.792C443.311 6.896 443.418 6.20267 443.652 5.712C443.908 5.22133 444.25 4.88 444.676 4.688C445.103 4.496 445.551 4.4 446.02 4.4C446.511 4.4 446.959 4.48533 447.364 4.656ZM459.636 12.848C459.06 12.848 458.484 12.7093 457.908 12.432C457.631 11.8347 457.492 11.28 457.492 10.768C457.492 10.064 457.695 9.53067 458.1 9.168C458.527 8.784 459.071 8.592 459.732 8.592C460.287 8.592 460.863 8.72 461.46 8.976C461.695 9.57333 461.812 10.128 461.812 10.64C461.812 12.0053 461.087 12.7413 459.636 12.848ZM469.524 11.792C471.572 11.792 473.236 12.4533 474.516 13.776C475.818 15.0773 476.468 16.8053 476.468 18.96C476.468 21.2213 475.732 23.0027 474.26 24.304C472.788 25.584 470.57 26.224 467.604 26.224H461.236H461.108C461.108 26.224 461.087 26.224 461.044 26.224H460.468C458.612 26.224 457.311 25.6373 456.564 24.464C456.436 24.272 456.308 24.0693 456.18 23.856C455.626 24.7307 454.89 25.3493 453.972 25.712C453.076 26.0533 452.031 26.224 450.836 26.224H450.036C449.46 26.224 449.183 25.4453 449.204 23.888C449.204 23.248 449.279 22.7253 449.428 22.32C449.578 21.9147 449.78 21.712 450.036 21.712H451.092C452.863 21.712 453.695 20.9227 453.588 19.344C453.588 18.5333 453.578 17.8933 453.556 17.424C453.556 16.8267 453.759 16.3573 454.164 16.016C454.591 15.6533 455.199 15.472 455.988 15.472C456.564 15.472 457.055 15.6107 457.46 15.888V17.968C457.46 19.3973 457.674 20.3787 458.1 20.912C458.527 21.4453 459.242 21.712 460.244 21.712C460.628 18.5547 461.716 16.112 463.508 14.384C465.3 12.656 467.306 11.792 469.524 11.792ZM463.668 21.712H468.564C471.423 21.712 472.842 20.848 472.82 19.12C472.82 18.2453 472.5 17.52 471.86 16.944C471.242 16.368 470.388 16.08 469.3 16.08C467.892 16.08 466.676 16.5707 465.652 17.552C464.628 18.512 463.967 19.8987 463.668 21.712ZM480.153 26.096L479.961 7.792C479.961 6.49067 480.195 5.59466 480.665 5.104C481.134 4.61333 481.763 4.368 482.553 4.368C483.129 4.368 483.619 4.44267 484.025 4.592V22.064C484.025 23.6853 483.833 24.816 483.449 25.456C483.065 26.0747 482.446 26.384 481.593 26.384C481.017 26.384 480.537 26.288 480.153 26.096ZM481.177 31.536L484.377 31.216C485.443 31.1093 485.977 31.4933 485.977 32.368C485.977 32.688 485.923 32.9653 485.817 33.2L479.577 33.84C479.043 33.8827 478.649 33.7867 478.393 33.552C478.158 33.3173 478.041 32.9653 478.041 32.496C478.041 32.2613 478.062 32.0373 478.105 31.824L479.321 31.696C479.043 31.248 478.905 30.7253 478.905 30.128C478.905 29.296 479.225 28.5813 479.865 27.984C480.505 27.3867 481.315 27.088 482.297 27.088C483.129 27.088 483.769 27.2907 484.217 27.696C484.686 28.1227 484.921 28.592 484.921 29.104C484.921 29.872 484.441 30.2773 483.481 30.32C483.267 29.5947 482.819 29.232 482.137 29.232C481.774 29.232 481.465 29.3493 481.209 29.584C480.974 29.8187 480.857 30.128 480.857 30.512C480.857 30.8533 480.963 31.1947 481.177 31.536ZM499.136 35.344C498.432 30.864 498.08 27.6 498.08 25.552C498.08 23.3333 498.56 21.4667 499.52 19.952C500.502 18.4373 502.123 17.232 504.384 16.336C506.646 15.44 509.686 14.8427 513.504 14.544L514.976 18.48C515.446 19.7813 515.915 20.6453 516.384 21.072C516.875 21.4987 517.494 21.712 518.24 21.712C518.795 21.712 519.072 22.4373 519.072 23.888C519.072 24.7413 518.998 25.3493 518.848 25.712C518.699 26.0533 518.496 26.224 518.24 26.224C516.96 26.224 515.979 25.808 515.296 24.976V25.264C515.254 26.5227 514.806 27.5467 513.952 28.336C513.099 29.1467 511.979 29.552 510.592 29.552C508.822 29.552 507.392 28.9547 506.304 27.76C505.216 26.5867 504.672 25.0613 504.672 23.184C504.672 21.6693 505.088 20.4853 505.92 19.632C504.662 19.9733 503.702 20.5387 503.04 21.328C502.4 22.096 502.08 23.2373 502.08 24.752C502.08 26.16 502.219 27.728 502.496 29.456C502.774 31.2053 502.912 32.4853 502.912 33.296C502.912 34.768 502.134 35.536 500.576 35.6C500.043 35.6 499.563 35.5147 499.136 35.344ZM511.968 20.496L511.008 18.352C508.875 19.2907 507.808 20.6773 507.808 22.512C507.808 23.3867 508.032 24.08 508.48 24.592C508.95 25.0827 509.622 25.328 510.496 25.328C511.883 25.328 512.63 24.6347 512.736 23.248C512.736 22.992 512.694 22.6613 512.608 22.256C512.523 21.8507 512.31 21.264 511.968 20.496ZM520.784 13.2C520.208 13.2 519.643 13.0613 519.088 12.784C518.811 12.208 518.672 11.664 518.672 11.152C518.672 10.4693 518.875 9.94667 519.28 9.584C519.685 9.22133 520.208 9.04 520.848 9.04C521.424 9.04 521.989 9.168 522.544 9.424C522.779 10 522.896 10.5333 522.896 11.024C522.896 11.6853 522.715 12.2187 522.352 12.624C521.989 13.008 521.467 13.2 520.784 13.2ZM526.096 13.2C525.563 13.2 524.997 13.0613 524.4 12.784C524.123 12.208 523.984 11.664 523.984 11.152C523.984 10.4693 524.187 9.94667 524.592 9.584C525.019 9.22133 525.552 9.04 526.192 9.04C526.747 9.04 527.301 9.168 527.856 9.424C528.091 10 528.208 10.5333 528.208 11.024C528.208 11.6853 528.027 12.2187 527.664 12.624C527.301 13.008 526.779 13.2 526.096 13.2ZM528.368 21.712H528.848C529.403 21.712 529.68 22.4373 529.68 23.888C529.68 25.36 529.403 26.1387 528.848 26.224H528.272C526.416 26.224 525.115 25.6373 524.368 24.464C524.24 24.272 524.112 24.0693 523.984 23.856C523.429 24.7307 522.693 25.3493 521.776 25.712C520.88 26.0533 519.835 26.224 518.64 26.224H517.84C517.264 26.224 516.987 25.4453 517.008 23.888C517.008 23.248 517.083 22.7253 517.232 22.32C517.381 21.9147 517.584 21.712 517.84 21.712H518.896C520.667 21.712 521.499 20.9013 521.392 19.28C521.392 18.4053 521.371 17.7013 521.328 17.168C521.328 16.5493 521.531 16.0693 521.936 15.728C522.363 15.3653 522.981 15.184 523.792 15.184C524.368 15.184 524.859 15.312 525.264 15.568V17.968C525.264 19.4613 525.499 20.464 525.968 20.976C526.437 21.4667 527.237 21.712 528.368 21.712ZM538.96 21.712H539.44C539.995 21.712 540.272 22.4373 540.272 23.888C540.272 25.36 539.995 26.1387 539.44 26.224H538.864C537.008 26.224 535.707 25.6373 534.96 24.464C534.832 24.272 534.704 24.0693 534.576 23.856C534.021 24.7307 533.285 25.3493 532.368 25.712C531.472 26.0533 530.427 26.224 529.232 26.224H528.432C527.856 26.224 527.579 25.4453 527.6 23.888C527.6 22.5653 527.877 21.84 528.432 21.712H529.488C531.259 21.712 532.091 20.8693 531.984 19.184C531.984 17.0933 531.952 15.3653 531.888 14C531.888 12.464 532.72 11.6747 534.384 11.632C534.96 11.632 535.451 11.7387 535.856 11.952V17.968C535.856 19.4613 536.091 20.464 536.56 20.976C537.029 21.4667 537.829 21.712 538.96 21.712ZM531.376 27.696C531.888 27.696 532.421 27.8133 532.976 28.048C533.211 28.6027 533.328 29.1253 533.328 29.616C533.328 30.896 532.656 31.5787 531.312 31.664C530.779 31.664 530.235 31.536 529.68 31.28C529.424 30.7467 529.296 30.224 529.296 29.712C529.296 29.0507 529.488 28.5493 529.872 28.208C530.277 27.8667 530.779 27.696 531.376 27.696ZM536.656 27.696C537.211 27.696 537.755 27.8133 538.288 28.048C538.501 28.6027 538.608 29.1253 538.608 29.616C538.608 30.896 537.936 31.5787 536.592 31.664C536.059 31.664 535.515 31.536 534.96 31.28C534.704 30.7467 534.576 30.224 534.576 29.712C534.576 29.0507 534.768 28.5493 535.152 28.208C535.557 27.8667 536.059 27.696 536.656 27.696ZM559.088 12.208C560.347 14.2347 560.976 16.592 560.976 19.28C560.976 21.4987 560.507 23.216 559.568 24.432C558.651 25.6267 557.403 26.224 555.824 26.224C554.779 26.224 553.925 25.9893 553.264 25.52C552.603 25.0507 552.144 24.4107 551.888 23.6C551.141 25.3493 549.68 26.224 547.504 26.224C546.629 26.224 545.851 26.0107 545.168 25.584C544.507 25.136 544.048 24.5173 543.792 23.728C543.045 25.392 541.456 26.224 539.024 26.224C538.448 26.224 538.171 25.456 538.192 23.92C538.192 23.2587 538.267 22.7253 538.416 22.32C538.544 21.9147 538.747 21.712 539.024 21.712C539.984 21.712 540.656 21.5413 541.04 21.2C541.424 20.8373 541.616 20.304 541.616 19.6C541.616 18.9173 541.595 18.2133 541.552 17.488C541.552 16.9333 541.744 16.4853 542.128 16.144C542.512 15.7813 543.035 15.6 543.696 15.6C544.315 15.6 544.805 15.7387 545.168 16.016V18.032C545.168 19.376 545.36 20.3253 545.744 20.88C546.128 21.4347 546.715 21.712 547.504 21.712C548.208 21.712 548.72 21.5307 549.04 21.168C549.381 20.8053 549.552 20.1653 549.552 19.248C549.552 18.48 549.531 17.7333 549.488 17.008C549.488 15.8773 550.181 15.2587 551.568 15.152C552.187 15.152 552.699 15.2907 553.104 15.568V17.776C553.104 19.2267 553.296 20.2507 553.68 20.848C554.085 21.424 554.683 21.712 555.472 21.712C556.688 21.712 557.317 20.9227 557.36 19.344C557.36 18.0853 557.115 16.944 556.624 15.92C556.283 15.152 556.112 14.544 556.112 14.096C556.112 13.584 556.379 13.1467 556.912 12.784C557.467 12.4 558.192 12.208 559.088 12.208Z" fill="black"/>
</svg>
