<svg width="184" height="184" viewBox="0 0 184 184" fill="none" xmlns="http://www.w3.org/2000/svg">
<g id="Hugging face">
<g id="Head">
<path d="M93.8475 172.13C147.41 172.13 174.175 136.166 174.175 91.8028C174.175 47.4396 147.41 11.4761 93.8475 11.4761C40.2848 11.4761 13.5195 47.4396 13.5195 91.8028C13.5195 136.166 40.2848 172.13 93.8475 172.13Z" fill="url(#paint0_radial_2252_11372)"/>
<path d="M93.8475 172.13C147.41 172.13 174.175 136.166 174.175 91.8028C174.175 47.4396 147.41 11.4761 93.8475 11.4761C40.2848 11.4761 13.5195 47.4396 13.5195 91.8028C13.5195 136.166 40.2848 172.13 93.8475 172.13Z" fill="url(#paint1_radial_2252_11372)"/>
<path d="M93.8475 172.13C147.41 172.13 174.175 136.166 174.175 91.8028C174.175 47.4396 147.41 11.4761 93.8475 11.4761C40.2848 11.4761 13.5195 47.4396 13.5195 91.8028C13.5195 136.166 40.2848 172.13 93.8475 172.13Z" fill="url(#paint2_radial_2252_11372)" fill-opacity="0.6"/>
<path d="M93.8475 172.13C147.41 172.13 174.175 136.166 174.175 91.8028C174.175 47.4396 147.41 11.4761 93.8475 11.4761C40.2848 11.4761 13.5195 47.4396 13.5195 91.8028C13.5195 136.166 40.2848 172.13 93.8475 172.13Z" fill="url(#paint3_radial_2252_11372)"/>
<path d="M93.8475 172.13C147.41 172.13 174.175 136.166 174.175 91.8028C174.175 47.4396 147.41 11.4761 93.8475 11.4761C40.2848 11.4761 13.5195 47.4396 13.5195 91.8028C13.5195 136.166 40.2848 172.13 93.8475 172.13Z" fill="url(#paint4_radial_2252_11372)"/>
<path d="M93.8475 172.13C147.41 172.13 174.175 136.166 174.175 91.8028C174.175 47.4396 147.41 11.4761 93.8475 11.4761C40.2848 11.4761 13.5195 47.4396 13.5195 91.8028C13.5195 136.166 40.2848 172.13 93.8475 172.13Z" fill="url(#paint5_radial_2252_11372)"/>
<path d="M93.8475 172.13C147.41 172.13 174.175 136.166 174.175 91.8028C174.175 47.4396 147.41 11.4761 93.8475 11.4761C40.2848 11.4761 13.5195 47.4396 13.5195 91.8028C13.5195 136.166 40.2848 172.13 93.8475 172.13Z" fill="url(#paint6_radial_2252_11372)"/>
<path d="M93.8475 172.13C147.41 172.13 174.175 136.166 174.175 91.8028C174.175 47.4396 147.41 11.4761 93.8475 11.4761C40.2848 11.4761 13.5195 47.4396 13.5195 91.8028C13.5195 136.166 40.2848 172.13 93.8475 172.13Z" fill="url(#paint7_radial_2252_11372)"/>
<path d="M93.8475 172.13C147.41 172.13 174.175 136.166 174.175 91.8028C174.175 47.4396 147.41 11.4761 93.8475 11.4761C40.2848 11.4761 13.5195 47.4396 13.5195 91.8028C13.5195 136.166 40.2848 172.13 93.8475 172.13Z" fill="url(#paint8_radial_2252_11372)"/>
<path d="M93.8475 172.13C147.41 172.13 174.175 136.166 174.175 91.8028C174.175 47.4396 147.41 11.4761 93.8475 11.4761C40.2848 11.4761 13.5195 47.4396 13.5195 91.8028C13.5195 136.166 40.2848 172.13 93.8475 172.13Z" fill="url(#paint9_radial_2252_11372)"/>
<path d="M93.8475 172.13C147.41 172.13 174.175 136.166 174.175 91.8028C174.175 47.4396 147.41 11.4761 93.8475 11.4761C40.2848 11.4761 13.5195 47.4396 13.5195 91.8028C13.5195 136.166 40.2848 172.13 93.8475 172.13Z" fill="url(#paint10_radial_2252_11372)"/>
<path d="M93.8475 172.13C147.41 172.13 174.175 136.166 174.175 91.8028C174.175 47.4396 147.41 11.4761 93.8475 11.4761C40.2848 11.4761 13.5195 47.4396 13.5195 91.8028C13.5195 136.166 40.2848 172.13 93.8475 172.13Z" fill="url(#paint11_radial_2252_11372)"/>
<path d="M93.8475 172.13C147.41 172.13 174.175 136.166 174.175 91.8028C174.175 47.4396 147.41 11.4761 93.8475 11.4761C40.2848 11.4761 13.5195 47.4396 13.5195 91.8028C13.5195 136.166 40.2848 172.13 93.8475 172.13Z" fill="url(#paint12_radial_2252_11372)"/>
<path d="M93.8475 172.13C147.41 172.13 174.175 136.166 174.175 91.8028C174.175 47.4396 147.41 11.4761 93.8475 11.4761C40.2848 11.4761 13.5195 47.4396 13.5195 91.8028C13.5195 136.166 40.2848 172.13 93.8475 172.13Z" fill="url(#paint13_radial_2252_11372)"/>
<path d="M93.8475 172.13C147.41 172.13 174.175 136.166 174.175 91.8028C174.175 47.4396 147.41 11.4761 93.8475 11.4761C40.2848 11.4761 13.5195 47.4396 13.5195 91.8028C13.5195 136.166 40.2848 172.13 93.8475 172.13Z" fill="url(#paint14_radial_2252_11372)"/>
<path d="M93.8475 172.13C147.41 172.13 174.175 136.166 174.175 91.8028C174.175 47.4396 147.41 11.4761 93.8475 11.4761C40.2848 11.4761 13.5195 47.4396 13.5195 91.8028C13.5195 136.166 40.2848 172.13 93.8475 172.13Z" fill="url(#paint15_radial_2252_11372)"/>
<path d="M93.8475 172.13C147.41 172.13 174.175 136.166 174.175 91.8028C174.175 47.4396 147.41 11.4761 93.8475 11.4761C40.2848 11.4761 13.5195 47.4396 13.5195 91.8028C13.5195 136.166 40.2848 172.13 93.8475 172.13Z" fill="url(#paint16_radial_2252_11372)"/>
<path d="M93.8475 172.13C147.41 172.13 174.175 136.166 174.175 91.8028C174.175 47.4396 147.41 11.4761 93.8475 11.4761C40.2848 11.4761 13.5195 47.4396 13.5195 91.8028C13.5195 136.166 40.2848 172.13 93.8475 172.13Z" fill="url(#paint17_radial_2252_11372)"/>
<path d="M93.8475 172.13C147.41 172.13 174.175 136.166 174.175 91.8028C174.175 47.4396 147.41 11.4761 93.8475 11.4761C40.2848 11.4761 13.5195 47.4396 13.5195 91.8028C13.5195 136.166 40.2848 172.13 93.8475 172.13Z" fill="url(#paint18_radial_2252_11372)"/>
<path d="M93.8475 172.13C147.41 172.13 174.175 136.166 174.175 91.8028C174.175 47.4396 147.41 11.4761 93.8475 11.4761C40.2848 11.4761 13.5195 47.4396 13.5195 91.8028C13.5195 136.166 40.2848 172.13 93.8475 172.13Z" fill="url(#paint19_radial_2252_11372)"/>
<path d="M93.8475 172.13C147.41 172.13 174.175 136.166 174.175 91.8028C174.175 47.4396 147.41 11.4761 93.8475 11.4761C40.2848 11.4761 13.5195 47.4396 13.5195 91.8028C13.5195 136.166 40.2848 172.13 93.8475 172.13Z" fill="url(#paint20_radial_2252_11372)"/>
<path d="M93.8475 172.13C147.41 172.13 174.175 136.166 174.175 91.8028C174.175 47.4396 147.41 11.4761 93.8475 11.4761C40.2848 11.4761 13.5195 47.4396 13.5195 91.8028C13.5195 136.166 40.2848 172.13 93.8475 172.13Z" fill="url(#paint21_radial_2252_11372)"/>
<path d="M93.8475 172.13C147.41 172.13 174.175 136.166 174.175 91.8028C174.175 47.4396 147.41 11.4761 93.8475 11.4761C40.2848 11.4761 13.5195 47.4396 13.5195 91.8028C13.5195 136.166 40.2848 172.13 93.8475 172.13Z" fill="url(#paint22_radial_2252_11372)"/>
<path d="M93.8475 172.13C147.41 172.13 174.175 136.166 174.175 91.8028C174.175 47.4396 147.41 11.4761 93.8475 11.4761C40.2848 11.4761 13.5195 47.4396 13.5195 91.8028C13.5195 136.166 40.2848 172.13 93.8475 172.13Z" fill="url(#paint23_radial_2252_11372)"/>
<path d="M93.8475 172.13C147.41 172.13 174.175 136.166 174.175 91.8028C174.175 47.4396 147.41 11.4761 93.8475 11.4761C40.2848 11.4761 13.5195 47.4396 13.5195 91.8028C13.5195 136.166 40.2848 172.13 93.8475 172.13Z" fill="url(#paint24_radial_2252_11372)"/>
<path d="M93.8475 172.13C147.41 172.13 174.175 136.166 174.175 91.8028C174.175 47.4396 147.41 11.4761 93.8475 11.4761C40.2848 11.4761 13.5195 47.4396 13.5195 91.8028C13.5195 136.166 40.2848 172.13 93.8475 172.13Z" fill="url(#paint25_radial_2252_11372)"/>
<path d="M93.8475 172.13C147.41 172.13 174.175 136.166 174.175 91.8028C174.175 47.4396 147.41 11.4761 93.8475 11.4761C40.2848 11.4761 13.5195 47.4396 13.5195 91.8028C13.5195 136.166 40.2848 172.13 93.8475 172.13Z" fill="url(#paint26_radial_2252_11372)"/>
<path d="M93.8475 172.13C147.41 172.13 174.175 136.166 174.175 91.8028C174.175 47.4396 147.41 11.4761 93.8475 11.4761C40.2848 11.4761 13.5195 47.4396 13.5195 91.8028C13.5195 136.166 40.2848 172.13 93.8475 172.13Z" fill="url(#paint27_radial_2252_11372)"/>
<path d="M93.8475 172.13C147.41 172.13 174.175 136.166 174.175 91.8028C174.175 47.4396 147.41 11.4761 93.8475 11.4761C40.2848 11.4761 13.5195 47.4396 13.5195 91.8028C13.5195 136.166 40.2848 172.13 93.8475 172.13Z" fill="url(#paint28_radial_2252_11372)"/>
<path d="M93.8475 172.13C147.41 172.13 174.175 136.166 174.175 91.8028C174.175 47.4396 147.41 11.4761 93.8475 11.4761C40.2848 11.4761 13.5195 47.4396 13.5195 91.8028C13.5195 136.166 40.2848 172.13 93.8475 172.13Z" fill="url(#paint29_radial_2252_11372)"/>
<path d="M93.8475 172.13C147.41 172.13 174.175 136.166 174.175 91.8028C174.175 47.4396 147.41 11.4761 93.8475 11.4761C40.2848 11.4761 13.5195 47.4396 13.5195 91.8028C13.5195 136.166 40.2848 172.13 93.8475 172.13Z" fill="url(#paint30_radial_2252_11372)"/>
<path d="M93.8475 172.13C147.41 172.13 174.175 136.166 174.175 91.8028C174.175 47.4396 147.41 11.4761 93.8475 11.4761C40.2848 11.4761 13.5195 47.4396 13.5195 91.8028C13.5195 136.166 40.2848 172.13 93.8475 172.13Z" fill="url(#paint31_radial_2252_11372)"/>
</g>
<path id="Mouth (Stroke)" fill-rule="evenodd" clip-rule="evenodd" d="M56.7152 81.013C59.5087 79.5165 62.9864 80.5679 64.4829 83.3613C66.179 86.5273 74.2928 97.5472 93.8539 97.5472C113.415 97.5472 121.529 86.5273 123.225 83.3613C124.721 80.5679 128.199 79.5165 130.993 81.013C133.786 82.5095 134.837 85.9872 133.341 88.7806C130.119 94.7956 118.559 109.023 93.8539 109.023C69.149 109.023 57.5891 94.7956 54.3668 88.7806C52.8702 85.9872 53.9217 82.5095 56.7152 81.013Z" fill="url(#paint32_radial_2252_11372)"/>
<g id="Shape">
<path d="M53.5809 64.2064C53.8568 62.7875 54.4884 61.0484 55.6891 59.7402C56.7181 58.6191 58.5469 57.3731 62.2937 57.3731C65.976 57.3731 67.8513 58.645 68.934 59.8335C70.1858 61.2077 70.7888 62.9602 70.9855 64.093C71.5277 67.2153 74.4985 69.3069 77.6208 68.7647C80.7432 68.2225 82.8348 65.2518 82.2926 62.1295C81.8393 59.519 80.5409 55.5335 77.4181 52.1053C74.1262 48.4916 69.1539 45.897 62.2937 45.897C55.4979 45.897 50.5462 48.3718 47.2342 51.9801C44.094 55.4014 42.8242 59.4003 42.3156 62.016C41.7107 65.1268 43.7421 68.1389 46.853 68.7438C49.9638 69.3487 52.976 67.3172 53.5809 64.2064Z" fill="#583F51"/>
<path d="M53.5809 64.2064C53.8568 62.7875 54.4884 61.0484 55.6891 59.7402C56.7181 58.6191 58.5469 57.3731 62.2937 57.3731C65.976 57.3731 67.8513 58.645 68.934 59.8335C70.1858 61.2077 70.7888 62.9602 70.9855 64.093C71.5277 67.2153 74.4985 69.3069 77.6208 68.7647C80.7432 68.2225 82.8348 65.2518 82.2926 62.1295C81.8393 59.519 80.5409 55.5335 77.4181 52.1053C74.1262 48.4916 69.1539 45.897 62.2937 45.897C55.4979 45.897 50.5462 48.3718 47.2342 51.9801C44.094 55.4014 42.8242 59.4003 42.3156 62.016C41.7107 65.1268 43.7421 68.1389 46.853 68.7438C49.9638 69.3487 52.976 67.3172 53.5809 64.2064Z" fill="url(#paint33_radial_2252_11372)"/>
<path d="M53.5809 64.2064C53.8568 62.7875 54.4884 61.0484 55.6891 59.7402C56.7181 58.6191 58.5469 57.3731 62.2937 57.3731C65.976 57.3731 67.8513 58.645 68.934 59.8335C70.1858 61.2077 70.7888 62.9602 70.9855 64.093C71.5277 67.2153 74.4985 69.3069 77.6208 68.7647C80.7432 68.2225 82.8348 65.2518 82.2926 62.1295C81.8393 59.519 80.5409 55.5335 77.4181 52.1053C74.1262 48.4916 69.1539 45.897 62.2937 45.897C55.4979 45.897 50.5462 48.3718 47.2342 51.9801C44.094 55.4014 42.8242 59.4003 42.3156 62.016C41.7107 65.1268 43.7421 68.1389 46.853 68.7438C49.9638 69.3487 52.976 67.3172 53.5809 64.2064Z" fill="url(#paint34_radial_2252_11372)"/>
<path d="M53.5809 64.2064C53.8568 62.7875 54.4884 61.0484 55.6891 59.7402C56.7181 58.6191 58.5469 57.3731 62.2937 57.3731C65.976 57.3731 67.8513 58.645 68.934 59.8335C70.1858 61.2077 70.7888 62.9602 70.9855 64.093C71.5277 67.2153 74.4985 69.3069 77.6208 68.7647C80.7432 68.2225 82.8348 65.2518 82.2926 62.1295C81.8393 59.519 80.5409 55.5335 77.4181 52.1053C74.1262 48.4916 69.1539 45.897 62.2937 45.897C55.4979 45.897 50.5462 48.3718 47.2342 51.9801C44.094 55.4014 42.8242 59.4003 42.3156 62.016C41.7107 65.1268 43.7421 68.1389 46.853 68.7438C49.9638 69.3487 52.976 67.3172 53.5809 64.2064Z" fill="url(#paint35_radial_2252_11372)"/>
</g>
<g id="Shape_2">
<path d="M116.702 64.2064C116.978 62.7875 117.609 61.0484 118.81 59.7402C119.839 58.6191 121.668 57.3731 125.415 57.3731C129.097 57.3731 130.972 58.645 132.055 59.8335C133.307 61.2077 133.91 62.9602 134.107 64.093C134.649 67.2153 137.62 69.3069 140.742 68.7647C143.864 68.2225 145.956 65.2518 145.414 62.1295C144.96 59.519 143.662 55.5335 140.539 52.1053C137.247 48.4916 132.275 45.897 125.415 45.897C118.619 45.897 113.667 48.3718 110.355 51.9801C107.215 55.4014 105.945 59.4003 105.437 62.016C104.832 65.1268 106.863 68.1389 109.974 68.7438C113.085 69.3487 116.097 67.3172 116.702 64.2064Z" fill="#583F51"/>
<path d="M116.702 64.2064C116.978 62.7875 117.609 61.0484 118.81 59.7402C119.839 58.6191 121.668 57.3731 125.415 57.3731C129.097 57.3731 130.972 58.645 132.055 59.8335C133.307 61.2077 133.91 62.9602 134.107 64.093C134.649 67.2153 137.62 69.3069 140.742 68.7647C143.864 68.2225 145.956 65.2518 145.414 62.1295C144.96 59.519 143.662 55.5335 140.539 52.1053C137.247 48.4916 132.275 45.897 125.415 45.897C118.619 45.897 113.667 48.3718 110.355 51.9801C107.215 55.4014 105.945 59.4003 105.437 62.016C104.832 65.1268 106.863 68.1389 109.974 68.7438C113.085 69.3487 116.097 67.3172 116.702 64.2064Z" fill="url(#paint36_radial_2252_11372)"/>
<path d="M116.702 64.2064C116.978 62.7875 117.609 61.0484 118.81 59.7402C119.839 58.6191 121.668 57.3731 125.415 57.3731C129.097 57.3731 130.972 58.645 132.055 59.8335C133.307 61.2077 133.91 62.9602 134.107 64.093C134.649 67.2153 137.62 69.3069 140.742 68.7647C143.864 68.2225 145.956 65.2518 145.414 62.1295C144.96 59.519 143.662 55.5335 140.539 52.1053C137.247 48.4916 132.275 45.897 125.415 45.897C118.619 45.897 113.667 48.3718 110.355 51.9801C107.215 55.4014 105.945 59.4003 105.437 62.016C104.832 65.1268 106.863 68.1389 109.974 68.7438C113.085 69.3487 116.097 67.3172 116.702 64.2064Z" fill="url(#paint37_radial_2252_11372)"/>
<path d="M116.702 64.2064C116.978 62.7875 117.609 61.0484 118.81 59.7402C119.839 58.6191 121.668 57.3731 125.415 57.3731C129.097 57.3731 130.972 58.645 132.055 59.8335C133.307 61.2077 133.91 62.9602 134.107 64.093C134.649 67.2153 137.62 69.3069 140.742 68.7647C143.864 68.2225 145.956 65.2518 145.414 62.1295C144.96 59.519 143.662 55.5335 140.539 52.1053C137.247 48.4916 132.275 45.897 125.415 45.897C118.619 45.897 113.667 48.3718 110.355 51.9801C107.215 55.4014 105.945 59.4003 105.437 62.016C104.832 65.1268 106.863 68.1389 109.974 68.7438C113.085 69.3487 116.097 67.3172 116.702 64.2064Z" fill="url(#paint38_radial_2252_11372)"/>
</g>
<g id="Hand">
<path d="M25.5305 111.101C27.8214 108.371 31.8917 108.015 34.6219 110.306L51.6756 124.615L50.2379 119.468C49.2404 115.896 51.3272 112.192 54.899 111.194C58.4901 110.191 62.2107 112.306 63.1862 115.905L67.1369 130.479L71.9361 142.024C72.0243 142.236 72.1023 142.452 72.17 142.669C73.8795 145.968 74.8477 149.729 74.8477 153.722C74.8477 166.782 64.4896 177.369 51.7123 177.369C46.0914 177.369 40.9387 175.321 36.93 171.914L11.2081 152.992C8.19144 150.773 7.58604 146.509 9.86579 143.538C10.8585 142.245 12.2314 141.415 13.7074 141.085L11.2631 139.034C8.40606 136.636 8.03339 132.377 10.4308 129.52C11.4494 128.306 12.8041 127.541 14.2447 127.246L13.4939 126.616C10.6368 124.218 10.2642 119.959 12.6616 117.102C15.059 114.245 19.3186 113.872 22.1756 116.269L24.9608 118.606C23.5601 116.307 23.7039 113.278 25.5305 111.101Z" fill="url(#paint39_radial_2252_11372)"/>
<path d="M25.5305 111.101C27.8214 108.371 31.8917 108.015 34.6219 110.306L51.6756 124.615L50.2379 119.468C49.2404 115.896 51.3272 112.192 54.899 111.194C58.4901 110.191 62.2107 112.306 63.1862 115.905L67.1369 130.479L71.9361 142.024C72.0243 142.236 72.1023 142.452 72.17 142.669C73.8795 145.968 74.8477 149.729 74.8477 153.722C74.8477 166.782 64.4896 177.369 51.7123 177.369C46.0914 177.369 40.9387 175.321 36.93 171.914L11.2081 152.992C8.19144 150.773 7.58604 146.509 9.86579 143.538C10.8585 142.245 12.2314 141.415 13.7074 141.085L11.2631 139.034C8.40606 136.636 8.03339 132.377 10.4308 129.52C11.4494 128.306 12.8041 127.541 14.2447 127.246L13.4939 126.616C10.6368 124.218 10.2642 119.959 12.6616 117.102C15.059 114.245 19.3186 113.872 22.1756 116.269L24.9608 118.606C23.5601 116.307 23.7039 113.278 25.5305 111.101Z" fill="url(#paint40_radial_2252_11372)"/>
<path d="M25.5305 111.101C27.8214 108.371 31.8917 108.015 34.6219 110.306L51.6756 124.615L50.2379 119.468C49.2404 115.896 51.3272 112.192 54.899 111.194C58.4901 110.191 62.2107 112.306 63.1862 115.905L67.1369 130.479L71.9361 142.024C72.0243 142.236 72.1023 142.452 72.17 142.669C73.8795 145.968 74.8477 149.729 74.8477 153.722C74.8477 166.782 64.4896 177.369 51.7123 177.369C46.0914 177.369 40.9387 175.321 36.93 171.914L11.2081 152.992C8.19144 150.773 7.58604 146.509 9.86579 143.538C10.8585 142.245 12.2314 141.415 13.7074 141.085L11.2631 139.034C8.40606 136.636 8.03339 132.377 10.4308 129.52C11.4494 128.306 12.8041 127.541 14.2447 127.246L13.4939 126.616C10.6368 124.218 10.2642 119.959 12.6616 117.102C15.059 114.245 19.3186 113.872 22.1756 116.269L24.9608 118.606C23.5601 116.307 23.7039 113.278 25.5305 111.101Z" fill="url(#paint41_radial_2252_11372)"/>
<path d="M25.5305 111.101C27.8214 108.371 31.8917 108.015 34.6219 110.306L51.6756 124.615L50.2379 119.468C49.2404 115.896 51.3272 112.192 54.899 111.194C58.4901 110.191 62.2107 112.306 63.1862 115.905L67.1369 130.479L71.9361 142.024C72.0243 142.236 72.1023 142.452 72.17 142.669C73.8795 145.968 74.8477 149.729 74.8477 153.722C74.8477 166.782 64.4896 177.369 51.7123 177.369C46.0914 177.369 40.9387 175.321 36.93 171.914L11.2081 152.992C8.19144 150.773 7.58604 146.509 9.86579 143.538C10.8585 142.245 12.2314 141.415 13.7074 141.085L11.2631 139.034C8.40606 136.636 8.03339 132.377 10.4308 129.52C11.4494 128.306 12.8041 127.541 14.2447 127.246L13.4939 126.616C10.6368 124.218 10.2642 119.959 12.6616 117.102C15.059 114.245 19.3186 113.872 22.1756 116.269L24.9608 118.606C23.5601 116.307 23.7039 113.278 25.5305 111.101Z" fill="url(#paint42_radial_2252_11372)"/>
<path d="M25.5305 111.101C27.8214 108.371 31.8917 108.015 34.6219 110.306L51.6756 124.615L50.2379 119.468C49.2404 115.896 51.3272 112.192 54.899 111.194C58.4901 110.191 62.2107 112.306 63.1862 115.905L67.1369 130.479L71.9361 142.024C72.0243 142.236 72.1023 142.452 72.17 142.669C73.8795 145.968 74.8477 149.729 74.8477 153.722C74.8477 166.782 64.4896 177.369 51.7123 177.369C46.0914 177.369 40.9387 175.321 36.93 171.914L11.2081 152.992C8.19144 150.773 7.58604 146.509 9.86579 143.538C10.8585 142.245 12.2314 141.415 13.7074 141.085L11.2631 139.034C8.40606 136.636 8.03339 132.377 10.4308 129.52C11.4494 128.306 12.8041 127.541 14.2447 127.246L13.4939 126.616C10.6368 124.218 10.2642 119.959 12.6616 117.102C15.059 114.245 19.3186 113.872 22.1756 116.269L24.9608 118.606C23.5601 116.307 23.7039 113.278 25.5305 111.101Z" fill="url(#paint43_radial_2252_11372)"/>
<path d="M25.5305 111.101C27.8214 108.371 31.8917 108.015 34.6219 110.306L51.6756 124.615L50.2379 119.468C49.2404 115.896 51.3272 112.192 54.899 111.194C58.4901 110.191 62.2107 112.306 63.1862 115.905L67.1369 130.479L71.9361 142.024C72.0243 142.236 72.1023 142.452 72.17 142.669C73.8795 145.968 74.8477 149.729 74.8477 153.722C74.8477 166.782 64.4896 177.369 51.7123 177.369C46.0914 177.369 40.9387 175.321 36.93 171.914L11.2081 152.992C8.19144 150.773 7.58604 146.509 9.86579 143.538C10.8585 142.245 12.2314 141.415 13.7074 141.085L11.2631 139.034C8.40606 136.636 8.03339 132.377 10.4308 129.52C11.4494 128.306 12.8041 127.541 14.2447 127.246L13.4939 126.616C10.6368 124.218 10.2642 119.959 12.6616 117.102C15.059 114.245 19.3186 113.872 22.1756 116.269L24.9608 118.606C23.5601 116.307 23.7039 113.278 25.5305 111.101Z" fill="url(#paint44_radial_2252_11372)"/>
</g>
<g id="Shadow 5">
<path d="M13.5898 141.045C13.5898 141.045 10.575 142.027 9.33349 144.37C7.07629 148.631 10.5419 152.5 10.5419 152.5L25.032 163.121C27.1495 164.673 30.1067 164.323 31.8034 162.32L37.3291 155.796L13.5898 141.045Z" fill="url(#paint45_radial_2252_11372)"/>
<path d="M13.5898 141.045C13.5898 141.045 10.575 142.027 9.33349 144.37C7.07629 148.631 10.5419 152.5 10.5419 152.5L25.032 163.121C27.1495 164.673 30.1067 164.323 31.8034 162.32L37.3291 155.796L13.5898 141.045Z" fill="url(#paint46_radial_2252_11372)"/>
</g>
<g id="Shadow 6">
<path d="M34.5293 143.918L31.2224 151.992C31.2224 151.992 17.4598 143.497 13.6941 141.099C12.6854 140.247 12.7527 140.404 10.8474 138.633C8.94218 136.862 7.81274 133.337 10.0922 129.955C11.0716 128.502 12.8664 127.483 14.3069 127.188L34.5293 143.918Z" fill="url(#paint47_radial_2252_11372)"/>
<path d="M34.5293 143.918L31.2224 151.992C31.2224 151.992 17.4598 143.497 13.6941 141.099C12.6854 140.247 12.7527 140.404 10.8474 138.633C8.94218 136.862 7.81274 133.337 10.0922 129.955C11.0716 128.502 12.8664 127.483 14.3069 127.188L34.5293 143.918Z" fill="url(#paint48_radial_2252_11372)"/>
</g>
<g id="Shadow 7">
<path d="M44.3633 136.458L34.4354 143.857L13.6094 126.615C10.7523 124.218 10.3796 119.958 12.777 117.101C15.1744 114.244 19.434 113.871 22.291 116.269L24.9183 118.562C28.8804 122.683 38.4505 131.092 44.3633 136.458Z" fill="url(#paint49_radial_2252_11372)"/>
<path d="M44.3633 136.458L34.4354 143.857L13.6094 126.615C10.7523 124.218 10.3796 119.958 12.777 117.101C15.1744 114.244 19.434 113.871 22.291 116.269L24.9183 118.562C28.8804 122.683 38.4505 131.092 44.3633 136.458Z" fill="url(#paint50_radial_2252_11372)"/>
<path d="M44.3633 136.458L34.4354 143.857L13.6094 126.615C10.7523 124.218 10.3796 119.958 12.777 117.101C15.1744 114.244 19.434 113.871 22.291 116.269L24.9183 118.562C28.8804 122.683 38.4505 131.092 44.3633 136.458Z" fill="url(#paint51_linear_2252_11372)"/>
</g>
<g id="Shadow 8">
<path d="M34.6087 110.301C31.6119 107.892 27.6237 108.401 25.4411 111.198C23.2896 113.955 23.945 116.752 24.9705 118.684C29.3414 123.055 43.7106 135.842 43.7106 135.842L54.943 137.445L51.6439 124.601C51.6439 124.601 41.4258 115.782 34.6087 110.301Z" fill="url(#paint52_radial_2252_11372)"/>
<path d="M34.6087 110.301C31.6119 107.892 27.6237 108.401 25.4411 111.198C23.2896 113.955 23.945 116.752 24.9705 118.684C29.3414 123.055 43.7106 135.842 43.7106 135.842L54.943 137.445L51.6439 124.601C51.6439 124.601 41.4258 115.782 34.6087 110.301Z" fill="url(#paint53_radial_2252_11372)"/>
<path d="M34.6087 110.301C31.6119 107.892 27.6237 108.401 25.4411 111.198C23.2896 113.955 23.945 116.752 24.9705 118.684C29.3414 123.055 43.7106 135.842 43.7106 135.842L54.943 137.445L51.6439 124.601C51.6439 124.601 41.4258 115.782 34.6087 110.301Z" fill="url(#paint54_linear_2252_11372)"/>
</g>
<g id="Hand_2">
<path d="M162.268 111.164C159.977 108.434 155.907 108.077 153.177 110.368L136.123 124.678L137.561 119.53C138.558 115.959 136.472 112.254 132.9 111.257C129.309 110.254 125.588 112.369 124.613 115.967L120.662 130.541L115.863 142.087C115.774 142.299 115.697 142.514 115.629 142.731C113.919 146.03 112.951 149.792 112.951 153.785C112.951 166.845 123.309 177.432 136.086 177.432C141.707 177.432 146.86 175.383 150.869 171.976L176.591 153.055C179.607 150.836 180.213 146.572 177.933 143.601C176.94 142.307 175.567 141.477 174.091 141.147L176.536 139.096C179.393 136.699 179.765 132.439 177.368 129.582C176.349 128.369 174.995 127.603 173.554 127.308L174.305 126.678C177.162 124.281 177.535 120.021 175.137 117.164C172.74 114.307 168.48 113.934 165.623 116.332L162.838 118.669C164.239 116.369 164.095 113.34 162.268 111.164Z" fill="url(#paint55_radial_2252_11372)"/>
<path d="M162.268 111.164C159.977 108.434 155.907 108.077 153.177 110.368L136.123 124.678L137.561 119.53C138.558 115.959 136.472 112.254 132.9 111.257C129.309 110.254 125.588 112.369 124.613 115.967L120.662 130.541L115.863 142.087C115.774 142.299 115.697 142.514 115.629 142.731C113.919 146.03 112.951 149.792 112.951 153.785C112.951 166.845 123.309 177.432 136.086 177.432C141.707 177.432 146.86 175.383 150.869 171.976L176.591 153.055C179.607 150.836 180.213 146.572 177.933 143.601C176.94 142.307 175.567 141.477 174.091 141.147L176.536 139.096C179.393 136.699 179.765 132.439 177.368 129.582C176.349 128.369 174.995 127.603 173.554 127.308L174.305 126.678C177.162 124.281 177.535 120.021 175.137 117.164C172.74 114.307 168.48 113.934 165.623 116.332L162.838 118.669C164.239 116.369 164.095 113.34 162.268 111.164Z" fill="url(#paint56_radial_2252_11372)"/>
<path d="M162.268 111.164C159.977 108.434 155.907 108.077 153.177 110.368L136.123 124.678L137.561 119.53C138.558 115.959 136.472 112.254 132.9 111.257C129.309 110.254 125.588 112.369 124.613 115.967L120.662 130.541L115.863 142.087C115.774 142.299 115.697 142.514 115.629 142.731C113.919 146.03 112.951 149.792 112.951 153.785C112.951 166.845 123.309 177.432 136.086 177.432C141.707 177.432 146.86 175.383 150.869 171.976L176.591 153.055C179.607 150.836 180.213 146.572 177.933 143.601C176.94 142.307 175.567 141.477 174.091 141.147L176.536 139.096C179.393 136.699 179.765 132.439 177.368 129.582C176.349 128.369 174.995 127.603 173.554 127.308L174.305 126.678C177.162 124.281 177.535 120.021 175.137 117.164C172.74 114.307 168.48 113.934 165.623 116.332L162.838 118.669C164.239 116.369 164.095 113.34 162.268 111.164Z" fill="url(#paint57_radial_2252_11372)"/>
<path d="M162.268 111.164C159.977 108.434 155.907 108.077 153.177 110.368L136.123 124.678L137.561 119.53C138.558 115.959 136.472 112.254 132.9 111.257C129.309 110.254 125.588 112.369 124.613 115.967L120.662 130.541L115.863 142.087C115.774 142.299 115.697 142.514 115.629 142.731C113.919 146.03 112.951 149.792 112.951 153.785C112.951 166.845 123.309 177.432 136.086 177.432C141.707 177.432 146.86 175.383 150.869 171.976L176.591 153.055C179.607 150.836 180.213 146.572 177.933 143.601C176.94 142.307 175.567 141.477 174.091 141.147L176.536 139.096C179.393 136.699 179.765 132.439 177.368 129.582C176.349 128.369 174.995 127.603 173.554 127.308L174.305 126.678C177.162 124.281 177.535 120.021 175.137 117.164C172.74 114.307 168.48 113.934 165.623 116.332L162.838 118.669C164.239 116.369 164.095 113.34 162.268 111.164Z" fill="url(#paint58_radial_2252_11372)"/>
<path d="M162.268 111.164C159.977 108.434 155.907 108.077 153.177 110.368L136.123 124.678L137.561 119.53C138.558 115.959 136.472 112.254 132.9 111.257C129.309 110.254 125.588 112.369 124.613 115.967L120.662 130.541L115.863 142.087C115.774 142.299 115.697 142.514 115.629 142.731C113.919 146.03 112.951 149.792 112.951 153.785C112.951 166.845 123.309 177.432 136.086 177.432C141.707 177.432 146.86 175.383 150.869 171.976L176.591 153.055C179.607 150.836 180.213 146.572 177.933 143.601C176.94 142.307 175.567 141.477 174.091 141.147L176.536 139.096C179.393 136.699 179.765 132.439 177.368 129.582C176.349 128.369 174.995 127.603 173.554 127.308L174.305 126.678C177.162 124.281 177.535 120.021 175.137 117.164C172.74 114.307 168.48 113.934 165.623 116.332L162.838 118.669C164.239 116.369 164.095 113.34 162.268 111.164Z" fill="url(#paint59_radial_2252_11372)"/>
<path d="M162.268 111.164C159.977 108.434 155.907 108.077 153.177 110.368L136.123 124.678L137.561 119.53C138.558 115.959 136.472 112.254 132.9 111.257C129.309 110.254 125.588 112.369 124.613 115.967L120.662 130.541L115.863 142.087C115.774 142.299 115.697 142.514 115.629 142.731C113.919 146.03 112.951 149.792 112.951 153.785C112.951 166.845 123.309 177.432 136.086 177.432C141.707 177.432 146.86 175.383 150.869 171.976L176.591 153.055C179.607 150.836 180.213 146.572 177.933 143.601C176.94 142.307 175.567 141.477 174.091 141.147L176.536 139.096C179.393 136.699 179.765 132.439 177.368 129.582C176.349 128.369 174.995 127.603 173.554 127.308L174.305 126.678C177.162 124.281 177.535 120.021 175.137 117.164C172.74 114.307 168.48 113.934 165.623 116.332L162.838 118.669C164.239 116.369 164.095 113.34 162.268 111.164Z" fill="url(#paint60_linear_2252_11372)"/>
<path d="M162.268 111.164C159.977 108.434 155.907 108.077 153.177 110.368L136.123 124.678L137.561 119.53C138.558 115.959 136.472 112.254 132.9 111.257C129.309 110.254 125.588 112.369 124.613 115.967L120.662 130.541L115.863 142.087C115.774 142.299 115.697 142.514 115.629 142.731C113.919 146.03 112.951 149.792 112.951 153.785C112.951 166.845 123.309 177.432 136.086 177.432C141.707 177.432 146.86 175.383 150.869 171.976L176.591 153.055C179.607 150.836 180.213 146.572 177.933 143.601C176.94 142.307 175.567 141.477 174.091 141.147L176.536 139.096C179.393 136.699 179.765 132.439 177.368 129.582C176.349 128.369 174.995 127.603 173.554 127.308L174.305 126.678C177.162 124.281 177.535 120.021 175.137 117.164C172.74 114.307 168.48 113.934 165.623 116.332L162.838 118.669C164.239 116.369 164.095 113.34 162.268 111.164Z" fill="url(#paint61_linear_2252_11372)"/>
<path d="M162.268 111.164C159.977 108.434 155.907 108.077 153.177 110.368L136.123 124.678L137.561 119.53C138.558 115.959 136.472 112.254 132.9 111.257C129.309 110.254 125.588 112.369 124.613 115.967L120.662 130.541L115.863 142.087C115.774 142.299 115.697 142.514 115.629 142.731C113.919 146.03 112.951 149.792 112.951 153.785C112.951 166.845 123.309 177.432 136.086 177.432C141.707 177.432 146.86 175.383 150.869 171.976L176.591 153.055C179.607 150.836 180.213 146.572 177.933 143.601C176.94 142.307 175.567 141.477 174.091 141.147L176.536 139.096C179.393 136.699 179.765 132.439 177.368 129.582C176.349 128.369 174.995 127.603 173.554 127.308L174.305 126.678C177.162 124.281 177.535 120.021 175.137 117.164C172.74 114.307 168.48 113.934 165.623 116.332L162.838 118.669C164.239 116.369 164.095 113.34 162.268 111.164Z" fill="url(#paint62_linear_2252_11372)"/>
<path d="M162.268 111.164C159.977 108.434 155.907 108.077 153.177 110.368L136.123 124.678L137.561 119.53C138.558 115.959 136.472 112.254 132.9 111.257C129.309 110.254 125.588 112.369 124.613 115.967L120.662 130.541L115.863 142.087C115.774 142.299 115.697 142.514 115.629 142.731C113.919 146.03 112.951 149.792 112.951 153.785C112.951 166.845 123.309 177.432 136.086 177.432C141.707 177.432 146.86 175.383 150.869 171.976L176.591 153.055C179.607 150.836 180.213 146.572 177.933 143.601C176.94 142.307 175.567 141.477 174.091 141.147L176.536 139.096C179.393 136.699 179.765 132.439 177.368 129.582C176.349 128.369 174.995 127.603 173.554 127.308L174.305 126.678C177.162 124.281 177.535 120.021 175.137 117.164C172.74 114.307 168.48 113.934 165.623 116.332L162.838 118.669C164.239 116.369 164.095 113.34 162.268 111.164Z" fill="url(#paint63_radial_2252_11372)"/>
<path d="M162.268 111.164C159.977 108.434 155.907 108.077 153.177 110.368L136.123 124.678L137.561 119.53C138.558 115.959 136.472 112.254 132.9 111.257C129.309 110.254 125.588 112.369 124.613 115.967L120.662 130.541L115.863 142.087C115.774 142.299 115.697 142.514 115.629 142.731C113.919 146.03 112.951 149.792 112.951 153.785C112.951 166.845 123.309 177.432 136.086 177.432C141.707 177.432 146.86 175.383 150.869 171.976L176.591 153.055C179.607 150.836 180.213 146.572 177.933 143.601C176.94 142.307 175.567 141.477 174.091 141.147L176.536 139.096C179.393 136.699 179.765 132.439 177.368 129.582C176.349 128.369 174.995 127.603 173.554 127.308L174.305 126.678C177.162 124.281 177.535 120.021 175.137 117.164C172.74 114.307 168.48 113.934 165.623 116.332L162.838 118.669C164.239 116.369 164.095 113.34 162.268 111.164Z" fill="url(#paint64_radial_2252_11372)"/>
<path d="M162.268 111.164C159.977 108.434 155.907 108.077 153.177 110.368L136.123 124.678L137.561 119.53C138.558 115.959 136.472 112.254 132.9 111.257C129.309 110.254 125.588 112.369 124.613 115.967L120.662 130.541L115.863 142.087C115.774 142.299 115.697 142.514 115.629 142.731C113.919 146.03 112.951 149.792 112.951 153.785C112.951 166.845 123.309 177.432 136.086 177.432C141.707 177.432 146.86 175.383 150.869 171.976L176.591 153.055C179.607 150.836 180.213 146.572 177.933 143.601C176.94 142.307 175.567 141.477 174.091 141.147L176.536 139.096C179.393 136.699 179.765 132.439 177.368 129.582C176.349 128.369 174.995 127.603 173.554 127.308L174.305 126.678C177.162 124.281 177.535 120.021 175.137 117.164C172.74 114.307 168.48 113.934 165.623 116.332L162.838 118.669C164.239 116.369 164.095 113.34 162.268 111.164Z" fill="url(#paint65_radial_2252_11372)"/>
<path d="M162.268 111.164C159.977 108.434 155.907 108.077 153.177 110.368L136.123 124.678L137.561 119.53C138.558 115.959 136.472 112.254 132.9 111.257C129.309 110.254 125.588 112.369 124.613 115.967L120.662 130.541L115.863 142.087C115.774 142.299 115.697 142.514 115.629 142.731C113.919 146.03 112.951 149.792 112.951 153.785C112.951 166.845 123.309 177.432 136.086 177.432C141.707 177.432 146.86 175.383 150.869 171.976L176.591 153.055C179.607 150.836 180.213 146.572 177.933 143.601C176.94 142.307 175.567 141.477 174.091 141.147L176.536 139.096C179.393 136.699 179.765 132.439 177.368 129.582C176.349 128.369 174.995 127.603 173.554 127.308L174.305 126.678C177.162 124.281 177.535 120.021 175.137 117.164C172.74 114.307 168.48 113.934 165.623 116.332L162.838 118.669C164.239 116.369 164.095 113.34 162.268 111.164Z" fill="url(#paint66_radial_2252_11372)"/>
<path d="M162.268 111.164C159.977 108.434 155.907 108.077 153.177 110.368L136.123 124.678L137.561 119.53C138.558 115.959 136.472 112.254 132.9 111.257C129.309 110.254 125.588 112.369 124.613 115.967L120.662 130.541L115.863 142.087C115.774 142.299 115.697 142.514 115.629 142.731C113.919 146.03 112.951 149.792 112.951 153.785C112.951 166.845 123.309 177.432 136.086 177.432C141.707 177.432 146.86 175.383 150.869 171.976L176.591 153.055C179.607 150.836 180.213 146.572 177.933 143.601C176.94 142.307 175.567 141.477 174.091 141.147L176.536 139.096C179.393 136.699 179.765 132.439 177.368 129.582C176.349 128.369 174.995 127.603 173.554 127.308L174.305 126.678C177.162 124.281 177.535 120.021 175.137 117.164C172.74 114.307 168.48 113.934 165.623 116.332L162.838 118.669C164.239 116.369 164.095 113.34 162.268 111.164Z" fill="url(#paint67_radial_2252_11372)"/>
<path d="M162.268 111.164C159.977 108.434 155.907 108.077 153.177 110.368L136.123 124.678L137.561 119.53C138.558 115.959 136.472 112.254 132.9 111.257C129.309 110.254 125.588 112.369 124.613 115.967L120.662 130.541L115.863 142.087C115.774 142.299 115.697 142.514 115.629 142.731C113.919 146.03 112.951 149.792 112.951 153.785C112.951 166.845 123.309 177.432 136.086 177.432C141.707 177.432 146.86 175.383 150.869 171.976L176.591 153.055C179.607 150.836 180.213 146.572 177.933 143.601C176.94 142.307 175.567 141.477 174.091 141.147L176.536 139.096C179.393 136.699 179.765 132.439 177.368 129.582C176.349 128.369 174.995 127.603 173.554 127.308L174.305 126.678C177.162 124.281 177.535 120.021 175.137 117.164C172.74 114.307 168.48 113.934 165.623 116.332L162.838 118.669C164.239 116.369 164.095 113.34 162.268 111.164Z" fill="url(#paint68_radial_2252_11372)"/>
</g>
<g id="Shadow 4">
<path d="M174.139 141.118C174.139 141.118 177.464 141.939 178.707 144.828C180.727 149.523 177.016 152.704 177.016 152.704L162.553 163.305L157.788 153.69L174.139 141.118Z" fill="url(#paint69_radial_2252_11372)"/>
<path d="M174.139 141.118C174.139 141.118 177.464 141.939 178.707 144.828C180.727 149.523 177.016 152.704 177.016 152.704L162.553 163.305L157.788 153.69L174.139 141.118Z" fill="url(#paint70_radial_2252_11372)"/>
</g>
<g id="Shadow 3">
<path d="M155.442 142.99C153.588 144.589 151.441 148.08 152.46 149.294C154.857 152.151 160.798 151.691 163.655 149.294L176.17 139.42C179.679 136.342 179.603 132.345 177.206 129.488C176.187 128.274 174.969 127.612 173.529 127.317L155.442 142.99Z" fill="url(#paint71_radial_2252_11372)"/>
<path d="M155.442 142.99C153.588 144.589 151.441 148.08 152.46 149.294C154.857 152.151 160.798 151.691 163.655 149.294L176.17 139.42C179.679 136.342 179.603 132.345 177.206 129.488C176.187 128.274 174.969 127.612 173.529 127.317L155.442 142.99Z" fill="url(#paint72_linear_2252_11372)"/>
<path d="M155.442 142.99C153.588 144.589 151.441 148.08 152.46 149.294C154.857 152.151 160.798 151.691 163.655 149.294L176.17 139.42C179.679 136.342 179.603 132.345 177.206 129.488C176.187 128.274 174.969 127.612 173.529 127.317L155.442 142.99Z" fill="url(#paint73_radial_2252_11372)"/>
</g>
<g id="Shadow 2">
<path d="M146.474 133.189C143.596 135.652 144.552 139.45 146.474 141.741C148.872 144.598 153.131 144.971 155.988 142.574L174.261 126.707C177.118 124.31 177.42 119.958 175.022 117.101C172.625 114.244 168.365 113.871 165.508 116.269L162.723 118.606C162.367 119.19 161.911 119.728 161.358 120.192L146.474 133.189Z" fill="url(#paint74_radial_2252_11372)"/>
<path d="M146.474 133.189C143.596 135.652 144.552 139.45 146.474 141.741C148.872 144.598 153.131 144.971 155.988 142.574L174.261 126.707C177.118 124.31 177.42 119.958 175.022 117.101C172.625 114.244 168.365 113.871 165.508 116.269L162.723 118.606C162.367 119.19 161.911 119.728 161.358 120.192L146.474 133.189Z" fill="url(#paint75_radial_2252_11372)"/>
<path d="M146.474 133.189C143.596 135.652 144.552 139.45 146.474 141.741C148.872 144.598 153.131 144.971 155.988 142.574L174.261 126.707C177.118 124.31 177.42 119.958 175.022 117.101C172.625 114.244 168.365 113.871 165.508 116.269L162.723 118.606C162.367 119.19 161.911 119.728 161.358 120.192L146.474 133.189Z" fill="url(#paint76_linear_2252_11372)"/>
</g>
<g id="Shadow 1">
<path d="M154.174 109.371C156.29 107.596 159.443 107.872 161.218 109.987L163.149 112.289C164.9 114.375 164.659 117.478 162.608 119.269L143.65 135.821C140.254 138.786 134.977 136.096 135.382 131.606L136.012 124.606L154.174 109.371Z" fill="url(#paint77_radial_2252_11372)"/>
<path d="M154.174 109.371C156.29 107.596 159.443 107.872 161.218 109.987L163.149 112.289C164.9 114.375 164.659 117.478 162.608 119.269L143.65 135.821C140.254 138.786 134.977 136.096 135.382 131.606L136.012 124.606L154.174 109.371Z" fill="url(#paint78_linear_2252_11372)"/>
<path d="M154.174 109.371C156.29 107.596 159.443 107.872 161.218 109.987L163.149 112.289C164.9 114.375 164.659 117.478 162.608 119.269L143.65 135.821C140.254 138.786 134.977 136.096 135.382 131.606L136.012 124.606L154.174 109.371Z" fill="url(#paint79_radial_2252_11372)"/>
</g>
</g>
<defs>
<radialGradient id="paint0_radial_2252_11372" cx="0" cy="0" r="1" gradientUnits="userSpaceOnUse" gradientTransform="translate(148.367 51.6427) rotate(131.878) scale(223.492 223.493)">
<stop stop-color="#FFF478"/>
<stop offset="0.474827" stop-color="#FFB02E"/>
<stop offset="1" stop-color="#F70A8D"/>
</radialGradient>
<radialGradient id="paint1_radial_2252_11372" cx="0" cy="0" r="1" gradientUnits="userSpaceOnUse" gradientTransform="translate(93.8539 71.726) rotate(101.31) scale(102.405 131.163)">
<stop offset="0.787821" stop-color="#F59639" stop-opacity="0"/>
<stop offset="0.972509" stop-color="#FF7DCE"/>
</radialGradient>
<radialGradient id="paint2_radial_2252_11372" cx="0" cy="0" r="1" gradientUnits="userSpaceOnUse" gradientTransform="translate(105.33 80.3331) rotate(135) scale(235.333)">
<stop offset="0.314853" stop-opacity="0"/>
<stop offset="1"/>
</radialGradient>
<radialGradient id="paint3_radial_2252_11372" cx="0" cy="0" r="1" gradientUnits="userSpaceOnUse" gradientTransform="translate(93.8539 97.5473) rotate(77.6918) scale(161.51 161.512)">
<stop offset="0.507903" stop-color="#7D6133" stop-opacity="0"/>
<stop offset="1" stop-color="#715B32"/>
</radialGradient>
<radialGradient id="paint4_radial_2252_11372" cx="0" cy="0" r="1" gradientUnits="userSpaceOnUse" gradientTransform="translate(96.723 94.6783) rotate(55.7127) scale(76.3945 55.3749)">
<stop stop-color="#FFB849"/>
<stop offset="1" stop-color="#FFB847" stop-opacity="0"/>
</radialGradient>
<radialGradient id="paint5_radial_2252_11372" cx="0" cy="0" r="1" gradientUnits="userSpaceOnUse" gradientTransform="translate(119.676 103.285) rotate(9.86566) scale(66.9794 66.9785)">
<stop stop-color="#FFA64B"/>
<stop offset="0.900412" stop-color="#FFAE46" stop-opacity="0"/>
</radialGradient>
<radialGradient id="paint6_radial_2252_11372" cx="0" cy="0" r="1" gradientUnits="userSpaceOnUse" gradientTransform="translate(102.461 86.0712) rotate(43.9704) scale(338.853 338.853)">
<stop offset="0.185425" stop-opacity="0"/>
<stop offset="1" stop-opacity="0.4"/>
</radialGradient>
<radialGradient id="paint7_radial_2252_11372" cx="0" cy="0" r="1" gradientUnits="userSpaceOnUse" gradientTransform="translate(136.223 65.6807) rotate(39.8973) scale(9.42492 5.76884)">
<stop stop-color="#D27C1D"/>
<stop offset="1" stop-color="#CB7620" stop-opacity="0"/>
</radialGradient>
<radialGradient id="paint8_radial_2252_11372" cx="0" cy="0" r="1" gradientUnits="userSpaceOnUse" gradientTransform="translate(127.977 55.5547) rotate(33.6897) scale(14.6041 6.59638)">
<stop stop-color="#D28118"/>
<stop offset="1" stop-color="#D68623" stop-opacity="0"/>
</radialGradient>
<radialGradient id="paint9_radial_2252_11372" cx="0" cy="0" r="1" gradientUnits="userSpaceOnUse" gradientTransform="translate(71.293 61.9931) rotate(29.6828) scale(11.4731 9.31182)">
<stop stop-color="#BE7227"/>
<stop offset="1" stop-color="#C67A2A" stop-opacity="0"/>
</radialGradient>
<radialGradient id="paint10_radial_2252_11372" cx="0" cy="0" r="1" gradientUnits="userSpaceOnUse" gradientTransform="translate(62.3221 63.4882) rotate(4.88833) scale(15.2061 11.2342)">
<stop stop-color="#D07E2D"/>
<stop offset="1" stop-color="#D98833" stop-opacity="0"/>
</radialGradient>
<radialGradient id="paint11_radial_2252_11372" cx="0" cy="0" r="1" gradientUnits="userSpaceOnUse" gradientTransform="translate(43.7823 70.5651) rotate(-30.7496) scale(9.16261 7.41576)">
<stop stop-color="#DA8924"/>
<stop offset="1" stop-color="#DC8924" stop-opacity="0"/>
</radialGradient>
<radialGradient id="paint12_radial_2252_11372" cx="0" cy="0" r="1" gradientUnits="userSpaceOnUse" gradientTransform="translate(71.7264 65.9879) rotate(23.8679) scale(10.5214 6.63683)">
<stop stop-color="#D59A13"/>
<stop offset="1" stop-color="#D59A13" stop-opacity="0"/>
</radialGradient>
<radialGradient id="paint13_radial_2252_11372" cx="0" cy="0" r="1" gradientUnits="userSpaceOnUse" gradientTransform="translate(55.4215 75.0264) rotate(-10.391) scale(40.5743 29.9451)">
<stop stop-color="#F1A227"/>
<stop offset="1" stop-color="#F5A72C" stop-opacity="0"/>
</radialGradient>
<radialGradient id="paint14_radial_2252_11372" cx="0" cy="0" r="1" gradientUnits="userSpaceOnUse" gradientTransform="translate(109.463 61.8845) rotate(132.511) scale(10.1905 10.1905)">
<stop stop-color="#E8942F"/>
<stop offset="1" stop-color="#FAAB4B" stop-opacity="0"/>
</radialGradient>
<radialGradient id="paint15_radial_2252_11372" cx="0" cy="0" r="1" gradientUnits="userSpaceOnUse" gradientTransform="translate(111.844 159.676) rotate(39.9443) scale(37.3145 37.3144)">
<stop stop-color="#F47360"/>
<stop offset="1" stop-color="#F47360" stop-opacity="0"/>
</radialGradient>
<radialGradient id="paint16_radial_2252_11372" cx="0" cy="0" r="1" gradientUnits="userSpaceOnUse" gradientTransform="translate(71.4615 154.466) rotate(119.446) scale(30.9145 30.9147)">
<stop stop-color="#F47360"/>
<stop offset="1" stop-color="#F47360" stop-opacity="0"/>
</radialGradient>
<radialGradient id="paint17_radial_2252_11372" cx="0" cy="0" r="1" gradientUnits="userSpaceOnUse" gradientTransform="translate(153.177 122.505) rotate(128.804) scale(39.6096 39.6097)">
<stop stop-color="#FF6501"/>
<stop offset="1" stop-color="#F9883A" stop-opacity="0"/>
</radialGradient>
<radialGradient id="paint18_radial_2252_11372" cx="0" cy="0" r="1" gradientUnits="userSpaceOnUse" gradientTransform="translate(23.6977 124.94) rotate(48.0844) scale(51.3492 51.3493)">
<stop stop-color="#BC6526"/>
<stop offset="1" stop-color="#CF7432" stop-opacity="0"/>
</radialGradient>
<radialGradient id="paint19_radial_2252_11372" cx="0" cy="0" r="1" gradientUnits="userSpaceOnUse" gradientTransform="translate(63.0245 148.198) rotate(-19.4398) scale(15.7187 24.1613)">
<stop offset="0.31649" stop-color="#F16E5C"/>
<stop offset="1" stop-color="#BC642E" stop-opacity="0"/>
</radialGradient>
<radialGradient id="paint20_radial_2252_11372" cx="0" cy="0" r="1" gradientUnits="userSpaceOnUse" gradientTransform="translate(59.3606 124.656) rotate(69.7432) scale(18.5149 10.3349)">
<stop offset="0.297036" stop-color="#BC642E"/>
<stop offset="1" stop-color="#BC642E" stop-opacity="0"/>
</radialGradient>
<radialGradient id="paint21_radial_2252_11372" cx="0" cy="0" r="1" gradientUnits="userSpaceOnUse" gradientTransform="translate(62.9987 131.767) rotate(66.8011) scale(21.6247 7.49646)">
<stop offset="0.297036" stop-color="#8C4A23"/>
<stop offset="1" stop-color="#BC642E" stop-opacity="0"/>
</radialGradient>
<radialGradient id="paint22_radial_2252_11372" cx="0" cy="0" r="1" gradientUnits="userSpaceOnUse" gradientTransform="translate(44.9194 120.301) rotate(41.9055) scale(20.7046 4.44661)">
<stop offset="0.297036" stop-color="#8C4A23"/>
<stop offset="1" stop-color="#BC642E" stop-opacity="0"/>
</radialGradient>
<radialGradient id="paint23_radial_2252_11372" cx="0" cy="0" r="1" gradientUnits="userSpaceOnUse" gradientTransform="translate(36.7919 126.076) rotate(30.5921) scale(37.7484 20.3366)">
<stop offset="0.297036" stop-color="#BC5614"/>
<stop offset="1" stop-color="#BC642E" stop-opacity="0"/>
</radialGradient>
<radialGradient id="paint24_radial_2252_11372" cx="0" cy="0" r="1" gradientUnits="userSpaceOnUse" gradientTransform="translate(123.127 147.325) rotate(102.722) scale(25.4287 21.1348)">
<stop offset="0.0677083" stop-color="#7E281F"/>
<stop offset="1" stop-color="#E96C5E" stop-opacity="0"/>
</radialGradient>
<radialGradient id="paint25_radial_2252_11372" cx="0" cy="0" r="1" gradientUnits="userSpaceOnUse" gradientTransform="translate(122.069 142.789) rotate(108.16) scale(21.3856 11.0538)">
<stop offset="0.0677083" stop-color="#B84D2D"/>
<stop offset="0.598958" stop-color="#D5613F"/>
<stop offset="1" stop-color="#D4613F" stop-opacity="0"/>
</radialGradient>
<radialGradient id="paint26_radial_2252_11372" cx="0" cy="0" r="1" gradientUnits="userSpaceOnUse" gradientTransform="translate(125.243 131.975) rotate(92.4004) scale(25.3038 14.6008)">
<stop offset="0.0677083" stop-color="#B85B2C"/>
<stop offset="1" stop-color="#B85B2C" stop-opacity="0"/>
</radialGradient>
<radialGradient id="paint27_radial_2252_11372" cx="0" cy="0" r="1" gradientUnits="userSpaceOnUse" gradientTransform="translate(126.51 133.604) rotate(95.6197) scale(23.7669 9.06788)">
<stop offset="0.666667" stop-color="#BB5029"/>
<stop offset="1" stop-color="#D4613F" stop-opacity="0"/>
</radialGradient>
<radialGradient id="paint28_radial_2252_11372" cx="0" cy="0" r="1" gradientUnits="userSpaceOnUse" gradientTransform="translate(142.244 130.05) rotate(113.318) scale(23.1269 13.3446)">
<stop offset="0.0677083" stop-color="#B85B2C"/>
<stop offset="1" stop-color="#B85B2C" stop-opacity="0"/>
</radialGradient>
<radialGradient id="paint29_radial_2252_11372" cx="0" cy="0" r="1" gradientUnits="userSpaceOnUse" gradientTransform="translate(139.681 132.614) rotate(122.243) scale(28.1406 12.2196)">
<stop offset="0.666667" stop-color="#BB5029"/>
<stop offset="1" stop-color="#D4613F" stop-opacity="0"/>
</radialGradient>
<radialGradient id="paint30_radial_2252_11372" cx="0" cy="0" r="1" gradientUnits="userSpaceOnUse" gradientTransform="translate(41.8125 82.8614) rotate(22.1685) scale(23.6966 24.619)">
<stop stop-color="#F97660"/>
<stop offset="1" stop-color="#F97660" stop-opacity="0"/>
</radialGradient>
<radialGradient id="paint31_radial_2252_11372" cx="0" cy="0" r="1" gradientUnits="userSpaceOnUse" gradientTransform="translate(151.152 86.7114) rotate(173.659) scale(46.0969 46.0963)">
<stop stop-color="#FE9671"/>
<stop offset="1" stop-color="#FFD15A" stop-opacity="0"/>
</radialGradient>
<radialGradient id="paint32_radial_2252_11372" cx="0" cy="0" r="1" gradientUnits="userSpaceOnUse" gradientTransform="translate(93.8539 72.2996) rotate(90) scale(41.3142 45.1702)">
<stop offset="0.517632" stop-color="#4E2553"/>
<stop offset="0.702876" stop-color="#5B4852"/>
<stop offset="1" stop-color="#4E2553"/>
<stop offset="1" stop-color="#4E2553"/>
</radialGradient>
<radialGradient id="paint33_radial_2252_11372" cx="0" cy="0" r="1" gradientUnits="userSpaceOnUse" gradientTransform="translate(62.2936 64.4204) rotate(90) scale(15.9988 15.999)">
<stop offset="0.188596" stop-color="#1D1019"/>
<stop offset="1" stop-color="#462B3F" stop-opacity="0"/>
</radialGradient>
<radialGradient id="paint34_radial_2252_11372" cx="0" cy="0" r="1" gradientUnits="userSpaceOnUse" gradientTransform="translate(62.2936 64.4204) rotate(90) scale(20.7002 23.4943)">
<stop offset="0.718644" stop-color="#462B3F" stop-opacity="0"/>
<stop offset="1" stop-color="#1D1019"/>
</radialGradient>
<radialGradient id="paint35_radial_2252_11372" cx="0" cy="0" r="1" gradientUnits="userSpaceOnUse" gradientTransform="translate(62.2936 53.7868) rotate(90) scale(19.0074 39.9282)">
<stop offset="0.429103" stop-color="#462B3F" stop-opacity="0"/>
<stop offset="1" stop-color="#1D1019"/>
</radialGradient>
<radialGradient id="paint36_radial_2252_11372" cx="0" cy="0" r="1" gradientUnits="userSpaceOnUse" gradientTransform="translate(125.415 64.4204) rotate(90) scale(15.9988 15.999)">
<stop offset="0.188596" stop-color="#1D1019"/>
<stop offset="1" stop-color="#462B3F" stop-opacity="0"/>
</radialGradient>
<radialGradient id="paint37_radial_2252_11372" cx="0" cy="0" r="1" gradientUnits="userSpaceOnUse" gradientTransform="translate(125.415 64.4204) rotate(90) scale(20.7002 23.4943)">
<stop offset="0.718644" stop-color="#462B3F" stop-opacity="0"/>
<stop offset="1" stop-color="#1D1019"/>
</radialGradient>
<radialGradient id="paint38_radial_2252_11372" cx="0" cy="0" r="1" gradientUnits="userSpaceOnUse" gradientTransform="translate(125.415 53.7868) rotate(90) scale(19.0074 39.9282)">
<stop offset="0.429103" stop-color="#462B3F" stop-opacity="0"/>
<stop offset="1" stop-color="#1D1019"/>
</radialGradient>
<radialGradient id="paint39_radial_2252_11372" cx="0" cy="0" r="1" gradientUnits="userSpaceOnUse" gradientTransform="translate(64.2486 111.678) rotate(117.586) scale(108.013 107.69)">
<stop offset="0.239583" stop-color="#FFCC42"/>
<stop offset="0.562377" stop-color="#FFB02E"/>
<stop offset="1" stop-color="#F70A8D"/>
</radialGradient>
<radialGradient id="paint40_radial_2252_11372" cx="0" cy="0" r="1" gradientUnits="userSpaceOnUse" gradientTransform="translate(61.5504 115.216) rotate(124.347) scale(68.237 92.2132)">
<stop offset="0.65203" stop-color="#FFB745" stop-opacity="0"/>
<stop offset="0.855204" stop-color="#F69044"/>
<stop offset="0.930316" stop-color="#DE6A63"/>
</radialGradient>
<radialGradient id="paint41_radial_2252_11372" cx="0" cy="0" r="1" gradientUnits="userSpaceOnUse" gradientTransform="translate(51.2969 119.872) rotate(70.4009) scale(15.6183 8.24986)">
<stop stop-color="#EE982C"/>
<stop offset="1" stop-color="#EEA02C" stop-opacity="0"/>
</radialGradient>
<radialGradient id="paint42_radial_2252_11372" cx="0" cy="0" r="1" gradientUnits="userSpaceOnUse" gradientTransform="translate(49.7326 112.52) rotate(47.2902) scale(8.15011 8.15012)">
<stop stop-color="#DA8C2B"/>
<stop offset="1" stop-color="#EEA02C" stop-opacity="0"/>
</radialGradient>
<radialGradient id="paint43_radial_2252_11372" cx="0" cy="0" r="1" gradientUnits="userSpaceOnUse" gradientTransform="translate(74.8477 144.194) rotate(90) scale(23.833 10.7676)">
<stop stop-color="#FFDA3C"/>
<stop offset="1" stop-color="#FFDA3C" stop-opacity="0"/>
</radialGradient>
<radialGradient id="paint44_radial_2252_11372" cx="0" cy="0" r="1" gradientUnits="userSpaceOnUse" gradientTransform="translate(66.1326 130.118) rotate(75.3186) scale(21.0341 8.45004)">
<stop stop-color="#FFD743"/>
<stop offset="1" stop-color="#FFD743" stop-opacity="0"/>
</radialGradient>
<radialGradient id="paint45_radial_2252_11372" cx="0" cy="0" r="1" gradientUnits="userSpaceOnUse" gradientTransform="translate(21.5642 150.437) rotate(34.5023) scale(13.6375 3.89719)">
<stop stop-color="#FFCE43"/>
<stop offset="1" stop-color="#FFCE43" stop-opacity="0"/>
</radialGradient>
<radialGradient id="paint46_radial_2252_11372" cx="0" cy="0" r="1" gradientUnits="userSpaceOnUse" gradientTransform="translate(16.9167 139.699) rotate(38.4315) scale(20.5209 5.0823)">
<stop offset="0.385833" stop-color="#83480A"/>
<stop offset="0.609375" stop-color="#CD7313"/>
<stop offset="1" stop-color="#FA9428" stop-opacity="0"/>
</radialGradient>
<radialGradient id="paint47_radial_2252_11372" cx="0" cy="0" r="1" gradientUnits="userSpaceOnUse" gradientTransform="translate(22.8669 134.372) rotate(-143.922) scale(18.9523 3.85266)">
<stop stop-color="#A03B04"/>
<stop offset="1" stop-color="#FA9428" stop-opacity="0"/>
</radialGradient>
<radialGradient id="paint48_radial_2252_11372" cx="0" cy="0" r="1" gradientUnits="userSpaceOnUse" gradientTransform="translate(19.4256 138.043) rotate(37.6777) scale(12.9973 3.41031)">
<stop stop-color="#FFCE43"/>
<stop offset="1" stop-color="#FFCE43" stop-opacity="0"/>
</radialGradient>
<radialGradient id="paint49_radial_2252_11372" cx="0" cy="0" r="1" gradientUnits="userSpaceOnUse" gradientTransform="translate(33.1699 125.194) rotate(-140.646) scale(21.707 7.00622)">
<stop stop-color="#A03B04"/>
<stop offset="1" stop-color="#FA9428" stop-opacity="0"/>
</radialGradient>
<radialGradient id="paint50_radial_2252_11372" cx="0" cy="0" r="1" gradientUnits="userSpaceOnUse" gradientTransform="translate(27.7801 128.232) rotate(40.8974) scale(16.9619 4.20526)">
<stop stop-color="#FFDB3F"/>
<stop offset="1" stop-color="#FFDB3F" stop-opacity="0"/>
</radialGradient>
<linearGradient id="paint51_linear_2252_11372" x1="16.095" y1="136.223" x2="22.4197" y2="129.253" gradientUnits="userSpaceOnUse">
<stop stop-color="#CD7313"/>
<stop offset="1" stop-color="#FA9428" stop-opacity="0"/>
</linearGradient>
<radialGradient id="paint52_radial_2252_11372" cx="0" cy="0" r="1" gradientUnits="userSpaceOnUse" gradientTransform="translate(39.6299 119.76) rotate(39.4964) scale(19.1712 2.86293)">
<stop stop-color="#FFF478" stop-opacity="0.3"/>
<stop offset="1" stop-color="#FFF478" stop-opacity="0"/>
</radialGradient>
<radialGradient id="paint53_radial_2252_11372" cx="0" cy="0" r="1" gradientUnits="userSpaceOnUse" gradientTransform="translate(53.542 115.437) rotate(146.31) scale(11.8845 23.1899)">
<stop offset="0.532661" stop-color="#83480A"/>
<stop offset="1" stop-color="#FA9428" stop-opacity="0"/>
</radialGradient>
<linearGradient id="paint54_linear_2252_11372" x1="25.7229" y1="125.147" x2="33.8792" y2="119.487" gradientUnits="userSpaceOnUse">
<stop offset="0.173754" stop-color="#CD7313"/>
<stop offset="1" stop-color="#FA9428" stop-opacity="0"/>
</linearGradient>
<radialGradient id="paint55_radial_2252_11372" cx="0" cy="0" r="1" gradientUnits="userSpaceOnUse" gradientTransform="translate(189.908 105.372) rotate(137.606) scale(159.692 159.213)">
<stop offset="0.239583" stop-color="#FEB63A"/>
<stop offset="0.537866" stop-color="#FFB02E"/>
<stop offset="1" stop-color="#F70A8D"/>
</radialGradient>
<radialGradient id="paint56_radial_2252_11372" cx="0" cy="0" r="1" gradientUnits="userSpaceOnUse" gradientTransform="translate(119.738 170.204) rotate(141.816) scale(73.452 74.0303)">
<stop offset="0.239583" stop-color="#FFB52F" stop-opacity="0"/>
<stop offset="0.526687" stop-color="#FFD142"/>
<stop offset="0.584428" stop-color="#FFD142"/>
<stop offset="1" stop-color="#FFBB30" stop-opacity="0"/>
</radialGradient>
<radialGradient id="paint57_radial_2252_11372" cx="0" cy="0" r="1" gradientUnits="userSpaceOnUse" gradientTransform="translate(127.269 130.71) rotate(68.7237) scale(15.3426 14.9745)">
<stop stop-color="#FEB32F"/>
<stop offset="1" stop-color="#FEB32F" stop-opacity="0"/>
</radialGradient>
<radialGradient id="paint58_radial_2252_11372" cx="0" cy="0" r="1" gradientUnits="userSpaceOnUse" gradientTransform="translate(147.155 135.226) rotate(130.097) scale(13.9641 5.56668)">
<stop stop-color="#FFBB33"/>
<stop offset="1" stop-color="#FFBB33" stop-opacity="0"/>
</radialGradient>
<radialGradient id="paint59_radial_2252_11372" cx="0" cy="0" r="1" gradientUnits="userSpaceOnUse" gradientTransform="translate(155.394 144.985) rotate(136.036) scale(13.2918 4.77326)">
<stop stop-color="#FFBB33"/>
<stop offset="1" stop-color="#FFBB33" stop-opacity="0"/>
</radialGradient>
<linearGradient id="paint60_linear_2252_11372" x1="114.598" y1="127.751" x2="128.875" y2="131.46" gradientUnits="userSpaceOnUse">
<stop stop-color="#D28B23"/>
<stop offset="1" stop-color="#D28B23" stop-opacity="0"/>
</linearGradient>
<linearGradient id="paint61_linear_2252_11372" x1="94.5002" y1="119.725" x2="116.798" y2="115.224" gradientUnits="userSpaceOnUse">
<stop offset="0.328125" stop-color="#EE891E"/>
<stop offset="0.864583" stop-color="#FA9428" stop-opacity="0"/>
</linearGradient>
<linearGradient id="paint62_linear_2252_11372" x1="156.222" y1="155.996" x2="163.492" y2="165.298" gradientUnits="userSpaceOnUse">
<stop stop-color="#FFBF45" stop-opacity="0"/>
<stop offset="1" stop-color="#FFAF4A"/>
</linearGradient>
<radialGradient id="paint63_radial_2252_11372" cx="0" cy="0" r="1" gradientUnits="userSpaceOnUse" gradientTransform="translate(148.904 136.529) rotate(96.2893) scale(45.6411 46.1243)">
<stop offset="0.65203" stop-color="#FFB745" stop-opacity="0"/>
<stop offset="0.892907" stop-color="#F69044"/>
<stop offset="1" stop-color="#DE6A63"/>
</radialGradient>
<radialGradient id="paint64_radial_2252_11372" cx="0" cy="0" r="1" gradientUnits="userSpaceOnUse" gradientTransform="translate(133.594 121.228) rotate(104.916) scale(11.0952 4.5558)">
<stop stop-color="#FFD445"/>
<stop offset="1" stop-color="#FFD345" stop-opacity="0"/>
</radialGradient>
<radialGradient id="paint65_radial_2252_11372" cx="0" cy="0" r="1" gradientUnits="userSpaceOnUse" gradientTransform="translate(159.339 114.277) rotate(70.7502) scale(6.69748 4.7963)">
<stop stop-color="#FFDA43"/>
<stop offset="1" stop-color="#FFDA43" stop-opacity="0"/>
</radialGradient>
<radialGradient id="paint66_radial_2252_11372" cx="0" cy="0" r="1" gradientUnits="userSpaceOnUse" gradientTransform="translate(172.279 120.194) rotate(71.691) scale(8.39273 6.00647)">
<stop stop-color="#FFDA43"/>
<stop offset="1" stop-color="#FFDA43" stop-opacity="0"/>
</radialGradient>
<radialGradient id="paint67_radial_2252_11372" cx="0" cy="0" r="1" gradientUnits="userSpaceOnUse" gradientTransform="translate(134.704 115.525) rotate(78.442) scale(9.2233 6.67147)">
<stop offset="0.328125" stop-color="#FFDA43"/>
<stop offset="0.723958" stop-color="#FFDA43" stop-opacity="0"/>
</radialGradient>
<radialGradient id="paint68_radial_2252_11372" cx="0" cy="0" r="1" gradientUnits="userSpaceOnUse" gradientTransform="translate(136.223 124.41) rotate(135.736) scale(7.53858 1.18816)">
<stop stop-color="#B9671B"/>
<stop offset="0.849337" stop-color="#B9671B" stop-opacity="0"/>
</radialGradient>
<radialGradient id="paint69_radial_2252_11372" cx="0" cy="0" r="1" gradientUnits="userSpaceOnUse" gradientTransform="translate(166.674 145.377) rotate(-32.891) scale(16.4556 6.45598)">
<stop stop-color="#A03B04"/>
<stop offset="1" stop-color="#FA9428" stop-opacity="0"/>
</radialGradient>
<radialGradient id="paint70_radial_2252_11372" cx="0" cy="0" r="1" gradientUnits="userSpaceOnUse" gradientTransform="translate(176.491 147.352) rotate(81.2799) scale(4.60224 2.74297)">
<stop stop-color="#FFD943"/>
<stop offset="1" stop-color="#FFD943" stop-opacity="0"/>
</radialGradient>
<radialGradient id="paint71_radial_2252_11372" cx="0" cy="0" r="1" gradientUnits="userSpaceOnUse" gradientTransform="translate(165.557 134.361) rotate(-41.1729) scale(19.8498 4.75978)">
<stop stop-color="#A03B04"/>
<stop offset="1" stop-color="#FA9428" stop-opacity="0"/>
</radialGradient>
<linearGradient id="paint72_linear_2252_11372" x1="175.218" y1="144.491" x2="170.281" y2="139.483" gradientUnits="userSpaceOnUse">
<stop stop-color="#CD7313"/>
<stop offset="1" stop-color="#FA9428" stop-opacity="0"/>
</linearGradient>
<radialGradient id="paint73_radial_2252_11372" cx="0" cy="0" r="1" gradientUnits="userSpaceOnUse" gradientTransform="translate(176.535 133.001) rotate(70.742) scale(5.11136 3.99627)">
<stop stop-color="#FFDB3F"/>
<stop offset="1" stop-color="#FFDB3F" stop-opacity="0"/>
</radialGradient>
<radialGradient id="paint74_radial_2252_11372" cx="0" cy="0" r="1" gradientUnits="userSpaceOnUse" gradientTransform="translate(153.834 126.37) rotate(-39.7319) scale(23.9073 5.11819)">
<stop stop-color="#A03B04"/>
<stop offset="1" stop-color="#FA9428" stop-opacity="0"/>
</radialGradient>
<radialGradient id="paint75_radial_2252_11372" cx="0" cy="0" r="1" gradientUnits="userSpaceOnUse" gradientTransform="translate(173.644 119.961) rotate(65.9775) scale(4.80754 2.67364)">
<stop stop-color="#FFDB3F"/>
<stop offset="1" stop-color="#FFDB3F" stop-opacity="0"/>
</radialGradient>
<linearGradient id="paint76_linear_2252_11372" x1="171.91" y1="136.457" x2="165.494" y2="129.714" gradientUnits="userSpaceOnUse">
<stop stop-color="#CD7313"/>
<stop offset="1" stop-color="#FA9428" stop-opacity="0"/>
</linearGradient>
<radialGradient id="paint77_radial_2252_11372" cx="0" cy="0" r="1" gradientUnits="userSpaceOnUse" gradientTransform="translate(141.242 113.141) rotate(51.5128) scale(9.92261 21.0071)">
<stop offset="0.545035" stop-color="#E1A21C"/>
<stop offset="1" stop-color="#FA9428" stop-opacity="0"/>
</radialGradient>
<linearGradient id="paint78_linear_2252_11372" x1="157.088" y1="130.019" x2="151.374" y2="125.421" gradientUnits="userSpaceOnUse">
<stop stop-color="#CD7313"/>
<stop offset="1" stop-color="#FA9428" stop-opacity="0"/>
</linearGradient>
<radialGradient id="paint79_radial_2252_11372" cx="0" cy="0" r="1" gradientUnits="userSpaceOnUse" gradientTransform="translate(159.976 113.777) rotate(72.8945) scale(5.2732 2.72841)">
<stop stop-color="#FFDB3F"/>
<stop offset="1" stop-color="#FFDB3F" stop-opacity="0"/>
</radialGradient>
</defs>
</svg>
