<svg width="184" height="184" viewBox="0 0 184 184" fill="none" xmlns="http://www.w3.org/2000/svg">
<g id="Smiling face with smiling eyes">
<g id="Circle">
<path d="M91.8046 172.13C145.367 172.13 172.133 136.166 172.133 91.8028C172.133 47.4396 145.367 11.4761 91.8046 11.4761C38.2419 11.4761 11.4766 47.4396 11.4766 91.8028C11.4766 136.166 38.2419 172.13 91.8046 172.13Z" fill="url(#paint0_radial_2252_11348)"/>
<path d="M91.8046 172.13C145.367 172.13 172.133 136.166 172.133 91.8028C172.133 47.4396 145.367 11.4761 91.8046 11.4761C38.2419 11.4761 11.4766 47.4396 11.4766 91.8028C11.4766 136.166 38.2419 172.13 91.8046 172.13Z" fill="url(#paint1_radial_2252_11348)"/>
<path d="M91.8046 172.13C145.367 172.13 172.133 136.166 172.133 91.8028C172.133 47.4396 145.367 11.4761 91.8046 11.4761C38.2419 11.4761 11.4766 47.4396 11.4766 91.8028C11.4766 136.166 38.2419 172.13 91.8046 172.13Z" fill="url(#paint2_radial_2252_11348)" fill-opacity="0.6"/>
<path d="M91.8046 172.13C145.367 172.13 172.133 136.166 172.133 91.8028C172.133 47.4396 145.367 11.4761 91.8046 11.4761C38.2419 11.4761 11.4766 47.4396 11.4766 91.8028C11.4766 136.166 38.2419 172.13 91.8046 172.13Z" fill="url(#paint3_radial_2252_11348)"/>
<path d="M91.8046 172.13C145.367 172.13 172.133 136.166 172.133 91.8028C172.133 47.4396 145.367 11.4761 91.8046 11.4761C38.2419 11.4761 11.4766 47.4396 11.4766 91.8028C11.4766 136.166 38.2419 172.13 91.8046 172.13Z" fill="url(#paint4_radial_2252_11348)"/>
<path d="M91.8046 172.13C145.367 172.13 172.133 136.166 172.133 91.8028C172.133 47.4396 145.367 11.4761 91.8046 11.4761C38.2419 11.4761 11.4766 47.4396 11.4766 91.8028C11.4766 136.166 38.2419 172.13 91.8046 172.13Z" fill="url(#paint5_radial_2252_11348)"/>
<path d="M91.8046 172.13C145.367 172.13 172.133 136.166 172.133 91.8028C172.133 47.4396 145.367 11.4761 91.8046 11.4761C38.2419 11.4761 11.4766 47.4396 11.4766 91.8028C11.4766 136.166 38.2419 172.13 91.8046 172.13Z" fill="url(#paint6_radial_2252_11348)"/>
<path d="M91.8046 172.13C145.367 172.13 172.133 136.166 172.133 91.8028C172.133 47.4396 145.367 11.4761 91.8046 11.4761C38.2419 11.4761 11.4766 47.4396 11.4766 91.8028C11.4766 136.166 38.2419 172.13 91.8046 172.13Z" fill="url(#paint7_radial_2252_11348)"/>
<path d="M91.8046 172.13C145.367 172.13 172.133 136.166 172.133 91.8028C172.133 47.4396 145.367 11.4761 91.8046 11.4761C38.2419 11.4761 11.4766 47.4396 11.4766 91.8028C11.4766 136.166 38.2419 172.13 91.8046 172.13Z" fill="url(#paint8_radial_2252_11348)"/>
<path d="M91.8046 172.13C145.367 172.13 172.133 136.166 172.133 91.8028C172.133 47.4396 145.367 11.4761 91.8046 11.4761C38.2419 11.4761 11.4766 47.4396 11.4766 91.8028C11.4766 136.166 38.2419 172.13 91.8046 172.13Z" fill="url(#paint9_radial_2252_11348)"/>
<path d="M91.8046 172.13C145.367 172.13 172.133 136.166 172.133 91.8028C172.133 47.4396 145.367 11.4761 91.8046 11.4761C38.2419 11.4761 11.4766 47.4396 11.4766 91.8028C11.4766 136.166 38.2419 172.13 91.8046 172.13Z" fill="url(#paint10_radial_2252_11348)"/>
<path d="M91.8046 172.13C145.367 172.13 172.133 136.166 172.133 91.8028C172.133 47.4396 145.367 11.4761 91.8046 11.4761C38.2419 11.4761 11.4766 47.4396 11.4766 91.8028C11.4766 136.166 38.2419 172.13 91.8046 172.13Z" fill="url(#paint11_radial_2252_11348)"/>
<path d="M91.8046 172.13C145.367 172.13 172.133 136.166 172.133 91.8028C172.133 47.4396 145.367 11.4761 91.8046 11.4761C38.2419 11.4761 11.4766 47.4396 11.4766 91.8028C11.4766 136.166 38.2419 172.13 91.8046 172.13Z" fill="url(#paint12_radial_2252_11348)"/>
<path d="M91.8046 172.13C145.367 172.13 172.133 136.166 172.133 91.8028C172.133 47.4396 145.367 11.4761 91.8046 11.4761C38.2419 11.4761 11.4766 47.4396 11.4766 91.8028C11.4766 136.166 38.2419 172.13 91.8046 172.13Z" fill="url(#paint13_radial_2252_11348)"/>
<path d="M91.8046 172.13C145.367 172.13 172.133 136.166 172.133 91.8028C172.133 47.4396 145.367 11.4761 91.8046 11.4761C38.2419 11.4761 11.4766 47.4396 11.4766 91.8028C11.4766 136.166 38.2419 172.13 91.8046 172.13Z" fill="url(#paint14_radial_2252_11348)"/>
<path d="M91.8046 172.13C145.367 172.13 172.133 136.166 172.133 91.8028C172.133 47.4396 145.367 11.4761 91.8046 11.4761C38.2419 11.4761 11.4766 47.4396 11.4766 91.8028C11.4766 136.166 38.2419 172.13 91.8046 172.13Z" fill="url(#paint15_radial_2252_11348)"/>
<path d="M91.8046 172.13C145.367 172.13 172.133 136.166 172.133 91.8028C172.133 47.4396 145.367 11.4761 91.8046 11.4761C38.2419 11.4761 11.4766 47.4396 11.4766 91.8028C11.4766 136.166 38.2419 172.13 91.8046 172.13Z" fill="url(#paint16_radial_2252_11348)"/>
<path d="M91.8046 172.13C145.367 172.13 172.133 136.166 172.133 91.8028C172.133 47.4396 145.367 11.4761 91.8046 11.4761C38.2419 11.4761 11.4766 47.4396 11.4766 91.8028C11.4766 136.166 38.2419 172.13 91.8046 172.13Z" fill="url(#paint17_radial_2252_11348)"/>
</g>
<path id="Eye" fill-rule="evenodd" clip-rule="evenodd" d="M130.67 66.3603C129.473 64.7561 127.489 63.0906 123.594 63.1194C119.653 63.1485 117.696 64.8343 116.546 66.3968C115.91 67.2602 115.493 68.1489 115.238 68.8281C115.113 69.1604 115.035 69.421 114.994 69.5732C114.975 69.6411 114.965 69.6856 114.961 69.7032C114.327 72.7771 111.335 74.7763 108.246 74.176C105.135 73.5714 103.103 70.5595 103.708 67.4487C103.92 66.5614 103.92 66.5614 103.92 66.5614C104.043 66.1078 104.228 65.5026 104.493 64.7954C105.019 63.3957 105.893 61.5106 107.302 59.5948C110.243 55.5986 115.391 51.7035 123.509 51.6435C131.674 51.5832 136.885 55.4988 139.868 59.4981C141.301 61.4183 142.199 63.3132 142.742 64.7194C143.017 65.4301 143.209 66.0382 143.338 66.4934C144.102 69.1837 143.017 73.3523 139.106 74.1626C136.023 74.8012 133.006 72.8373 132.336 69.7693C132.332 69.7511 132.319 69.7024 132.298 69.6276C132.253 69.4678 132.169 69.1977 132.037 68.8549C131.766 68.1542 131.327 67.2419 130.67 66.3603Z" fill="url(#paint18_radial_2252_11348)"/>
<path id="Eye_2" fill-rule="evenodd" clip-rule="evenodd" d="M67.369 66.3603C66.1722 64.7561 64.1883 63.0906 60.2934 63.1194C56.3525 63.1485 54.3948 64.8343 53.2449 66.3968C52.6095 67.2602 52.1918 68.1489 51.9369 68.8281C51.8122 69.1604 51.7345 69.421 51.6931 69.5732C51.6746 69.6411 51.6639 69.6856 51.6597 69.7032C51.026 72.7771 48.0345 74.7763 44.9454 74.176C41.8345 73.5714 39.8027 70.5595 40.4072 67.4487C40.619 66.5614 40.619 66.5614 40.619 66.5614C40.7424 66.1078 40.927 65.5026 41.1925 64.7954C41.7178 63.3957 42.5918 61.5106 44.0017 59.5948C46.9425 55.5986 52.0903 51.7035 60.2086 51.6435C68.3728 51.5832 73.584 55.4988 76.5676 59.4981C78.0001 61.4183 78.898 63.3132 79.4412 64.7194C79.7158 65.4301 79.9083 66.0382 80.0375 66.4934C80.8013 69.1837 79.7163 73.3523 75.8053 74.1626C72.7227 74.8012 69.7055 72.8373 69.0355 69.7693C69.031 69.7511 69.0187 69.7024 68.9975 69.6276C68.9521 69.4678 68.8683 69.1977 68.7359 68.8549C68.4652 68.1542 68.0266 67.2419 67.369 66.3603Z" fill="url(#paint19_radial_2252_11348)"/>
<g id="Vector 18">
<path d="M57.3809 109.024C60.2499 112.849 71.7263 123.369 91.8099 123.369C111.893 123.369 123.37 112.849 126.239 109.024" stroke="url(#paint20_radial_2252_11348)" stroke-width="2" stroke-linecap="round"/>
<path d="M57.3809 109.024C60.2499 112.849 71.7263 123.369 91.8099 123.369C111.893 123.369 123.37 112.849 126.239 109.024" stroke="url(#paint21_radial_2252_11348)" stroke-width="2" stroke-linecap="round"/>
</g>
</g>
<defs>
<radialGradient id="paint0_radial_2252_11348" cx="0" cy="0" r="1" gradientUnits="userSpaceOnUse" gradientTransform="translate(146.324 51.6427) rotate(131.878) scale(223.492 223.493)">
<stop stop-color="#FFF478"/>
<stop offset="0.474827" stop-color="#FFB02E"/>
<stop offset="1" stop-color="#F70A8D"/>
</radialGradient>
<radialGradient id="paint1_radial_2252_11348" cx="0" cy="0" r="1" gradientUnits="userSpaceOnUse" gradientTransform="translate(91.811 71.726) rotate(101.31) scale(102.405 131.163)">
<stop offset="0.787821" stop-color="#F59639" stop-opacity="0"/>
<stop offset="0.972509" stop-color="#FF7DCE"/>
</radialGradient>
<radialGradient id="paint2_radial_2252_11348" cx="0" cy="0" r="1" gradientUnits="userSpaceOnUse" gradientTransform="translate(103.287 80.3331) rotate(135) scale(235.333)">
<stop offset="0.314853" stop-opacity="0"/>
<stop offset="1"/>
</radialGradient>
<radialGradient id="paint3_radial_2252_11348" cx="0" cy="0" r="1" gradientUnits="userSpaceOnUse" gradientTransform="translate(91.811 97.5473) rotate(77.6918) scale(161.51 161.512)">
<stop offset="0.507903" stop-color="#7D6133" stop-opacity="0"/>
<stop offset="1" stop-color="#715B32"/>
</radialGradient>
<radialGradient id="paint4_radial_2252_11348" cx="0" cy="0" r="1" gradientUnits="userSpaceOnUse" gradientTransform="translate(94.68 94.6783) rotate(55.7127) scale(76.3945 55.3749)">
<stop stop-color="#FFB849"/>
<stop offset="1" stop-color="#FFB847" stop-opacity="0"/>
</radialGradient>
<radialGradient id="paint5_radial_2252_11348" cx="0" cy="0" r="1" gradientUnits="userSpaceOnUse" gradientTransform="translate(117.633 103.285) rotate(9.86566) scale(66.9794 66.9785)">
<stop stop-color="#FFA64B"/>
<stop offset="0.900412" stop-color="#FFAE46" stop-opacity="0"/>
</radialGradient>
<radialGradient id="paint6_radial_2252_11348" cx="0" cy="0" r="1" gradientUnits="userSpaceOnUse" gradientTransform="translate(100.418 86.0712) rotate(43.9704) scale(338.853 338.853)">
<stop offset="0.185425" stop-opacity="0"/>
<stop offset="1" stop-opacity="0.4"/>
</radialGradient>
<radialGradient id="paint7_radial_2252_11348" cx="0" cy="0" r="1" gradientUnits="userSpaceOnUse" gradientTransform="translate(53.3785 75.0264) rotate(-10.391) scale(40.5743 29.9451)">
<stop stop-color="#F1A227"/>
<stop offset="1" stop-color="#F5A72C" stop-opacity="0"/>
</radialGradient>
<radialGradient id="paint8_radial_2252_11348" cx="0" cy="0" r="1" gradientUnits="userSpaceOnUse" gradientTransform="translate(107.039 68.8309) rotate(98.7463) scale(10.2492 7.56445)">
<stop stop-color="#E7982E"/>
<stop offset="1" stop-color="#E39632" stop-opacity="0"/>
</radialGradient>
<radialGradient id="paint9_radial_2252_11348" cx="0" cy="0" r="1" gradientUnits="userSpaceOnUse" gradientTransform="translate(134.236 69.4523) rotate(-38.1247) scale(8.27555 8.27552)">
<stop stop-color="#D28118"/>
<stop offset="1" stop-color="#D68623" stop-opacity="0"/>
</radialGradient>
<radialGradient id="paint10_radial_2252_11348" cx="0" cy="0" r="1" gradientUnits="userSpaceOnUse" gradientTransform="translate(128.779 63.8332) rotate(48.2616) scale(13.2241 4.92515)">
<stop stop-color="#D28118"/>
<stop offset="1" stop-color="#D68623" stop-opacity="0"/>
</radialGradient>
<radialGradient id="paint11_radial_2252_11348" cx="0" cy="0" r="1" gradientUnits="userSpaceOnUse" gradientTransform="translate(121.33 61.3179) rotate(3.63289) scale(12.2142 5.01395)">
<stop stop-color="#D28118"/>
<stop offset="1" stop-color="#D68623" stop-opacity="0"/>
</radialGradient>
<radialGradient id="paint12_radial_2252_11348" cx="0" cy="0" r="1" gradientUnits="userSpaceOnUse" gradientTransform="translate(70.4426 68.6703) rotate(55.8399) scale(9.82069 4.23827)">
<stop stop-color="#BE7227"/>
<stop offset="1" stop-color="#C67A2A" stop-opacity="0"/>
</radialGradient>
<radialGradient id="paint13_radial_2252_11348" cx="0" cy="0" r="1" gradientUnits="userSpaceOnUse" gradientTransform="translate(62.9933 61.0277) rotate(22.6195) scale(10.0613 7.43328)">
<stop stop-color="#D07E2D"/>
<stop offset="1" stop-color="#D98833" stop-opacity="0"/>
</radialGradient>
<radialGradient id="paint14_radial_2252_11348" cx="0" cy="0" r="1" gradientUnits="userSpaceOnUse" gradientTransform="translate(56.0278 60.0603) rotate(-4.57385) scale(12.1316 9.28317)">
<stop stop-color="#D88431"/>
<stop offset="1" stop-color="#CF8231" stop-opacity="0"/>
</radialGradient>
<radialGradient id="paint15_radial_2252_11348" cx="0" cy="0" r="1" gradientUnits="userSpaceOnUse" gradientTransform="translate(44.999 68.0899) rotate(-66.571) scale(12.6522 8.67903)">
<stop stop-color="#DA8924"/>
<stop offset="1" stop-color="#DC8924" stop-opacity="0"/>
</radialGradient>
<radialGradient id="paint16_radial_2252_11348" cx="0" cy="0" r="1" gradientUnits="userSpaceOnUse" gradientTransform="translate(40.2837 95.9146) rotate(8.71313) scale(27.3819 27.3815)">
<stop stop-color="#F97660"/>
<stop offset="1" stop-color="#F97660" stop-opacity="0"/>
</radialGradient>
<radialGradient id="paint17_radial_2252_11348" cx="0" cy="0" r="1" gradientUnits="userSpaceOnUse" gradientTransform="translate(144.052 95.5301) rotate(-177.894) scale(37.9714 37.9708)">
<stop stop-color="#FE9671"/>
<stop offset="1" stop-color="#FFD15A" stop-opacity="0"/>
</radialGradient>
<radialGradient id="paint18_radial_2252_11348" cx="0" cy="0" r="1" gradientUnits="userSpaceOnUse" gradientTransform="translate(123.584 67.9157) rotate(90) scale(18.2901 24.7342)">
<stop offset="0.307692" stop-color="#452A3D"/>
<stop offset="0.626374" stop-color="#594052"/>
<stop offset="1" stop-color="#482C40"/>
</radialGradient>
<radialGradient id="paint19_radial_2252_11348" cx="0" cy="0" r="1" gradientUnits="userSpaceOnUse" gradientTransform="translate(60.2835 67.9157) rotate(90) scale(18.2901 24.7342)">
<stop offset="0.307692" stop-color="#452A3D"/>
<stop offset="0.626374" stop-color="#594052"/>
<stop offset="1" stop-color="#482C40"/>
</radialGradient>
<radialGradient id="paint20_radial_2252_11348" cx="0" cy="0" r="1" gradientUnits="userSpaceOnUse" gradientTransform="translate(91.8099 97.5475) rotate(90) scale(34.4285 52.6986)">
<stop offset="0.517632" stop-color="#4E2553"/>
<stop offset="0.702876" stop-color="#5E425A"/>
<stop offset="1" stop-color="#4E2553"/>
<stop offset="1" stop-color="#4E2553"/>
</radialGradient>
<radialGradient id="paint21_radial_2252_11348" cx="0" cy="0" r="1" gradientUnits="userSpaceOnUse" gradientTransform="translate(91.8099 116.964) rotate(90) scale(15.6707 76.1634)">
<stop offset="0.645531" stop-color="#4C2746" stop-opacity="0"/>
<stop offset="1" stop-color="#4E2847"/>
</radialGradient>
</defs>
</svg>
