<svg width="184" height="184" viewBox="0 0 184 184" fill="none" xmlns="http://www.w3.org/2000/svg">
<g id="Grinning face with big eyes">
<g id="Circle">
<path d="M91.8046 172.13C145.367 172.13 172.133 136.166 172.133 91.8028C172.133 47.4396 145.367 11.4761 91.8046 11.4761C38.2419 11.4761 11.4766 47.4396 11.4766 91.8028C11.4766 136.166 38.2419 172.13 91.8046 172.13Z" fill="url(#paint0_radial_2252_11324)"/>
<path d="M91.8046 172.13C145.367 172.13 172.133 136.166 172.133 91.8028C172.133 47.4396 145.367 11.4761 91.8046 11.4761C38.2419 11.4761 11.4766 47.4396 11.4766 91.8028C11.4766 136.166 38.2419 172.13 91.8046 172.13Z" fill="url(#paint1_radial_2252_11324)"/>
<path d="M91.8046 172.13C145.367 172.13 172.133 136.166 172.133 91.8028C172.133 47.4396 145.367 11.4761 91.8046 11.4761C38.2419 11.4761 11.4766 47.4396 11.4766 91.8028C11.4766 136.166 38.2419 172.13 91.8046 172.13Z" fill="url(#paint2_radial_2252_11324)" fill-opacity="0.6"/>
<path d="M91.8046 172.13C145.367 172.13 172.133 136.166 172.133 91.8028C172.133 47.4396 145.367 11.4761 91.8046 11.4761C38.2419 11.4761 11.4766 47.4396 11.4766 91.8028C11.4766 136.166 38.2419 172.13 91.8046 172.13Z" fill="url(#paint3_radial_2252_11324)"/>
<path d="M91.8046 172.13C145.367 172.13 172.133 136.166 172.133 91.8028C172.133 47.4396 145.367 11.4761 91.8046 11.4761C38.2419 11.4761 11.4766 47.4396 11.4766 91.8028C11.4766 136.166 38.2419 172.13 91.8046 172.13Z" fill="url(#paint4_radial_2252_11324)"/>
<path d="M91.8046 172.13C145.367 172.13 172.133 136.166 172.133 91.8028C172.133 47.4396 145.367 11.4761 91.8046 11.4761C38.2419 11.4761 11.4766 47.4396 11.4766 91.8028C11.4766 136.166 38.2419 172.13 91.8046 172.13Z" fill="url(#paint5_radial_2252_11324)"/>
<path d="M91.8046 172.13C145.367 172.13 172.133 136.166 172.133 91.8028C172.133 47.4396 145.367 11.4761 91.8046 11.4761C38.2419 11.4761 11.4766 47.4396 11.4766 91.8028C11.4766 136.166 38.2419 172.13 91.8046 172.13Z" fill="url(#paint6_radial_2252_11324)"/>
<path d="M91.8046 172.13C145.367 172.13 172.133 136.166 172.133 91.8028C172.133 47.4396 145.367 11.4761 91.8046 11.4761C38.2419 11.4761 11.4766 47.4396 11.4766 91.8028C11.4766 136.166 38.2419 172.13 91.8046 172.13Z" fill="url(#paint7_radial_2252_11324)"/>
<path d="M91.8046 172.13C145.367 172.13 172.133 136.166 172.133 91.8028C172.133 47.4396 145.367 11.4761 91.8046 11.4761C38.2419 11.4761 11.4766 47.4396 11.4766 91.8028C11.4766 136.166 38.2419 172.13 91.8046 172.13Z" fill="url(#paint8_radial_2252_11324)"/>
<path d="M91.8046 172.13C145.367 172.13 172.133 136.166 172.133 91.8028C172.133 47.4396 145.367 11.4761 91.8046 11.4761C38.2419 11.4761 11.4766 47.4396 11.4766 91.8028C11.4766 136.166 38.2419 172.13 91.8046 172.13Z" fill="url(#paint9_radial_2252_11324)"/>
<path d="M91.8046 172.13C145.367 172.13 172.133 136.166 172.133 91.8028C172.133 47.4396 145.367 11.4761 91.8046 11.4761C38.2419 11.4761 11.4766 47.4396 11.4766 91.8028C11.4766 136.166 38.2419 172.13 91.8046 172.13Z" fill="url(#paint10_radial_2252_11324)"/>
<path d="M91.8046 172.13C145.367 172.13 172.133 136.166 172.133 91.8028C172.133 47.4396 145.367 11.4761 91.8046 11.4761C38.2419 11.4761 11.4766 47.4396 11.4766 91.8028C11.4766 136.166 38.2419 172.13 91.8046 172.13Z" fill="url(#paint11_radial_2252_11324)"/>
</g>
<path id="Eyeballs" fill-rule="evenodd" clip-rule="evenodd" d="M83.193 54.5118C83.193 62.5892 79.897 69.8003 74.7359 74.5351C71.4487 73.0533 67.0115 71.7261 60.2515 71.7261C54.7111 71.7261 49.3937 72.6176 44.9447 73.7551C40.252 69.0271 37.2988 62.1575 37.2988 54.5118C37.2988 40.2511 47.5726 28.6904 60.2459 28.6904C72.9192 28.6904 83.193 40.2511 83.193 54.5118ZM146.346 54.5118C146.346 62.1598 143.391 69.0312 138.695 73.7593C134.242 72.6198 128.918 71.7261 123.371 71.7261C116.618 71.7261 112.182 73.051 108.896 74.5313C103.736 69.7964 100.441 62.587 100.441 54.5118C100.441 40.2511 110.717 28.6904 123.394 28.6904C136.07 28.6904 146.346 40.2511 146.346 54.5118Z" fill="white"/>
<g id="Pupils">
<path d="M63.1189 68.857C69.4571 68.857 74.5953 63.0767 74.5953 55.9463C74.5953 48.816 69.4571 43.0356 63.1189 43.0356C56.7807 43.0356 51.6426 48.816 51.6426 55.9463C51.6426 63.0767 56.7807 68.857 63.1189 68.857Z" fill="url(#paint12_linear_2252_11324)"/>
<path d="M120.501 68.857C126.839 68.857 131.977 63.0767 131.977 55.9463C131.977 48.816 126.839 43.0356 120.501 43.0356C114.162 43.0356 109.024 48.816 109.024 55.9463C109.024 63.0767 114.162 68.857 120.501 68.857Z" fill="url(#paint13_linear_2252_11324)"/>
</g>
<path id="Mouth" d="M91.8115 137.714C40.168 137.714 40.168 86.0713 40.168 86.0713H143.455C143.455 86.0713 143.455 137.714 91.8115 137.714Z" fill="url(#paint14_radial_2252_11324)"/>
<path id="Teeth" d="M45.9062 93.6784V86.0713H137.717V93.6784C137.717 94.2307 137.269 94.6784 136.717 94.6784H46.9062C46.354 94.6784 45.9062 94.2307 45.9062 93.6784Z" fill="url(#paint15_linear_2252_11324)"/>
</g>
<defs>
<radialGradient id="paint0_radial_2252_11324" cx="0" cy="0" r="1" gradientUnits="userSpaceOnUse" gradientTransform="translate(146.324 51.6427) rotate(131.878) scale(223.492 223.493)">
<stop stop-color="#FFF478"/>
<stop offset="0.474827" stop-color="#FFB02E"/>
<stop offset="1" stop-color="#F70A8D"/>
</radialGradient>
<radialGradient id="paint1_radial_2252_11324" cx="0" cy="0" r="1" gradientUnits="userSpaceOnUse" gradientTransform="translate(91.811 71.726) rotate(101.31) scale(102.405 131.163)">
<stop offset="0.787821" stop-color="#F59639" stop-opacity="0"/>
<stop offset="0.972509" stop-color="#FF7DCE"/>
</radialGradient>
<radialGradient id="paint2_radial_2252_11324" cx="0" cy="0" r="1" gradientUnits="userSpaceOnUse" gradientTransform="translate(103.287 80.3331) rotate(135) scale(235.333)">
<stop offset="0.314853" stop-opacity="0"/>
<stop offset="1"/>
</radialGradient>
<radialGradient id="paint3_radial_2252_11324" cx="0" cy="0" r="1" gradientUnits="userSpaceOnUse" gradientTransform="translate(91.811 97.5473) rotate(77.6918) scale(161.51 161.512)">
<stop offset="0.507903" stop-color="#7D6133" stop-opacity="0"/>
<stop offset="1" stop-color="#715B32"/>
</radialGradient>
<radialGradient id="paint4_radial_2252_11324" cx="0" cy="0" r="1" gradientUnits="userSpaceOnUse" gradientTransform="translate(94.68 94.6783) rotate(55.7127) scale(76.3945 55.3749)">
<stop stop-color="#FFB849"/>
<stop offset="1" stop-color="#FFB847" stop-opacity="0"/>
</radialGradient>
<radialGradient id="paint5_radial_2252_11324" cx="0" cy="0" r="1" gradientUnits="userSpaceOnUse" gradientTransform="translate(117.633 103.285) rotate(9.86566) scale(66.9794 66.9785)">
<stop stop-color="#FFA64B"/>
<stop offset="0.900412" stop-color="#FFAE46" stop-opacity="0"/>
</radialGradient>
<radialGradient id="paint6_radial_2252_11324" cx="0" cy="0" r="1" gradientUnits="userSpaceOnUse" gradientTransform="translate(100.418 86.0712) rotate(43.9704) scale(338.853 338.853)">
<stop offset="0.185425" stop-opacity="0"/>
<stop offset="1" stop-opacity="0.4"/>
</radialGradient>
<radialGradient id="paint7_radial_2252_11324" cx="0" cy="0" r="1" gradientUnits="userSpaceOnUse" gradientTransform="translate(52.3477 56.8915) rotate(93.252) scale(26.005 21.0469)">
<stop offset="0.47452" stop-color="#B3671F"/>
<stop offset="0.781916" stop-color="#B3671F" stop-opacity="0.236695"/>
<stop offset="0.873485" stop-color="#B3671F" stop-opacity="0.0865443"/>
<stop offset="0.948588" stop-color="#B3671F" stop-opacity="0"/>
</radialGradient>
<radialGradient id="paint8_radial_2252_11324" cx="0" cy="0" r="1" gradientUnits="userSpaceOnUse" gradientTransform="translate(62.9591 67.3094) rotate(3.8654) scale(16.3621 10.4176)">
<stop offset="0.392157" stop-color="#D57D2E"/>
<stop offset="0.643397" stop-color="#D57D2E" stop-opacity="0.446091"/>
<stop offset="0.806763" stop-color="#D57D2E" stop-opacity="0.179254"/>
<stop offset="1" stop-color="#D57D2E" stop-opacity="0"/>
</radialGradient>
<radialGradient id="paint9_radial_2252_11324" cx="0" cy="0" r="1" gradientUnits="userSpaceOnUse" gradientTransform="translate(111.934 52.0878) rotate(90) scale(22.5016 16.7661)">
<stop offset="0.308886" stop-color="#9F5915"/>
<stop offset="0.773417" stop-color="#9F5915" stop-opacity="0.15"/>
<stop offset="0.936131" stop-color="#9F5915" stop-opacity="0"/>
</radialGradient>
<radialGradient id="paint10_radial_2252_11324" cx="0" cy="0" r="1" gradientUnits="userSpaceOnUse" gradientTransform="translate(128.7 65.9858) rotate(14.5887) scale(16.6408 11.7761)">
<stop offset="0.404329" stop-color="#D18239"/>
<stop offset="0.783188" stop-color="#9F5915" stop-opacity="0.15"/>
<stop offset="0.936131" stop-color="#9F5915" stop-opacity="0"/>
</radialGradient>
<radialGradient id="paint11_radial_2252_11324" cx="0" cy="0" r="1" gradientUnits="userSpaceOnUse" gradientTransform="translate(117.89 66.8682) rotate(2.93563) scale(17.23 10.259)">
<stop offset="0.404329" stop-color="#DA8A38"/>
<stop offset="0.783188" stop-color="#D38333" stop-opacity="0.22"/>
<stop offset="0.936131" stop-color="#D38233" stop-opacity="0"/>
</radialGradient>
<linearGradient id="paint12_linear_2252_11324" x1="122.708" y1="43.0356" x2="118.411" y2="69.1037" gradientUnits="userSpaceOnUse">
<stop stop-color="#553B3E"/>
<stop offset="1" stop-color="#3D2432"/>
</linearGradient>
<linearGradient id="paint13_linear_2252_11324" x1="122.708" y1="43.0356" x2="118.411" y2="69.1037" gradientUnits="userSpaceOnUse">
<stop stop-color="#553B3E"/>
<stop offset="1" stop-color="#3D2432"/>
</linearGradient>
<radialGradient id="paint14_radial_2252_11324" cx="0" cy="0" r="1" gradientUnits="userSpaceOnUse" gradientTransform="translate(91.8115 149.19) rotate(-90) scale(63.1189 126.24)">
<stop stop-color="#F70A8D"/>
<stop offset="1" stop-color="#89029C"/>
</radialGradient>
<linearGradient id="paint15_linear_2252_11324" x1="91.8116" y1="86.0713" x2="91.8116" y2="94.6784" gradientUnits="userSpaceOnUse">
<stop stop-color="#ECCDFF"/>
<stop offset="1" stop-color="white"/>
</linearGradient>
</defs>
</svg>
