<svg width="184" height="184" viewBox="0 0 184 184" fill="none" xmlns="http://www.w3.org/2000/svg">
<g id="Smiling face with heart-eyes">
<g id="Circle">
<path d="M91.8046 172.13C145.367 172.13 172.133 136.166 172.133 91.8028C172.133 47.4396 145.367 11.4761 91.8046 11.4761C38.2419 11.4761 11.4766 47.4396 11.4766 91.8028C11.4766 136.166 38.2419 172.13 91.8046 172.13Z" fill="url(#paint0_radial_2252_11300)"/>
<path d="M91.8046 172.13C145.367 172.13 172.133 136.166 172.133 91.8028C172.133 47.4396 145.367 11.4761 91.8046 11.4761C38.2419 11.4761 11.4766 47.4396 11.4766 91.8028C11.4766 136.166 38.2419 172.13 91.8046 172.13Z" fill="url(#paint1_radial_2252_11300)"/>
<path d="M91.8046 172.13C145.367 172.13 172.133 136.166 172.133 91.8028C172.133 47.4396 145.367 11.4761 91.8046 11.4761C38.2419 11.4761 11.4766 47.4396 11.4766 91.8028C11.4766 136.166 38.2419 172.13 91.8046 172.13Z" fill="url(#paint2_radial_2252_11300)"/>
<path d="M91.8046 172.13C145.367 172.13 172.133 136.166 172.133 91.8028C172.133 47.4396 145.367 11.4761 91.8046 11.4761C38.2419 11.4761 11.4766 47.4396 11.4766 91.8028C11.4766 136.166 38.2419 172.13 91.8046 172.13Z" fill="url(#paint3_radial_2252_11300)" fill-opacity="0.6"/>
<path d="M91.8046 172.13C145.367 172.13 172.133 136.166 172.133 91.8028C172.133 47.4396 145.367 11.4761 91.8046 11.4761C38.2419 11.4761 11.4766 47.4396 11.4766 91.8028C11.4766 136.166 38.2419 172.13 91.8046 172.13Z" fill="url(#paint4_radial_2252_11300)"/>
<path d="M91.8046 172.13C145.367 172.13 172.133 136.166 172.133 91.8028C172.133 47.4396 145.367 11.4761 91.8046 11.4761C38.2419 11.4761 11.4766 47.4396 11.4766 91.8028C11.4766 136.166 38.2419 172.13 91.8046 172.13Z" fill="url(#paint5_radial_2252_11300)"/>
<path d="M91.8046 172.13C145.367 172.13 172.133 136.166 172.133 91.8028C172.133 47.4396 145.367 11.4761 91.8046 11.4761C38.2419 11.4761 11.4766 47.4396 11.4766 91.8028C11.4766 136.166 38.2419 172.13 91.8046 172.13Z" fill="url(#paint6_radial_2252_11300)"/>
<path d="M91.8046 172.13C145.367 172.13 172.133 136.166 172.133 91.8028C172.133 47.4396 145.367 11.4761 91.8046 11.4761C38.2419 11.4761 11.4766 47.4396 11.4766 91.8028C11.4766 136.166 38.2419 172.13 91.8046 172.13Z" fill="url(#paint7_radial_2252_11300)"/>
<path d="M91.8046 172.13C145.367 172.13 172.133 136.166 172.133 91.8028C172.133 47.4396 145.367 11.4761 91.8046 11.4761C38.2419 11.4761 11.4766 47.4396 11.4766 91.8028C11.4766 136.166 38.2419 172.13 91.8046 172.13Z" fill="url(#paint8_radial_2252_11300)"/>
<path d="M91.8046 172.13C145.367 172.13 172.133 136.166 172.133 91.8028C172.133 47.4396 145.367 11.4761 91.8046 11.4761C38.2419 11.4761 11.4766 47.4396 11.4766 91.8028C11.4766 136.166 38.2419 172.13 91.8046 172.13Z" fill="url(#paint9_radial_2252_11300)"/>
<path d="M91.8046 172.13C145.367 172.13 172.133 136.166 172.133 91.8028C172.133 47.4396 145.367 11.4761 91.8046 11.4761C38.2419 11.4761 11.4766 47.4396 11.4766 91.8028C11.4766 136.166 38.2419 172.13 91.8046 172.13Z" fill="url(#paint10_radial_2252_11300)"/>
<path d="M91.8046 172.13C145.367 172.13 172.133 136.166 172.133 91.8028C172.133 47.4396 145.367 11.4761 91.8046 11.4761C38.2419 11.4761 11.4766 47.4396 11.4766 91.8028C11.4766 136.166 38.2419 172.13 91.8046 172.13Z" fill="url(#paint11_radial_2252_11300)"/>
</g>
<path id="Mouth" d="M91.8115 143.452C40.168 143.452 40.168 91.8093 40.168 91.8093H143.455C143.455 91.8093 143.455 143.452 91.8115 143.452Z" fill="url(#paint12_radial_2252_11300)"/>
<path id="Teeth" d="M45.9062 99.4164V91.8093H137.717V99.4165C137.717 99.9687 137.269 100.416 136.717 100.416H46.9062C46.354 100.416 45.9062 99.9687 45.9062 99.4164Z" fill="url(#paint13_linear_2252_11300)"/>
<g id="Shape">
<path d="M18.2535 55.9484C29.8217 69.2991 45.2119 75.1458 53.1004 77.4034C56.3318 78.3281 59.7226 77.4005 62.1155 75.0403C68.9639 68.2857 82.7665 52.7865 85.7169 35.0901C89.8369 10.3785 58.8508 2.84517 46.3638 23.2129C17.1535 9.49285 1.70153 36.8457 18.2535 55.9484Z" fill="url(#paint14_linear_2252_11300)"/>
<path d="M18.2535 55.9484C29.8217 69.2991 45.2119 75.1458 53.1004 77.4034C56.3318 78.3281 59.7226 77.4005 62.1155 75.0403C68.9639 68.2857 82.7665 52.7865 85.7169 35.0901C89.8369 10.3785 58.8508 2.84517 46.3638 23.2129C17.1535 9.49285 1.70153 36.8457 18.2535 55.9484Z" fill="url(#paint15_radial_2252_11300)"/>
<path d="M18.2535 55.9484C29.8217 69.2991 45.2119 75.1458 53.1004 77.4034C56.3318 78.3281 59.7226 77.4005 62.1155 75.0403C68.9639 68.2857 82.7665 52.7865 85.7169 35.0901C89.8369 10.3785 58.8508 2.84517 46.3638 23.2129C17.1535 9.49285 1.70153 36.8457 18.2535 55.9484Z" fill="url(#paint16_radial_2252_11300)"/>
<path d="M18.2535 55.9484C29.8217 69.2991 45.2119 75.1458 53.1004 77.4034C56.3318 78.3281 59.7226 77.4005 62.1155 75.0403C68.9639 68.2857 82.7665 52.7865 85.7169 35.0901C89.8369 10.3785 58.8508 2.84517 46.3638 23.2129C17.1535 9.49285 1.70153 36.8457 18.2535 55.9484Z" fill="url(#paint17_radial_2252_11300)"/>
<path d="M18.2535 55.9484C29.8217 69.2991 45.2119 75.1458 53.1004 77.4034C56.3318 78.3281 59.7226 77.4005 62.1155 75.0403C68.9639 68.2857 82.7665 52.7865 85.7169 35.0901C89.8369 10.3785 58.8508 2.84517 46.3638 23.2129C17.1535 9.49285 1.70153 36.8457 18.2535 55.9484Z" fill="url(#paint18_radial_2252_11300)"/>
<path d="M18.2535 55.9484C29.8217 69.2991 45.2119 75.1458 53.1004 77.4034C56.3318 78.3281 59.7226 77.4005 62.1155 75.0403C68.9639 68.2857 82.7665 52.7865 85.7169 35.0901C89.8369 10.3785 58.8508 2.84517 46.3638 23.2129C17.1535 9.49285 1.70153 36.8457 18.2535 55.9484Z" fill="url(#paint19_radial_2252_11300)"/>
<path d="M18.2535 55.9484C29.8217 69.2991 45.2119 75.1458 53.1004 77.4034C56.3318 78.3281 59.7226 77.4005 62.1155 75.0403C68.9639 68.2857 82.7665 52.7865 85.7169 35.0901C89.8369 10.3785 58.8508 2.84517 46.3638 23.2129C17.1535 9.49285 1.70153 36.8457 18.2535 55.9484Z" fill="url(#paint20_radial_2252_11300)"/>
<path d="M18.2535 55.9484C29.8217 69.2991 45.2119 75.1458 53.1004 77.4034C56.3318 78.3281 59.7226 77.4005 62.1155 75.0403C68.9639 68.2857 82.7665 52.7865 85.7169 35.0901C89.8369 10.3785 58.8508 2.84517 46.3638 23.2129C17.1535 9.49285 1.70153 36.8457 18.2535 55.9484Z" fill="url(#paint21_radial_2252_11300)"/>
<path d="M18.2535 55.9484C29.8217 69.2991 45.2119 75.1458 53.1004 77.4034C56.3318 78.3281 59.7226 77.4005 62.1155 75.0403C68.9639 68.2857 82.7665 52.7865 85.7169 35.0901C89.8369 10.3785 58.8508 2.84517 46.3638 23.2129C17.1535 9.49285 1.70153 36.8457 18.2535 55.9484Z" fill="url(#paint22_radial_2252_11300)"/>
<path d="M18.2535 55.9484C29.8217 69.2991 45.2119 75.1458 53.1004 77.4034C56.3318 78.3281 59.7226 77.4005 62.1155 75.0403C68.9639 68.2857 82.7665 52.7865 85.7169 35.0901C89.8369 10.3785 58.8508 2.84517 46.3638 23.2129C17.1535 9.49285 1.70153 36.8457 18.2535 55.9484Z" fill="url(#paint23_radial_2252_11300)"/>
<path d="M18.2535 55.9484C29.8217 69.2991 45.2119 75.1458 53.1004 77.4034C56.3318 78.3281 59.7226 77.4005 62.1155 75.0403C68.9639 68.2857 82.7665 52.7865 85.7169 35.0901C89.8369 10.3785 58.8508 2.84517 46.3638 23.2129C17.1535 9.49285 1.70153 36.8457 18.2535 55.9484Z" fill="url(#paint24_radial_2252_11300)"/>
<path d="M18.2535 55.9484C29.8217 69.2991 45.2119 75.1458 53.1004 77.4034C56.3318 78.3281 59.7226 77.4005 62.1155 75.0403C68.9639 68.2857 82.7665 52.7865 85.7169 35.0901C89.8369 10.3785 58.8508 2.84517 46.3638 23.2129C17.1535 9.49285 1.70153 36.8457 18.2535 55.9484Z" fill="url(#paint25_radial_2252_11300)"/>
<path d="M18.2535 55.9484C29.8217 69.2991 45.2119 75.1458 53.1004 77.4034C56.3318 78.3281 59.7226 77.4005 62.1155 75.0403C68.9639 68.2857 82.7665 52.7865 85.7169 35.0901C89.8369 10.3785 58.8508 2.84517 46.3638 23.2129C17.1535 9.49285 1.70153 36.8457 18.2535 55.9484Z" fill="url(#paint26_radial_2252_11300)"/>
<path d="M18.2535 55.9484C29.8217 69.2991 45.2119 75.1458 53.1004 77.4034C56.3318 78.3281 59.7226 77.4005 62.1155 75.0403C68.9639 68.2857 82.7665 52.7865 85.7169 35.0901C89.8369 10.3785 58.8508 2.84517 46.3638 23.2129C17.1535 9.49285 1.70153 36.8457 18.2535 55.9484Z" fill="url(#paint27_radial_2252_11300)"/>
</g>
<g id="Shape_2">
<path d="M165.359 55.9576C153.796 69.3018 138.414 75.1462 130.528 77.4033C127.297 78.3281 123.906 77.4006 121.513 75.0403C114.667 68.2877 100.872 52.7957 97.9229 35.1078C93.8046 10.4063 124.778 2.87603 137.26 23.2355C166.458 9.521 181.904 36.8627 165.359 55.9576Z" fill="#CB0C4C"/>
<path d="M165.359 55.9576C153.796 69.3018 138.414 75.1462 130.528 77.4033C127.297 78.3281 123.906 77.4006 121.513 75.0403C114.667 68.2877 100.872 52.7957 97.9229 35.1078C93.8046 10.4063 124.778 2.87603 137.26 23.2355C166.458 9.521 181.904 36.8627 165.359 55.9576Z" fill="url(#paint28_radial_2252_11300)"/>
<path d="M165.359 55.9576C153.796 69.3018 138.414 75.1462 130.528 77.4033C127.297 78.3281 123.906 77.4006 121.513 75.0403C114.667 68.2877 100.872 52.7957 97.9229 35.1078C93.8046 10.4063 124.778 2.87603 137.26 23.2355C166.458 9.521 181.904 36.8627 165.359 55.9576Z" fill="url(#paint29_linear_2252_11300)"/>
<path d="M165.359 55.9576C153.796 69.3018 138.414 75.1462 130.528 77.4033C127.297 78.3281 123.906 77.4006 121.513 75.0403C114.667 68.2877 100.872 52.7957 97.9229 35.1078C93.8046 10.4063 124.778 2.87603 137.26 23.2355C166.458 9.521 181.904 36.8627 165.359 55.9576Z" fill="url(#paint30_radial_2252_11300)"/>
<path d="M165.359 55.9576C153.796 69.3018 138.414 75.1462 130.528 77.4033C127.297 78.3281 123.906 77.4006 121.513 75.0403C114.667 68.2877 100.872 52.7957 97.9229 35.1078C93.8046 10.4063 124.778 2.87603 137.26 23.2355C166.458 9.521 181.904 36.8627 165.359 55.9576Z" fill="url(#paint31_radial_2252_11300)"/>
<path d="M165.359 55.9576C153.796 69.3018 138.414 75.1462 130.528 77.4033C127.297 78.3281 123.906 77.4006 121.513 75.0403C114.667 68.2877 100.872 52.7957 97.9229 35.1078C93.8046 10.4063 124.778 2.87603 137.26 23.2355C166.458 9.521 181.904 36.8627 165.359 55.9576Z" fill="url(#paint32_radial_2252_11300)"/>
<path d="M165.359 55.9576C153.796 69.3018 138.414 75.1462 130.528 77.4033C127.297 78.3281 123.906 77.4006 121.513 75.0403C114.667 68.2877 100.872 52.7957 97.9229 35.1078C93.8046 10.4063 124.778 2.87603 137.26 23.2355C166.458 9.521 181.904 36.8627 165.359 55.9576Z" fill="url(#paint33_radial_2252_11300)"/>
<path d="M165.359 55.9576C153.796 69.3018 138.414 75.1462 130.528 77.4033C127.297 78.3281 123.906 77.4006 121.513 75.0403C114.667 68.2877 100.872 52.7957 97.9229 35.1078C93.8046 10.4063 124.778 2.87603 137.26 23.2355C166.458 9.521 181.904 36.8627 165.359 55.9576Z" fill="url(#paint34_radial_2252_11300)"/>
<path d="M165.359 55.9576C153.796 69.3018 138.414 75.1462 130.528 77.4033C127.297 78.3281 123.906 77.4006 121.513 75.0403C114.667 68.2877 100.872 52.7957 97.9229 35.1078C93.8046 10.4063 124.778 2.87603 137.26 23.2355C166.458 9.521 181.904 36.8627 165.359 55.9576Z" fill="url(#paint35_radial_2252_11300)"/>
<path d="M165.359 55.9576C153.796 69.3018 138.414 75.1462 130.528 77.4033C127.297 78.3281 123.906 77.4006 121.513 75.0403C114.667 68.2877 100.872 52.7957 97.9229 35.1078C93.8046 10.4063 124.778 2.87603 137.26 23.2355C166.458 9.521 181.904 36.8627 165.359 55.9576Z" fill="url(#paint36_radial_2252_11300)"/>
<path d="M165.359 55.9576C153.796 69.3018 138.414 75.1462 130.528 77.4033C127.297 78.3281 123.906 77.4006 121.513 75.0403C114.667 68.2877 100.872 52.7957 97.9229 35.1078C93.8046 10.4063 124.778 2.87603 137.26 23.2355C166.458 9.521 181.904 36.8627 165.359 55.9576Z" fill="url(#paint37_radial_2252_11300)"/>
</g>
</g>
<defs>
<radialGradient id="paint0_radial_2252_11300" cx="0" cy="0" r="1" gradientUnits="userSpaceOnUse" gradientTransform="translate(146.324 51.6427) rotate(132.839) scale(215.199 215.199)">
<stop stop-color="#FFF478"/>
<stop offset="0.474827" stop-color="#FFB02E"/>
<stop offset="1" stop-color="#F70A8D"/>
</radialGradient>
<radialGradient id="paint1_radial_2252_11300" cx="0" cy="0" r="1" gradientUnits="userSpaceOnUse" gradientTransform="translate(146.324 51.6427) rotate(131.878) scale(223.492 223.493)">
<stop stop-color="#FFF478"/>
<stop offset="0.474827" stop-color="#FFB02E"/>
<stop offset="1" stop-color="#F70A8D"/>
</radialGradient>
<radialGradient id="paint2_radial_2252_11300" cx="0" cy="0" r="1" gradientUnits="userSpaceOnUse" gradientTransform="translate(91.811 71.726) rotate(101.31) scale(102.405 131.163)">
<stop offset="0.787821" stop-color="#F59639" stop-opacity="0"/>
<stop offset="0.972509" stop-color="#FF7DCE"/>
</radialGradient>
<radialGradient id="paint3_radial_2252_11300" cx="0" cy="0" r="1" gradientUnits="userSpaceOnUse" gradientTransform="translate(103.287 80.3331) rotate(135) scale(235.333)">
<stop offset="0.314853" stop-opacity="0"/>
<stop offset="1"/>
</radialGradient>
<radialGradient id="paint4_radial_2252_11300" cx="0" cy="0" r="1" gradientUnits="userSpaceOnUse" gradientTransform="translate(91.811 97.5473) rotate(77.6918) scale(161.51 161.512)">
<stop offset="0.507903" stop-color="#7D6133" stop-opacity="0"/>
<stop offset="1" stop-color="#715B32"/>
</radialGradient>
<radialGradient id="paint5_radial_2252_11300" cx="0" cy="0" r="1" gradientUnits="userSpaceOnUse" gradientTransform="translate(94.68 94.6783) rotate(55.7127) scale(76.3945 55.3749)">
<stop stop-color="#FFB849"/>
<stop offset="1" stop-color="#FFB847" stop-opacity="0"/>
</radialGradient>
<radialGradient id="paint6_radial_2252_11300" cx="0" cy="0" r="1" gradientUnits="userSpaceOnUse" gradientTransform="translate(117.633 103.285) rotate(9.86566) scale(66.9794 66.9785)">
<stop stop-color="#FFA64B"/>
<stop offset="0.900412" stop-color="#FFAE46" stop-opacity="0"/>
</radialGradient>
<radialGradient id="paint7_radial_2252_11300" cx="0" cy="0" r="1" gradientUnits="userSpaceOnUse" gradientTransform="translate(100.418 86.0712) rotate(43.9704) scale(338.853 338.853)">
<stop offset="0.185425" stop-opacity="0"/>
<stop offset="1" stop-opacity="0.4"/>
</radialGradient>
<radialGradient id="paint8_radial_2252_11300" cx="0" cy="0" r="1" gradientUnits="userSpaceOnUse" gradientTransform="translate(28.951 55.538) rotate(35.4027) scale(39.5827 20.6723)">
<stop stop-color="#CE5635"/>
<stop offset="1" stop-color="#CE5635" stop-opacity="0"/>
</radialGradient>
<radialGradient id="paint9_radial_2252_11300" cx="0" cy="0" r="1" gradientUnits="userSpaceOnUse" gradientTransform="translate(106.341 35.6665) rotate(57.7709) scale(22.5383 22.5385)">
<stop stop-color="#DF7536"/>
<stop offset="1" stop-color="#DF7536" stop-opacity="0"/>
</radialGradient>
<radialGradient id="paint10_radial_2252_11300" cx="0" cy="0" r="1" gradientUnits="userSpaceOnUse" gradientTransform="translate(112.778 46.8843) rotate(62.5464) scale(35.1108 22.0486)">
<stop stop-color="#DF7536"/>
<stop offset="1" stop-color="#DF7536" stop-opacity="0"/>
</radialGradient>
<radialGradient id="paint11_radial_2252_11300" cx="0" cy="0" r="1" gradientUnits="userSpaceOnUse" gradientTransform="translate(111.892 51.1644) rotate(49.8336) scale(36.8491 23.2984)">
<stop stop-color="#DF7536"/>
<stop offset="1" stop-color="#DF7536" stop-opacity="0"/>
</radialGradient>
<radialGradient id="paint12_radial_2252_11300" cx="0" cy="0" r="1" gradientUnits="userSpaceOnUse" gradientTransform="translate(91.8115 154.928) rotate(-90) scale(63.1189 126.24)">
<stop stop-color="#F70A8D"/>
<stop offset="1" stop-color="#89029C"/>
</radialGradient>
<linearGradient id="paint13_linear_2252_11300" x1="91.8116" y1="91.8093" x2="91.8116" y2="100.416" gradientUnits="userSpaceOnUse">
<stop stop-color="#ECCDFF"/>
<stop offset="1" stop-color="white"/>
</linearGradient>
<linearGradient id="paint14_linear_2252_11300" x1="137.74" y1="19.1513" x2="125.495" y2="81.4908" gradientUnits="userSpaceOnUse">
<stop stop-color="#CA0B4A"/>
<stop offset="1" stop-color="#F70A8D"/>
</linearGradient>
<radialGradient id="paint15_radial_2252_11300" cx="0" cy="0" r="1" gradientUnits="userSpaceOnUse" gradientTransform="translate(40.3354 72.3957) rotate(16.699) scale(27.3325 12.2137)">
<stop stop-color="#D6246F"/>
<stop offset="1" stop-color="#D6246F" stop-opacity="0"/>
</radialGradient>
<radialGradient id="paint16_radial_2252_11300" cx="0" cy="0" r="1" gradientUnits="userSpaceOnUse" gradientTransform="translate(28.051 62.9308) rotate(33.5531) scale(26.823 11.7499)">
<stop stop-color="#D6246F"/>
<stop offset="1" stop-color="#D6246F" stop-opacity="0"/>
</radialGradient>
<radialGradient id="paint17_radial_2252_11300" cx="0" cy="0" r="1" gradientUnits="userSpaceOnUse" gradientTransform="translate(14.8629 47.6933) rotate(51.7813) scale(32.4652 6.46604)">
<stop stop-color="#D6246F"/>
<stop offset="1" stop-color="#D6246F" stop-opacity="0"/>
</radialGradient>
<radialGradient id="paint18_radial_2252_11300" cx="0" cy="0" r="1" gradientUnits="userSpaceOnUse" gradientTransform="translate(12.4823 47.5913) rotate(58.4954) scale(10.2533 2.4874)">
<stop stop-color="#A41B36"/>
<stop offset="1" stop-color="#A41B36" stop-opacity="0"/>
</radialGradient>
<radialGradient id="paint19_radial_2252_11300" cx="0" cy="0" r="1" gradientUnits="userSpaceOnUse" gradientTransform="translate(10.9035 38.1727) rotate(75.0122) scale(11.068 2.32333)">
<stop stop-color="#A41B36"/>
<stop offset="1" stop-color="#A41B36" stop-opacity="0"/>
</radialGradient>
<radialGradient id="paint20_radial_2252_11300" cx="0" cy="0" r="1" gradientUnits="userSpaceOnUse" gradientTransform="translate(11.4766 29.7279) rotate(90) scale(8.47195 2.57173)">
<stop stop-color="#A41B36"/>
<stop offset="1" stop-color="#A41B36" stop-opacity="0"/>
</radialGradient>
<radialGradient id="paint21_radial_2252_11300" cx="0" cy="0" r="1" gradientUnits="userSpaceOnUse" gradientTransform="translate(11.768 25.3308) rotate(91.2259) scale(13.6212 4.13482)">
<stop stop-color="#A41B36"/>
<stop offset="1" stop-color="#A41B36" stop-opacity="0"/>
</radialGradient>
<radialGradient id="paint22_radial_2252_11300" cx="0" cy="0" r="1" gradientUnits="userSpaceOnUse" gradientTransform="translate(17.4428 22.5753) rotate(116.065) scale(6.77813 2.05754)">
<stop stop-color="#A41B36"/>
<stop offset="1" stop-color="#A41B36" stop-opacity="0"/>
</radialGradient>
<radialGradient id="paint23_radial_2252_11300" cx="0" cy="0" r="1" gradientUnits="userSpaceOnUse" gradientTransform="translate(45.953 60.5364) rotate(39.4333) scale(23.7293 14.942)">
<stop stop-color="#F944A5" stop-opacity="0.69"/>
<stop offset="1" stop-color="#F944A5" stop-opacity="0"/>
</radialGradient>
<radialGradient id="paint24_radial_2252_11300" cx="0" cy="0" r="1" gradientUnits="userSpaceOnUse" gradientTransform="translate(63.4748 42.0018) rotate(111.883) scale(24.6818 9.27165)">
<stop stop-color="#E63277"/>
<stop offset="1" stop-color="#E63277" stop-opacity="0"/>
</radialGradient>
<radialGradient id="paint25_radial_2252_11300" cx="0" cy="0" r="1" gradientUnits="userSpaceOnUse" gradientTransform="translate(42.874 34.0419) rotate(46.1084) scale(20.7872 11.5188)">
<stop offset="0.194665" stop-color="#EC6686"/>
<stop offset="1" stop-color="#EC6686" stop-opacity="0"/>
</radialGradient>
<radialGradient id="paint26_radial_2252_11300" cx="0" cy="0" r="1" gradientUnits="userSpaceOnUse" gradientTransform="translate(71.8093 25.0788) rotate(107.746) scale(15.0979 11.8528)">
<stop stop-color="#F87797"/>
<stop offset="1" stop-color="#EB6385" stop-opacity="0"/>
</radialGradient>
<radialGradient id="paint27_radial_2252_11300" cx="0" cy="0" r="1" gradientUnits="userSpaceOnUse" gradientTransform="translate(46.5219 21.8438) rotate(71.099) scale(18.8399 3.2515)">
<stop stop-color="#CE2356"/>
<stop offset="1" stop-color="#DE265D" stop-opacity="0"/>
</radialGradient>
<radialGradient id="paint28_radial_2252_11300" cx="0" cy="0" r="1" gradientUnits="userSpaceOnUse" gradientTransform="translate(130.066 26.8681) rotate(56.03) scale(21.4168 13.4545)">
<stop offset="0.363657" stop-color="#EC6686"/>
<stop offset="1" stop-color="#EC6686" stop-opacity="0"/>
</radialGradient>
<linearGradient id="paint29_linear_2252_11300" x1="138.697" y1="29.8359" x2="133.32" y2="28.9141" gradientUnits="userSpaceOnUse">
<stop offset="0.308486" stop-color="#CB0C4C"/>
<stop offset="1" stop-color="#CB0C4C" stop-opacity="0"/>
</linearGradient>
<radialGradient id="paint30_radial_2252_11300" cx="0" cy="0" r="1" gradientUnits="userSpaceOnUse" gradientTransform="translate(127.886 59.8752) rotate(49.955) scale(43.3504 27.2973)">
<stop stop-color="#F944A5" stop-opacity="0.69"/>
<stop offset="1" stop-color="#F944A5" stop-opacity="0"/>
</radialGradient>
<radialGradient id="paint31_radial_2252_11300" cx="0" cy="0" r="1" gradientUnits="userSpaceOnUse" gradientTransform="translate(137.575 21.4601) rotate(97.2891) scale(14.0041 2.41694)">
<stop stop-color="#CE2356"/>
<stop offset="1" stop-color="#DE265D" stop-opacity="0"/>
</radialGradient>
<radialGradient id="paint32_radial_2252_11300" cx="0" cy="0" r="1" gradientUnits="userSpaceOnUse" gradientTransform="translate(149.526 42.0166) rotate(130.989) scale(26.3512 9.89871)">
<stop stop-color="#E63277"/>
<stop offset="1" stop-color="#E63277" stop-opacity="0"/>
</radialGradient>
<radialGradient id="paint33_radial_2252_11300" cx="0" cy="0" r="1" gradientUnits="userSpaceOnUse" gradientTransform="translate(157.944 34.1334) rotate(137.879) scale(15.6499 8.96636)">
<stop stop-color="#F87797"/>
<stop offset="1" stop-color="#EB6385" stop-opacity="0"/>
</radialGradient>
<radialGradient id="paint34_radial_2252_11300" cx="0" cy="0" r="1" gradientUnits="userSpaceOnUse" gradientTransform="translate(121.191 72.7253) rotate(31.4342) scale(15.9984 7.14899)">
<stop stop-color="#D6246F"/>
<stop offset="1" stop-color="#D6246F" stop-opacity="0"/>
</radialGradient>
<radialGradient id="paint35_radial_2252_11300" cx="0" cy="0" r="1" gradientUnits="userSpaceOnUse" gradientTransform="translate(108.865 60.779) rotate(45.8208) scale(23.6726 10.37)">
<stop stop-color="#D6246F"/>
<stop offset="1" stop-color="#D6246F" stop-opacity="0"/>
</radialGradient>
<radialGradient id="paint36_radial_2252_11300" cx="0" cy="0" r="1" gradientUnits="userSpaceOnUse" gradientTransform="translate(101.09 41.6269) rotate(65.4039) scale(29.6137 5.89816)">
<stop stop-color="#D6246F"/>
<stop offset="1" stop-color="#D6246F" stop-opacity="0"/>
</radialGradient>
<radialGradient id="paint37_radial_2252_11300" cx="0" cy="0" r="1" gradientUnits="userSpaceOnUse" gradientTransform="translate(155.294 57.8103) rotate(117.897) scale(22.5685 21.0538)">
<stop stop-color="#F944A5" stop-opacity="0.69"/>
<stop offset="1" stop-color="#F944A5" stop-opacity="0"/>
</radialGradient>
</defs>
</svg>
