<svg width="196" height="48" viewBox="0 0 196 48" fill="none" xmlns="http://www.w3.org/2000/svg">
<g filter="url(#filter0_d_212_1314)">
<mask id="path-1-outside-1_212_1314" maskUnits="userSpaceOnUse" x="10" y="5" width="176" height="36" fill="black">
<rect fill="white" x="10" y="5" width="176" height="36"/>
<path d="M35.4499 16.448C36.2179 17.4507 36.8259 18.592 37.2739 19.872C37.7432 21.152 37.9779 22.4533 37.9779 23.776C37.9779 25.696 37.5512 27.3173 36.6979 28.64C35.8659 29.9413 34.5219 30.9333 32.6659 31.616C30.8099 32.2773 28.3459 32.608 25.2739 32.608H24.0579C20.1112 32.608 17.2632 31.904 15.5139 30.496C13.7859 29.0667 12.9219 27.04 12.9219 24.416C12.9219 22.9013 13.2952 21.696 14.0419 20.8C14.7885 19.8827 15.5672 19.424 16.3779 19.424C16.8685 19.424 17.2739 19.584 17.5939 19.904C17.3592 20.3093 17.1565 20.7787 16.9859 21.312C16.8365 21.8453 16.7619 22.4427 16.7619 23.104C16.7619 24.9813 17.3165 26.2827 18.4259 27.008C19.5565 27.7333 21.5939 28.096 24.5379 28.096H25.2739C27.5992 28.096 29.4125 27.9467 30.7139 27.648C32.0152 27.328 32.9219 26.8693 33.4339 26.272C33.9672 25.6747 34.2339 24.9493 34.2339 24.096C34.2339 23.6053 34.1485 23.136 33.9779 22.688C33.8072 22.24 33.5725 21.7387 33.2739 21.184C32.6979 20.3307 32.4099 19.5733 32.4099 18.912C32.4099 18.3573 32.6445 17.8453 33.1139 17.376C33.6045 16.8853 34.3832 16.576 35.4499 16.448ZM24.7619 33.856C25.3379 33.856 25.9139 33.984 26.4899 34.24C26.7245 34.8587 26.8419 35.4133 26.8419 35.904C26.8419 36.5867 26.6499 37.1307 26.2659 37.536C25.9032 37.9413 25.3805 38.144 24.6979 38.144C24.1005 38.144 23.5139 37.9947 22.9379 37.696C22.6605 37.12 22.5219 36.5653 22.5219 36.032C22.5219 35.328 22.7245 34.784 23.1299 34.4C23.5565 34.0373 24.1005 33.856 24.7619 33.856ZM44.9574 10.656V23.264C44.9574 24.9493 45.1494 26.112 45.5334 26.752C45.9387 27.392 46.6534 27.712 47.6774 27.712H48.0294C48.648 27.712 48.9467 28.4373 48.9254 29.888C48.9254 31.36 48.6267 32.1387 48.0294 32.224H47.1014C45.0107 32.224 43.496 31.6053 42.5574 30.368C41.64 29.1093 41.16 27.1467 41.1174 24.48L40.9254 13.792C40.904 12.896 41.0107 12.2027 41.2454 11.712C41.5014 11.2213 41.8427 10.88 42.2694 10.688C42.696 10.496 43.144 10.4 43.6134 10.4C44.104 10.4 44.552 10.4853 44.9574 10.656ZM72.0454 27.712C72.5574 27.712 72.8347 28.448 72.8774 29.92C72.8774 30.6027 72.8027 31.1573 72.6534 31.584C72.504 32.0107 72.3014 32.224 72.0454 32.224C69.7414 32.224 68.2054 31.3493 67.4374 29.6C66.7974 31.3493 65.592 32.224 63.8214 32.224C61.88 32.224 60.6107 31.392 60.0134 29.728C59.3094 31.392 58.008 32.224 56.1094 32.224C55.2347 32.224 54.456 32.0107 53.7734 31.584C53.112 31.136 52.6534 30.5173 52.3974 29.728C51.6507 31.392 50.0614 32.224 47.6294 32.224C47.0534 32.224 46.776 31.456 46.7974 29.92C46.7974 29.2587 46.872 28.7253 47.0214 28.32C47.1494 27.9147 47.352 27.712 47.6294 27.712C48.5894 27.712 49.2614 27.5413 49.6454 27.2C50.0294 26.8373 50.2214 26.304 50.2214 25.6C50.2214 24.9173 50.2 24.2133 50.1574 23.488C50.1574 22.9333 50.3494 22.4853 50.7334 22.144C51.1174 21.7813 51.64 21.6 52.3014 21.6C52.92 21.6 53.4107 21.7387 53.7734 22.016V24.032C53.7734 25.376 53.9654 26.3253 54.3494 26.88C54.7334 27.4347 55.32 27.712 56.1094 27.712C57.368 27.712 57.9654 27.0293 57.9014 25.664C57.9014 24.9173 57.8907 24.1813 57.8694 23.456C57.8694 22.368 58.5734 21.76 59.9814 21.632C60.6214 21.632 61.112 21.76 61.4534 22.016V24.064C61.4534 25.4293 61.6347 26.3787 61.9974 26.912C62.36 27.4453 62.904 27.712 63.6294 27.712C64.76 27.712 65.3147 26.9653 65.2934 25.472C65.2934 24.2773 65.2614 23.2107 65.1974 22.272C65.1974 21.0773 65.9227 20.4267 67.3734 20.32C67.992 20.32 68.472 20.4587 68.8134 20.736V23.776C68.8134 25.248 69.0694 26.272 69.5814 26.848C70.1147 27.424 70.936 27.712 72.0454 27.712ZM91.9796 27.712H94.5076C95.0836 27.712 95.361 28.4373 95.3396 29.888C95.3396 31.36 95.0623 32.1387 94.5076 32.224H93.5796C91.4676 32.224 89.8143 31.776 88.6196 30.88C87.425 29.984 86.6463 28.5013 86.2836 26.432L85.4196 27.296C83.7343 29.088 81.9103 30.3573 79.9476 31.104C78.0063 31.8507 75.5956 32.224 72.7156 32.224H71.6276C71.0516 32.224 70.7743 31.4453 70.7956 29.888C70.7956 29.248 70.8703 28.7253 71.0196 28.32C71.169 27.9147 71.3716 27.712 71.6276 27.712H73.7716C76.225 27.712 78.177 27.5413 79.6276 27.2C81.0996 26.8373 82.4756 26.176 83.7556 25.216C84.6943 24.512 85.4303 23.9787 85.9636 23.616C85.665 23.488 84.9716 23.136 83.8836 22.56C83.0516 22.1333 82.273 21.8027 81.5476 21.568C80.8223 21.3333 80.065 21.216 79.2756 21.216C78.1876 21.216 77.3343 21.44 76.7156 21.888C76.1183 22.336 75.745 22.9013 75.5956 23.584C75.361 23.6693 75.1263 23.712 74.8916 23.712C74.4863 23.712 74.081 23.5093 73.6756 23.104C73.2703 22.6987 73.0676 22.1333 73.0676 21.408C73.0676 20.5333 73.3983 19.6907 74.0596 18.88C74.5503 18.2827 75.2223 17.8027 76.0756 17.44C76.9503 17.0773 77.953 16.896 79.0836 16.896C80.065 16.896 81.025 17.056 81.9636 17.376C82.9236 17.6747 83.969 18.112 85.0996 18.688C87.1903 19.7973 89.1316 20.352 90.9236 20.352C91.4783 20.352 92.001 20.3307 92.4916 20.288C92.641 20.6933 92.7156 21.184 92.7156 21.76C92.7156 22.8053 92.353 23.7013 91.6276 24.448H90.4116C89.7076 24.448 89.057 24.5867 88.4596 24.864C88.5876 25.9307 88.9183 26.6773 89.4516 27.104C89.985 27.5093 90.8276 27.712 91.9796 27.712ZM94.0946 27.712H94.4786C95.2253 27.712 95.812 27.4987 96.2386 27.072C96.6653 26.624 96.8786 25.7813 96.8786 24.544C96.8786 22.4533 96.8466 20.4693 96.7826 18.592C96.7186 16.6933 96.6866 15.0293 96.6866 13.6C96.6866 11.3173 97.5506 10.2293 99.2786 10.336C99.8333 10.336 100.324 10.4 100.751 10.528V24.256C100.751 27.1147 100.228 29.1627 99.1826 30.4C98.1586 31.616 96.6973 32.224 94.7986 32.224H94.0946C93.5186 32.224 93.2413 31.4453 93.2626 29.888C93.2626 28.544 93.54 27.8187 94.0946 27.712ZM104.774 32.096L104.582 13.792C104.582 12.4907 104.817 11.5947 105.286 11.104C105.755 10.6133 106.385 10.368 107.174 10.368C107.75 10.368 108.241 10.4427 108.646 10.592V28.064C108.646 29.6853 108.454 30.816 108.07 31.456C107.686 32.0747 107.067 32.384 106.214 32.384C105.638 32.384 105.158 32.288 104.774 32.096ZM135.528 11.584C134.952 11.584 134.376 11.4347 133.8 11.136C133.523 10.56 133.384 10.0053 133.384 9.472C133.384 8.768 133.587 8.23467 133.992 7.872C134.419 7.488 134.963 7.296 135.624 7.296C136.2 7.296 136.776 7.43467 137.352 7.712C137.587 8.30933 137.704 8.85333 137.704 9.344C137.704 10.0267 137.512 10.5707 137.128 10.976C136.766 11.3813 136.232 11.584 135.528 11.584ZM135.752 12.736C137.758 12.736 139.4 13.568 140.68 15.232C141.96 16.8747 142.6 19.2427 142.6 22.336C142.6 24.6187 142.163 26.5173 141.288 28.032C140.435 29.5467 139.048 30.6773 137.128 31.424C135.208 32.1707 132.659 32.544 129.48 32.544H128.264C124.318 32.544 121.47 31.84 119.72 30.432C117.992 29.0027 117.128 26.9867 117.128 24.384C117.128 22.848 117.502 21.632 118.248 20.736C118.995 19.84 119.774 19.392 120.584 19.392C121.075 19.392 121.48 19.5413 121.8 19.84C121.566 20.2453 121.363 20.7253 121.192 21.28C121.043 21.8133 120.968 22.4107 120.968 23.072C120.968 24.928 121.523 26.2293 122.632 26.976C123.763 27.7013 125.8 28.064 128.744 28.064H129.48C132.958 28.064 135.39 27.7227 136.776 27.04C138.163 26.3573 138.974 25.3227 139.208 23.936C138.526 24.6827 137.395 25.056 135.816 25.056C134.067 25.056 132.595 24.512 131.4 23.424C130.206 22.3147 129.608 20.864 129.608 19.072C129.608 17.3227 130.174 15.8293 131.304 14.592C132.456 13.3547 133.939 12.736 135.752 12.736ZM136.072 21.376C137.267 21.376 138.259 21.1627 139.048 20.736C138.963 19.4133 138.6 18.3787 137.96 17.632C137.342 16.864 136.531 16.48 135.528 16.48C134.696 16.48 134.014 16.7253 133.48 17.216C132.968 17.7067 132.712 18.304 132.712 19.008C132.712 20.48 133.832 21.2693 136.072 21.376ZM155.963 9.664C156.198 10.2613 156.315 10.8053 156.315 11.296C156.315 11.9787 156.123 12.5227 155.739 12.928C155.377 13.3333 154.843 13.536 154.139 13.536C153.563 13.536 152.987 13.3867 152.411 13.088C152.134 12.512 151.995 11.9573 151.995 11.424C151.995 10.7413 152.198 10.2187 152.603 9.856C153.03 9.472 153.574 9.28 154.235 9.28C154.79 9.28 155.366 9.408 155.963 9.664ZM145.115 27.104C145.115 26.016 145.382 25.2053 145.915 24.672C146.449 24.1173 147.003 23.84 147.579 23.84C147.963 23.84 148.273 23.904 148.507 24.032C148.379 24.352 148.315 24.7573 148.315 25.248C148.315 26.016 148.582 26.6347 149.115 27.104C149.649 27.552 150.534 27.776 151.771 27.776C153.734 27.776 155.121 27.3813 155.931 26.592L152.699 20.032C152.123 19.0293 151.835 18.208 151.835 17.568C151.835 16.9707 152.059 16.4373 152.507 15.968C152.955 15.4987 153.574 15.264 154.363 15.264C154.875 15.264 155.323 15.3493 155.707 15.52L158.843 23.968C159.377 25.4187 159.91 26.4107 160.443 26.944C160.998 27.456 161.702 27.712 162.555 27.712C163.131 27.712 163.409 28.4373 163.387 29.888C163.387 31.36 163.11 32.1387 162.555 32.224C160.486 32.224 158.875 31.424 157.723 29.824C157.126 30.592 156.326 31.2 155.323 31.648C154.321 32.096 153.115 32.32 151.707 32.32C149.51 32.32 147.857 31.8187 146.747 30.816C145.659 29.8133 145.115 28.576 145.115 27.104ZM161.316 29.984C161.316 28.5333 161.594 27.776 162.148 27.712H165.092C166.948 27.712 168.527 27.584 169.828 27.328C171.13 27.072 172.356 26.6773 173.508 26.144C174.49 25.6747 175.162 25.3653 175.524 25.216C175.908 25.0667 176.207 24.9707 176.42 24.928C176.036 24.8 175.172 24.2987 173.828 23.424C173.018 22.8693 172.282 22.4533 171.62 22.176C170.959 21.8987 170.234 21.76 169.444 21.76C168.463 21.76 167.663 21.984 167.044 22.432C166.426 22.8587 166.042 23.3813 165.892 24C165.658 24.0853 165.423 24.128 165.188 24.128C164.762 24.1067 164.367 23.904 164.004 23.52C163.642 23.1147 163.46 22.5493 163.46 21.824C163.46 21.0133 163.77 20.2027 164.388 19.392C165.476 18.0693 167.119 17.408 169.316 17.408C171.343 17.408 173.583 18.2933 176.036 20.064C177.487 21.0453 178.596 21.7067 179.364 22.048C180.132 22.3893 180.89 22.56 181.636 22.56C182.148 22.56 182.607 22.5387 183.012 22.496C183.119 22.7947 183.172 23.232 183.172 23.808C183.172 25.024 182.799 25.9627 182.052 26.624C181.647 26.56 181.22 26.528 180.772 26.528C179.151 26.528 177.007 27.4133 174.34 29.184C172.698 30.2293 171.055 30.9973 169.412 31.488C167.791 31.9787 165.743 32.224 163.268 32.224H162.148C161.572 32.224 161.295 31.4773 161.316 29.984Z"/>
</mask>
<path d="M35.4499 16.448C36.2179 17.4507 36.8259 18.592 37.2739 19.872C37.7432 21.152 37.9779 22.4533 37.9779 23.776C37.9779 25.696 37.5512 27.3173 36.6979 28.64C35.8659 29.9413 34.5219 30.9333 32.6659 31.616C30.8099 32.2773 28.3459 32.608 25.2739 32.608H24.0579C20.1112 32.608 17.2632 31.904 15.5139 30.496C13.7859 29.0667 12.9219 27.04 12.9219 24.416C12.9219 22.9013 13.2952 21.696 14.0419 20.8C14.7885 19.8827 15.5672 19.424 16.3779 19.424C16.8685 19.424 17.2739 19.584 17.5939 19.904C17.3592 20.3093 17.1565 20.7787 16.9859 21.312C16.8365 21.8453 16.7619 22.4427 16.7619 23.104C16.7619 24.9813 17.3165 26.2827 18.4259 27.008C19.5565 27.7333 21.5939 28.096 24.5379 28.096H25.2739C27.5992 28.096 29.4125 27.9467 30.7139 27.648C32.0152 27.328 32.9219 26.8693 33.4339 26.272C33.9672 25.6747 34.2339 24.9493 34.2339 24.096C34.2339 23.6053 34.1485 23.136 33.9779 22.688C33.8072 22.24 33.5725 21.7387 33.2739 21.184C32.6979 20.3307 32.4099 19.5733 32.4099 18.912C32.4099 18.3573 32.6445 17.8453 33.1139 17.376C33.6045 16.8853 34.3832 16.576 35.4499 16.448ZM24.7619 33.856C25.3379 33.856 25.9139 33.984 26.4899 34.24C26.7245 34.8587 26.8419 35.4133 26.8419 35.904C26.8419 36.5867 26.6499 37.1307 26.2659 37.536C25.9032 37.9413 25.3805 38.144 24.6979 38.144C24.1005 38.144 23.5139 37.9947 22.9379 37.696C22.6605 37.12 22.5219 36.5653 22.5219 36.032C22.5219 35.328 22.7245 34.784 23.1299 34.4C23.5565 34.0373 24.1005 33.856 24.7619 33.856ZM44.9574 10.656V23.264C44.9574 24.9493 45.1494 26.112 45.5334 26.752C45.9387 27.392 46.6534 27.712 47.6774 27.712H48.0294C48.648 27.712 48.9467 28.4373 48.9254 29.888C48.9254 31.36 48.6267 32.1387 48.0294 32.224H47.1014C45.0107 32.224 43.496 31.6053 42.5574 30.368C41.64 29.1093 41.16 27.1467 41.1174 24.48L40.9254 13.792C40.904 12.896 41.0107 12.2027 41.2454 11.712C41.5014 11.2213 41.8427 10.88 42.2694 10.688C42.696 10.496 43.144 10.4 43.6134 10.4C44.104 10.4 44.552 10.4853 44.9574 10.656ZM72.0454 27.712C72.5574 27.712 72.8347 28.448 72.8774 29.92C72.8774 30.6027 72.8027 31.1573 72.6534 31.584C72.504 32.0107 72.3014 32.224 72.0454 32.224C69.7414 32.224 68.2054 31.3493 67.4374 29.6C66.7974 31.3493 65.592 32.224 63.8214 32.224C61.88 32.224 60.6107 31.392 60.0134 29.728C59.3094 31.392 58.008 32.224 56.1094 32.224C55.2347 32.224 54.456 32.0107 53.7734 31.584C53.112 31.136 52.6534 30.5173 52.3974 29.728C51.6507 31.392 50.0614 32.224 47.6294 32.224C47.0534 32.224 46.776 31.456 46.7974 29.92C46.7974 29.2587 46.872 28.7253 47.0214 28.32C47.1494 27.9147 47.352 27.712 47.6294 27.712C48.5894 27.712 49.2614 27.5413 49.6454 27.2C50.0294 26.8373 50.2214 26.304 50.2214 25.6C50.2214 24.9173 50.2 24.2133 50.1574 23.488C50.1574 22.9333 50.3494 22.4853 50.7334 22.144C51.1174 21.7813 51.64 21.6 52.3014 21.6C52.92 21.6 53.4107 21.7387 53.7734 22.016V24.032C53.7734 25.376 53.9654 26.3253 54.3494 26.88C54.7334 27.4347 55.32 27.712 56.1094 27.712C57.368 27.712 57.9654 27.0293 57.9014 25.664C57.9014 24.9173 57.8907 24.1813 57.8694 23.456C57.8694 22.368 58.5734 21.76 59.9814 21.632C60.6214 21.632 61.112 21.76 61.4534 22.016V24.064C61.4534 25.4293 61.6347 26.3787 61.9974 26.912C62.36 27.4453 62.904 27.712 63.6294 27.712C64.76 27.712 65.3147 26.9653 65.2934 25.472C65.2934 24.2773 65.2614 23.2107 65.1974 22.272C65.1974 21.0773 65.9227 20.4267 67.3734 20.32C67.992 20.32 68.472 20.4587 68.8134 20.736V23.776C68.8134 25.248 69.0694 26.272 69.5814 26.848C70.1147 27.424 70.936 27.712 72.0454 27.712ZM91.9796 27.712H94.5076C95.0836 27.712 95.361 28.4373 95.3396 29.888C95.3396 31.36 95.0623 32.1387 94.5076 32.224H93.5796C91.4676 32.224 89.8143 31.776 88.6196 30.88C87.425 29.984 86.6463 28.5013 86.2836 26.432L85.4196 27.296C83.7343 29.088 81.9103 30.3573 79.9476 31.104C78.0063 31.8507 75.5956 32.224 72.7156 32.224H71.6276C71.0516 32.224 70.7743 31.4453 70.7956 29.888C70.7956 29.248 70.8703 28.7253 71.0196 28.32C71.169 27.9147 71.3716 27.712 71.6276 27.712H73.7716C76.225 27.712 78.177 27.5413 79.6276 27.2C81.0996 26.8373 82.4756 26.176 83.7556 25.216C84.6943 24.512 85.4303 23.9787 85.9636 23.616C85.665 23.488 84.9716 23.136 83.8836 22.56C83.0516 22.1333 82.273 21.8027 81.5476 21.568C80.8223 21.3333 80.065 21.216 79.2756 21.216C78.1876 21.216 77.3343 21.44 76.7156 21.888C76.1183 22.336 75.745 22.9013 75.5956 23.584C75.361 23.6693 75.1263 23.712 74.8916 23.712C74.4863 23.712 74.081 23.5093 73.6756 23.104C73.2703 22.6987 73.0676 22.1333 73.0676 21.408C73.0676 20.5333 73.3983 19.6907 74.0596 18.88C74.5503 18.2827 75.2223 17.8027 76.0756 17.44C76.9503 17.0773 77.953 16.896 79.0836 16.896C80.065 16.896 81.025 17.056 81.9636 17.376C82.9236 17.6747 83.969 18.112 85.0996 18.688C87.1903 19.7973 89.1316 20.352 90.9236 20.352C91.4783 20.352 92.001 20.3307 92.4916 20.288C92.641 20.6933 92.7156 21.184 92.7156 21.76C92.7156 22.8053 92.353 23.7013 91.6276 24.448H90.4116C89.7076 24.448 89.057 24.5867 88.4596 24.864C88.5876 25.9307 88.9183 26.6773 89.4516 27.104C89.985 27.5093 90.8276 27.712 91.9796 27.712ZM94.0946 27.712H94.4786C95.2253 27.712 95.812 27.4987 96.2386 27.072C96.6653 26.624 96.8786 25.7813 96.8786 24.544C96.8786 22.4533 96.8466 20.4693 96.7826 18.592C96.7186 16.6933 96.6866 15.0293 96.6866 13.6C96.6866 11.3173 97.5506 10.2293 99.2786 10.336C99.8333 10.336 100.324 10.4 100.751 10.528V24.256C100.751 27.1147 100.228 29.1627 99.1826 30.4C98.1586 31.616 96.6973 32.224 94.7986 32.224H94.0946C93.5186 32.224 93.2413 31.4453 93.2626 29.888C93.2626 28.544 93.54 27.8187 94.0946 27.712ZM104.774 32.096L104.582 13.792C104.582 12.4907 104.817 11.5947 105.286 11.104C105.755 10.6133 106.385 10.368 107.174 10.368C107.75 10.368 108.241 10.4427 108.646 10.592V28.064C108.646 29.6853 108.454 30.816 108.07 31.456C107.686 32.0747 107.067 32.384 106.214 32.384C105.638 32.384 105.158 32.288 104.774 32.096ZM135.528 11.584C134.952 11.584 134.376 11.4347 133.8 11.136C133.523 10.56 133.384 10.0053 133.384 9.472C133.384 8.768 133.587 8.23467 133.992 7.872C134.419 7.488 134.963 7.296 135.624 7.296C136.2 7.296 136.776 7.43467 137.352 7.712C137.587 8.30933 137.704 8.85333 137.704 9.344C137.704 10.0267 137.512 10.5707 137.128 10.976C136.766 11.3813 136.232 11.584 135.528 11.584ZM135.752 12.736C137.758 12.736 139.4 13.568 140.68 15.232C141.96 16.8747 142.6 19.2427 142.6 22.336C142.6 24.6187 142.163 26.5173 141.288 28.032C140.435 29.5467 139.048 30.6773 137.128 31.424C135.208 32.1707 132.659 32.544 129.48 32.544H128.264C124.318 32.544 121.47 31.84 119.72 30.432C117.992 29.0027 117.128 26.9867 117.128 24.384C117.128 22.848 117.502 21.632 118.248 20.736C118.995 19.84 119.774 19.392 120.584 19.392C121.075 19.392 121.48 19.5413 121.8 19.84C121.566 20.2453 121.363 20.7253 121.192 21.28C121.043 21.8133 120.968 22.4107 120.968 23.072C120.968 24.928 121.523 26.2293 122.632 26.976C123.763 27.7013 125.8 28.064 128.744 28.064H129.48C132.958 28.064 135.39 27.7227 136.776 27.04C138.163 26.3573 138.974 25.3227 139.208 23.936C138.526 24.6827 137.395 25.056 135.816 25.056C134.067 25.056 132.595 24.512 131.4 23.424C130.206 22.3147 129.608 20.864 129.608 19.072C129.608 17.3227 130.174 15.8293 131.304 14.592C132.456 13.3547 133.939 12.736 135.752 12.736ZM136.072 21.376C137.267 21.376 138.259 21.1627 139.048 20.736C138.963 19.4133 138.6 18.3787 137.96 17.632C137.342 16.864 136.531 16.48 135.528 16.48C134.696 16.48 134.014 16.7253 133.48 17.216C132.968 17.7067 132.712 18.304 132.712 19.008C132.712 20.48 133.832 21.2693 136.072 21.376ZM155.963 9.664C156.198 10.2613 156.315 10.8053 156.315 11.296C156.315 11.9787 156.123 12.5227 155.739 12.928C155.377 13.3333 154.843 13.536 154.139 13.536C153.563 13.536 152.987 13.3867 152.411 13.088C152.134 12.512 151.995 11.9573 151.995 11.424C151.995 10.7413 152.198 10.2187 152.603 9.856C153.03 9.472 153.574 9.28 154.235 9.28C154.79 9.28 155.366 9.408 155.963 9.664ZM145.115 27.104C145.115 26.016 145.382 25.2053 145.915 24.672C146.449 24.1173 147.003 23.84 147.579 23.84C147.963 23.84 148.273 23.904 148.507 24.032C148.379 24.352 148.315 24.7573 148.315 25.248C148.315 26.016 148.582 26.6347 149.115 27.104C149.649 27.552 150.534 27.776 151.771 27.776C153.734 27.776 155.121 27.3813 155.931 26.592L152.699 20.032C152.123 19.0293 151.835 18.208 151.835 17.568C151.835 16.9707 152.059 16.4373 152.507 15.968C152.955 15.4987 153.574 15.264 154.363 15.264C154.875 15.264 155.323 15.3493 155.707 15.52L158.843 23.968C159.377 25.4187 159.91 26.4107 160.443 26.944C160.998 27.456 161.702 27.712 162.555 27.712C163.131 27.712 163.409 28.4373 163.387 29.888C163.387 31.36 163.11 32.1387 162.555 32.224C160.486 32.224 158.875 31.424 157.723 29.824C157.126 30.592 156.326 31.2 155.323 31.648C154.321 32.096 153.115 32.32 151.707 32.32C149.51 32.32 147.857 31.8187 146.747 30.816C145.659 29.8133 145.115 28.576 145.115 27.104ZM161.316 29.984C161.316 28.5333 161.594 27.776 162.148 27.712H165.092C166.948 27.712 168.527 27.584 169.828 27.328C171.13 27.072 172.356 26.6773 173.508 26.144C174.49 25.6747 175.162 25.3653 175.524 25.216C175.908 25.0667 176.207 24.9707 176.42 24.928C176.036 24.8 175.172 24.2987 173.828 23.424C173.018 22.8693 172.282 22.4533 171.62 22.176C170.959 21.8987 170.234 21.76 169.444 21.76C168.463 21.76 167.663 21.984 167.044 22.432C166.426 22.8587 166.042 23.3813 165.892 24C165.658 24.0853 165.423 24.128 165.188 24.128C164.762 24.1067 164.367 23.904 164.004 23.52C163.642 23.1147 163.46 22.5493 163.46 21.824C163.46 21.0133 163.77 20.2027 164.388 19.392C165.476 18.0693 167.119 17.408 169.316 17.408C171.343 17.408 173.583 18.2933 176.036 20.064C177.487 21.0453 178.596 21.7067 179.364 22.048C180.132 22.3893 180.89 22.56 181.636 22.56C182.148 22.56 182.607 22.5387 183.012 22.496C183.119 22.7947 183.172 23.232 183.172 23.808C183.172 25.024 182.799 25.9627 182.052 26.624C181.647 26.56 181.22 26.528 180.772 26.528C179.151 26.528 177.007 27.4133 174.34 29.184C172.698 30.2293 171.055 30.9973 169.412 31.488C167.791 31.9787 165.743 32.224 163.268 32.224H162.148C161.572 32.224 161.295 31.4773 161.316 29.984Z" fill="#FF0000"/>
<path d="M35.4499 16.448L37.0376 15.2318L36.3441 14.3263L35.2116 14.4622L35.4499 16.448ZM37.2739 19.872L35.3862 20.5327L35.391 20.5466L35.3961 20.5605L37.2739 19.872ZM36.6979 28.64L35.0173 27.5557L35.0128 27.5627L36.6979 28.64ZM32.6659 31.616L33.3372 33.5L33.3467 33.4966L33.3563 33.4931L32.6659 31.616ZM15.5139 30.496L14.2391 32.0371L14.2494 32.0456L14.2599 32.054L15.5139 30.496ZM14.0419 20.8L15.5783 22.0804L15.5857 22.0715L15.593 22.0625L14.0419 20.8ZM17.5939 19.904L19.3247 20.9061L20.0946 19.5763L19.0081 18.4898L17.5939 19.904ZM16.9859 21.312L15.081 20.7024L15.0698 20.7374L15.0599 20.7727L16.9859 21.312ZM18.4259 27.008L17.3314 28.6819L17.3386 28.6867L17.346 28.6914L18.4259 27.008ZM30.7139 27.648L31.1613 29.5973L31.1764 29.5938L31.1915 29.5901L30.7139 27.648ZM33.4339 26.272L31.942 24.94L31.9285 24.9551L31.9154 24.9704L33.4339 26.272ZM33.2739 21.184L35.0348 20.2358L34.9875 20.1478L34.9316 20.0651L33.2739 21.184ZM33.1139 17.376L34.5281 18.7902V18.7902L33.1139 17.376ZM26.4899 34.24L28.3599 33.5307L28.0641 32.751L27.3022 32.4124L26.4899 34.24ZM26.2659 37.536L24.814 36.1605L24.7944 36.1812L24.7754 36.2024L26.2659 37.536ZM22.9379 37.696L21.1359 38.5636L21.4252 39.1645L22.0172 39.4715L22.9379 37.696ZM23.1299 34.4L21.8346 32.8761L21.7935 32.911L21.7544 32.9481L23.1299 34.4ZM33.8621 17.6642C34.4922 18.4867 35.003 19.4378 35.3862 20.5327L39.1616 19.2113C38.6488 17.7462 37.9436 16.4146 37.0376 15.2318L33.8621 17.6642ZM35.3961 20.5605C35.7871 21.6269 35.9779 22.6955 35.9779 23.776H39.9779C39.9779 22.2112 39.6993 20.6771 39.1516 19.1835L35.3961 20.5605ZM35.9779 23.776C35.9779 25.3965 35.6203 26.621 35.0173 27.5557L38.3785 29.7243C39.4821 28.0137 39.9779 25.9955 39.9779 23.776H35.9779ZM35.0128 27.5627C34.475 28.404 33.5374 29.1644 31.9755 29.7389L33.3563 33.4931C35.5064 32.7022 37.2568 31.4787 38.3829 29.7173L35.0128 27.5627ZM31.9946 29.732C30.4398 30.286 28.2304 30.608 25.2739 30.608V34.608C28.4614 34.608 31.18 34.2686 33.3372 33.5L31.9946 29.732ZM25.2739 30.608H24.0579V34.608H25.2739V30.608ZM24.0579 30.608C20.2576 30.608 17.9787 29.9125 16.7679 28.938L14.2599 32.054C16.5477 33.8955 19.9649 34.608 24.0579 34.608V30.608ZM16.7886 28.9549C15.6004 27.972 14.9219 26.5568 14.9219 24.416H10.9219C10.9219 27.5232 11.9714 30.1613 14.2391 32.0371L16.7886 28.9549ZM14.9219 24.416C14.9219 23.2273 15.2109 22.5212 15.5783 22.0804L12.5054 19.5196C11.3795 20.8708 10.9219 22.5754 10.9219 24.416H14.9219ZM15.593 22.0625C15.8602 21.7342 16.0685 21.5693 16.2009 21.4913C16.3189 21.4218 16.3693 21.424 16.3779 21.424V17.424C14.7288 17.424 13.4371 18.3748 12.4907 19.5375L15.593 22.0625ZM16.3779 21.424C16.4033 21.424 16.3743 21.4275 16.3155 21.4043C16.2536 21.3799 16.2057 21.3443 16.1797 21.3182L19.0081 18.4898C18.2795 17.7612 17.3497 17.424 16.3779 17.424V21.424ZM15.863 18.9019C15.5441 19.4528 15.2872 20.0581 15.081 20.7024L18.8907 21.9216C19.0259 21.4993 19.1743 21.1659 19.3247 20.9061L15.863 18.9019ZM15.0599 20.7727C14.853 21.5117 14.7619 22.2945 14.7619 23.104H18.7619C18.7619 22.5908 18.82 22.179 18.9118 21.8513L15.0599 20.7727ZM14.7619 23.104C14.7619 25.3508 15.4418 27.4464 17.3314 28.6819L19.5204 25.3341C19.1913 25.1189 18.7619 24.6119 18.7619 23.104H14.7619ZM17.346 28.6914C19.006 29.7563 21.5697 30.096 24.5379 30.096V26.096C21.6181 26.096 20.1071 25.7103 19.5058 25.3246L17.346 28.6914ZM24.5379 30.096H25.2739V26.096H24.5379V30.096ZM25.2739 30.096C27.6565 30.096 29.6439 29.9456 31.1613 29.5973L30.2665 25.6987C29.1812 25.9478 27.542 26.096 25.2739 26.096V30.096ZM31.1915 29.5901C32.6424 29.2333 34.0368 28.6418 34.9524 27.5736L31.9154 24.9704C31.807 25.0969 31.388 25.4227 30.2363 25.7059L31.1915 29.5901ZM34.9257 27.604C35.809 26.6148 36.2339 25.4056 36.2339 24.096H32.2339C32.2339 24.4931 32.1254 24.7345 31.942 24.94L34.9257 27.604ZM36.2339 24.096C36.2339 23.3678 36.1062 22.6568 35.8468 21.976L32.1089 23.4C32.1909 23.6152 32.2339 23.8428 32.2339 24.096H36.2339ZM35.8468 21.976C35.6375 21.4265 35.3626 20.8446 35.0348 20.2358L31.5129 22.1322C31.7825 22.6327 31.9769 23.0535 32.1089 23.4L35.8468 21.976ZM34.9316 20.0651C34.4637 19.3719 34.4099 19.0094 34.4099 18.912H30.4099C30.4099 20.1373 30.9321 21.2894 31.6162 22.3029L34.9316 20.0651ZM34.4099 18.912C34.4099 18.9156 34.4094 18.9237 34.4072 18.9337C34.405 18.9436 34.4028 18.948 34.404 18.9453C34.4064 18.9402 34.4322 18.8861 34.5281 18.7902L31.6997 15.9618C30.9343 16.7272 30.4099 17.7247 30.4099 18.912H34.4099ZM34.5281 18.7902C34.5697 18.7486 34.8362 18.536 35.6882 18.4338L35.2116 14.4622C33.9302 14.616 32.6393 15.0221 31.6997 15.9618L34.5281 18.7902ZM24.7619 35.856C25.0326 35.856 25.333 35.9145 25.6776 36.0676L27.3022 32.4124C26.4948 32.0535 25.6432 31.856 24.7619 31.856V35.856ZM24.6199 34.9493C24.7967 35.4154 24.8419 35.7239 24.8419 35.904H28.8419C28.8419 35.1027 28.6524 34.3019 28.3599 33.5307L24.6199 34.9493ZM24.8419 35.904C24.8419 36.0591 24.82 36.1353 24.8119 36.1584C24.806 36.1749 24.8067 36.1682 24.814 36.1605L27.7178 38.9115C28.5285 38.0557 28.8419 36.9782 28.8419 35.904H24.8419ZM24.7754 36.2024C24.7898 36.1863 24.8091 36.1689 24.8317 36.1533C24.854 36.138 24.8715 36.1301 24.8788 36.1273C24.8922 36.1221 24.8442 36.144 24.6979 36.144V40.144C25.7936 40.144 26.9214 39.8027 27.7564 38.8696L24.7754 36.2024ZM24.6979 36.144C24.4481 36.144 24.1751 36.0847 23.8585 35.9205L22.0172 39.4715C22.8526 39.9047 23.753 40.144 24.6979 40.144V36.144ZM24.7399 36.8284C24.5673 36.4699 24.5219 36.2111 24.5219 36.032H20.5219C20.5219 36.9196 20.7538 37.7701 21.1359 38.5636L24.7399 36.8284ZM24.5219 36.032C24.5219 35.8692 24.5455 35.801 24.548 35.7942C24.5491 35.7914 24.5462 35.7997 24.5368 35.8141C24.5272 35.8287 24.5159 35.8419 24.5054 35.8519L21.7544 32.9481C20.8519 33.803 20.5219 34.931 20.5219 36.032H24.5219ZM24.4252 35.9239C24.427 35.9224 24.4849 35.856 24.7619 35.856V31.856C23.7162 31.856 22.6861 32.1523 21.8346 32.8761L24.4252 35.9239ZM44.9574 10.656H46.9574V9.32805L45.7335 8.81273L44.9574 10.656ZM45.5334 26.752L43.8184 27.781L43.8308 27.8017L43.8437 27.8221L45.5334 26.752ZM48.9254 29.888L46.9256 29.8586L46.9254 29.8733V29.888H48.9254ZM48.0294 32.224V34.224H48.1715L48.3122 34.2039L48.0294 32.224ZM42.5574 30.368L40.9411 31.546L40.9524 31.5615L40.964 31.5768L42.5574 30.368ZM41.1174 24.48L43.1171 24.448L43.1171 24.4441L41.1174 24.48ZM40.9254 13.792L42.9251 13.7561L42.9248 13.7444L40.9254 13.792ZM41.2454 11.712L39.4722 10.7869L39.4561 10.8177L39.4411 10.8491L41.2454 11.712ZM42.9574 10.656V23.264H46.9574V10.656H42.9574ZM42.9574 23.264C42.9574 24.9609 43.1256 26.6264 43.8184 27.781L47.2484 25.723C47.2495 25.725 47.2234 25.6808 47.1865 25.5653C47.1502 25.4516 47.1105 25.2912 47.0746 25.0741C47.0022 24.6354 46.9574 24.0398 46.9574 23.264H42.9574ZM43.8437 27.8221C44.7394 29.2363 46.2364 29.712 47.6774 29.712V25.712C47.3642 25.712 47.2248 25.6619 47.1907 25.6466C47.1765 25.6403 47.1824 25.641 47.197 25.6535C47.2119 25.6663 47.2209 25.6786 47.223 25.6819L43.8437 27.8221ZM47.6774 29.712H48.0294V25.712H47.6774V29.712ZM48.0294 29.712C47.7619 29.712 47.4528 29.6223 47.1929 29.4168C46.9625 29.2346 46.8809 29.0489 46.868 29.0175C46.8549 28.9857 46.8769 29.0279 46.8974 29.1889C46.9171 29.343 46.93 29.5621 46.9256 29.8586L50.9252 29.9174C50.937 29.1122 50.8732 28.2389 50.5667 27.4945C50.4045 27.1005 50.1336 26.6427 49.6738 26.2792C49.1846 25.8923 48.6062 25.712 48.0294 25.712V29.712ZM46.9254 29.888C46.9254 30.1923 46.9097 30.4259 46.8868 30.5989C46.8754 30.6842 46.8632 30.748 46.8525 30.7934C46.8473 30.8158 46.8427 30.8323 46.8393 30.8437C46.8359 30.855 46.8339 30.8601 46.834 30.8598C46.8341 30.8594 46.8368 30.8526 46.8427 30.8403C46.8487 30.828 46.8585 30.8093 46.8731 30.7856C46.9021 30.7386 46.9528 30.6677 47.0331 30.5903C47.2135 30.4164 47.466 30.2842 47.7465 30.2441L48.3122 34.2039C49.5936 34.0208 50.2718 33.0663 50.5687 32.2922C50.8486 31.5626 50.9254 30.7109 50.9254 29.888H46.9254ZM48.0294 30.224H47.1014V34.224H48.0294V30.224ZM47.1014 30.224C45.4028 30.224 44.5895 29.7376 44.1508 29.1592L40.964 31.5768C42.4026 33.4731 44.6186 34.224 47.1014 34.224V30.224ZM44.1737 29.19C43.618 28.4276 43.1574 26.9647 43.1171 24.448L39.1176 24.512C39.1627 27.3286 39.6621 29.7911 40.9411 31.546L44.1737 29.19ZM43.1171 24.4441L42.9251 13.7561L38.9257 13.8279L39.1177 24.5159L43.1171 24.4441ZM42.9248 13.7444C42.9067 12.9832 43.0115 12.6547 43.0496 12.5749L39.4411 10.8491C39.0099 11.7506 38.9014 12.8088 38.9259 13.8396L42.9248 13.7444ZM43.0185 12.6371C43.066 12.5462 43.1 12.5098 43.1076 12.5022C43.1115 12.4983 43.111 12.4993 43.1062 12.5027C43.1012 12.5062 43.0954 12.5095 43.0901 12.5118L41.4486 8.86416C40.5411 9.27255 39.8964 9.97387 39.4722 10.7869L43.0185 12.6371ZM43.0901 12.5118C43.2579 12.4363 43.4261 12.4 43.6134 12.4V8.4C42.862 8.4 42.1342 8.55567 41.4486 8.86416L43.0901 12.5118ZM43.6134 12.4C43.8683 12.4 44.0485 12.4434 44.1813 12.4993L45.7335 8.81273C45.0556 8.52728 44.3397 8.4 43.6134 8.4V12.4ZM72.8774 29.92H74.8774V29.891L74.8765 29.8621L72.8774 29.92ZM72.6534 31.584L74.5411 32.2447L74.5411 32.2447L72.6534 31.584ZM67.4374 29.6L69.2687 28.796L67.2686 24.2403L65.5591 28.9128L67.4374 29.6ZM60.0134 29.728L61.8958 29.0523L60.1661 24.234L58.1714 28.9487L60.0134 29.728ZM53.7734 31.584L52.6517 33.2398L52.6822 33.2605L52.7134 33.28L53.7734 31.584ZM52.3974 29.728L54.2998 29.111L52.6981 24.1724L50.5727 28.9092L52.3974 29.728ZM46.7974 29.92L48.7972 29.9478L48.7974 29.9339V29.92H46.7974ZM47.0214 28.32L48.8981 29.0114L48.9143 28.9672L48.9285 28.9223L47.0214 28.32ZM49.6454 27.2L50.9741 28.6948L50.9967 28.6748L51.0186 28.654L49.6454 27.2ZM50.1574 23.488H48.1574V23.5468L48.1608 23.6054L50.1574 23.488ZM50.7334 22.144L52.0621 23.6388L52.0847 23.6188L52.1066 23.598L50.7334 22.144ZM53.7734 22.016H55.7734V21.0277L54.9883 20.4273L53.7734 22.016ZM54.3494 26.88L55.9938 25.7416V25.7416L54.3494 26.88ZM57.9014 25.664H55.9014V25.7108L55.9036 25.7576L57.9014 25.664ZM57.8694 23.456H55.8694V23.4854L55.8702 23.5148L57.8694 23.456ZM59.9814 21.632V19.632H59.8907L59.8003 19.6402L59.9814 21.632ZM61.4534 22.016H63.4534V21.016L62.6534 20.416L61.4534 22.016ZM61.9974 26.912L63.6512 25.7874V25.7874L61.9974 26.912ZM65.2934 25.472H63.2934V25.4863L63.2936 25.5006L65.2934 25.472ZM65.1974 22.272H63.1974V22.3401L63.202 22.408L65.1974 22.272ZM67.3734 20.32V18.32H67.2999L67.2267 18.3254L67.3734 20.32ZM68.8134 20.736H70.8134V19.7841L70.0746 19.1838L68.8134 20.736ZM69.5814 26.848L68.0866 28.1767L68.1 28.1919L68.1138 28.2068L69.5814 26.848ZM72.0454 29.712C71.8637 29.712 71.6675 29.6781 71.4742 29.5997C71.2827 29.5219 71.1322 29.416 71.0214 29.3128C70.9139 29.2125 70.8489 29.1197 70.814 29.0624C70.7792 29.0052 70.766 28.9695 70.7658 28.9692C70.7654 28.968 70.7731 28.9885 70.7846 29.037C70.7959 29.0848 70.8091 29.1517 70.8221 29.2409C70.8482 29.4215 70.8691 29.6639 70.8782 29.9779L74.8765 29.8621C74.8534 29.0626 74.7667 28.2428 74.5089 27.5588C74.2596 26.897 73.5538 25.712 72.0454 25.712V29.712ZM70.8774 29.92C70.8774 30.4805 70.813 30.7882 70.7657 30.9233L74.5411 32.2447C74.7925 31.5265 74.8774 30.7248 74.8774 29.92H70.8774ZM70.7657 30.9233C70.7393 30.9985 70.7695 30.8653 70.9394 30.6865C71.0339 30.587 71.1795 30.4656 71.3839 30.3706C71.5941 30.2728 71.8216 30.224 72.0454 30.224V34.224C73.6951 34.224 74.3477 32.7971 74.5411 32.2447L70.7657 30.9233ZM72.0454 30.224C71.1379 30.224 70.5434 30.0512 70.155 29.83C69.7915 29.623 69.4946 29.3107 69.2687 28.796L65.6061 30.404C66.1481 31.6386 67.0033 32.6383 68.1757 33.306C69.3233 33.9595 70.6488 34.224 72.0454 34.224V30.224ZM65.5591 28.9128C65.3414 29.5078 65.087 29.7981 64.8787 29.9493C64.6784 30.0947 64.3667 30.224 63.8214 30.224V34.224C65.0468 34.224 66.223 33.916 67.228 33.1867C68.225 32.4632 68.8933 31.4415 69.3156 30.2872L65.5591 28.9128ZM63.8214 30.224C63.1323 30.224 62.7388 30.0774 62.5098 29.9273C62.2961 29.7872 62.0728 29.5454 61.8958 29.0523L58.131 30.4037C58.5513 31.5746 59.2613 32.5808 60.317 33.2727C61.3573 33.9546 62.5691 34.224 63.8214 34.224V30.224ZM58.1714 28.9487C57.9495 29.4733 57.6873 29.7518 57.432 29.915C57.1698 30.0826 56.7647 30.224 56.1094 30.224V34.224C57.3527 34.224 58.5476 33.9494 59.5867 33.285C60.6328 32.6162 61.3733 31.6467 61.8553 30.5073L58.1714 28.9487ZM56.1094 30.224C55.5759 30.224 55.1708 30.0989 54.8334 29.888L52.7134 33.28C53.7413 33.9224 54.8935 34.224 56.1094 34.224V30.224ZM54.8951 29.9282C54.6175 29.7401 54.4242 29.4945 54.2998 29.111L50.4949 30.345C50.8825 31.5402 51.6066 32.5319 52.6517 33.2398L54.8951 29.9282ZM50.5727 28.9092C50.2598 29.6065 49.587 30.224 47.6294 30.224V34.224C50.5357 34.224 53.0417 33.1775 54.2221 30.5468L50.5727 28.9092ZM47.6294 30.224C47.7839 30.224 47.9608 30.2506 48.1427 30.3203C48.3246 30.39 48.475 30.4887 48.5913 30.5934C48.7043 30.6951 48.7744 30.7924 48.8139 30.8571C48.853 30.9211 48.8685 30.9633 48.8705 30.9687C48.8717 30.9722 48.8464 30.8982 48.8251 30.7071C48.8047 30.5232 48.7927 30.2737 48.7972 29.9478L44.7976 29.8922C44.786 30.7273 44.8444 31.5965 45.1083 32.3273C45.2451 32.7062 45.4825 33.1769 45.9154 33.5666C46.3908 33.9944 46.9932 34.224 47.6294 34.224V30.224ZM48.7974 29.92C48.7974 29.3827 48.8616 29.1103 48.8981 29.0114L45.1447 27.6286C44.8824 28.3404 44.7974 29.1346 44.7974 29.92H48.7974ZM48.9285 28.9223C48.9389 28.8895 48.8926 29.0692 48.6836 29.2782C48.5701 29.3917 48.4138 29.5078 48.2133 29.5925C48.0115 29.6777 47.8098 29.712 47.6294 29.712V25.712C46.9408 25.712 46.3175 25.9874 45.8552 26.4498C45.4434 26.8615 45.2318 27.3452 45.1142 27.7177L48.9285 28.9223ZM47.6294 29.712C48.7037 29.712 50.0169 29.5456 50.9741 28.6948L48.3166 25.7052C48.4327 25.602 48.4903 25.6127 48.3611 25.6455C48.2342 25.6777 48.0019 25.712 47.6294 25.712V29.712ZM51.0186 28.654C51.923 27.7999 52.2214 26.6633 52.2214 25.6H48.2214C48.2214 25.7748 48.197 25.8466 48.1956 25.8506C48.1954 25.8512 48.2005 25.8371 48.215 25.8145C48.2299 25.7914 48.2494 25.7674 48.2721 25.746L51.0186 28.654ZM52.2214 25.6C52.2214 24.8758 52.1987 24.1325 52.1539 23.3706L48.1608 23.6054C48.2013 24.2941 48.2214 24.9589 48.2214 25.6H52.2214ZM52.1574 23.488C52.1574 23.4443 52.1641 23.4668 52.1397 23.5238C52.1282 23.5505 52.1135 23.5763 52.097 23.5989C52.0807 23.6213 52.0672 23.6343 52.0621 23.6388L49.4046 20.6492C48.5568 21.4028 48.1574 22.4133 48.1574 23.488H52.1574ZM52.1066 23.598C52.0975 23.6066 52.0868 23.6148 52.0764 23.621C52.0662 23.6271 52.0624 23.6278 52.0689 23.6255C52.0828 23.6207 52.1515 23.6 52.3014 23.6V19.6C51.2641 19.6 50.2029 19.894 49.3601 20.69L52.1066 23.598ZM52.3014 23.6C52.6352 23.6 52.65 23.6747 52.5585 23.6047L54.9883 20.4273C54.1714 19.8026 53.2049 19.6 52.3014 19.6V23.6ZM51.7734 22.016V24.032H55.7734V22.016H51.7734ZM51.7734 24.032C51.7734 25.4474 51.9527 26.9317 52.705 28.0184L55.9938 25.7416C56.0083 25.7625 55.9415 25.671 55.8777 25.3555C55.816 25.0506 55.7734 24.6179 55.7734 24.032H51.7734ZM52.705 28.0184C53.5301 29.2102 54.7921 29.712 56.1094 29.712V25.712C55.9475 25.712 55.9067 25.6838 55.9321 25.6959C55.9442 25.7016 55.9609 25.7117 55.977 25.7255C55.9927 25.739 55.9976 25.7472 55.9938 25.7416L52.705 28.0184ZM56.1094 29.712C57.0829 29.712 58.1979 29.4411 59.0065 28.517C59.7836 27.6289 59.9434 26.5127 59.8992 25.5704L55.9036 25.7576C55.9127 25.9532 55.8935 26.0422 55.8899 26.056C55.8886 26.0612 55.9094 25.9822 55.9962 25.883C56.0376 25.8357 56.0843 25.7953 56.1316 25.7635C56.1783 25.7322 56.2167 25.7151 56.239 25.7069C56.2791 25.6922 56.2498 25.712 56.1094 25.712V29.712ZM59.9014 25.664C59.9014 24.8983 59.8904 24.1427 59.8685 23.3972L55.8702 23.5148C55.891 24.22 55.9014 24.9364 55.9014 25.664H59.9014ZM59.8694 23.456C59.8694 23.3993 59.8783 23.4251 59.8486 23.4968C59.8156 23.5763 59.7611 23.6489 59.7046 23.6976C59.6555 23.7401 59.6426 23.732 59.7155 23.7066C59.791 23.6803 59.9325 23.6447 60.1624 23.6238L59.8003 19.6402C58.8837 19.7235 57.8841 19.9846 57.0901 20.6704C56.222 21.4201 55.8694 22.4397 55.8694 23.456H59.8694ZM59.9814 23.632C60.1733 23.632 60.2805 23.6517 60.3245 23.6632C60.365 23.6738 60.3257 23.6702 60.2534 23.616L62.6534 20.416C61.8312 19.7994 60.8485 19.632 59.9814 19.632V23.632ZM59.4534 22.016V24.064H63.4534V22.016H59.4534ZM59.4534 24.064C59.4534 25.4699 59.614 26.9638 60.3435 28.0366L63.6512 25.7874C63.6805 25.8304 63.6165 25.7525 63.5539 25.4248C63.4943 25.1127 63.4534 24.6678 63.4534 24.064H59.4534ZM60.3435 28.0366C61.1297 29.1927 62.3382 29.712 63.6294 29.712V25.712C63.5702 25.712 63.5392 25.7065 63.5306 25.7047C63.523 25.7031 63.5345 25.7048 63.5577 25.7162C63.5815 25.7278 63.6059 25.744 63.6266 25.7623C63.6468 25.7801 63.6541 25.7916 63.6512 25.7874L60.3435 28.0366ZM63.6294 29.712C64.6745 29.712 65.7614 29.3373 66.4989 28.3446C67.1547 27.4618 67.3066 26.3828 67.2932 25.4434L63.2936 25.5006C63.2972 25.7545 63.2747 25.9092 63.2558 25.9888C63.2374 26.0659 63.2314 26.0354 63.2879 25.9594C63.3166 25.9207 63.3563 25.8775 63.4075 25.8364C63.4588 25.7953 63.5114 25.7646 63.5592 25.7434C63.6547 25.7012 63.6947 25.712 63.6294 25.712V29.712ZM67.2934 25.472C67.2934 24.2434 67.2605 23.13 67.1927 22.136L63.202 22.408C63.2622 23.2913 63.2934 24.3113 63.2934 25.472H67.2934ZM67.1974 22.272C67.1974 22.1737 67.2124 22.1648 67.1947 22.2096C67.1735 22.2636 67.1316 22.3277 67.0769 22.3768C67.0284 22.4203 67.0122 22.414 67.0788 22.3909C67.1493 22.3663 67.2882 22.3317 67.52 22.3146L67.2267 18.3254C66.2679 18.3959 65.2252 18.6643 64.4059 19.3992C63.5269 20.1877 63.1974 21.2455 63.1974 22.272H67.1974ZM67.3734 22.32C67.5376 22.32 67.6196 22.3389 67.6423 22.3454C67.6595 22.3504 67.6162 22.3402 67.5522 22.2882L70.0746 19.1838C69.2563 18.5189 68.2676 18.32 67.3734 18.32V22.32ZM66.8134 20.736V23.776H70.8134V20.736H66.8134ZM66.8134 23.776C66.8134 25.3485 67.0602 27.0221 68.0866 28.1767L71.0762 25.5193C71.099 25.5449 71.0229 25.4718 70.9457 25.1629C70.8694 24.8581 70.8134 24.4075 70.8134 23.776H66.8134ZM68.1138 28.2068C69.1606 29.3373 70.6146 29.712 72.0454 29.712V25.712C71.2575 25.712 71.0688 25.5107 71.0489 25.4892L68.1138 28.2068ZM95.3396 29.888L93.3398 29.8586L93.3396 29.8733V29.888H95.3396ZM94.5076 32.224V34.224H94.6606L94.8117 34.2007L94.5076 32.224ZM88.6196 30.88L87.4196 32.48L88.6196 30.88ZM86.2836 26.432L88.2536 26.0867L87.5895 22.2977L84.8694 25.0178L86.2836 26.432ZM85.4196 27.296L84.0054 25.8818L83.9837 25.9035L83.9627 25.9258L85.4196 27.296ZM79.9476 31.104L79.2365 29.2347L79.2297 29.2373L79.9476 31.104ZM70.7956 29.888L72.7954 29.9154L72.7956 29.9017V29.888H70.7956ZM71.0196 28.32L69.1429 27.6286L71.0196 28.32ZM79.6276 27.2L80.0857 29.1468L80.0959 29.1444L80.1061 29.1419L79.6276 27.2ZM83.7556 25.216L82.5556 23.616L83.7556 25.216ZM85.9636 23.616L87.0882 25.2699L90.1082 23.2163L86.7515 21.7777L85.9636 23.616ZM83.8836 22.56L84.8194 20.7924L84.8079 20.7863L84.7963 20.7804L83.8836 22.56ZM81.5476 21.568L80.932 23.4709L81.5476 21.568ZM76.7156 21.888L75.5426 20.2681L75.529 20.2779L75.5156 20.288L76.7156 21.888ZM75.5956 23.584L76.2791 25.4636L77.3141 25.0872L77.5494 24.0114L75.5956 23.584ZM73.6756 23.104L75.0898 21.6898V21.6898L73.6756 23.104ZM74.0596 18.88L72.5142 17.6105L72.5099 17.6157L74.0596 18.88ZM76.0756 17.44L75.3096 15.5925L75.3015 15.5959L75.2933 15.5993L76.0756 17.44ZM81.9636 17.376L81.3183 19.269L81.3438 19.2777L81.3695 19.2857L81.9636 17.376ZM85.0996 18.688L86.0371 16.9213L86.0223 16.9135L86.0075 16.9059L85.0996 18.688ZM92.4916 20.288L94.3683 19.5966L93.8402 18.1632L92.3184 18.2955L92.4916 20.288ZM91.6276 24.448V26.448H92.4731L93.0622 25.8416L91.6276 24.448ZM88.4596 24.864L87.6174 23.05L86.3009 23.6612L86.4739 25.1023L88.4596 24.864ZM89.4516 27.104L88.2022 28.6657L88.2217 28.6813L88.2415 28.6963L89.4516 27.104ZM91.9796 29.712H94.5076V25.712H91.9796V29.712ZM94.5076 29.712C94.1919 29.712 93.8544 29.598 93.5883 29.3719C93.3593 29.1772 93.2861 28.9875 93.2795 28.9703C93.2711 28.9482 93.2934 29.0006 93.3133 29.1697C93.3324 29.3316 93.3443 29.5575 93.3398 29.8586L97.3394 29.9174C97.3511 29.1197 97.293 28.2668 97.0157 27.5417C96.8705 27.1619 96.6213 26.7002 96.1789 26.3241C95.6995 25.9166 95.1114 25.712 94.5076 25.712V29.712ZM93.3396 29.888C93.3396 30.1969 93.3249 30.437 93.3026 30.6174C93.2798 30.8029 93.2534 30.8885 93.2476 30.905C93.2397 30.9271 93.2784 30.8012 93.431 30.6427C93.6087 30.4581 93.8783 30.2973 94.2035 30.2473L94.8117 34.2007C96.1305 33.9979 96.7598 32.9656 97.0157 32.247C97.2689 31.5361 97.3396 30.7031 97.3396 29.888H93.3396ZM94.5076 30.224H93.5796V34.224H94.5076V30.224ZM93.5796 30.224C91.7261 30.224 90.5507 29.8283 89.8196 29.28L87.4196 32.48C89.0779 33.7237 91.2092 34.224 93.5796 34.224V30.224ZM89.8196 29.28C89.1721 28.7943 88.5643 27.8597 88.2536 26.0867L84.3137 26.7773C84.7283 29.143 85.6779 31.1737 87.4196 32.48L89.8196 29.28ZM84.8694 25.0178L84.0054 25.8818L86.8338 28.7102L87.6978 27.8462L84.8694 25.0178ZM83.9627 25.9258C82.4495 27.5348 80.8713 28.6128 79.2365 29.2347L80.6588 32.9733C82.9493 32.1019 85.0191 30.6412 86.8765 28.6662L83.9627 25.9258ZM79.2297 29.2373C77.5871 29.8691 75.4379 30.224 72.7156 30.224V34.224C75.7534 34.224 78.4255 33.8323 80.6656 32.9707L79.2297 29.2373ZM72.7156 30.224H71.6276V34.224H72.7156V30.224ZM71.6276 30.224C71.7855 30.224 71.9654 30.2516 72.1496 30.3231C72.3336 30.3946 72.4843 30.4953 72.5997 30.6006C72.7118 30.7029 72.7804 30.7999 72.8185 30.8631C72.8562 30.9256 72.8706 30.9659 72.8717 30.969C72.8731 30.9728 72.866 30.9534 72.8556 30.9038C72.8455 30.8549 72.834 30.7855 72.8237 30.6921C72.803 30.5028 72.7909 30.2474 72.7954 29.9154L68.7958 29.8606C68.7842 30.7051 68.8427 31.5786 69.1036 32.311C69.2384 32.6898 69.4731 33.1626 69.9035 33.5554C70.3775 33.9879 70.9833 34.224 71.6276 34.224V30.224ZM72.7956 29.888C72.7956 29.3812 72.8578 29.116 72.8963 29.0114L69.1429 27.6286C68.8828 28.3347 68.7956 29.1148 68.7956 29.888H72.7956ZM72.8963 29.0114C72.9171 28.9551 72.8782 29.0979 72.6978 29.2782C72.5986 29.3774 72.4524 29.4917 72.254 29.5794C72.0512 29.669 71.836 29.712 71.6276 29.712V25.712C70.0353 25.712 69.3596 27.0406 69.1429 27.6286L72.8963 29.0114ZM71.6276 29.712H73.7716V25.712H71.6276V29.712ZM73.7716 29.712C76.2938 29.712 78.4199 29.5388 80.0857 29.1468L79.1695 25.2532C77.934 25.5439 76.1561 25.712 73.7716 25.712V29.712ZM80.1061 29.1419C81.8534 28.7114 83.4726 27.9282 84.9556 26.816L82.5556 23.616C81.4786 24.4238 80.3458 24.9632 79.1492 25.2581L80.1061 29.1419ZM84.9556 26.816C85.886 26.1182 86.5931 25.6065 87.0882 25.2699L84.839 21.9621C84.2674 22.3508 83.5025 22.9058 82.5556 23.616L84.9556 26.816ZM86.7515 21.7777C86.5446 21.689 85.9318 21.3813 84.8194 20.7924L82.9479 24.3276C84.0114 24.8906 84.7853 25.287 85.1758 25.4543L86.7515 21.7777ZM84.7963 20.7804C83.8893 20.3152 83.0106 19.9392 82.1633 19.6651L80.932 23.4709C81.5354 23.6661 82.214 23.9514 82.971 24.3396L84.7963 20.7804ZM82.1633 19.6651C81.2321 19.3638 80.2665 19.216 79.2756 19.216V23.216C79.8634 23.216 80.4125 23.3028 80.932 23.4709L82.1633 19.6651ZM79.2756 19.216C77.939 19.216 76.6198 19.4881 75.5426 20.2681L77.8886 23.5079C78.0488 23.3919 78.4363 23.216 79.2756 23.216V19.216ZM75.5156 20.288C74.563 21.0025 73.901 21.9717 73.6418 23.1566L77.5494 24.0114C77.5889 23.831 77.6736 23.6695 77.9156 23.488L75.5156 20.288ZM74.9121 21.7044C74.8958 21.7104 74.8873 21.712 74.8859 21.7123C74.8846 21.7125 74.887 21.712 74.8916 21.712V25.712C75.374 25.712 75.8395 25.6234 76.2791 25.4636L74.9121 21.7044ZM74.8916 21.712C74.9588 21.712 75.0203 21.7206 75.0727 21.7337C75.1243 21.7466 75.1598 21.762 75.1781 21.7711C75.2108 21.7875 75.1789 21.7788 75.0898 21.6898L72.2614 24.5182C72.8847 25.1415 73.7688 25.712 74.8916 25.712V21.712ZM75.0898 21.6898C75.106 21.7059 75.1088 21.7193 75.1023 21.7011C75.0928 21.6747 75.0676 21.587 75.0676 21.408H71.0676C71.0676 22.5157 71.3879 23.6447 72.2614 24.5182L75.0898 21.6898ZM75.0676 21.408C75.0676 21.08 75.1798 20.6708 75.6094 20.1443L72.5099 17.6157C71.6168 18.7106 71.0676 19.9867 71.0676 21.408H75.0676ZM75.6051 20.1495C75.8541 19.8463 76.2425 19.5422 76.8579 19.2807L75.2933 15.5993C74.2021 16.0631 73.2465 16.719 72.5142 17.6105L75.6051 20.1495ZM76.8417 19.2875C77.4312 19.043 78.1658 18.896 79.0836 18.896V14.896C77.7401 14.896 76.4694 15.1116 75.3096 15.5925L76.8417 19.2875ZM79.0836 18.896C79.8431 18.896 80.5852 19.0191 81.3183 19.269L82.609 15.483C81.4648 15.0929 80.2868 14.896 79.0836 14.896V18.896ZM81.3695 19.2857C82.1978 19.5434 83.137 19.9328 84.1918 20.4701L86.0075 16.9059C84.8009 16.2912 83.6495 15.8059 82.5578 15.4663L81.3695 19.2857ZM84.1622 20.4547C86.4524 21.6699 88.7168 22.352 90.9236 22.352V18.352C89.5464 18.352 87.9282 17.9248 86.0371 16.9213L84.1622 20.4547ZM90.9236 22.352C91.529 22.352 92.11 22.3287 92.6649 22.2805L92.3184 18.2955C91.892 18.3326 91.4275 18.352 90.9236 18.352V22.352ZM90.6149 20.9794C90.6606 21.1032 90.7156 21.346 90.7156 21.76H94.7156C94.7156 21.022 94.6214 20.2834 94.3683 19.5966L90.6149 20.9794ZM90.7156 21.76C90.7156 22.2874 90.5541 22.6828 90.1931 23.0544L93.0622 25.8416C94.1518 24.7199 94.7156 23.3233 94.7156 21.76H90.7156ZM91.6276 22.448H90.4116V26.448H91.6276V22.448ZM90.4116 22.448C89.4371 22.448 88.4965 22.6418 87.6174 23.05L89.3018 26.678C89.6174 26.5315 89.9781 26.448 90.4116 26.448V22.448ZM86.4739 25.1023C86.6297 26.4012 87.078 27.7664 88.2022 28.6657L90.701 25.5423C90.7586 25.5883 90.5455 25.4601 90.4454 24.6257L86.4739 25.1023ZM88.2415 28.6963C89.2955 29.4974 90.6734 29.712 91.9796 29.712V25.712C91.513 25.712 91.1788 25.6702 90.9513 25.6154C90.7234 25.5606 90.6534 25.5053 90.6618 25.5117L88.2415 28.6963ZM94.0946 27.712V25.712H93.9041L93.7169 25.748L94.0946 27.712ZM96.2386 27.072L97.6528 28.4862L97.6701 28.469L97.6869 28.4513L96.2386 27.072ZM96.7826 18.592L94.7838 18.6594L94.7838 18.6601L96.7826 18.592ZM99.2786 10.336L99.1554 12.3322L99.2169 12.336H99.2786V10.336ZM100.751 10.528H102.751V9.03994L101.325 8.61235L100.751 10.528ZM99.1826 30.4L97.6548 29.1093L97.6528 29.1117L99.1826 30.4ZM93.2626 29.888L95.2624 29.9154L95.2626 29.9017V29.888H93.2626ZM94.0946 29.712H94.4786V25.712H94.0946V29.712ZM94.4786 29.712C95.6222 29.712 96.7662 29.3728 97.6528 28.4862L94.8244 25.6578C94.8218 25.6604 94.8211 25.6607 94.8206 25.661C94.82 25.6615 94.8129 25.666 94.7951 25.6724C94.7591 25.6855 94.6633 25.712 94.4786 25.712V29.712ZM97.6869 28.4513C98.6861 27.4022 98.8786 25.8523 98.8786 24.544H94.8786C94.8786 25.0608 94.8327 25.404 94.7798 25.6132C94.7252 25.829 94.6896 25.7984 94.7903 25.6927L97.6869 28.4513ZM98.8786 24.544C98.8786 22.4331 98.8463 20.4263 98.7815 18.5239L94.7838 18.6601C94.8469 20.5124 94.8786 22.4736 94.8786 24.544H98.8786ZM98.7815 18.5246C98.718 16.6416 98.6866 15.001 98.6866 13.6H94.6866C94.6866 15.0577 94.7192 16.7451 94.7838 18.6594L98.7815 18.5246ZM98.6866 13.6C98.6866 12.6426 98.8802 12.3418 98.9008 12.3158C98.9017 12.3147 98.8945 12.3236 98.8792 12.3347C98.8723 12.3398 98.8658 12.3438 98.8603 12.3468C98.8549 12.3497 98.852 12.3507 98.8528 12.3504C98.8543 12.3499 98.9378 12.3188 99.1554 12.3322L99.4018 8.3398C98.0662 8.25735 96.7076 8.64548 95.7684 9.82823C94.925 10.8902 94.6866 12.2748 94.6866 13.6H98.6866ZM99.2786 12.336C99.6842 12.336 99.9748 12.3833 100.176 12.4437L101.325 8.61235C100.673 8.41668 99.9824 8.336 99.2786 8.336V12.336ZM98.7506 10.528V24.256H102.751V10.528H98.7506ZM98.7506 24.256C98.7506 26.9675 98.2362 28.4212 97.6548 29.1093L100.71 31.6907C102.22 29.9041 102.751 27.2618 102.751 24.256H98.7506ZM97.6528 29.1117C97.0833 29.788 96.2338 30.224 94.7986 30.224V34.224C97.1608 34.224 99.2339 33.444 100.712 31.6883L97.6528 29.1117ZM94.7986 30.224H94.0946V34.224H94.7986V30.224ZM94.0946 30.224C94.2525 30.224 94.4324 30.2516 94.6166 30.3231C94.8006 30.3946 94.9513 30.4953 95.0667 30.6006C95.1788 30.7029 95.2474 30.7999 95.2855 30.8631C95.3232 30.9256 95.3376 30.9659 95.3387 30.969C95.34 30.9728 95.3329 30.9534 95.3226 30.9038C95.3124 30.8549 95.3009 30.7855 95.2907 30.6921C95.27 30.5028 95.2579 30.2474 95.2624 29.9154L91.2628 29.8606C91.2512 30.7051 91.3097 31.5786 91.5705 32.311C91.7054 32.6898 91.9401 33.1626 92.3705 33.5554C92.8445 33.9879 93.4503 34.224 94.0946 34.224V30.224ZM95.2626 29.888C95.2626 29.617 95.2768 29.4115 95.2969 29.2617C95.3176 29.1076 95.3399 29.0472 95.3387 29.0503C95.3382 29.0515 95.2924 29.1746 95.1448 29.3222C94.9785 29.4885 94.7433 29.6239 94.4723 29.676L93.7169 25.748C92.5185 25.9785 91.8855 26.8817 91.6025 27.6217C91.3353 28.3207 91.2626 29.1236 91.2626 29.888H95.2626ZM104.774 32.096L102.774 32.117L102.787 33.3385L103.88 33.8849L104.774 32.096ZM104.582 13.792H102.582V13.8025L102.582 13.813L104.582 13.792ZM108.646 10.592H110.646V9.19743L109.338 8.71531L108.646 10.592ZM108.07 31.456L109.769 32.5107L109.777 32.4979L109.785 32.485L108.07 31.456ZM106.774 32.075L106.582 13.771L102.582 13.813L102.774 32.117L106.774 32.075ZM106.582 13.792C106.582 13.2491 106.632 12.8817 106.693 12.6507C106.754 12.417 106.802 12.4129 106.731 12.4864L103.841 9.72155C102.806 10.8035 102.582 12.3914 102.582 13.792H106.582ZM106.731 12.4864C106.762 12.455 106.834 12.368 107.174 12.368V8.368C105.936 8.368 104.749 8.7717 103.841 9.72155L106.731 12.4864ZM107.174 12.368C107.588 12.368 107.831 12.4231 107.955 12.4687L109.338 8.71531C108.651 8.46226 107.912 8.368 107.174 8.368V12.368ZM106.646 10.592V28.064H110.646V10.592H106.646ZM106.646 28.064C106.646 29.6565 106.434 30.2949 106.355 30.427L109.785 32.485C110.474 31.3371 110.646 29.7141 110.646 28.064H106.646ZM106.371 30.4013C106.363 30.4136 106.365 30.4077 106.38 30.3942C106.395 30.3802 106.411 30.3693 106.424 30.3631C106.449 30.3503 106.401 30.384 106.214 30.384V34.384C107.62 34.384 108.953 33.8267 109.769 32.5107L106.371 30.4013ZM106.214 30.384C105.847 30.384 105.697 30.3212 105.669 30.3071L103.88 33.8849C104.62 34.2548 105.429 34.384 106.214 34.384V30.384ZM133.8 11.136L131.998 12.0036L132.288 12.6045L132.88 12.9115L133.8 11.136ZM133.992 7.872L135.326 9.36249L135.33 9.35859L133.992 7.872ZM137.352 7.712L139.214 6.98069L138.927 6.25038L138.22 5.90999L137.352 7.712ZM137.128 10.976L135.676 9.60051L135.657 9.62119L135.638 9.64241L137.128 10.976ZM140.68 15.232L139.095 16.4514L139.103 16.4613L140.68 15.232ZM141.288 28.032L139.556 27.0319L139.551 27.0411L139.546 27.0503L141.288 28.032ZM137.128 31.424L137.853 33.288L137.128 31.424ZM119.72 30.432L118.446 31.9731L118.456 31.9816L118.466 31.99L119.72 30.432ZM118.248 20.736L116.712 19.4556V19.4556L118.248 20.736ZM121.8 19.84L123.531 20.8421L124.329 19.4642L123.165 18.3779L121.8 19.84ZM121.192 21.28L119.281 20.6918L119.273 20.7162L119.266 20.7407L121.192 21.28ZM122.632 26.976L121.516 28.6352L121.534 28.6475L121.552 28.6594L122.632 26.976ZM136.776 27.04L137.66 28.8343L136.776 27.04ZM139.208 23.936L141.18 24.2697L142.313 17.5763L137.732 22.5865L139.208 23.936ZM131.4 23.424L130.039 24.8896L130.047 24.8962L130.054 24.9027L131.4 23.424ZM131.304 14.592L129.841 13.2292L129.834 13.236L129.828 13.2429L131.304 14.592ZM136.072 21.376L135.977 23.3737L136.025 23.376H136.072V21.376ZM139.048 20.736L139.999 22.4954L141.127 21.886L141.044 20.6072L139.048 20.736ZM137.96 17.632L136.403 18.8867L136.422 18.9104L136.442 18.9336L137.96 17.632ZM133.48 17.216L132.126 15.7441L132.111 15.7579L132.097 15.772L133.48 17.216ZM135.528 9.584C135.311 9.584 135.049 9.53052 134.721 9.36049L132.88 12.9115C133.704 13.3388 134.593 13.584 135.528 13.584V9.584ZM135.602 10.2684C135.43 9.90994 135.384 9.65108 135.384 9.472H131.384C131.384 10.3596 131.616 11.2101 131.998 12.0036L135.602 10.2684ZM135.384 9.472C135.384 9.30792 135.408 9.24801 135.406 9.25444C135.404 9.2587 135.397 9.27557 135.381 9.29901C135.365 9.32279 135.346 9.34475 135.326 9.36249L132.659 6.38151C131.713 7.22799 131.384 8.377 131.384 9.472H135.384ZM135.33 9.35859C135.347 9.34356 135.361 9.33483 135.386 9.32598C135.415 9.3156 135.488 9.296 135.624 9.296V5.296C134.549 5.296 133.504 5.62091 132.654 6.38541L135.33 9.35859ZM135.624 9.296C135.868 9.296 136.149 9.35252 136.485 9.514L138.22 5.90999C137.403 5.51681 136.532 5.296 135.624 5.296V9.296ZM135.491 8.4433C135.661 8.87576 135.704 9.16761 135.704 9.344H139.704C139.704 8.53905 139.513 7.74291 139.214 6.98069L135.491 8.4433ZM135.704 9.344C135.704 9.49914 135.683 9.57533 135.674 9.59836C135.669 9.61493 135.669 9.60823 135.676 9.60051L138.58 12.3515C139.391 11.4957 139.704 10.4182 139.704 9.344H135.704ZM135.638 9.64241C135.656 9.62258 135.678 9.60319 135.701 9.58705C135.725 9.57115 135.742 9.56405 135.746 9.56243C135.752 9.55999 135.692 9.584 135.528 9.584V13.584C136.623 13.584 137.772 13.2556 138.619 12.3096L135.638 9.64241ZM135.752 14.736C137.104 14.736 138.173 15.2527 139.095 16.4514L142.266 14.0126C140.628 11.8833 138.412 10.736 135.752 10.736V14.736ZM139.103 16.4613C140.004 17.6183 140.6 19.4808 140.6 22.336H144.6C144.6 19.0045 143.916 16.1311 142.258 14.0027L139.103 16.4613ZM140.6 22.336C140.6 24.3719 140.21 25.9004 139.556 27.0319L143.02 29.0321C144.116 27.1343 144.6 24.8655 144.6 22.336H140.6ZM139.546 27.0503C138.96 28.0906 137.976 28.9486 136.403 29.56L137.853 33.288C140.121 32.4061 141.91 31.0028 143.031 29.0137L139.546 27.0503ZM136.403 29.56C134.805 30.1816 132.531 30.544 129.48 30.544V34.544C132.787 34.544 135.612 34.1597 137.853 33.288L136.403 29.56ZM129.48 30.544H128.264V34.544H129.48V30.544ZM128.264 30.544C124.464 30.544 122.185 29.8485 120.974 28.874L118.466 31.99C120.754 33.8315 124.171 34.544 128.264 34.544V30.544ZM120.995 28.8909C119.803 27.9047 119.128 26.4974 119.128 24.384H115.128C115.128 27.4759 116.182 30.1006 118.446 31.9731L120.995 28.8909ZM119.128 24.384C119.128 23.166 119.421 22.4525 119.785 22.0164L116.712 19.4556C115.582 20.8115 115.128 22.53 115.128 24.384H119.128ZM119.785 22.0164C120.05 21.6987 120.256 21.5382 120.39 21.4616C120.509 21.3928 120.566 21.392 120.584 21.392V17.392C118.955 17.392 117.666 18.3106 116.712 19.4556L119.785 22.0164ZM120.584 21.392C120.625 21.392 120.612 21.3979 120.565 21.3807C120.543 21.3724 120.518 21.3608 120.493 21.3456C120.469 21.3305 120.45 21.315 120.436 21.3021L123.165 18.3779C122.429 17.6909 121.515 17.392 120.584 17.392V21.392ZM120.07 18.8379C119.744 19.4006 119.486 20.0256 119.281 20.6918L123.104 21.8682C123.24 21.4251 123.388 21.09 123.531 20.8421L120.07 18.8379ZM119.266 20.7407C119.06 21.4797 118.968 22.2625 118.968 23.072H122.968C122.968 22.5588 123.027 22.147 123.118 21.8193L119.266 20.7407ZM118.968 23.072C118.968 25.3122 119.656 27.3833 121.516 28.6352L123.749 25.3168C123.39 25.0754 122.968 24.5438 122.968 23.072H118.968ZM121.552 28.6594C123.213 29.7243 125.776 30.064 128.744 30.064V26.064C125.825 26.064 124.314 25.6783 123.712 25.2926L121.552 28.6594ZM128.744 30.064H129.48V26.064H128.744V30.064ZM129.48 30.064C132.973 30.064 135.821 29.7395 137.66 28.8343L135.893 25.2457C134.958 25.7059 132.942 26.064 129.48 26.064V30.064ZM137.66 28.8343C139.556 27.9006 140.827 26.3594 141.18 24.2697L137.236 23.6023C137.121 24.2859 136.77 24.8141 135.893 25.2457L137.66 28.8343ZM137.732 22.5865C137.597 22.7348 137.144 23.056 135.816 23.056V27.056C137.646 27.056 139.455 26.6306 140.684 25.2855L137.732 22.5865ZM135.816 23.056C134.52 23.056 133.542 22.6689 132.747 21.9453L130.054 24.9027C131.648 26.3551 133.614 27.056 135.816 27.056V23.056ZM132.761 21.9584C132.017 21.2673 131.608 20.3692 131.608 19.072H127.608C127.608 21.3588 128.394 23.362 130.039 24.8896L132.761 21.9584ZM131.608 19.072C131.608 17.798 132.003 16.7926 132.781 15.9411L129.828 13.2429C128.345 14.8661 127.608 16.8473 127.608 19.072H131.608ZM132.768 15.9548C133.512 15.1557 134.449 14.736 135.752 14.736V10.736C133.429 10.736 131.401 11.5536 129.841 13.2292L132.768 15.9548ZM136.072 23.376C137.493 23.376 138.837 23.1237 139.999 22.4954L138.097 18.9766C137.681 19.2017 137.041 19.376 136.072 19.376V23.376ZM141.044 20.6072C140.941 19.001 140.484 17.5036 139.479 16.3304L136.442 18.9336C136.716 19.2537 136.985 19.8257 137.053 20.8648L141.044 20.6072ZM139.518 16.3773C138.512 15.129 137.124 14.48 135.528 14.48V18.48C135.938 18.48 136.171 18.599 136.403 18.8867L139.518 16.3773ZM135.528 14.48C134.274 14.48 133.083 14.8636 132.126 15.7441L134.834 18.6879C134.944 18.5871 135.118 18.48 135.528 18.48V14.48ZM132.097 15.772C131.194 16.6368 130.712 17.7543 130.712 19.008H134.712C134.712 18.8537 134.743 18.7765 134.864 18.66L132.097 15.772ZM130.712 19.008C130.712 20.3376 131.264 21.5379 132.4 22.3388C133.411 23.051 134.695 23.3127 135.977 23.3737L136.168 19.3783C135.209 19.3326 134.814 19.1463 134.705 19.0692C134.673 19.0468 134.694 19.0553 134.715 19.0963C134.732 19.1321 134.712 19.1193 134.712 19.008H130.712ZM155.963 9.664L157.825 8.93269L157.519 8.1549L156.751 7.82571L155.963 9.664ZM155.739 12.928L154.287 11.5525L154.268 11.5732L154.249 11.5944L155.739 12.928ZM152.411 13.088L150.609 13.9556L150.899 14.5565L151.491 14.8635L152.411 13.088ZM152.603 9.856L153.937 11.3465L153.941 11.3426L152.603 9.856ZM145.915 24.672L147.33 26.0862L147.343 26.0723L147.357 26.0582L145.915 24.672ZM148.507 24.032L150.364 24.7748L151.024 23.1264L149.465 22.2762L148.507 24.032ZM149.115 27.104L147.794 28.6054L147.811 28.6206L147.829 28.6354L149.115 27.104ZM155.931 26.592L157.327 28.0249L158.368 27.0114L157.725 25.7081L155.931 26.592ZM152.699 20.032L154.493 19.1481L154.465 19.091L154.434 19.0358L152.699 20.032ZM152.507 15.968L151.061 14.587V14.587L152.507 15.968ZM155.707 15.52L157.582 14.824L157.289 14.0344L156.52 13.6924L155.707 15.52ZM158.843 23.968L160.721 23.2779L160.718 23.272L158.843 23.968ZM160.443 26.944L159.029 28.3582L159.057 28.3865L159.087 28.4136L160.443 26.944ZM163.387 29.888L161.388 29.8586L161.387 29.8733V29.888H163.387ZM162.555 32.224V34.224H162.708L162.859 34.2007L162.555 32.224ZM157.723 29.824L159.346 28.6554L157.785 26.4869L156.145 28.5961L157.723 29.824ZM155.323 31.648L154.507 29.822L155.323 31.648ZM146.747 30.816L145.392 32.2867L145.399 32.2933L145.406 32.2997L146.747 30.816ZM154.102 10.3953C154.272 10.8278 154.315 11.1196 154.315 11.296H158.315C158.315 10.4911 158.124 9.69491 157.825 8.93269L154.102 10.3953ZM154.315 11.296C154.315 11.4511 154.294 11.5273 154.285 11.5504C154.28 11.5669 154.28 11.5602 154.287 11.5525L157.191 14.3035C158.002 13.4477 158.315 12.3702 158.315 11.296H154.315ZM154.249 11.5944C154.267 11.5746 154.289 11.5552 154.312 11.539C154.336 11.5231 154.353 11.5161 154.357 11.5144C154.363 11.512 154.303 11.536 154.139 11.536V15.536C155.234 15.536 156.383 15.2076 157.23 14.2616L154.249 11.5944ZM154.139 11.536C153.922 11.536 153.66 11.4825 153.332 11.3125L151.491 14.8635C152.315 15.2908 153.204 15.536 154.139 15.536V11.536ZM154.213 12.2204C154.041 11.8619 153.995 11.6031 153.995 11.424H149.995C149.995 12.3116 150.227 13.1621 150.609 13.9556L154.213 12.2204ZM153.995 11.424C153.995 11.2777 154.017 11.2296 154.012 11.2431C154.009 11.2503 154.001 11.2678 153.986 11.2902C153.971 11.3128 153.953 11.3321 153.937 11.3465L151.27 8.36552C150.337 9.20043 149.995 10.3282 149.995 11.424H153.995ZM153.941 11.3426C153.958 11.3276 153.972 11.3188 153.997 11.31C154.026 11.2996 154.099 11.28 154.235 11.28V7.28C153.16 7.28 152.115 7.60491 151.265 8.36941L153.941 11.3426ZM154.235 11.28C154.477 11.28 154.785 11.3349 155.176 11.5023L156.751 7.82571C155.947 7.4811 155.103 7.28 154.235 7.28V11.28ZM147.115 27.104C147.115 26.3109 147.31 26.1056 147.33 26.0862L144.501 23.2578C143.454 24.3051 143.115 25.7211 143.115 27.104H147.115ZM147.357 26.0582C147.502 25.9073 147.595 25.8523 147.626 25.8369C147.647 25.8262 147.625 25.84 147.579 25.84V21.84C146.295 21.84 145.253 22.4758 144.474 23.2858L147.357 26.0582ZM147.579 25.84C147.62 25.84 147.65 25.8417 147.67 25.8435C147.689 25.8454 147.697 25.8471 147.694 25.8465C147.69 25.8456 147.634 25.8336 147.55 25.7878L149.465 22.2762C148.836 21.9332 148.161 21.84 147.579 21.84V25.84ZM146.65 23.2892C146.397 23.9229 146.315 24.6022 146.315 25.248H150.315C150.315 25.0876 150.326 24.9698 150.339 24.8879C150.352 24.8058 150.365 24.7727 150.364 24.7748L146.65 23.2892ZM146.315 25.248C146.315 26.5382 146.791 27.723 147.794 28.6054L150.437 25.6026C150.373 25.5463 150.315 25.4938 150.315 25.248H146.315ZM147.829 28.6354C148.912 29.5453 150.391 29.776 151.771 29.776V25.776C151.264 25.776 150.907 25.7291 150.67 25.6691C150.433 25.609 150.377 25.5518 150.402 25.5726L147.829 28.6354ZM151.771 29.776C153.901 29.776 155.949 29.3666 157.327 28.0249L154.536 25.1591C154.293 25.396 153.567 25.776 151.771 25.776V29.776ZM157.725 25.7081L154.493 19.1481L150.905 20.9159L154.137 27.4759L157.725 25.7081ZM154.434 19.0358C153.912 18.127 153.835 17.6776 153.835 17.568H149.835C149.835 18.7383 150.335 19.9317 150.965 21.0282L154.434 19.0358ZM153.835 17.568C153.835 17.5264 153.842 17.5079 153.847 17.4945C153.854 17.4781 153.878 17.4287 153.954 17.3489L151.061 14.587C150.291 15.3933 149.835 16.4098 149.835 17.568H153.835ZM153.954 17.349C153.968 17.3347 153.981 17.3236 154.017 17.31C154.06 17.2934 154.165 17.264 154.363 17.264V13.264C153.155 13.264 151.966 13.639 151.061 14.587L153.954 17.349ZM154.363 17.264C154.655 17.264 154.816 17.3126 154.895 17.3476L156.52 13.6924C155.83 13.3861 155.095 13.264 154.363 13.264V17.264ZM153.832 16.216L156.968 24.664L160.718 23.272L157.582 14.824L153.832 16.216ZM156.966 24.6581C157.516 26.1542 158.17 27.4992 159.029 28.3582L161.858 25.5298C161.65 25.3221 161.237 24.6832 160.721 23.2779L156.966 24.6581ZM159.087 28.4136C160.06 29.3117 161.27 29.712 162.555 29.712V25.712C162.134 25.712 161.936 25.6003 161.8 25.4744L159.087 28.4136ZM162.555 29.712C162.24 29.712 161.902 29.598 161.636 29.3719C161.407 29.1772 161.334 28.9875 161.327 28.9703C161.319 28.9482 161.341 29.0006 161.361 29.1697C161.38 29.3316 161.392 29.5575 161.388 29.8586L165.387 29.9174C165.399 29.1197 165.341 28.2668 165.063 27.5417C164.918 27.1619 164.669 26.7002 164.227 26.3241C163.747 25.9166 163.159 25.712 162.555 25.712V29.712ZM161.387 29.888C161.387 30.1969 161.373 30.437 161.35 30.6174C161.328 30.8029 161.301 30.8885 161.295 30.905C161.287 30.9271 161.326 30.8012 161.479 30.6427C161.656 30.4581 161.926 30.2973 162.251 30.2473L162.859 34.2007C164.178 33.9979 164.807 32.9656 165.063 32.247C165.317 31.5361 165.387 30.7031 165.387 29.888H161.387ZM162.555 30.224C161.092 30.224 160.101 29.7036 159.346 28.6554L156.1 30.9926C157.65 33.1444 159.88 34.224 162.555 34.224V30.224ZM156.145 28.5961C155.773 29.0734 155.25 29.4903 154.507 29.822L156.139 33.474C157.402 32.9097 158.479 32.1106 159.302 31.0519L156.145 28.5961ZM154.507 29.822C153.823 30.1278 152.91 30.32 151.707 30.32V34.32C153.32 34.32 154.818 34.0642 156.139 33.474L154.507 29.822ZM151.707 30.32C149.777 30.32 148.69 29.8761 148.088 29.3323L145.406 32.2997C147.023 33.7613 149.243 34.32 151.707 34.32V30.32ZM148.103 29.3453C147.423 28.7191 147.115 28.014 147.115 27.104H143.115C143.115 29.138 143.896 30.9076 145.392 32.2867L148.103 29.3453ZM161.316 29.984L163.316 30.0126L163.316 29.9983V29.984H161.316ZM162.148 27.712V25.712H162.033L161.919 25.7252L162.148 27.712ZM169.828 27.328L169.442 25.3656L169.828 27.328ZM173.508 26.144L174.349 27.9589L174.36 27.9537L174.371 27.9483L173.508 26.144ZM175.524 25.216L174.799 23.352L174.781 23.3591L174.763 23.3666L175.524 25.216ZM176.42 24.928L176.813 26.8892L184.197 25.4122L177.053 23.0306L176.42 24.928ZM173.828 23.424L172.699 25.0746L172.718 25.0877L172.737 25.1003L173.828 23.424ZM171.62 22.176L170.847 24.0204V24.0204L171.62 22.176ZM167.044 22.432L168.18 24.0784L168.199 24.0654L168.217 24.0519L167.044 22.432ZM165.892 24L166.576 25.8796L167.585 25.5127L167.837 24.4693L165.892 24ZM165.188 24.128L165.089 26.1255L165.138 26.128H165.188V24.128ZM164.004 23.52L162.514 24.8536L162.532 24.8737L162.55 24.8932L164.004 23.52ZM164.388 19.392L162.844 18.1215L162.821 18.1496L162.798 18.1787L164.388 19.392ZM176.036 20.064L174.866 21.6857L174.891 21.7035L174.916 21.7206L176.036 20.064ZM179.364 22.048L180.177 20.2204V20.2204L179.364 22.048ZM183.012 22.496L184.896 21.8233L184.367 20.3424L182.803 20.507L183.012 22.496ZM182.052 26.624L181.74 28.5995L182.672 28.7467L183.378 28.1212L182.052 26.624ZM174.34 29.184L175.414 30.8713L175.431 30.8609L175.447 30.8501L174.34 29.184ZM169.412 31.488L168.84 29.5717L168.833 29.5737L169.412 31.488ZM163.316 29.984C163.316 29.6812 163.331 29.4481 163.353 29.2752C163.363 29.19 163.375 29.1261 163.385 29.0807C163.395 29.0348 163.403 29.0151 163.402 29.0157C163.402 29.0159 163.391 29.047 163.361 29.0974C163.331 29.1483 163.277 29.227 163.189 29.3133C162.992 29.5087 162.705 29.6611 162.378 29.6988L161.919 25.7252C160.576 25.8802 159.914 26.9092 159.646 27.6403C159.387 28.3495 159.316 29.1805 159.316 29.984H163.316ZM162.148 29.712H165.092V25.712H162.148V29.712ZM165.092 29.712C167.031 29.712 168.747 29.5791 170.214 29.2904L169.442 25.3656C168.307 25.5889 166.866 25.712 165.092 25.712V29.712ZM170.214 29.2904C171.665 29.0049 173.045 28.5623 174.349 27.9589L172.668 24.3291C171.667 24.7923 170.594 25.1391 169.442 25.3656L170.214 29.2904ZM174.371 27.9483C175.358 27.4764 175.982 27.1905 176.286 27.0654L174.763 23.3666C174.341 23.5402 173.621 23.873 172.645 24.3397L174.371 27.9483ZM176.249 27.08C176.415 27.0156 176.547 26.9687 176.648 26.9361C176.699 26.9199 176.738 26.9084 176.767 26.9005C176.782 26.8965 176.793 26.8938 176.801 26.8919C176.805 26.8909 176.807 26.8903 176.81 26.8898C176.811 26.8896 176.811 26.8894 176.812 26.8893C176.812 26.8892 176.813 26.8892 176.813 26.8892L176.028 22.9668C175.642 23.0441 175.214 23.1908 174.799 23.352L176.249 27.08ZM177.053 23.0306C177.077 23.0386 176.924 22.979 176.488 22.7261C176.098 22.4996 175.578 22.1761 174.919 21.7477L172.737 25.1003C173.423 25.5466 174.007 25.9111 174.481 26.1859C174.909 26.4343 175.38 26.6894 175.788 26.8254L177.053 23.0306ZM174.958 21.7734C174.073 21.1682 173.216 20.6765 172.394 20.3316L170.847 24.0204C171.347 24.2302 171.962 24.5705 172.699 25.0746L174.958 21.7734ZM172.394 20.3316C171.464 19.9417 170.472 19.76 169.444 19.76V23.76C169.995 23.76 170.454 23.8557 170.847 24.0204L172.394 20.3316ZM169.444 19.76C168.162 19.76 166.917 20.0548 165.871 20.8121L168.217 24.0519C168.409 23.9132 168.764 23.76 169.444 23.76V19.76ZM165.909 20.7856C164.963 21.4382 164.233 22.3492 163.948 23.5307L167.837 24.4693C167.85 24.4134 167.889 24.2791 168.18 24.0784L165.909 20.7856ZM165.209 22.1204C165.193 22.1264 165.184 22.128 165.183 22.1283C165.181 22.1285 165.184 22.128 165.188 22.128V26.128C165.671 26.128 166.136 26.0394 166.576 25.8796L165.209 22.1204ZM165.288 22.1305C165.325 22.1323 165.364 22.1384 165.401 22.1485C165.437 22.1585 165.466 22.1708 165.486 22.1809C165.525 22.2008 165.513 22.2044 165.458 22.1468L162.55 24.8932C163.179 25.5588 164.032 26.0727 165.089 26.1255L165.288 22.1305ZM165.495 22.1864C165.517 22.2115 165.514 22.2212 165.501 22.1811C165.486 22.134 165.46 22.0236 165.46 21.824H161.46C161.46 22.8746 161.727 23.9738 162.514 24.8536L165.495 22.1864ZM165.46 21.824C165.46 21.5542 165.556 21.1587 165.978 20.6053L162.798 18.1787C161.983 19.2466 161.46 20.4725 161.46 21.824H165.46ZM165.933 20.6625C166.538 19.9266 167.534 19.408 169.316 19.408V15.408C166.704 15.408 164.414 16.2121 162.844 18.1215L165.933 20.6625ZM169.316 19.408C170.762 19.408 172.594 20.0461 174.866 21.6857L177.207 18.4423C174.572 16.5406 171.924 15.408 169.316 15.408V19.408ZM174.916 21.7206C176.383 22.7131 177.614 23.4586 178.552 23.8756L180.177 20.2204C179.579 19.9547 178.591 19.3776 177.157 18.4074L174.916 21.7206ZM178.552 23.8756C179.544 24.3163 180.577 24.56 181.636 24.56V20.56C181.203 20.56 180.721 20.4623 180.177 20.2204L178.552 23.8756ZM181.636 24.56C182.201 24.56 182.732 24.5366 183.222 24.485L182.803 20.507C182.482 20.5408 182.095 20.56 181.636 20.56V24.56ZM181.129 23.1687C181.117 23.1366 181.132 23.1661 181.147 23.2901C181.162 23.4084 181.172 23.5779 181.172 23.808H185.172C185.172 23.1581 185.119 22.4472 184.896 21.8233L181.129 23.1687ZM181.172 23.808C181.172 24.5878 180.952 24.9269 180.726 25.1268L183.378 28.1212C184.646 26.9984 185.172 25.4602 185.172 23.808H181.172ZM182.364 24.6485C181.847 24.5668 181.315 24.528 180.772 24.528V28.528C181.125 28.528 181.447 28.5532 181.74 28.5995L182.364 24.6485ZM180.772 24.528C178.528 24.528 175.963 25.7058 173.234 27.5179L175.447 30.8501C178.051 29.1209 179.774 28.528 180.772 28.528V24.528ZM173.267 27.4967C171.759 28.4561 170.284 29.1404 168.84 29.5717L169.985 33.4043C171.826 32.8542 173.636 32.0026 175.414 30.8713L173.267 27.4967ZM168.833 29.5737C167.464 29.9879 165.628 30.224 163.268 30.224V34.224C165.858 34.224 168.118 33.9694 169.992 33.4023L168.833 29.5737ZM163.268 30.224H162.148V34.224H163.268V30.224ZM162.148 30.224C162.296 30.224 162.467 30.2487 162.644 30.3147C162.822 30.3809 162.971 30.4756 163.089 30.5788C163.314 30.7752 163.381 30.9617 163.383 30.9676C163.388 30.9804 163.364 30.9171 163.343 30.7369C163.324 30.5639 163.312 30.3261 163.316 30.0126L159.317 29.9554C159.305 30.7717 159.363 31.6326 159.634 32.3604C159.774 32.7397 160.018 33.2061 160.455 33.5892C160.933 34.0071 161.528 34.224 162.148 34.224V30.224Z" fill="black" mask="url(#path-1-outside-1_212_1314)"/>
</g>
<defs>
<filter id="filter0_d_212_1314" x="12.9219" y="7.2959" width="170.25" height="34.8481" filterUnits="userSpaceOnUse" color-interpolation-filters="sRGB">
<feFlood flood-opacity="0" result="BackgroundImageFix"/>
<feColorMatrix in="SourceAlpha" type="matrix" values="0 0 0 0 0 0 0 0 0 0 0 0 0 0 0 0 0 0 127 0" result="hardAlpha"/>
<feOffset dy="4"/>
<feComposite in2="hardAlpha" operator="out"/>
<feColorMatrix type="matrix" values="0 0 0 0 0 0 0 0 0 0 0 0 0 0 0 0 0 0 1 0"/>
<feBlend mode="normal" in2="BackgroundImageFix" result="effect1_dropShadow_212_1314"/>
<feBlend mode="normal" in="SourceGraphic" in2="effect1_dropShadow_212_1314" result="shape"/>
</filter>
</defs>
</svg>
