<svg width="277" height="271" viewBox="0 0 277 271" fill="none" xmlns="http://www.w3.org/2000/svg">
<path d="M71.7833 267.492C88.3882 271.261 112.641 267.198 120.016 263.687C132.844 257.581 140.055 250.859 151.316 250.859C166.065 250.859 198.522 265.227 220.073 265.227C252.738 265.227 262.148 241.623 262.148 223.151C262.148 196.605 249.295 176.835 258.069 162.066C271.568 142.205 283.704 108.639 266.478 86.3346C253.309 69.283 222.884 74.3697 217.045 55.3114C213.358 43.2747 202.421 22.1022 186.409 12.6097C154.962 -6.03337 117.073 0.958695 99.9172 25.2512C79.3731 54.3408 84.2151 53.8075 56.8229 55.3114C34.7352 56.524 14.6432 71.2886 9.37541 78.8116C1.35522 90.2653 -2.11988 116.061 9.37553 135.336C21.7898 156.152 36.8056 156.08 36.8056 183.13C36.8056 210.18 26.1163 218.02 31.0306 236.794C34.4922 250.018 41.3659 260.587 71.7833 267.492Z" fill="#00DCEA" stroke="black" stroke-width="4" stroke-linecap="round"/>
<path d="M138.528 215.77C192.09 215.77 218.855 179.806 218.855 135.443C218.855 91.08 192.09 55.1165 138.528 55.1165C84.9661 55.1165 58.2012 91.08 58.2012 135.443C58.2012 179.806 84.9661 215.77 138.528 215.77Z" fill="url(#paint0_radial_2252_11019)"/>
<path d="M138.528 215.77C192.09 215.77 218.855 179.806 218.855 135.443C218.855 91.08 192.09 55.1165 138.528 55.1165C84.9661 55.1165 58.2012 91.08 58.2012 135.443C58.2012 179.806 84.9661 215.77 138.528 215.77Z" fill="url(#paint1_radial_2252_11019)"/>
<path d="M138.528 215.77C192.09 215.77 218.855 179.806 218.855 135.443C218.855 91.08 192.09 55.1165 138.528 55.1165C84.9661 55.1165 58.2012 91.08 58.2012 135.443C58.2012 179.806 84.9661 215.77 138.528 215.77Z" fill="url(#paint2_radial_2252_11019)" fill-opacity="0.6"/>
<path d="M138.528 215.77C192.09 215.77 218.855 179.806 218.855 135.443C218.855 91.08 192.09 55.1165 138.528 55.1165C84.9661 55.1165 58.2012 91.08 58.2012 135.443C58.2012 179.806 84.9661 215.77 138.528 215.77Z" fill="url(#paint3_radial_2252_11019)"/>
<path d="M138.528 215.77C192.09 215.77 218.855 179.806 218.855 135.443C218.855 91.08 192.09 55.1165 138.528 55.1165C84.9661 55.1165 58.2012 91.08 58.2012 135.443C58.2012 179.806 84.9661 215.77 138.528 215.77Z" fill="url(#paint4_radial_2252_11019)"/>
<path d="M138.528 215.77C192.09 215.77 218.855 179.806 218.855 135.443C218.855 91.08 192.09 55.1165 138.528 55.1165C84.9661 55.1165 58.2012 91.08 58.2012 135.443C58.2012 179.806 84.9661 215.77 138.528 215.77Z" fill="url(#paint5_radial_2252_11019)"/>
<path d="M138.528 215.77C192.09 215.77 218.855 179.806 218.855 135.443C218.855 91.08 192.09 55.1165 138.528 55.1165C84.9661 55.1165 58.2012 91.08 58.2012 135.443C58.2012 179.806 84.9661 215.77 138.528 215.77Z" fill="url(#paint6_radial_2252_11019)"/>
<path d="M138.528 215.77C192.09 215.77 218.855 179.806 218.855 135.443C218.855 91.08 192.09 55.1165 138.528 55.1165C84.9661 55.1165 58.2012 91.08 58.2012 135.443C58.2012 179.806 84.9661 215.77 138.528 215.77Z" fill="url(#paint7_radial_2252_11019)"/>
<path d="M138.528 215.77C192.09 215.77 218.855 179.806 218.855 135.443C218.855 91.08 192.09 55.1165 138.528 55.1165C84.9661 55.1165 58.2012 91.08 58.2012 135.443C58.2012 179.806 84.9661 215.77 138.528 215.77Z" fill="url(#paint8_radial_2252_11019)"/>
<path d="M178.7 158.402C178.7 180.608 160.74 198.569 138.534 198.569C116.327 198.569 98.3672 180.608 98.3672 158.402H138.534H178.7Z" fill="url(#paint9_radial_2252_11019)"/>
<path d="M121.319 158.402H155.748V166.009C155.748 166.562 155.3 167.009 154.748 167.009H122.319C121.767 167.009 121.319 166.562 121.319 166.009V158.402Z" fill="url(#paint10_linear_2252_11019)"/>
<path d="M175.832 149.372C191.443 149.372 204.099 136.716 204.099 121.105C204.099 105.493 191.443 92.8372 175.832 92.8372C160.22 92.8372 147.564 105.493 147.564 121.105C147.564 136.716 160.22 149.372 175.832 149.372Z" fill="white"/>
<path d="M101.236 149.372C116.848 149.372 129.503 136.716 129.503 121.105C129.503 105.493 116.848 92.8372 101.236 92.8372C85.6245 92.8372 72.9688 105.493 72.9688 121.105C72.9688 136.716 85.6245 149.372 101.236 149.372Z" fill="white"/>
<path fill-rule="evenodd" clip-rule="evenodd" d="M52.4629 118.235C52.4629 115.066 55.0319 112.497 58.201 112.497H72.5462V123.973H58.201C55.0319 123.973 52.4629 121.404 52.4629 118.235ZM218.368 123.973H204.522V112.497H218.368C221.799 112.497 224.605 115.079 224.605 118.235C224.605 121.391 221.799 123.973 218.368 123.973ZM127.058 112.497H150.01V123.973H127.058V112.497Z" fill="url(#paint11_linear_2252_11019)"/>
<ellipse cx="101.236" cy="121.105" rx="31.5595" ry="31.5595" fill="url(#paint12_radial_2252_11019)"/>
<ellipse cx="101.236" cy="121.105" rx="31.5595" ry="31.5595" fill="url(#paint13_radial_2252_11019)"/>
<ellipse cx="175.832" cy="121.105" rx="31.5595" ry="31.5595" fill="url(#paint14_radial_2252_11019)"/>
<ellipse cx="175.832" cy="121.105" rx="31.5595" ry="31.5595" fill="url(#paint15_radial_2252_11019)"/>
<ellipse cx="101.236" cy="121.105" rx="24.3869" ry="24.3869" fill="white"/>
<ellipse cx="175.831" cy="121.105" rx="24.3869" ry="24.3869" fill="white"/>
<ellipse cx="106.974" cy="121.105" rx="11.4762" ry="11.4762" fill="#402A32"/>
<circle cx="170.093" cy="121.105" r="11.4762" fill="#402A32"/>
<defs>
<radialGradient id="paint0_radial_2252_11019" cx="0" cy="0" r="1" gradientUnits="userSpaceOnUse" gradientTransform="translate(193.046 95.2831) rotate(131.878) scale(223.491)">
<stop stop-color="#FFF478"/>
<stop offset="0.474827" stop-color="#FFB02E"/>
<stop offset="1" stop-color="#F70A8D"/>
</radialGradient>
<radialGradient id="paint1_radial_2252_11019" cx="0" cy="0" r="1" gradientUnits="userSpaceOnUse" gradientTransform="translate(138.534 115.366) rotate(101.31) scale(102.405 131.161)">
<stop offset="0.787821" stop-color="#F59639" stop-opacity="0"/>
<stop offset="0.972509" stop-color="#FF7DCE"/>
</radialGradient>
<radialGradient id="paint2_radial_2252_11019" cx="0" cy="0" r="1" gradientUnits="userSpaceOnUse" gradientTransform="translate(150.011 123.973) rotate(135) scale(235.331)">
<stop offset="0.314853" stop-opacity="0"/>
<stop offset="1"/>
</radialGradient>
<radialGradient id="paint3_radial_2252_11019" cx="0" cy="0" r="1" gradientUnits="userSpaceOnUse" gradientTransform="translate(138.534 141.188) rotate(77.692) scale(161.509)">
<stop offset="0.507903" stop-color="#7D6133" stop-opacity="0"/>
<stop offset="1" stop-color="#715B32"/>
</radialGradient>
<radialGradient id="paint4_radial_2252_11019" cx="0" cy="0" r="1" gradientUnits="userSpaceOnUse" gradientTransform="translate(141.403 138.319) rotate(55.7131) scale(76.3941 55.3743)">
<stop stop-color="#FFB849"/>
<stop offset="1" stop-color="#FFB847" stop-opacity="0"/>
</radialGradient>
<radialGradient id="paint5_radial_2252_11019" cx="0" cy="0" r="1" gradientUnits="userSpaceOnUse" gradientTransform="translate(164.356 146.926) rotate(9.86581) scale(66.9784)">
<stop stop-color="#FFA64B"/>
<stop offset="0.900412" stop-color="#FFAE46" stop-opacity="0"/>
</radialGradient>
<radialGradient id="paint6_radial_2252_11019" cx="0" cy="0" r="1" gradientUnits="userSpaceOnUse" gradientTransform="translate(147.141 129.712) rotate(43.9708) scale(338.851)">
<stop offset="0.185425" stop-opacity="0"/>
<stop offset="1" stop-opacity="0.4"/>
</radialGradient>
<radialGradient id="paint7_radial_2252_11019" cx="0" cy="0" r="1" gradientUnits="userSpaceOnUse" gradientTransform="translate(94.0909 126.308) rotate(137.961) scale(38.011)">
<stop offset="0.262526" stop-color="#392108"/>
<stop offset="1" stop-color="#C87928" stop-opacity="0"/>
</radialGradient>
<radialGradient id="paint8_radial_2252_11019" cx="0" cy="0" r="1" gradientUnits="userSpaceOnUse" gradientTransform="translate(163.047 126.771) rotate(133.413) scale(35.677 39.2148)">
<stop offset="0.288888" stop-color="#392108"/>
<stop offset="1" stop-color="#C87928" stop-opacity="0"/>
</radialGradient>
<radialGradient id="paint9_radial_2252_11019" cx="0" cy="0" r="1" gradientUnits="userSpaceOnUse" gradientTransform="translate(138.534 207.495) rotate(-90) scale(54.8306 109.661)">
<stop stop-color="#F70A8D"/>
<stop offset="1" stop-color="#89029C"/>
</radialGradient>
<linearGradient id="paint10_linear_2252_11019" x1="138.534" y1="158.402" x2="138.534" y2="167.009" gradientUnits="userSpaceOnUse">
<stop stop-color="#CEA4F3"/>
<stop offset="0.279919" stop-color="#ECCDFF"/>
<stop offset="1" stop-color="white"/>
</linearGradient>
<linearGradient id="paint11_linear_2252_11019" x1="138.534" y1="112.497" x2="138.534" y2="123.973" gradientUnits="userSpaceOnUse">
<stop stop-color="#5F5253"/>
<stop offset="1" stop-color="#4D2C4F"/>
</linearGradient>
<radialGradient id="paint12_radial_2252_11019" cx="0" cy="0" r="1" gradientUnits="userSpaceOnUse" gradientTransform="translate(121.32 106.759) rotate(131.186) scale(60.9967)">
<stop stop-color="#54424A"/>
<stop offset="1" stop-color="#52394D"/>
</radialGradient>
<radialGradient id="paint13_radial_2252_11019" cx="0" cy="0" r="1" gradientUnits="userSpaceOnUse" gradientTransform="translate(104.105 121.105) rotate(170.538) scale(34.9034 34.9034)">
<stop offset="0.899365" stop-color="#3B2131" stop-opacity="0"/>
<stop offset="1" stop-color="#422833"/>
</radialGradient>
<radialGradient id="paint14_radial_2252_11019" cx="0" cy="0" r="1" gradientUnits="userSpaceOnUse" gradientTransform="translate(195.915 106.759) rotate(131.186) scale(60.9967)">
<stop stop-color="#54424A"/>
<stop offset="1" stop-color="#52394D"/>
</radialGradient>
<radialGradient id="paint15_radial_2252_11019" cx="0" cy="0" r="1" gradientUnits="userSpaceOnUse" gradientTransform="translate(178.701 121.105) rotate(170.538) scale(34.9034 34.9034)">
<stop offset="0.899365" stop-color="#3B2131" stop-opacity="0"/>
<stop offset="1" stop-color="#422833"/>
</radialGradient>
</defs>
</svg>
