<svg width="185" height="185" viewBox="0 0 185 185" fill="none" xmlns="http://www.w3.org/2000/svg">
<g id="Nerd face">
<g id="Circle">
<path d="M92.5279 172.77C146.09 172.77 172.855 136.807 172.855 92.4433C172.855 48.0801 146.09 12.1166 92.5279 12.1166C38.9661 12.1166 12.2012 48.0801 12.2012 92.4433C12.2012 136.807 38.9661 172.77 92.5279 172.77Z" fill="url(#paint0_radial_234_2541)"/>
<path d="M92.5279 172.77C146.09 172.77 172.855 136.807 172.855 92.4433C172.855 48.0801 146.09 12.1166 92.5279 12.1166C38.9661 12.1166 12.2012 48.0801 12.2012 92.4433C12.2012 136.807 38.9661 172.77 92.5279 172.77Z" fill="url(#paint1_radial_234_2541)"/>
<path d="M92.5279 172.77C146.09 172.77 172.855 136.807 172.855 92.4433C172.855 48.0801 146.09 12.1166 92.5279 12.1166C38.9661 12.1166 12.2012 48.0801 12.2012 92.4433C12.2012 136.807 38.9661 172.77 92.5279 172.77Z" fill="url(#paint2_radial_234_2541)" fill-opacity="0.6"/>
<path d="M92.5279 172.77C146.09 172.77 172.855 136.807 172.855 92.4433C172.855 48.0801 146.09 12.1166 92.5279 12.1166C38.9661 12.1166 12.2012 48.0801 12.2012 92.4433C12.2012 136.807 38.9661 172.77 92.5279 172.77Z" fill="url(#paint3_radial_234_2541)"/>
<path d="M92.5279 172.77C146.09 172.77 172.855 136.807 172.855 92.4433C172.855 48.0801 146.09 12.1166 92.5279 12.1166C38.9661 12.1166 12.2012 48.0801 12.2012 92.4433C12.2012 136.807 38.9661 172.77 92.5279 172.77Z" fill="url(#paint4_radial_234_2541)"/>
<path d="M92.5279 172.77C146.09 172.77 172.855 136.807 172.855 92.4433C172.855 48.0801 146.09 12.1166 92.5279 12.1166C38.9661 12.1166 12.2012 48.0801 12.2012 92.4433C12.2012 136.807 38.9661 172.77 92.5279 172.77Z" fill="url(#paint5_radial_234_2541)"/>
<path d="M92.5279 172.77C146.09 172.77 172.855 136.807 172.855 92.4433C172.855 48.0801 146.09 12.1166 92.5279 12.1166C38.9661 12.1166 12.2012 48.0801 12.2012 92.4433C12.2012 136.807 38.9661 172.77 92.5279 172.77Z" fill="url(#paint6_radial_234_2541)"/>
<path d="M92.5279 172.77C146.09 172.77 172.855 136.807 172.855 92.4433C172.855 48.0801 146.09 12.1166 92.5279 12.1166C38.9661 12.1166 12.2012 48.0801 12.2012 92.4433C12.2012 136.807 38.9661 172.77 92.5279 172.77Z" fill="url(#paint7_radial_234_2541)"/>
<path d="M92.5279 172.77C146.09 172.77 172.855 136.807 172.855 92.4433C172.855 48.0801 146.09 12.1166 92.5279 12.1166C38.9661 12.1166 12.2012 48.0801 12.2012 92.4433C12.2012 136.807 38.9661 172.77 92.5279 172.77Z" fill="url(#paint8_radial_234_2541)"/>
</g>
<path id="Vector" d="M132.7 115.402C132.7 137.608 114.74 155.569 92.5338 155.569C70.3274 155.569 52.3672 137.608 52.3672 115.402H92.5338H132.7Z" fill="url(#paint9_radial_234_2541)"/>
<path id="Rectangle 107" d="M75.3203 115.402H109.749V123.009C109.749 123.562 109.301 124.009 108.749 124.009H76.3203C75.768 124.009 75.3203 123.562 75.3203 123.009V115.402Z" fill="url(#paint10_linear_234_2541)"/>
<path id="Vector_2" d="M129.832 106.372C145.443 106.372 158.099 93.7162 158.099 78.1045C158.099 62.4929 145.443 49.8372 129.832 49.8372C114.22 49.8372 101.564 62.4929 101.564 78.1045C101.564 93.7162 114.22 106.372 129.832 106.372Z" fill="white"/>
<path id="Vector_3" d="M55.2361 106.372C70.8478 106.372 83.5035 93.7162 83.5035 78.1045C83.5035 62.4929 70.8478 49.8372 55.2361 49.8372C39.6245 49.8372 26.9688 62.4929 26.9688 78.1045C26.9688 93.7162 39.6245 106.372 55.2361 106.372Z" fill="white"/>
<path id="Union" fill-rule="evenodd" clip-rule="evenodd" d="M6.46289 75.2355C6.46289 72.0665 9.03192 69.4974 12.201 69.4974H26.5462V80.9736H12.201C9.03191 80.9736 6.46289 78.4046 6.46289 75.2355ZM172.368 80.9736H158.522V69.4974H172.368C175.799 69.4974 178.605 72.0796 178.605 75.2355C178.605 78.3915 175.799 80.9736 172.368 80.9736ZM81.058 69.4974H104.01V80.9736H81.058V69.4974Z" fill="url(#paint11_linear_234_2541)"/>
<g id="Ellipse 5356">
<ellipse cx="55.2372" cy="78.1045" rx="31.5595" ry="31.5595" fill="url(#paint12_radial_234_2541)"/>
<ellipse cx="55.2372" cy="78.1045" rx="31.5595" ry="31.5595" fill="url(#paint13_radial_234_2541)"/>
</g>
<g id="Ellipse 5357">
<ellipse cx="129.831" cy="78.1045" rx="31.5595" ry="31.5595" fill="url(#paint14_radial_234_2541)"/>
<ellipse cx="129.831" cy="78.1045" rx="31.5595" ry="31.5595" fill="url(#paint15_radial_234_2541)"/>
</g>
<ellipse id="Ellipse 5355" cx="55.2365" cy="78.1045" rx="24.3869" ry="24.3869" fill="white"/>
<ellipse id="Ellipse 5361" cx="129.832" cy="78.1045" rx="24.3869" ry="24.3869" fill="white"/>
<ellipse id="Ellipse 5359" cx="60.9742" cy="78.1045" rx="11.4762" ry="11.4762" fill="#402A32"/>
<circle id="Ellipse 5360" cx="124.093" cy="78.1045" r="11.4762" fill="#402A32"/>
</g>
<defs>
<radialGradient id="paint0_radial_234_2541" cx="0" cy="0" r="1" gradientUnits="userSpaceOnUse" gradientTransform="translate(147.046 52.2832) rotate(131.878) scale(223.491)">
<stop stop-color="#FFF478"/>
<stop offset="0.474827" stop-color="#FFB02E"/>
<stop offset="1" stop-color="#F70A8D"/>
</radialGradient>
<radialGradient id="paint1_radial_234_2541" cx="0" cy="0" r="1" gradientUnits="userSpaceOnUse" gradientTransform="translate(92.5344 72.3665) rotate(101.31) scale(102.405 131.161)">
<stop offset="0.787821" stop-color="#F59639" stop-opacity="0"/>
<stop offset="0.972509" stop-color="#FF7DCE"/>
</radialGradient>
<radialGradient id="paint2_radial_234_2541" cx="0" cy="0" r="1" gradientUnits="userSpaceOnUse" gradientTransform="translate(104.011 80.9736) rotate(135) scale(235.331)">
<stop offset="0.314853" stop-opacity="0"/>
<stop offset="1"/>
</radialGradient>
<radialGradient id="paint3_radial_234_2541" cx="0" cy="0" r="1" gradientUnits="userSpaceOnUse" gradientTransform="translate(92.5343 98.1878) rotate(77.692) scale(161.509)">
<stop offset="0.507903" stop-color="#7D6133" stop-opacity="0"/>
<stop offset="1" stop-color="#715B32"/>
</radialGradient>
<radialGradient id="paint4_radial_234_2541" cx="0" cy="0" r="1" gradientUnits="userSpaceOnUse" gradientTransform="translate(95.4034 95.3188) rotate(55.7131) scale(76.3941 55.3743)">
<stop stop-color="#FFB849"/>
<stop offset="1" stop-color="#FFB847" stop-opacity="0"/>
</radialGradient>
<radialGradient id="paint5_radial_234_2541" cx="0" cy="0" r="1" gradientUnits="userSpaceOnUse" gradientTransform="translate(118.356 103.926) rotate(9.86581) scale(66.9784)">
<stop stop-color="#FFA64B"/>
<stop offset="0.900412" stop-color="#FFAE46" stop-opacity="0"/>
</radialGradient>
<radialGradient id="paint6_radial_234_2541" cx="0" cy="0" r="1" gradientUnits="userSpaceOnUse" gradientTransform="translate(101.141 86.7117) rotate(43.9708) scale(338.851)">
<stop offset="0.185425" stop-opacity="0"/>
<stop offset="1" stop-opacity="0.4"/>
</radialGradient>
<radialGradient id="paint7_radial_234_2541" cx="0" cy="0" r="1" gradientUnits="userSpaceOnUse" gradientTransform="translate(48.0909 83.3079) rotate(137.961) scale(38.011)">
<stop offset="0.262526" stop-color="#392108"/>
<stop offset="1" stop-color="#C87928" stop-opacity="0"/>
</radialGradient>
<radialGradient id="paint8_radial_234_2541" cx="0" cy="0" r="1" gradientUnits="userSpaceOnUse" gradientTransform="translate(117.047 83.7707) rotate(133.413) scale(35.677 39.2148)">
<stop offset="0.288888" stop-color="#392108"/>
<stop offset="1" stop-color="#C87928" stop-opacity="0"/>
</radialGradient>
<radialGradient id="paint9_radial_234_2541" cx="0" cy="0" r="1" gradientUnits="userSpaceOnUse" gradientTransform="translate(92.5338 164.495) rotate(-90) scale(54.8306 109.661)">
<stop stop-color="#F70A8D"/>
<stop offset="1" stop-color="#89029C"/>
</radialGradient>
<linearGradient id="paint10_linear_234_2541" x1="92.5346" y1="115.402" x2="92.5346" y2="124.009" gradientUnits="userSpaceOnUse">
<stop stop-color="#CEA4F3"/>
<stop offset="0.279919" stop-color="#ECCDFF"/>
<stop offset="1" stop-color="white"/>
</linearGradient>
<linearGradient id="paint11_linear_234_2541" x1="92.5341" y1="69.4974" x2="92.5341" y2="80.9736" gradientUnits="userSpaceOnUse">
<stop stop-color="#5F5253"/>
<stop offset="1" stop-color="#4D2C4F"/>
</linearGradient>
<radialGradient id="paint12_radial_234_2541" cx="0" cy="0" r="1" gradientUnits="userSpaceOnUse" gradientTransform="translate(75.3205 63.7593) rotate(131.186) scale(60.9967)">
<stop stop-color="#54424A"/>
<stop offset="1" stop-color="#52394D"/>
</radialGradient>
<radialGradient id="paint13_radial_234_2541" cx="0" cy="0" r="1" gradientUnits="userSpaceOnUse" gradientTransform="translate(58.1062 78.1045) rotate(170.538) scale(34.9034 34.9034)">
<stop offset="0.899365" stop-color="#3B2131" stop-opacity="0"/>
<stop offset="1" stop-color="#422833"/>
</radialGradient>
<radialGradient id="paint14_radial_234_2541" cx="0" cy="0" r="1" gradientUnits="userSpaceOnUse" gradientTransform="translate(149.914 63.7593) rotate(131.186) scale(60.9967)">
<stop stop-color="#54424A"/>
<stop offset="1" stop-color="#52394D"/>
</radialGradient>
<radialGradient id="paint15_radial_234_2541" cx="0" cy="0" r="1" gradientUnits="userSpaceOnUse" gradientTransform="translate(132.7 78.1045) rotate(170.538) scale(34.9034 34.9034)">
<stop offset="0.899365" stop-color="#3B2131" stop-opacity="0"/>
<stop offset="1" stop-color="#422833"/>
</radialGradient>
</defs>
</svg>
