<svg width="372" height="234" viewBox="0 0 372 234" fill="none" xmlns="http://www.w3.org/2000/svg">
<path d="M25.6638 227.334C15.5417 228.623 6.48024 218.674 8.54199 208.602C10.4516 199.273 12.0399 188.616 12 179.043C11.9506 167.202 9.3817 159.055 6.89357 151.163L6.87133 151.093C4.39078 143.225 2 135.607 2 124.476C2 113.637 4.41378 105.83 6.91022 97.781L6.92673 97.7278C9.42514 89.6729 12 81.3715 12 69.901C12 57.434 8.94998 37.3917 6.23456 21.9861C4.60618 12.7476 12.7941 4.42931 22.1137 5.82677C34.2017 7.63934 49.0971 9.43304 60.9928 9.47601C73.355 9.52066 81.1174 7.79189 88.9664 6.04384C89.1655 5.99951 89.3645 5.95518 89.5637 5.91087C97.5366 4.13707 105.778 2.37379 119.5 2.37379C131.59 2.37379 141.385 4.09634 151.424 5.86156L151.612 5.89468C161.711 7.67052 172.058 9.47603 185 9.47603C197.45 9.47603 206.589 7.80428 215.912 6.09895C216.288 6.03012 216.665 5.96124 217.042 5.89241C226.734 4.12332 236.843 2.37379 251.5 2.37379C265.714 2.37379 275.695 4.12273 284.599 5.88678C285.47 6.05923 286.332 6.23228 287.188 6.40417C295.086 7.98976 302.489 9.47603 311.5 9.47603C321.509 9.47603 336.965 7.54836 349.715 5.66339C359.029 4.28633 367.145 12.7533 365.442 22.0488C362.811 36.4058 360 55.0259 360 69.1534C360 79.8755 362.567 88.7182 365.055 97.2872L365.079 97.3723C367.584 106.001 370 114.359 370 124.476C370 135.097 367.586 143.013 365.088 151.178L365.069 151.24C362.573 159.394 360 167.803 360 179.051C360 188.361 361.762 199.486 363.789 209.233C365.847 219.124 357.012 228.735 347.035 227.428C336.455 226.042 323.766 224.855 311.493 224.898C298.855 224.941 287.047 226.742 276.806 228.51C275.243 228.78 273.723 229.048 272.244 229.308C263.93 230.773 256.963 232 251.5 232C237.293 232 228.018 230.254 218.62 228.483L218.607 228.481C209.16 226.701 199.587 224.898 185 224.898C171.551 224.898 161.675 226.604 151.939 228.286L151.91 228.291C142.183 229.972 132.593 231.626 119.5 231.626C104.458 231.626 97.6346 229.983 90.7592 228.327L90.7182 228.318C83.6368 226.612 76.4867 224.898 61 224.898C48.502 224.898 36.0451 226.013 25.6638 227.334Z" fill="#FFD200" stroke="black" stroke-width="4"/>
</svg>
