<svg width="52" height="52" viewBox="0 0 52 52" fill="none" xmlns="http://www.w3.org/2000/svg">
<g id="pepicons-pop:leave-circle-filled">
<g clip-path="url(#clip0_1662_931)">
<g id="Group">
<g id="Mask group">
<mask id="mask0_1662_931" style="mask-type:luminance" maskUnits="userSpaceOnUse" x="2" y="2" width="48" height="48">
<g id="Group_2">
<path id="Vector" d="M2 2H50V50H2V2Z" fill="white"/>
<g id="Group_3">
<path id="Vector_2" fill-rule="evenodd" clip-rule="evenodd" d="M35.2829 20.8898C35.659 20.5766 36.1441 20.4256 36.6315 20.4699C37.119 20.5142 37.5688 20.7502 37.8823 21.1262L41.7278 25.7415C42.0274 26.1191 42.1674 26.5988 42.118 27.0782C42.0687 27.5577 41.8337 27.9987 41.4635 28.3073C41.0932 28.6158 40.617 28.7674 40.1365 28.7295C39.6561 28.6916 39.2095 28.4674 38.8921 28.1046L35.0448 23.4892C34.7315 23.1131 34.5805 22.6281 34.6248 22.1406C34.6691 21.6532 34.9051 21.2033 35.2811 20.8898" fill="black"/>
<path id="Vector_3" fill-rule="evenodd" clip-rule="evenodd" d="M35.2821 32.9563C34.906 32.6431 34.6696 32.1933 34.6249 31.7059C34.5802 31.2184 34.731 30.7332 35.044 30.3569L38.8914 25.7415C39.0444 25.5487 39.2344 25.3884 39.4503 25.2701C39.6662 25.1517 39.9035 25.0778 40.1484 25.0526C40.3933 25.0273 40.6407 25.0513 40.8762 25.1232C41.1116 25.195 41.3304 25.3132 41.5195 25.4707C41.7086 25.6283 41.8643 25.8222 41.9774 26.0408C42.0905 26.2595 42.1587 26.4985 42.178 26.7439C42.1974 26.9893 42.1674 27.2361 42.09 27.4698C42.0126 27.7035 41.8892 27.9193 41.7271 28.1046L37.8815 32.72C37.5681 33.0959 37.1182 33.3319 36.6308 33.3762C36.1433 33.4206 35.6582 33.2695 35.2821 32.9563Z" fill="black"/>
<path id="Vector_4" fill-rule="evenodd" clip-rule="evenodd" d="M39.8474 26.923C39.8474 27.4127 39.6529 27.8822 39.3066 28.2285C38.9604 28.5747 38.4908 28.7692 38.0012 28.7692H26.0012C25.5116 28.7692 25.042 28.5747 24.6958 28.2285C24.3496 27.8822 24.155 27.4127 24.155 26.923C24.155 26.4334 24.3496 25.9638 24.6958 25.6176C25.042 25.2714 25.5116 25.0769 26.0012 25.0769H38.0012C38.4908 25.0769 38.9604 25.2714 39.3066 25.6176C39.6529 25.9638 39.8474 26.4334 39.8474 26.923ZM13.0781 14C13.0781 13.5103 13.2726 13.0408 13.6189 12.6945C13.9651 12.3483 14.4346 12.1538 14.9243 12.1538H31.5397C32.0293 12.1538 32.4989 12.3483 32.8451 12.6945C33.1913 13.0408 33.3858 13.5103 33.3858 14C33.3858 14.4896 33.1913 14.9592 32.8451 15.3054C32.4989 15.6516 32.0293 15.8461 31.5397 15.8461H14.9243C14.4346 15.8461 13.9651 15.6516 13.6189 15.3054C13.2726 14.9592 13.0781 14.4896 13.0781 14ZM13.0781 39.8461C13.0781 39.3565 13.2726 38.8869 13.6189 38.5407C13.9651 38.1945 14.4346 38 14.9243 38H31.5397C32.0293 38 32.4989 38.1945 32.8451 38.5407C33.1913 38.8869 33.3858 39.3565 33.3858 39.8461C33.3858 40.3357 33.1913 40.8053 32.8451 41.1515C32.4989 41.4978 32.0293 41.6923 31.5397 41.6923H14.9243C14.4346 41.6923 13.9651 41.4978 13.6189 41.1515C13.2726 40.8053 13.0781 40.3357 13.0781 39.8461Z" fill="black"/>
<path id="Vector_5" fill-rule="evenodd" clip-rule="evenodd" d="M31.5397 12.1538C32.0293 12.1538 32.4989 12.3483 32.8451 12.6945C33.1913 13.0408 33.3858 13.5103 33.3858 14V21.3846C33.3858 21.8742 33.1913 22.3438 32.8451 22.69C32.4989 23.0362 32.0293 23.2307 31.5397 23.2307C31.05 23.2307 30.5805 23.0362 30.2342 22.69C29.888 22.3438 29.6935 21.8742 29.6935 21.3846V14C29.6935 13.5103 29.888 13.0408 30.2342 12.6945C30.5805 12.3483 31.05 12.1538 31.5397 12.1538ZM31.5397 30.6153C32.0293 30.6153 32.4989 30.8099 32.8451 31.1561C33.1913 31.5023 33.3858 31.9719 33.3858 32.4615V39.8461C33.3858 40.3357 33.1913 40.8053 32.8451 41.1515C32.4989 41.4978 32.0293 41.6923 31.5397 41.6923C31.05 41.6923 30.5805 41.4978 30.2342 41.1515C29.888 40.8053 29.6935 40.3357 29.6935 39.8461V32.4615C29.6935 31.9719 29.888 31.5023 30.2342 31.1561C30.5805 30.8099 31.05 30.6153 31.5397 30.6153ZM14.9243 12.1538C15.4139 12.1538 15.8835 12.3483 16.2297 12.6945C16.5759 13.0408 16.7704 13.5103 16.7704 14V39.8461C16.7704 40.3357 16.5759 40.8053 16.2297 41.1515C15.8835 41.4978 15.4139 41.6923 14.9243 41.6923C14.4346 41.6923 13.9651 41.4978 13.6189 41.1515C13.2726 40.8053 13.0781 40.3357 13.0781 39.8461V14C13.0781 13.5103 13.2726 13.0408 13.6189 12.6945C13.9651 12.3483 14.4346 12.1538 14.9243 12.1538Z" fill="black"/>
</g>
</g>
</mask>
<g mask="url(#mask0_1662_931)">
<path id="Vector_6" d="M26 50C39.2548 50 50 39.2548 50 26C50 12.7452 39.2548 2 26 2C12.7452 2 2 12.7452 2 26C2 39.2548 12.7452 50 26 50Z" fill="#1FCC7B"/>
</g>
</g>
</g>
</g>
<rect x="1" y="1" width="50" height="50" rx="25" stroke="black" stroke-width="2"/>
</g>
<defs>
<clipPath id="clip0_1662_931">
<rect x="2" y="2" width="48" height="48" rx="24" fill="white"/>
</clipPath>
</defs>
</svg>
