<svg width="184" height="184" viewBox="0 0 184 184" fill="none" xmlns="http://www.w3.org/2000/svg">
<g id="Smiling face with sunglasses">
<g id="Head">
<path d="M91.7987 172.13C145.361 172.13 172.127 136.166 172.127 91.803C172.127 47.4397 145.361 11.4762 91.7987 11.4762C38.236 11.4762 11.4707 47.4397 11.4707 91.803C11.4707 136.166 38.236 172.13 91.7987 172.13Z" fill="url(#paint0_radial_234_2936)"/>
<path d="M91.7987 172.13C145.361 172.13 172.127 136.166 172.127 91.803C172.127 47.4397 145.361 11.4762 91.7987 11.4762C38.236 11.4762 11.4707 47.4397 11.4707 91.803C11.4707 136.166 38.236 172.13 91.7987 172.13Z" fill="url(#paint1_radial_234_2936)"/>
<path d="M91.7987 172.13C145.361 172.13 172.127 136.166 172.127 91.803C172.127 47.4397 145.361 11.4762 91.7987 11.4762C38.236 11.4762 11.4707 47.4397 11.4707 91.803C11.4707 136.166 38.236 172.13 91.7987 172.13Z" fill="url(#paint2_radial_234_2936)" fill-opacity="0.6"/>
<path d="M91.7987 172.13C145.361 172.13 172.127 136.166 172.127 91.803C172.127 47.4397 145.361 11.4762 91.7987 11.4762C38.236 11.4762 11.4707 47.4397 11.4707 91.803C11.4707 136.166 38.236 172.13 91.7987 172.13Z" fill="url(#paint3_radial_234_2936)"/>
<path d="M91.7987 172.13C145.361 172.13 172.127 136.166 172.127 91.803C172.127 47.4397 145.361 11.4762 91.7987 11.4762C38.236 11.4762 11.4707 47.4397 11.4707 91.803C11.4707 136.166 38.236 172.13 91.7987 172.13Z" fill="url(#paint4_radial_234_2936)"/>
<path d="M91.7987 172.13C145.361 172.13 172.127 136.166 172.127 91.803C172.127 47.4397 145.361 11.4762 91.7987 11.4762C38.236 11.4762 11.4707 47.4397 11.4707 91.803C11.4707 136.166 38.236 172.13 91.7987 172.13Z" fill="url(#paint5_radial_234_2936)"/>
<path d="M91.7987 172.13C145.361 172.13 172.127 136.166 172.127 91.803C172.127 47.4397 145.361 11.4762 91.7987 11.4762C38.236 11.4762 11.4707 47.4397 11.4707 91.803C11.4707 136.166 38.236 172.13 91.7987 172.13Z" fill="url(#paint6_radial_234_2936)"/>
<path d="M91.7987 172.13C145.361 172.13 172.127 136.166 172.127 91.803C172.127 47.4397 145.361 11.4762 91.7987 11.4762C38.236 11.4762 11.4707 47.4397 11.4707 91.803C11.4707 136.166 38.236 172.13 91.7987 172.13Z" fill="url(#paint7_radial_234_2936)"/>
<path d="M91.7987 172.13C145.361 172.13 172.127 136.166 172.127 91.803C172.127 47.4397 145.361 11.4762 91.7987 11.4762C38.236 11.4762 11.4707 47.4397 11.4707 91.803C11.4707 136.166 38.236 172.13 91.7987 172.13Z" fill="url(#paint8_radial_234_2936)"/>
</g>
<path id="Union" fill-rule="evenodd" clip-rule="evenodd" d="M69.6635 105.685C69.6731 105.698 69.6826 105.712 69.6921 105.725L69.6829 105.712L69.6729 105.698L69.6635 105.685C67.8351 103.128 64.2835 102.516 61.7034 104.324C59.1081 106.143 58.4786 109.721 60.2973 112.316L60.3442 112.284C60.3434 112.282 60.345 112.285 60.3442 112.284C60.2978 112.317 60.3005 112.321 60.3009 112.322L60.3048 112.327L60.313 112.339L60.3319 112.365L60.3792 112.431C60.415 112.48 60.4594 112.54 60.5125 112.611C60.6186 112.751 60.7596 112.932 60.9363 113.148C61.2894 113.58 61.7866 114.153 62.4343 114.819C63.7282 116.148 65.6354 117.86 68.2072 119.554C73.3918 122.968 81.1763 126.238 91.8045 126.238C102.433 126.238 110.217 122.968 115.402 119.554C117.974 117.86 119.881 116.148 121.175 114.819C121.822 114.153 122.32 113.58 122.673 113.148C122.849 112.932 122.99 112.751 123.096 112.611C123.15 112.54 123.194 112.48 123.23 112.431L123.277 112.365L123.296 112.339L123.304 112.327L123.308 112.322C123.308 112.321 123.309 112.321 123.287 112.305C123.286 112.306 123.288 112.304 123.287 112.305L123.312 112.316C125.13 109.721 124.501 106.143 121.906 104.324C119.326 102.516 115.774 103.128 113.945 105.685C113.944 105.687 113.941 105.69 113.939 105.694C113.918 105.722 113.868 105.787 113.788 105.885C113.628 106.08 113.35 106.404 112.951 106.814C112.15 107.637 110.874 108.794 109.089 109.969C105.561 112.293 99.9419 114.761 91.8045 114.761C83.667 114.761 78.0476 112.293 74.5195 109.969C72.735 108.794 71.4588 107.637 70.6583 106.814C70.2589 106.404 69.9811 106.08 69.8211 105.885C69.7412 105.787 69.6937 105.726 69.6729 105.698L69.6635 105.685ZM113.945 105.685C113.936 105.698 113.926 105.712 113.917 105.725L113.926 105.712L113.939 105.694C113.941 105.69 113.944 105.687 113.945 105.685C113.95 105.679 113.949 105.681 113.945 105.685Z" fill="url(#paint9_radial_234_2936)"/>
<g id="Frame">
<path fill-rule="evenodd" clip-rule="evenodd" d="M73.4246 32.5142C77.5193 34.146 80.8676 36.918 83.1991 40.4511C83.4041 40.7617 83.7572 40.9439 84.1285 40.9189C88.4174 40.631 93.7147 40.5419 99.4552 40.9485C99.8284 40.9749 100.185 40.7921 100.39 40.4796C102.722 36.9329 106.078 34.1503 110.183 32.5142C111.337 32.0212 113.33 31.2834 118.27 30.3624C121.257 29.8053 128.366 29.4995 133.165 29.3905C138.117 29.2781 143.443 29.2824 147.425 29.2856L149.23 29.2866C156.055 29.2866 162.788 31.4429 165.458 33.0522C171.465 36.1005 177.024 41.9283 177.423 51.9568C177.439 52.1068 177.45 52.258 177.455 52.4101C177.928 67.8362 168.348 89.899 143.926 95.9452C142.21 96.3701 140.522 96.6792 138.83 96.9123C138.748 96.9236 138.665 96.9332 138.583 96.9409C112.866 99.3509 96.241 76.6329 96.7322 52.8697C96.7389 52.5428 96.4862 52.2665 96.1595 52.2518C93.0093 52.1093 90.0596 52.1265 87.4509 52.2322C87.1228 52.2455 86.8686 52.5226 86.8756 52.8508C87.386 76.6205 70.7423 99.3509 45.0251 96.9409C44.9424 96.9332 44.8599 96.9236 44.7777 96.9123C43.0855 96.6792 41.3982 96.3701 39.6816 95.9452C15.2595 89.899 5.68015 67.8362 6.15336 52.4101C6.15803 52.258 6.16871 52.1068 6.18524 51.9568C6.5839 41.9283 12.1428 36.1005 18.1499 33.0522C20.82 31.4429 27.5533 29.2866 34.3781 29.2866L36.1832 29.2856C40.1651 29.2824 45.4907 29.2781 50.4434 29.3905C55.2419 29.4995 62.3505 29.8053 65.3384 30.3624C70.2783 31.2834 72.2707 32.0212 73.4246 32.5142ZM14.2842 46.8518C15.7181 43.3595 18.3797 40.5055 21.9629 38.3459C23.9777 37.1316 28.8446 35.0246 34.3781 35.0246L36.1612 35.0237C44.1525 35.0173 57.2455 35.0068 62.15 35.9212C66.9038 36.8075 68.441 37.4529 69.0985 37.7368C71.7926 38.797 74.1417 40.5427 75.932 42.7588L77.8929 53.1708C78.3606 53.0827 78.9364 52.989 79.6086 52.8954C79.6102 52.9902 79.611 53.0851 79.611 53.1803L79.6101 53.3593C80.6412 77.522 62.2396 92.0853 45.0251 90.4714C43.5033 90.2618 42.0177 89.9883 40.525 89.6188C22.3908 85.1293 14.7774 70.8427 13.329 58.1994C13.1059 56.2523 13.0291 54.3442 13.0825 52.5169L13.0841 52.4656L13.0956 52.466L13.0978 52.4101C13.1776 50.4098 13.5849 48.5549 14.2842 46.8518ZM103.999 52.932C103.998 53.0146 103.997 53.0974 103.997 53.1803L103.998 53.3593C102.967 77.522 121.368 92.0853 138.583 90.4714C140.105 90.2618 141.59 89.9883 143.083 89.6188C161.217 85.1293 168.831 70.8427 170.279 58.1994C170.502 56.2523 170.579 54.3442 170.525 52.5169L170.524 52.4656L170.512 52.466L170.51 52.4101C170.43 50.4098 170.023 48.5549 169.324 46.8518C167.89 43.3595 165.228 40.5055 161.645 38.3459C159.63 37.1316 154.763 35.0246 149.23 35.0246L147.447 35.0237C139.455 35.0173 126.362 35.0068 121.458 35.9212C116.704 36.8075 115.167 37.4529 114.509 37.7368C111.712 38.8376 109.287 40.6772 107.473 43.0151L105.903 53.203C105.266 53.1048 104.631 53.0147 103.999 52.932Z" fill="url(#paint10_radial_234_2936)"/>
<path fill-rule="evenodd" clip-rule="evenodd" d="M73.4246 32.5142C77.5193 34.146 80.8676 36.918 83.1991 40.4511C83.4041 40.7617 83.7572 40.9439 84.1285 40.9189C88.4174 40.631 93.7147 40.5419 99.4552 40.9485C99.8284 40.9749 100.185 40.7921 100.39 40.4796C102.722 36.9329 106.078 34.1503 110.183 32.5142C111.337 32.0212 113.33 31.2834 118.27 30.3624C121.257 29.8053 128.366 29.4995 133.165 29.3905C138.117 29.2781 143.443 29.2824 147.425 29.2856L149.23 29.2866C156.055 29.2866 162.788 31.4429 165.458 33.0522C171.465 36.1005 177.024 41.9283 177.423 51.9568C177.439 52.1068 177.45 52.258 177.455 52.4101C177.928 67.8362 168.348 89.899 143.926 95.9452C142.21 96.3701 140.522 96.6792 138.83 96.9123C138.748 96.9236 138.665 96.9332 138.583 96.9409C112.866 99.3509 96.241 76.6329 96.7322 52.8697C96.7389 52.5428 96.4862 52.2665 96.1595 52.2518C93.0093 52.1093 90.0596 52.1265 87.4509 52.2322C87.1228 52.2455 86.8686 52.5226 86.8756 52.8508C87.386 76.6205 70.7423 99.3509 45.0251 96.9409C44.9424 96.9332 44.8599 96.9236 44.7777 96.9123C43.0855 96.6792 41.3982 96.3701 39.6816 95.9452C15.2595 89.899 5.68015 67.8362 6.15336 52.4101C6.15803 52.258 6.16871 52.1068 6.18524 51.9568C6.5839 41.9283 12.1428 36.1005 18.1499 33.0522C20.82 31.4429 27.5533 29.2866 34.3781 29.2866L36.1832 29.2856C40.1651 29.2824 45.4907 29.2781 50.4434 29.3905C55.2419 29.4995 62.3505 29.8053 65.3384 30.3624C70.2783 31.2834 72.2707 32.0212 73.4246 32.5142ZM14.2842 46.8518C15.7181 43.3595 18.3797 40.5055 21.9629 38.3459C23.9777 37.1316 28.8446 35.0246 34.3781 35.0246L36.1612 35.0237C44.1525 35.0173 57.2455 35.0068 62.15 35.9212C66.9038 36.8075 68.441 37.4529 69.0985 37.7368C71.7926 38.797 74.1417 40.5427 75.932 42.7588L77.8929 53.1708C78.3606 53.0827 78.9364 52.989 79.6086 52.8954C79.6102 52.9902 79.611 53.0851 79.611 53.1803L79.6101 53.3593C80.6412 77.522 62.2396 92.0853 45.0251 90.4714C43.5033 90.2618 42.0177 89.9883 40.525 89.6188C22.3908 85.1293 14.7774 70.8427 13.329 58.1994C13.1059 56.2523 13.0291 54.3442 13.0825 52.5169L13.0841 52.4656L13.0956 52.466L13.0978 52.4101C13.1776 50.4098 13.5849 48.5549 14.2842 46.8518ZM103.999 52.932C103.998 53.0146 103.997 53.0974 103.997 53.1803L103.998 53.3593C102.967 77.522 121.368 92.0853 138.583 90.4714C140.105 90.2618 141.59 89.9883 143.083 89.6188C161.217 85.1293 168.831 70.8427 170.279 58.1994C170.502 56.2523 170.579 54.3442 170.525 52.5169L170.524 52.4656L170.512 52.466L170.51 52.4101C170.43 50.4098 170.023 48.5549 169.324 46.8518C167.89 43.3595 165.228 40.5055 161.645 38.3459C159.63 37.1316 154.763 35.0246 149.23 35.0246L147.447 35.0237C139.455 35.0173 126.362 35.0068 121.458 35.9212C116.704 36.8075 115.167 37.4529 114.509 37.7368C111.712 38.8376 109.287 40.6772 107.473 43.0151L105.903 53.203C105.266 53.1048 104.631 53.0147 103.999 52.932Z" fill="url(#paint11_radial_234_2936)"/>
<path fill-rule="evenodd" clip-rule="evenodd" d="M73.4246 32.5142C77.5193 34.146 80.8676 36.918 83.1991 40.4511C83.4041 40.7617 83.7572 40.9439 84.1285 40.9189C88.4174 40.631 93.7147 40.5419 99.4552 40.9485C99.8284 40.9749 100.185 40.7921 100.39 40.4796C102.722 36.9329 106.078 34.1503 110.183 32.5142C111.337 32.0212 113.33 31.2834 118.27 30.3624C121.257 29.8053 128.366 29.4995 133.165 29.3905C138.117 29.2781 143.443 29.2824 147.425 29.2856L149.23 29.2866C156.055 29.2866 162.788 31.4429 165.458 33.0522C171.465 36.1005 177.024 41.9283 177.423 51.9568C177.439 52.1068 177.45 52.258 177.455 52.4101C177.928 67.8362 168.348 89.899 143.926 95.9452C142.21 96.3701 140.522 96.6792 138.83 96.9123C138.748 96.9236 138.665 96.9332 138.583 96.9409C112.866 99.3509 96.241 76.6329 96.7322 52.8697C96.7389 52.5428 96.4862 52.2665 96.1595 52.2518C93.0093 52.1093 90.0596 52.1265 87.4509 52.2322C87.1228 52.2455 86.8686 52.5226 86.8756 52.8508C87.386 76.6205 70.7423 99.3509 45.0251 96.9409C44.9424 96.9332 44.8599 96.9236 44.7777 96.9123C43.0855 96.6792 41.3982 96.3701 39.6816 95.9452C15.2595 89.899 5.68015 67.8362 6.15336 52.4101C6.15803 52.258 6.16871 52.1068 6.18524 51.9568C6.5839 41.9283 12.1428 36.1005 18.1499 33.0522C20.82 31.4429 27.5533 29.2866 34.3781 29.2866L36.1832 29.2856C40.1651 29.2824 45.4907 29.2781 50.4434 29.3905C55.2419 29.4995 62.3505 29.8053 65.3384 30.3624C70.2783 31.2834 72.2707 32.0212 73.4246 32.5142ZM14.2842 46.8518C15.7181 43.3595 18.3797 40.5055 21.9629 38.3459C23.9777 37.1316 28.8446 35.0246 34.3781 35.0246L36.1612 35.0237C44.1525 35.0173 57.2455 35.0068 62.15 35.9212C66.9038 36.8075 68.441 37.4529 69.0985 37.7368C71.7926 38.797 74.1417 40.5427 75.932 42.7588L77.8929 53.1708C78.3606 53.0827 78.9364 52.989 79.6086 52.8954C79.6102 52.9902 79.611 53.0851 79.611 53.1803L79.6101 53.3593C80.6412 77.522 62.2396 92.0853 45.0251 90.4714C43.5033 90.2618 42.0177 89.9883 40.525 89.6188C22.3908 85.1293 14.7774 70.8427 13.329 58.1994C13.1059 56.2523 13.0291 54.3442 13.0825 52.5169L13.0841 52.4656L13.0956 52.466L13.0978 52.4101C13.1776 50.4098 13.5849 48.5549 14.2842 46.8518ZM103.999 52.932C103.998 53.0146 103.997 53.0974 103.997 53.1803L103.998 53.3593C102.967 77.522 121.368 92.0853 138.583 90.4714C140.105 90.2618 141.59 89.9883 143.083 89.6188C161.217 85.1293 168.831 70.8427 170.279 58.1994C170.502 56.2523 170.579 54.3442 170.525 52.5169L170.524 52.4656L170.512 52.466L170.51 52.4101C170.43 50.4098 170.023 48.5549 169.324 46.8518C167.89 43.3595 165.228 40.5055 161.645 38.3459C159.63 37.1316 154.763 35.0246 149.23 35.0246L147.447 35.0237C139.455 35.0173 126.362 35.0068 121.458 35.9212C116.704 36.8075 115.167 37.4529 114.509 37.7368C111.712 38.8376 109.287 40.6772 107.473 43.0151L105.903 53.203C105.266 53.1048 104.631 53.0147 103.999 52.932Z" fill="url(#paint12_radial_234_2936)"/>
</g>
<g id="Left Lens">
<path d="M21.9631 38.3459C23.9779 37.1315 28.8448 35.0246 34.3783 35.0246C34.9369 35.0246 35.5334 35.0241 36.1614 35.0236C44.1527 35.0172 57.2457 35.0068 62.1502 35.9212C66.904 36.8074 68.4412 37.4528 69.0987 37.7367C75.2559 40.1599 79.6113 46.1628 79.6113 53.1802L79.6103 53.3593C80.6414 77.522 62.2398 92.0852 45.0253 90.4714C43.5035 90.2617 42.0178 89.9883 40.5252 89.6187C19.5709 84.4311 12.6641 66.1623 13.0843 52.463L13.0958 52.4659C13.3215 46.3371 16.6163 41.5684 21.9631 38.3459Z" fill="url(#paint13_radial_234_2936)"/>
<path d="M21.9631 38.3459C23.9779 37.1315 28.8448 35.0246 34.3783 35.0246C34.9369 35.0246 35.5334 35.0241 36.1614 35.0236C44.1527 35.0172 57.2457 35.0068 62.1502 35.9212C66.904 36.8074 68.4412 37.4528 69.0987 37.7367C75.2559 40.1599 79.6113 46.1628 79.6113 53.1802L79.6103 53.3593C80.6414 77.522 62.2398 92.0852 45.0253 90.4714C43.5035 90.2617 42.0178 89.9883 40.5252 89.6187C19.5709 84.4311 12.6641 66.1623 13.0843 52.463L13.0958 52.4659C13.3215 46.3371 16.6163 41.5684 21.9631 38.3459Z" fill="url(#paint14_radial_234_2936)"/>
<path d="M21.9631 38.3459C23.9779 37.1315 28.8448 35.0246 34.3783 35.0246C34.9369 35.0246 35.5334 35.0241 36.1614 35.0236C44.1527 35.0172 57.2457 35.0068 62.1502 35.9212C66.904 36.8074 68.4412 37.4528 69.0987 37.7367C75.2559 40.1599 79.6113 46.1628 79.6113 53.1802L79.6103 53.3593C80.6414 77.522 62.2398 92.0852 45.0253 90.4714C43.5035 90.2617 42.0178 89.9883 40.5252 89.6187C19.5709 84.4311 12.6641 66.1623 13.0843 52.463L13.0958 52.4659C13.3215 46.3371 16.6163 41.5684 21.9631 38.3459Z" fill="url(#paint15_radial_234_2936)"/>
<path d="M21.9631 38.3459C23.9779 37.1315 28.8448 35.0246 34.3783 35.0246C34.9369 35.0246 35.5334 35.0241 36.1614 35.0236C44.1527 35.0172 57.2457 35.0068 62.1502 35.9212C66.904 36.8074 68.4412 37.4528 69.0987 37.7367C75.2559 40.1599 79.6113 46.1628 79.6113 53.1802L79.6103 53.3593C80.6414 77.522 62.2398 92.0852 45.0253 90.4714C43.5035 90.2617 42.0178 89.9883 40.5252 89.6187C19.5709 84.4311 12.6641 66.1623 13.0843 52.463L13.0958 52.4659C13.3215 46.3371 16.6163 41.5684 21.9631 38.3459Z" fill="url(#paint16_radial_234_2936)"/>
</g>
<ellipse id="Left Lens Highlight" cx="8.57386" cy="10.7825" rx="8.57386" ry="10.7825" transform="matrix(0.899688 -0.436533 0.436544 0.899683 51.4922 46.5043)" fill="url(#paint17_linear_234_2936)"/>
<g id="Right Lens">
<path d="M161.646 38.3459C159.631 37.1315 154.765 35.0246 149.231 35.0246C148.672 35.0246 148.076 35.0241 147.448 35.0236C139.457 35.0172 126.364 35.0068 121.459 35.9212C116.705 36.8074 115.168 37.4528 114.511 37.7367C108.353 40.1599 103.998 46.1628 103.998 53.1802L103.999 53.3593C102.968 77.522 121.37 92.0852 138.584 90.4714C140.106 90.2617 141.592 89.9883 143.084 89.6187C164.039 84.4311 170.945 66.1623 170.525 52.463L170.514 52.4659C170.288 46.3371 166.993 41.5684 161.646 38.3459Z" fill="url(#paint18_radial_234_2936)"/>
<path d="M161.646 38.3459C159.631 37.1315 154.765 35.0246 149.231 35.0246C148.672 35.0246 148.076 35.0241 147.448 35.0236C139.457 35.0172 126.364 35.0068 121.459 35.9212C116.705 36.8074 115.168 37.4528 114.511 37.7367C108.353 40.1599 103.998 46.1628 103.998 53.1802L103.999 53.3593C102.968 77.522 121.37 92.0852 138.584 90.4714C140.106 90.2617 141.592 89.9883 143.084 89.6187C164.039 84.4311 170.945 66.1623 170.525 52.463L170.514 52.4659C170.288 46.3371 166.993 41.5684 161.646 38.3459Z" fill="url(#paint19_radial_234_2936)"/>
<path d="M161.646 38.3459C159.631 37.1315 154.765 35.0246 149.231 35.0246C148.672 35.0246 148.076 35.0241 147.448 35.0236C139.457 35.0172 126.364 35.0068 121.459 35.9212C116.705 36.8074 115.168 37.4528 114.511 37.7367C108.353 40.1599 103.998 46.1628 103.998 53.1802L103.999 53.3593C102.968 77.522 121.37 92.0852 138.584 90.4714C140.106 90.2617 141.592 89.9883 143.084 89.6187C164.039 84.4311 170.945 66.1623 170.525 52.463L170.514 52.4659C170.288 46.3371 166.993 41.5684 161.646 38.3459Z" fill="url(#paint20_radial_234_2936)"/>
<path d="M161.646 38.3459C159.631 37.1315 154.765 35.0246 149.231 35.0246C148.672 35.0246 148.076 35.0241 147.448 35.0236C139.457 35.0172 126.364 35.0068 121.459 35.9212C116.705 36.8074 115.168 37.4528 114.511 37.7367C108.353 40.1599 103.998 46.1628 103.998 53.1802L103.999 53.3593C102.968 77.522 121.37 92.0852 138.584 90.4714C140.106 90.2617 141.592 89.9883 143.084 89.6187C164.039 84.4311 170.945 66.1623 170.525 52.463L170.514 52.4659C170.288 46.3371 166.993 41.5684 161.646 38.3459Z" fill="url(#paint21_radial_234_2936)"/>
</g>
<ellipse id="Right Lens Highlight" cx="8.57386" cy="10.7825" rx="8.57386" ry="10.7825" transform="matrix(0.899688 -0.436533 0.436544 0.899683 143.498 46.5043)" fill="url(#paint22_linear_234_2936)"/>
</g>
<defs>
<radialGradient id="paint0_radial_234_2936" cx="0" cy="0" r="1" gradientUnits="userSpaceOnUse" gradientTransform="translate(146.318 51.6428) rotate(131.878) scale(223.492 223.493)">
<stop stop-color="#FFF478"/>
<stop offset="0.474827" stop-color="#FFB02E"/>
<stop offset="1" stop-color="#F70A8D"/>
</radialGradient>
<radialGradient id="paint1_radial_234_2936" cx="0" cy="0" r="1" gradientUnits="userSpaceOnUse" gradientTransform="translate(91.8051 71.7261) rotate(101.31) scale(102.405 131.163)">
<stop offset="0.787821" stop-color="#F59639" stop-opacity="0"/>
<stop offset="0.972509" stop-color="#FF7DCE"/>
</radialGradient>
<radialGradient id="paint2_radial_234_2936" cx="0" cy="0" r="1" gradientUnits="userSpaceOnUse" gradientTransform="translate(103.281 80.3332) rotate(135) scale(235.333)">
<stop offset="0.314853" stop-opacity="0"/>
<stop offset="1"/>
</radialGradient>
<radialGradient id="paint3_radial_234_2936" cx="0" cy="0" r="1" gradientUnits="userSpaceOnUse" gradientTransform="translate(91.8051 97.5474) rotate(77.6918) scale(161.51 161.512)">
<stop offset="0.507903" stop-color="#7D6133" stop-opacity="0"/>
<stop offset="1" stop-color="#715B32"/>
</radialGradient>
<radialGradient id="paint4_radial_234_2936" cx="0" cy="0" r="1" gradientUnits="userSpaceOnUse" gradientTransform="translate(94.6742 94.6784) rotate(55.7127) scale(76.3945 55.3749)">
<stop stop-color="#FFB849"/>
<stop offset="1" stop-color="#FFB847" stop-opacity="0"/>
</radialGradient>
<radialGradient id="paint5_radial_234_2936" cx="0" cy="0" r="1" gradientUnits="userSpaceOnUse" gradientTransform="translate(117.627 103.286) rotate(9.86566) scale(66.9794 66.9785)">
<stop stop-color="#FFA64B"/>
<stop offset="0.900412" stop-color="#FFAE46" stop-opacity="0"/>
</radialGradient>
<radialGradient id="paint6_radial_234_2936" cx="0" cy="0" r="1" gradientUnits="userSpaceOnUse" gradientTransform="translate(100.412 86.0713) rotate(43.9704) scale(338.853 338.853)">
<stop offset="0.185425" stop-opacity="0"/>
<stop offset="1" stop-opacity="0.4"/>
</radialGradient>
<radialGradient id="paint7_radial_234_2936" cx="0" cy="0" r="1" gradientUnits="userSpaceOnUse" gradientTransform="translate(124.851 67.5998) rotate(124.346) scale(36.0764 44.3208)">
<stop offset="0.440361" stop-color="#BC6533"/>
<stop offset="1" stop-color="#BC6533" stop-opacity="0"/>
</radialGradient>
<radialGradient id="paint8_radial_234_2936" cx="0" cy="0" r="1" gradientUnits="userSpaceOnUse" gradientTransform="translate(43.3505 65.654) rotate(67.4256) scale(42.4254 42.4258)">
<stop offset="0.538073" stop-color="#BC6533"/>
<stop offset="1" stop-color="#BC6533" stop-opacity="0"/>
</radialGradient>
<radialGradient id="paint9_radial_234_2936" cx="0" cy="0" r="1" gradientUnits="userSpaceOnUse" gradientTransform="translate(91.8045 102.222) rotate(90) scale(62.7603 96.7937)">
<stop offset="0.145833" stop-color="#2E1529"/>
<stop offset="0.276042" stop-color="#503A4A"/>
<stop offset="0.342857" stop-color="#4B2744"/>
</radialGradient>
<radialGradient id="paint10_radial_234_2936" cx="0" cy="0" r="1" gradientUnits="userSpaceOnUse" gradientTransform="translate(121.211 33.0073) rotate(78.8613) scale(70.5445 146.187)">
<stop stop-color="#5F5B9B"/>
<stop offset="1" stop-color="#5C3085"/>
</radialGradient>
<radialGradient id="paint11_radial_234_2936" cx="0" cy="0" r="1" gradientUnits="userSpaceOnUse" gradientTransform="translate(137.082 63.1964) rotate(78.0635) scale(31.6416 35.5468)">
<stop offset="0.776042" stop-color="#77579C"/>
<stop offset="0.9375" stop-color="#77579C" stop-opacity="0"/>
</radialGradient>
<radialGradient id="paint12_radial_234_2936" cx="0" cy="0" r="1" gradientUnits="userSpaceOnUse" gradientTransform="translate(125.515 57.3942) rotate(-122.736) scale(26.8597 19.7166)">
<stop offset="0.769354" stop-color="#4E3D92"/>
<stop offset="1" stop-color="#534687" stop-opacity="0"/>
</radialGradient>
<radialGradient id="paint13_radial_234_2936" cx="0" cy="0" r="1" gradientUnits="userSpaceOnUse" gradientTransform="translate(61.3201 52.0147) rotate(121.846) scale(33.9854 38.6084)">
<stop stop-color="#4C3D70"/>
<stop offset="1" stop-color="#361C5D"/>
</radialGradient>
<radialGradient id="paint14_radial_234_2936" cx="0" cy="0" r="1" gradientUnits="userSpaceOnUse" gradientTransform="translate(54.3274 52.9113) rotate(87.1376) scale(43.0894 63.986)">
<stop offset="0.647365" stop-color="#5B2B84" stop-opacity="0"/>
<stop offset="1" stop-color="#5B2B84"/>
</radialGradient>
<radialGradient id="paint15_radial_234_2936" cx="0" cy="0" r="1" gradientUnits="userSpaceOnUse" gradientTransform="translate(44.6443 96.3055) rotate(-99.5135) scale(66.1809 65.5388)">
<stop offset="0.858612" stop-color="#2E1D57" stop-opacity="0"/>
<stop offset="1" stop-color="#20143D"/>
</radialGradient>
<radialGradient id="paint16_radial_234_2936" cx="0" cy="0" r="1" gradientUnits="userSpaceOnUse" gradientTransform="translate(50.2031 48.6077) rotate(102.225) scale(44.0342 41.3275)">
<stop offset="0.872281" stop-color="#2E1D57" stop-opacity="0"/>
<stop offset="1" stop-color="#20143D" stop-opacity="0.6"/>
</radialGradient>
<linearGradient id="paint17_linear_234_2936" x1="12.3254" y1="3.05074" x2="4.32927" y2="21.1946" gradientUnits="userSpaceOnUse">
<stop stop-color="white"/>
<stop offset="0.973958" stop-color="white" stop-opacity="0"/>
</linearGradient>
<radialGradient id="paint18_radial_234_2936" cx="0" cy="0" r="1" gradientUnits="userSpaceOnUse" gradientTransform="translate(141.476 49.6836) rotate(121.289) scale(37.9798 57.0493)">
<stop stop-color="#4C3D70"/>
<stop offset="1" stop-color="#361C5D"/>
</radialGradient>
<radialGradient id="paint19_radial_234_2936" cx="0" cy="0" r="1" gradientUnits="userSpaceOnUse" gradientTransform="translate(129.282 52.9113) rotate(92.8624) scale(43.0894 63.986)">
<stop offset="0.647365" stop-color="#5B2B84" stop-opacity="0"/>
<stop offset="1" stop-color="#5B2B84"/>
</radialGradient>
<radialGradient id="paint20_radial_234_2936" cx="0" cy="0" r="1" gradientUnits="userSpaceOnUse" gradientTransform="translate(137.25 88.595) rotate(-77.6021) scale(58.9345 58.3627)">
<stop offset="0.858612" stop-color="#2E1D57" stop-opacity="0"/>
<stop offset="1" stop-color="#20143D"/>
</radialGradient>
<radialGradient id="paint21_radial_234_2936" cx="0" cy="0" r="1" gradientUnits="userSpaceOnUse" gradientTransform="translate(133.406 48.6077) rotate(77.7747) scale(44.0342 41.3275)">
<stop offset="0.872281" stop-color="#2E1D57" stop-opacity="0"/>
<stop offset="1" stop-color="#20143D" stop-opacity="0.6"/>
</radialGradient>
<linearGradient id="paint22_linear_234_2936" x1="12.3254" y1="3.05074" x2="4.32926" y2="21.1946" gradientUnits="userSpaceOnUse">
<stop stop-color="white"/>
<stop offset="0.973958" stop-color="white" stop-opacity="0"/>
</linearGradient>
</defs>
</svg>
