<svg width="277" height="271" viewBox="0 0 277 271" fill="none" xmlns="http://www.w3.org/2000/svg">
<path d="M71.7833 267.492C88.3882 271.261 112.641 267.198 120.016 263.687C132.844 257.581 140.055 250.859 151.316 250.859C166.065 250.859 198.522 265.227 220.073 265.227C252.738 265.227 262.148 241.623 262.148 223.151C262.148 196.605 249.295 176.835 258.069 162.066C271.568 142.205 283.704 108.639 266.478 86.3346C253.309 69.283 222.884 74.3697 217.045 55.3114C213.358 43.2747 202.421 22.1022 186.409 12.6097C154.962 -6.03337 117.073 0.958695 99.9172 25.2512C79.3731 54.3408 84.2151 53.8075 56.8229 55.3114C34.7352 56.524 14.6432 71.2886 9.37541 78.8116C1.35522 90.2653 -2.11988 116.061 9.37553 135.336C21.7898 156.152 36.8056 156.08 36.8056 183.13C36.8056 210.18 26.1163 218.02 31.0306 236.794C34.4922 250.018 41.3659 260.587 71.7833 267.492Z" fill="#00DCEA" stroke="black" stroke-width="4" stroke-linecap="round"/>
</svg>
