<svg width="277" height="271" viewBox="0 0 277 271" fill="none" xmlns="http://www.w3.org/2000/svg">
<path d="M71.7844 267.492C88.3895 271.261 112.643 267.198 120.018 263.687C132.846 257.581 140.057 250.859 151.318 250.859C166.068 250.859 198.525 265.227 220.076 265.227C252.742 265.227 262.152 241.623 262.152 223.151C262.152 196.605 249.299 176.835 258.073 162.066C271.572 142.205 283.709 108.639 266.482 86.3346C253.313 69.283 222.887 74.3697 217.049 55.3114C213.361 43.2747 202.424 22.1022 186.412 12.6097C154.965 -6.03337 117.075 0.958695 99.9187 25.2512C79.3743 54.3408 84.2163 53.8075 56.8237 55.3114C34.7357 56.524 14.6433 71.2886 9.37553 78.8116C1.35521 90.2653 -2.11994 116.061 9.37564 135.336C21.7901 156.152 36.8061 156.08 36.8061 183.13C36.8061 210.18 26.1167 218.02 31.031 236.794C34.4927 250.018 41.3665 260.587 71.7844 267.492Z" fill="#00DCEA" stroke="black" stroke-width="4" stroke-linecap="round"/>
</svg>
