<svg width="1440" height="187" viewBox="0 0 1440 187" fill="none" xmlns="http://www.w3.org/2000/svg">
<path d="M1444 169.299C1436.95 169.299 1353.34 182.938 1313.05 181.801C1272.76 180.664 1210.31 157.366 1172.03 157.366C1133.76 157.366 1076.34 181.801 1031.01 181.801C995.253 181.801 916.684 157.366 869.342 157.366C821.999 157.366 795.15 182.621 718.752 182.938C643.033 183.252 621.548 157.366 566.651 157.366C516.287 157.366 480.528 181.801 427.142 181.801C390.879 181.801 303.749 157.366 265.472 157.366C220.144 157.366 166.757 181.801 124.451 182.938C82.1451 184.074 -2.97084 169.299 -7 169.299V-8H1444V169.299Z" fill="#FFFAED" stroke="#00DCEA" stroke-width="8"/>
</svg>
