<svg width="32" height="32" viewBox="0 0 32 32" fill="none" xmlns="http://www.w3.org/2000/svg">
<g id="basil:add-outline">
<path id="Vector" d="M9.34277 16C9.34277 15.7348 9.44813 15.4804 9.63567 15.2929C9.8232 15.1054 10.0776 15 10.3428 15H15.0001V10.3427C15.0001 10.0775 15.1055 9.8231 15.293 9.63556C15.4805 9.44802 15.7349 9.34267 16.0001 9.34267C16.2653 9.34267 16.5197 9.44802 16.7072 9.63556C16.8947 9.8231 17.0001 10.0775 17.0001 10.3427V15H21.6574C21.9227 15 22.177 15.1054 22.3645 15.2929C22.5521 15.4804 22.6574 15.7348 22.6574 16C22.6574 16.2652 22.5521 16.5196 22.3645 16.7071C22.177 16.8946 21.9227 17 21.6574 17H17.0001V21.6573C17.0001 21.9226 16.8947 22.1769 16.7072 22.3644C16.5197 22.552 16.2653 22.6573 16.0001 22.6573C15.7349 22.6573 15.4805 22.552 15.293 22.3644C15.1055 22.1769 15.0001 21.9226 15.0001 21.6573V17H10.3428C10.0776 17 9.8232 16.8946 9.63567 16.7071C9.44813 16.5196 9.34277 16.2652 9.34277 16Z" fill="black"/>
<path id="Vector_2" fill-rule="evenodd" clip-rule="evenodd" d="M9.75595 5.02534C13.9059 4.56528 18.094 4.56528 22.244 5.02534C24.68 5.29734 26.6466 7.21601 26.932 9.66534C27.4253 13.8747 27.4253 18.1267 26.932 22.336C26.6453 24.7853 24.6786 26.7027 22.244 26.976C18.094 27.4361 13.9059 27.4361 9.75595 26.976C7.31995 26.7027 5.35329 24.7853 5.06795 22.336C4.57566 18.1268 4.57566 13.8745 5.06795 9.66534C5.35329 7.21601 7.32129 5.29734 9.75595 5.02534ZM22.0226 7.01201C18.0198 6.56832 13.9801 6.56832 9.97729 7.01201C9.23628 7.09421 8.54462 7.42384 8.01406 7.94763C7.48349 8.47142 7.14501 9.15878 7.05329 9.89867C6.57908 13.9533 6.57908 18.0494 7.05329 22.104C7.14529 22.8437 7.48389 23.5307 8.01443 24.0542C8.54497 24.5778 9.23647 24.9072 9.97729 24.9893C13.9466 25.432 18.0533 25.432 22.0226 24.9893C22.7632 24.9069 23.4544 24.5774 23.9847 24.0539C24.5149 23.5304 24.8533 22.8435 24.9453 22.104C25.4195 18.0494 25.4195 13.9533 24.9453 9.89867C24.8531 9.15946 24.5145 8.47287 23.9843 7.94964C23.454 7.4264 22.763 7.09704 22.0226 7.01467" fill="black"/>
</g>
</svg>
