<svg width="32" height="32" viewBox="0 0 32 32" fill="none" xmlns="http://www.w3.org/2000/svg">
<g id="tabler:edit">
<g id="Group">
<path id="Vector" d="M9.33325 9.33334H7.99992C7.29267 9.33334 6.6144 9.61429 6.1143 10.1144C5.6142 10.6145 5.33325 11.2928 5.33325 12V24C5.33325 24.7073 5.6142 25.3855 6.1143 25.8856C6.6144 26.3857 7.29267 26.6667 7.99992 26.6667H19.9999C20.7072 26.6667 21.3854 26.3857 21.8855 25.8856C22.3856 25.3855 22.6666 24.7073 22.6666 24V22.6667" stroke="black" stroke-width="2.66667" stroke-linecap="round" stroke-linejoin="round"/>
<path id="Vector_2" d="M21.3333 6.66667L25.3333 10.6667M27.18 8.78001C27.7051 8.25488 28.0001 7.54265 28.0001 6.80001C28.0001 6.05736 27.7051 5.34513 27.18 4.82001C26.6549 4.29488 25.9426 3.99986 25.2 3.99986C24.4574 3.99986 23.7451 4.29488 23.22 4.82001L12 16V20H16L27.18 8.78001Z" stroke="black" stroke-width="2.66667" stroke-linecap="round" stroke-linejoin="round"/>
</g>
</g>
</svg>
